%TF.GenerationSoftware,KiCad,Pcbnew,7.0.5*%
%TF.CreationDate,2023-06-03T10:58:51+02:00*%
%TF.ProjectId,electronix,656c6563-7472-46f6-9e69-782e6b696361,rev?*%
%TF.SameCoordinates,Original*%
%TF.FileFunction,Legend,Bot*%
%TF.FilePolarity,Positive*%
%FSLAX46Y46*%
G04 Gerber Fmt 4.6, Leading zero omitted, Abs format (unit mm)*
G04 Created by KiCad (PCBNEW 7.0.5) date 2023-06-03 10:58:51*
%MOMM*%
%LPD*%
G01*
G04 APERTURE LIST*
G04 Aperture macros list*
%AMRoundRect*
0 Rectangle with rounded corners*
0 $1 Rounding radius*
0 $2 $3 $4 $5 $6 $7 $8 $9 X,Y pos of 4 corners*
0 Add a 4 corners polygon primitive as box body*
4,1,4,$2,$3,$4,$5,$6,$7,$8,$9,$2,$3,0*
0 Add four circle primitives for the rounded corners*
1,1,$1+$1,$2,$3*
1,1,$1+$1,$4,$5*
1,1,$1+$1,$6,$7*
1,1,$1+$1,$8,$9*
0 Add four rect primitives between the rounded corners*
20,1,$1+$1,$2,$3,$4,$5,0*
20,1,$1+$1,$4,$5,$6,$7,0*
20,1,$1+$1,$6,$7,$8,$9,0*
20,1,$1+$1,$8,$9,$2,$3,0*%
%AMRotRect*
0 Rectangle, with rotation*
0 The origin of the aperture is its center*
0 $1 length*
0 $2 width*
0 $3 Rotation angle, in degrees counterclockwise*
0 Add horizontal line*
21,1,$1,$2,0,0,$3*%
G04 Aperture macros list end*
%ADD10C,0.200000*%
%ADD11C,0.150000*%
%ADD12C,0.400000*%
%ADD13R,1.800000X1.800000*%
%ADD14C,1.800000*%
%ADD15RoundRect,0.250000X0.750000X-0.600000X0.750000X0.600000X-0.750000X0.600000X-0.750000X-0.600000X0*%
%ADD16O,2.000000X1.700000*%
%ADD17C,1.300000*%
%ADD18C,1.200000*%
%ADD19C,1.500000*%
%ADD20RoundRect,0.250000X-0.600000X-0.725000X0.600000X-0.725000X0.600000X0.725000X-0.600000X0.725000X0*%
%ADD21O,1.700000X1.950000*%
%ADD22RotRect,1.800000X1.800000X112.500000*%
%ADD23RotRect,1.800000X1.800000X247.500000*%
%ADD24C,1.850000*%
%ADD25C,2.010000*%
%ADD26R,1.700000X1.700000*%
%ADD27O,1.700000X1.700000*%
%ADD28O,4.000000X5.000000*%
%ADD29O,6.000000X5.000000*%
G04 APERTURE END LIST*
D10*
X140020802Y-133944838D02*
X140020802Y-135373409D01*
X140020802Y-135373409D02*
X140116041Y-135659123D01*
X140116041Y-135659123D02*
X140306517Y-135849600D01*
X140306517Y-135849600D02*
X140592231Y-135944838D01*
X140592231Y-135944838D02*
X140782707Y-135944838D01*
X138116040Y-135944838D02*
X139068421Y-135944838D01*
X139068421Y-135944838D02*
X139068421Y-133944838D01*
X136306516Y-135754361D02*
X136401754Y-135849600D01*
X136401754Y-135849600D02*
X136687468Y-135944838D01*
X136687468Y-135944838D02*
X136877944Y-135944838D01*
X136877944Y-135944838D02*
X137163659Y-135849600D01*
X137163659Y-135849600D02*
X137354135Y-135659123D01*
X137354135Y-135659123D02*
X137449373Y-135468647D01*
X137449373Y-135468647D02*
X137544611Y-135087695D01*
X137544611Y-135087695D02*
X137544611Y-134801980D01*
X137544611Y-134801980D02*
X137449373Y-134421028D01*
X137449373Y-134421028D02*
X137354135Y-134230552D01*
X137354135Y-134230552D02*
X137163659Y-134040076D01*
X137163659Y-134040076D02*
X136877944Y-133944838D01*
X136877944Y-133944838D02*
X136687468Y-133944838D01*
X136687468Y-133944838D02*
X136401754Y-134040076D01*
X136401754Y-134040076D02*
X136306516Y-134135314D01*
X134877944Y-133944838D02*
X134877944Y-135373409D01*
X134877944Y-135373409D02*
X134973183Y-135659123D01*
X134973183Y-135659123D02*
X135163659Y-135849600D01*
X135163659Y-135849600D02*
X135449373Y-135944838D01*
X135449373Y-135944838D02*
X135639849Y-135944838D01*
X132973182Y-135944838D02*
X133925563Y-135944838D01*
X133925563Y-135944838D02*
X133925563Y-133944838D01*
X131163658Y-135754361D02*
X131258896Y-135849600D01*
X131258896Y-135849600D02*
X131544610Y-135944838D01*
X131544610Y-135944838D02*
X131735086Y-135944838D01*
X131735086Y-135944838D02*
X132020801Y-135849600D01*
X132020801Y-135849600D02*
X132211277Y-135659123D01*
X132211277Y-135659123D02*
X132306515Y-135468647D01*
X132306515Y-135468647D02*
X132401753Y-135087695D01*
X132401753Y-135087695D02*
X132401753Y-134801980D01*
X132401753Y-134801980D02*
X132306515Y-134421028D01*
X132306515Y-134421028D02*
X132211277Y-134230552D01*
X132211277Y-134230552D02*
X132020801Y-134040076D01*
X132020801Y-134040076D02*
X131735086Y-133944838D01*
X131735086Y-133944838D02*
X131544610Y-133944838D01*
X131544610Y-133944838D02*
X131258896Y-134040076D01*
X131258896Y-134040076D02*
X131163658Y-134135314D01*
X129735086Y-133944838D02*
X129735086Y-135373409D01*
X129735086Y-135373409D02*
X129830325Y-135659123D01*
X129830325Y-135659123D02*
X130020801Y-135849600D01*
X130020801Y-135849600D02*
X130306515Y-135944838D01*
X130306515Y-135944838D02*
X130496991Y-135944838D01*
X127830324Y-135944838D02*
X128782705Y-135944838D01*
X128782705Y-135944838D02*
X128782705Y-133944838D01*
X126020800Y-135754361D02*
X126116038Y-135849600D01*
X126116038Y-135849600D02*
X126401752Y-135944838D01*
X126401752Y-135944838D02*
X126592228Y-135944838D01*
X126592228Y-135944838D02*
X126877943Y-135849600D01*
X126877943Y-135849600D02*
X127068419Y-135659123D01*
X127068419Y-135659123D02*
X127163657Y-135468647D01*
X127163657Y-135468647D02*
X127258895Y-135087695D01*
X127258895Y-135087695D02*
X127258895Y-134801980D01*
X127258895Y-134801980D02*
X127163657Y-134421028D01*
X127163657Y-134421028D02*
X127068419Y-134230552D01*
X127068419Y-134230552D02*
X126877943Y-134040076D01*
X126877943Y-134040076D02*
X126592228Y-133944838D01*
X126592228Y-133944838D02*
X126401752Y-133944838D01*
X126401752Y-133944838D02*
X126116038Y-134040076D01*
X126116038Y-134040076D02*
X126020800Y-134135314D01*
X124592228Y-133944838D02*
X124592228Y-135373409D01*
X124592228Y-135373409D02*
X124687467Y-135659123D01*
X124687467Y-135659123D02*
X124877943Y-135849600D01*
X124877943Y-135849600D02*
X125163657Y-135944838D01*
X125163657Y-135944838D02*
X125354133Y-135944838D01*
X122687466Y-135944838D02*
X123639847Y-135944838D01*
X123639847Y-135944838D02*
X123639847Y-133944838D01*
X120877942Y-135754361D02*
X120973180Y-135849600D01*
X120973180Y-135849600D02*
X121258894Y-135944838D01*
X121258894Y-135944838D02*
X121449370Y-135944838D01*
X121449370Y-135944838D02*
X121735085Y-135849600D01*
X121735085Y-135849600D02*
X121925561Y-135659123D01*
X121925561Y-135659123D02*
X122020799Y-135468647D01*
X122020799Y-135468647D02*
X122116037Y-135087695D01*
X122116037Y-135087695D02*
X122116037Y-134801980D01*
X122116037Y-134801980D02*
X122020799Y-134421028D01*
X122020799Y-134421028D02*
X121925561Y-134230552D01*
X121925561Y-134230552D02*
X121735085Y-134040076D01*
X121735085Y-134040076D02*
X121449370Y-133944838D01*
X121449370Y-133944838D02*
X121258894Y-133944838D01*
X121258894Y-133944838D02*
X120973180Y-134040076D01*
X120973180Y-134040076D02*
X120877942Y-134135314D01*
D11*
X157808500Y-124400000D02*
X156308500Y-124400000D01*
X157808500Y-123800000D02*
X156258500Y-123800000D01*
X157808500Y-123200000D02*
X156308500Y-123200000D01*
X157808500Y-121950000D02*
X156308500Y-121950000D01*
X157808500Y-121350000D02*
X156258500Y-121350000D01*
X157808500Y-120750000D02*
X156308500Y-120750000D01*
D10*
X157758500Y-125950000D02*
X159558500Y-125950000D01*
D11*
X157758500Y-125800000D02*
X156308500Y-125800000D01*
D10*
X157758500Y-125150000D02*
X159558500Y-125150000D01*
D11*
X156308500Y-122600000D02*
X157808500Y-122600000D01*
X156258500Y-125250000D02*
X157708500Y-125250000D01*
X155358500Y-123550000D02*
X153358500Y-123550000D01*
X155358500Y-122600000D02*
X153358500Y-122600000D01*
D10*
X155358500Y-122050000D02*
X155858500Y-122050000D01*
D11*
X155358500Y-122050000D02*
X153358500Y-122050000D01*
D10*
X155308500Y-123100000D02*
X155808500Y-123100000D01*
D11*
X155308500Y-123100000D02*
X153358500Y-123100000D01*
X155308500Y-121600000D02*
X153358500Y-121600000D01*
X155008500Y-126450000D02*
X153308500Y-126450000D01*
X155008500Y-126000000D02*
X153358500Y-126000000D01*
X155008500Y-125500000D02*
X153358500Y-125500000D01*
X155008500Y-125000000D02*
X153308500Y-125000000D01*
X155008500Y-124550000D02*
X153358500Y-124550000D01*
D10*
X161208500Y-119975000D02*
X160808500Y-119975000D01*
X160808500Y-119975000D02*
X160808500Y-131025000D01*
X160808500Y-131025000D02*
X161208500Y-131025000D01*
X161208500Y-131025000D02*
X161208500Y-119975000D01*
X160808500Y-123000000D02*
X159558500Y-123000000D01*
X159558500Y-123000000D02*
X159558500Y-128050000D01*
X159558500Y-128050000D02*
X160808500Y-128050000D01*
X160808500Y-128050000D02*
X160808500Y-123000000D01*
X157758500Y-124750000D02*
X156308500Y-124750000D01*
X156308500Y-124750000D02*
X156308500Y-126250000D01*
X156308500Y-126250000D02*
X157758500Y-126250000D01*
X157758500Y-126250000D02*
X157758500Y-124750000D01*
X156308500Y-120250000D02*
X157808500Y-120250000D01*
X157808500Y-120250000D02*
X157808500Y-124950000D01*
X157808500Y-124950000D02*
X156308500Y-124950000D01*
X156308500Y-124950000D02*
X156308500Y-120250000D01*
X156258500Y-119975000D02*
X155858500Y-119975000D01*
X155858500Y-119975000D02*
X155858500Y-131025000D01*
X155858500Y-131025000D02*
X156258500Y-131025000D01*
X156258500Y-131025000D02*
X156258500Y-119975000D01*
X155358500Y-121150000D02*
X153358500Y-121150000D01*
X153358500Y-121150000D02*
X153358500Y-124050000D01*
X153358500Y-124050000D02*
X155358500Y-124050000D01*
X155358500Y-124050000D02*
X155358500Y-121150000D01*
X155008500Y-124125000D02*
X153358500Y-124125000D01*
X153358500Y-124125000D02*
X153358500Y-126875000D01*
X153358500Y-126875000D02*
X155008500Y-126875000D01*
X155008500Y-126875000D02*
X155008500Y-124125000D01*
X153258500Y-119975000D02*
X152858500Y-119975000D01*
X152858500Y-119975000D02*
X152858500Y-131025000D01*
X152858500Y-131025000D02*
X153258500Y-131025000D01*
X153258500Y-131025000D02*
X153258500Y-119975000D01*
D12*
X134908500Y-119725000D02*
X152308500Y-119725000D01*
X152308500Y-119725000D02*
X152308500Y-131275000D01*
X152308500Y-131275000D02*
X134908500Y-131275000D01*
X134908500Y-131275000D02*
X134908500Y-119725000D01*
D10*
X132733500Y-129225000D02*
X133383500Y-129225000D01*
X133383500Y-129225000D02*
X133383500Y-129775000D01*
X133383500Y-129775000D02*
X132733500Y-129775000D01*
X132733500Y-129775000D02*
X132733500Y-129225000D01*
X132733500Y-127625000D02*
X133383500Y-127625000D01*
X133383500Y-127625000D02*
X133383500Y-128175000D01*
X133383500Y-128175000D02*
X132733500Y-128175000D01*
X132733500Y-128175000D02*
X132733500Y-127625000D01*
X132733500Y-126025000D02*
X133383500Y-126025000D01*
X133383500Y-126025000D02*
X133383500Y-126575000D01*
X133383500Y-126575000D02*
X132733500Y-126575000D01*
X132733500Y-126575000D02*
X132733500Y-126025000D01*
X132733500Y-124425000D02*
X133383500Y-124425000D01*
X133383500Y-124425000D02*
X133383500Y-124975000D01*
X133383500Y-124975000D02*
X132733500Y-124975000D01*
X132733500Y-124975000D02*
X132733500Y-124425000D01*
X132733500Y-122825000D02*
X133383500Y-122825000D01*
X133383500Y-122825000D02*
X133383500Y-123375000D01*
X133383500Y-123375000D02*
X132733500Y-123375000D01*
X132733500Y-123375000D02*
X132733500Y-122825000D01*
X132733500Y-121225000D02*
X133383500Y-121225000D01*
X133383500Y-121225000D02*
X133383500Y-121775000D01*
X133383500Y-121775000D02*
X132733500Y-121775000D01*
X132733500Y-121775000D02*
X132733500Y-121225000D01*
X131808500Y-120100000D02*
X134308500Y-120100000D01*
X134308500Y-120100000D02*
X134308500Y-130900000D01*
X134308500Y-130900000D02*
X131808500Y-130900000D01*
X131808500Y-130900000D02*
X131808500Y-120100000D01*
D12*
X138546000Y-84000000D02*
G75*
G03*
X138546000Y-84000000I-7500000J0D01*
G01*
D10*
X141046000Y-84000000D02*
G75*
G03*
X141046000Y-84000000I-10000000J0D01*
G01*
D11*
X104283500Y-126600000D02*
X105783500Y-126600000D01*
X104283500Y-127200000D02*
X105833500Y-127200000D01*
X104283500Y-127800000D02*
X105783500Y-127800000D01*
X104283500Y-129050000D02*
X105783500Y-129050000D01*
X104283500Y-129650000D02*
X105833500Y-129650000D01*
X104283500Y-130250000D02*
X105783500Y-130250000D01*
D10*
X104333500Y-125050000D02*
X102533500Y-125050000D01*
D11*
X104333500Y-125200000D02*
X105783500Y-125200000D01*
D10*
X104333500Y-125850000D02*
X102533500Y-125850000D01*
D11*
X105783500Y-128400000D02*
X104283500Y-128400000D01*
X105833500Y-125750000D02*
X104383500Y-125750000D01*
X106733500Y-127450000D02*
X108733500Y-127450000D01*
X106733500Y-128400000D02*
X108733500Y-128400000D01*
D10*
X106733500Y-128950000D02*
X106233500Y-128950000D01*
D11*
X106733500Y-128950000D02*
X108733500Y-128950000D01*
D10*
X106783500Y-127900000D02*
X106283500Y-127900000D01*
D11*
X106783500Y-127900000D02*
X108733500Y-127900000D01*
X106783500Y-129400000D02*
X108733500Y-129400000D01*
X107083500Y-124550000D02*
X108783500Y-124550000D01*
X107083500Y-125000000D02*
X108733500Y-125000000D01*
X107083500Y-125500000D02*
X108733500Y-125500000D01*
X107083500Y-126000000D02*
X108783500Y-126000000D01*
X107083500Y-126450000D02*
X108733500Y-126450000D01*
D10*
X100883500Y-131025000D02*
X101283500Y-131025000D01*
X101283500Y-131025000D02*
X101283500Y-119975000D01*
X101283500Y-119975000D02*
X100883500Y-119975000D01*
X100883500Y-119975000D02*
X100883500Y-131025000D01*
X101283500Y-128000000D02*
X102533500Y-128000000D01*
X102533500Y-128000000D02*
X102533500Y-122950000D01*
X102533500Y-122950000D02*
X101283500Y-122950000D01*
X101283500Y-122950000D02*
X101283500Y-128000000D01*
X104333500Y-126250000D02*
X105783500Y-126250000D01*
X105783500Y-126250000D02*
X105783500Y-124750000D01*
X105783500Y-124750000D02*
X104333500Y-124750000D01*
X104333500Y-124750000D02*
X104333500Y-126250000D01*
X105783500Y-130750000D02*
X104283500Y-130750000D01*
X104283500Y-130750000D02*
X104283500Y-126050000D01*
X104283500Y-126050000D02*
X105783500Y-126050000D01*
X105783500Y-126050000D02*
X105783500Y-130750000D01*
X105833500Y-131025000D02*
X106233500Y-131025000D01*
X106233500Y-131025000D02*
X106233500Y-119975000D01*
X106233500Y-119975000D02*
X105833500Y-119975000D01*
X105833500Y-119975000D02*
X105833500Y-131025000D01*
X106733500Y-129850000D02*
X108733500Y-129850000D01*
X108733500Y-129850000D02*
X108733500Y-126950000D01*
X108733500Y-126950000D02*
X106733500Y-126950000D01*
X106733500Y-126950000D02*
X106733500Y-129850000D01*
X107083500Y-126875000D02*
X108733500Y-126875000D01*
X108733500Y-126875000D02*
X108733500Y-124125000D01*
X108733500Y-124125000D02*
X107083500Y-124125000D01*
X107083500Y-124125000D02*
X107083500Y-126875000D01*
X108833500Y-131025000D02*
X109233500Y-131025000D01*
X109233500Y-131025000D02*
X109233500Y-119975000D01*
X109233500Y-119975000D02*
X108833500Y-119975000D01*
X108833500Y-119975000D02*
X108833500Y-131025000D01*
D12*
X127183500Y-131275000D02*
X109783500Y-131275000D01*
X109783500Y-131275000D02*
X109783500Y-119725000D01*
X109783500Y-119725000D02*
X127183500Y-119725000D01*
X127183500Y-119725000D02*
X127183500Y-131275000D01*
D10*
X129358500Y-121775000D02*
X128708500Y-121775000D01*
X128708500Y-121775000D02*
X128708500Y-121225000D01*
X128708500Y-121225000D02*
X129358500Y-121225000D01*
X129358500Y-121225000D02*
X129358500Y-121775000D01*
X129358500Y-123375000D02*
X128708500Y-123375000D01*
X128708500Y-123375000D02*
X128708500Y-122825000D01*
X128708500Y-122825000D02*
X129358500Y-122825000D01*
X129358500Y-122825000D02*
X129358500Y-123375000D01*
X129358500Y-124975000D02*
X128708500Y-124975000D01*
X128708500Y-124975000D02*
X128708500Y-124425000D01*
X128708500Y-124425000D02*
X129358500Y-124425000D01*
X129358500Y-124425000D02*
X129358500Y-124975000D01*
X129358500Y-126575000D02*
X128708500Y-126575000D01*
X128708500Y-126575000D02*
X128708500Y-126025000D01*
X128708500Y-126025000D02*
X129358500Y-126025000D01*
X129358500Y-126025000D02*
X129358500Y-126575000D01*
X129358500Y-128175000D02*
X128708500Y-128175000D01*
X128708500Y-128175000D02*
X128708500Y-127625000D01*
X128708500Y-127625000D02*
X129358500Y-127625000D01*
X129358500Y-127625000D02*
X129358500Y-128175000D01*
X129358500Y-129775000D02*
X128708500Y-129775000D01*
X128708500Y-129775000D02*
X128708500Y-129225000D01*
X128708500Y-129225000D02*
X129358500Y-129225000D01*
X129358500Y-129225000D02*
X129358500Y-129775000D01*
X130283500Y-130900000D02*
X127783500Y-130900000D01*
X127783500Y-130900000D02*
X127783500Y-120100000D01*
X127783500Y-120100000D02*
X130283500Y-120100000D01*
X130283500Y-120100000D02*
X130283500Y-130900000D01*
%LPC*%
D13*
X153878561Y-72730455D03*
D14*
X151338561Y-72730455D03*
D15*
X115800000Y-102025000D03*
D16*
X115800000Y-99525000D03*
D15*
X115775000Y-110525000D03*
D16*
X115775000Y-108025000D03*
D13*
X110744000Y-72597000D03*
D14*
X108204000Y-72597000D03*
D17*
X105750000Y-105750000D03*
X105750000Y-107750000D03*
D18*
X105750000Y-109750000D03*
D19*
X105750000Y-103750000D03*
X105750000Y-111750000D03*
D14*
X157257500Y-95057500D03*
X157257500Y-101457500D03*
X157275000Y-106467500D03*
X157275000Y-112867500D03*
D20*
X105000000Y-140750000D03*
D21*
X107500000Y-140750000D03*
X110000000Y-140750000D03*
X112500000Y-140750000D03*
X115000000Y-140750000D03*
X117500000Y-140750000D03*
D22*
X163127561Y-87957455D03*
D14*
X162155545Y-85610801D03*
D13*
X161127561Y-72754455D03*
D14*
X158587561Y-72754455D03*
D20*
X144500000Y-140750000D03*
D21*
X147000000Y-140750000D03*
X149500000Y-140750000D03*
X152000000Y-140750000D03*
X154500000Y-140750000D03*
X157000000Y-140750000D03*
D22*
X162877561Y-80957455D03*
D14*
X161905545Y-78610801D03*
D23*
X99841283Y-85406562D03*
D14*
X98869267Y-87753216D03*
D13*
X103494000Y-72597000D03*
D14*
X100954000Y-72597000D03*
D24*
X126430000Y-137550000D03*
D25*
X126430000Y-141350000D03*
D24*
X135070000Y-137550000D03*
D25*
X135070000Y-141350000D03*
D23*
X100091283Y-78406562D03*
D14*
X99119267Y-80753216D03*
D26*
X146750000Y-103850000D03*
D27*
X146750000Y-101310000D03*
X146750000Y-98770000D03*
X146750000Y-96230000D03*
X146750000Y-93690000D03*
X146750000Y-91150000D03*
D28*
X148358500Y-117000000D03*
X148358500Y-134000000D03*
D29*
X151046000Y-84000000D03*
X111046000Y-84000000D03*
D28*
X113733500Y-134000000D03*
X113733500Y-117000000D03*
%LPD*%
M02*
