%TF.GenerationSoftware,KiCad,Pcbnew,7.0.5*%
%TF.CreationDate,2023-06-03T10:53:18+02:00*%
%TF.ProjectId,electronix,656c6563-7472-46f6-9e69-782e6b696361,rev?*%
%TF.SameCoordinates,Original*%
%TF.FileFunction,Copper,L2,Bot*%
%TF.FilePolarity,Positive*%
%FSLAX46Y46*%
G04 Gerber Fmt 4.6, Leading zero omitted, Abs format (unit mm)*
G04 Created by KiCad (PCBNEW 7.0.5) date 2023-06-03 10:53:18*
%MOMM*%
%LPD*%
G01*
G04 APERTURE LIST*
G04 Aperture macros list*
%AMRoundRect*
0 Rectangle with rounded corners*
0 $1 Rounding radius*
0 $2 $3 $4 $5 $6 $7 $8 $9 X,Y pos of 4 corners*
0 Add a 4 corners polygon primitive as box body*
4,1,4,$2,$3,$4,$5,$6,$7,$8,$9,$2,$3,0*
0 Add four circle primitives for the rounded corners*
1,1,$1+$1,$2,$3*
1,1,$1+$1,$4,$5*
1,1,$1+$1,$6,$7*
1,1,$1+$1,$8,$9*
0 Add four rect primitives between the rounded corners*
20,1,$1+$1,$2,$3,$4,$5,0*
20,1,$1+$1,$4,$5,$6,$7,0*
20,1,$1+$1,$6,$7,$8,$9,0*
20,1,$1+$1,$8,$9,$2,$3,0*%
%AMRotRect*
0 Rectangle, with rotation*
0 The origin of the aperture is its center*
0 $1 length*
0 $2 width*
0 $3 Rotation angle, in degrees counterclockwise*
0 Add horizontal line*
21,1,$1,$2,0,0,$3*%
G04 Aperture macros list end*
%TA.AperFunction,ComponentPad*%
%ADD10R,1.800000X1.800000*%
%TD*%
%TA.AperFunction,ComponentPad*%
%ADD11C,1.800000*%
%TD*%
%TA.AperFunction,ComponentPad*%
%ADD12RoundRect,0.250000X0.750000X-0.600000X0.750000X0.600000X-0.750000X0.600000X-0.750000X-0.600000X0*%
%TD*%
%TA.AperFunction,ComponentPad*%
%ADD13O,2.000000X1.700000*%
%TD*%
%TA.AperFunction,ComponentPad*%
%ADD14C,1.300000*%
%TD*%
%TA.AperFunction,ComponentPad*%
%ADD15C,1.200000*%
%TD*%
%TA.AperFunction,ComponentPad*%
%ADD16C,1.500000*%
%TD*%
%TA.AperFunction,HeatsinkPad*%
%ADD17C,0.600000*%
%TD*%
%TA.AperFunction,ComponentPad*%
%ADD18RoundRect,0.250000X-0.600000X-0.725000X0.600000X-0.725000X0.600000X0.725000X-0.600000X0.725000X0*%
%TD*%
%TA.AperFunction,ComponentPad*%
%ADD19O,1.700000X1.950000*%
%TD*%
%TA.AperFunction,ComponentPad*%
%ADD20RotRect,1.800000X1.800000X112.500000*%
%TD*%
%TA.AperFunction,ComponentPad*%
%ADD21C,0.500000*%
%TD*%
%TA.AperFunction,SMDPad,CuDef*%
%ADD22R,1.650000X2.380000*%
%TD*%
%TA.AperFunction,ComponentPad*%
%ADD23RotRect,1.800000X1.800000X247.500000*%
%TD*%
%TA.AperFunction,ComponentPad*%
%ADD24C,1.850000*%
%TD*%
%TA.AperFunction,ComponentPad*%
%ADD25C,2.010000*%
%TD*%
%TA.AperFunction,ComponentPad*%
%ADD26R,1.700000X1.700000*%
%TD*%
%TA.AperFunction,ComponentPad*%
%ADD27O,1.700000X1.700000*%
%TD*%
%TA.AperFunction,ComponentPad*%
%ADD28O,4.000000X5.000000*%
%TD*%
%TA.AperFunction,ComponentPad*%
%ADD29O,6.000000X5.000000*%
%TD*%
%TA.AperFunction,ViaPad*%
%ADD30C,0.600000*%
%TD*%
%TA.AperFunction,Conductor*%
%ADD31C,0.400000*%
%TD*%
%TA.AperFunction,Conductor*%
%ADD32C,1.000000*%
%TD*%
%TA.AperFunction,Conductor*%
%ADD33C,0.600000*%
%TD*%
G04 APERTURE END LIST*
D10*
X153878561Y-72730455D03*
D11*
X151338561Y-72730455D03*
D12*
X115800000Y-102025000D03*
D13*
X115800000Y-99525000D03*
D12*
X115775000Y-110525000D03*
D13*
X115775000Y-108025000D03*
D10*
X110744000Y-72597000D03*
D11*
X108204000Y-72597000D03*
D14*
X105750000Y-105750000D03*
X105750000Y-107750000D03*
D15*
X105750000Y-109750000D03*
D16*
X105750000Y-103750000D03*
X105750000Y-111750000D03*
D11*
X157257500Y-95057500D03*
X157257500Y-101457500D03*
X157275000Y-106467500D03*
X157275000Y-112867500D03*
D17*
X128841000Y-82108500D03*
X128841000Y-83633500D03*
X129603500Y-81346000D03*
X129603500Y-82871000D03*
X129603500Y-84396000D03*
X130366000Y-82108500D03*
X130366000Y-83633500D03*
X131128500Y-81346000D03*
X131128500Y-82871000D03*
X131128500Y-84396000D03*
X131891000Y-82108500D03*
X131891000Y-83633500D03*
D18*
X105000000Y-140750000D03*
D19*
X107500000Y-140750000D03*
X110000000Y-140750000D03*
X112500000Y-140750000D03*
X115000000Y-140750000D03*
X117500000Y-140750000D03*
D20*
X163127561Y-87957455D03*
D11*
X162155545Y-85610801D03*
D10*
X161127561Y-72754455D03*
D11*
X158587561Y-72754455D03*
D18*
X144500000Y-140750000D03*
D19*
X147000000Y-140750000D03*
X149500000Y-140750000D03*
X152000000Y-140750000D03*
X154500000Y-140750000D03*
X157000000Y-140750000D03*
D21*
X130844000Y-129407000D03*
X130844000Y-130347000D03*
X130844000Y-131287000D03*
D22*
X131419000Y-130347000D03*
D21*
X131994000Y-129407000D03*
X131994000Y-130347000D03*
X131994000Y-131287000D03*
D20*
X162877561Y-80957455D03*
D11*
X161905545Y-78610801D03*
D23*
X99841283Y-85406562D03*
D11*
X98869267Y-87753216D03*
D10*
X103494000Y-72597000D03*
D11*
X100954000Y-72597000D03*
D24*
X126430000Y-137550000D03*
D25*
X126430000Y-141350000D03*
D24*
X135070000Y-137550000D03*
D25*
X135070000Y-141350000D03*
D23*
X100091283Y-78406562D03*
D11*
X99119267Y-80753216D03*
D26*
X146750000Y-103850000D03*
D27*
X146750000Y-101310000D03*
X146750000Y-98770000D03*
X146750000Y-96230000D03*
X146750000Y-93690000D03*
X146750000Y-91150000D03*
D28*
X148358500Y-117000000D03*
X148358500Y-134000000D03*
D29*
X151046000Y-84000000D03*
X111046000Y-84000000D03*
D28*
X113733500Y-134000000D03*
X113733500Y-117000000D03*
D30*
X149700000Y-111500000D03*
X145400000Y-111500000D03*
X140900000Y-111500000D03*
X140800000Y-107600000D03*
X131200000Y-126500000D03*
X123500000Y-126500000D03*
X123500000Y-118000000D03*
X129500000Y-113200000D03*
X125500000Y-108700000D03*
X125500000Y-113200000D03*
X121300000Y-108700000D03*
X121300000Y-103400000D03*
X121300000Y-99800000D03*
X121200000Y-95800000D03*
X113900000Y-99600000D03*
X123500000Y-122600000D03*
X123500000Y-121400000D03*
X123500000Y-120200000D03*
X130800000Y-122200000D03*
X128300000Y-123400000D03*
X129600000Y-123400000D03*
X130800000Y-123400000D03*
X139700000Y-117100000D03*
X139600000Y-119300000D03*
X139500000Y-114500000D03*
X128200000Y-131000000D03*
X121200000Y-111400000D03*
X122100000Y-111400000D03*
X109300000Y-93300000D03*
X109300000Y-94200000D03*
X109300000Y-95100000D03*
X109300000Y-96000000D03*
X122100000Y-110500000D03*
X121200000Y-110500000D03*
X127600000Y-130400000D03*
X128900000Y-130400000D03*
X126900000Y-131000000D03*
X129000000Y-141500000D03*
X101400000Y-121400000D03*
X147900000Y-97500000D03*
X145000000Y-137000000D03*
X148100000Y-102300000D03*
X129000000Y-119750000D03*
X112500000Y-88000000D03*
X160750000Y-104250000D03*
X101400000Y-136600000D03*
X142200000Y-96400000D03*
X101400000Y-116500000D03*
X132500000Y-90750000D03*
X132500000Y-76500000D03*
X126000000Y-121000000D03*
X116450000Y-131350000D03*
X159750000Y-136750000D03*
X92500000Y-71500000D03*
X147500000Y-126500000D03*
X147400000Y-87100000D03*
X152750000Y-66750000D03*
X151500000Y-143000000D03*
X97500000Y-76500000D03*
X112500000Y-121500000D03*
X151500000Y-105500000D03*
X97500000Y-71500000D03*
X107200000Y-93600000D03*
X102500000Y-66500000D03*
X143300000Y-82300000D03*
X152500000Y-126500000D03*
X100300000Y-82900000D03*
X112500000Y-66500000D03*
X92500000Y-81500000D03*
X106500000Y-130900000D03*
X163500000Y-71000000D03*
X163500000Y-66500000D03*
X112500000Y-106500000D03*
X133750000Y-133500000D03*
X112500000Y-71500000D03*
X106900000Y-96500000D03*
X156250000Y-86250000D03*
X160250000Y-88250000D03*
X97500000Y-86500000D03*
X136300000Y-74900000D03*
X142250000Y-141000000D03*
X128600000Y-103800000D03*
X139300000Y-128400000D03*
X157257500Y-97907500D03*
X147500000Y-129400000D03*
X112800000Y-77900000D03*
X121400000Y-134700000D03*
X113700000Y-75300000D03*
X151700000Y-131800000D03*
X135400000Y-124100000D03*
X112250000Y-137250000D03*
X125250000Y-98000000D03*
X138000000Y-77250000D03*
X106100000Y-116500000D03*
X116700000Y-112400000D03*
X167500000Y-71500000D03*
X101400000Y-101500000D03*
X102500000Y-76500000D03*
X101400000Y-131500000D03*
X129250000Y-133000000D03*
X152000000Y-76500000D03*
X160800000Y-93900000D03*
X112500000Y-126500000D03*
X92500000Y-86500000D03*
X140400000Y-137500000D03*
X135800000Y-133800000D03*
X116350000Y-126450000D03*
X159750000Y-131250000D03*
X101400000Y-126600000D03*
X158000000Y-66500000D03*
X120750000Y-143250000D03*
X163200000Y-82800000D03*
X152500000Y-121500000D03*
X132500000Y-106500000D03*
X92500000Y-76500000D03*
X101500000Y-87250000D03*
X150900000Y-136400000D03*
X135400000Y-106600000D03*
X106200000Y-101700000D03*
X106100000Y-121500000D03*
X157500000Y-121500000D03*
X147500000Y-81500000D03*
X130400000Y-103000000D03*
X147500000Y-121500000D03*
X129000000Y-121000000D03*
X131100000Y-103700000D03*
X106500000Y-79250000D03*
X168300000Y-80900000D03*
X122500000Y-136500000D03*
X135400000Y-104100000D03*
X97500000Y-66500000D03*
X156900000Y-80000000D03*
X163800000Y-77100000D03*
X107500000Y-66500000D03*
X107400000Y-143900000D03*
X116600000Y-136700000D03*
X110500000Y-80250000D03*
X157500000Y-126500000D03*
X105200000Y-86700000D03*
X116450000Y-121450000D03*
X143600000Y-120000000D03*
X153200000Y-91100000D03*
X112900000Y-101600000D03*
X132500000Y-141500000D03*
X143200000Y-87300000D03*
X113750000Y-79750000D03*
X167500000Y-86500000D03*
X105500000Y-89250000D03*
X112500000Y-111500000D03*
X152500000Y-116500000D03*
X108200000Y-137200000D03*
X160800000Y-113900000D03*
X127500000Y-90750000D03*
X152500000Y-71000000D03*
X167500000Y-76500000D03*
X101400000Y-96500000D03*
X132800000Y-102200000D03*
X97500000Y-81500000D03*
X110200000Y-96000000D03*
X106200000Y-126600000D03*
X148500000Y-107400000D03*
X147900000Y-92400000D03*
X133500000Y-132250000D03*
X159750000Y-143000000D03*
X126300000Y-99900000D03*
X129250000Y-135000000D03*
X132500000Y-86500000D03*
X111100000Y-96000000D03*
X127500000Y-76500000D03*
X101400000Y-91500000D03*
X143500000Y-116200000D03*
X151900000Y-101400000D03*
X147750000Y-76500000D03*
X127500000Y-86500000D03*
X158000000Y-71000000D03*
X111750000Y-131000000D03*
X101400000Y-142300000D03*
X140700000Y-124600000D03*
X153000000Y-76051900D03*
X113300000Y-76250000D03*
X104250000Y-76250000D03*
X102100000Y-83500000D03*
X158250000Y-76500000D03*
X146500000Y-85691000D03*
X151800000Y-97300000D03*
X141400000Y-82000000D03*
X131000000Y-100500000D03*
X133067356Y-100123500D03*
X141400000Y-78000000D03*
X141200000Y-87000000D03*
X138600000Y-97300000D03*
X119600000Y-86900000D03*
X156200000Y-134200000D03*
X156200000Y-132600000D03*
X120373500Y-88000000D03*
X108400000Y-134200000D03*
X115400000Y-84500000D03*
X107300000Y-131500000D03*
X114600000Y-85700000D03*
X144600000Y-79600000D03*
X145600000Y-80600000D03*
X119400000Y-83151000D03*
X118500000Y-81881000D03*
X116200000Y-80700000D03*
X117600000Y-79341000D03*
X139837000Y-93037000D03*
X141500000Y-101900000D03*
X135100000Y-95000000D03*
X136648100Y-95000000D03*
X127250000Y-92000000D03*
X122750000Y-93500000D03*
X143800000Y-78200000D03*
X143800000Y-88200000D03*
X139750000Y-96473000D03*
X140600000Y-103800000D03*
X120600000Y-78100000D03*
X127750000Y-96473000D03*
D31*
X143800000Y-78200000D02*
X143800000Y-79800000D01*
X143800000Y-79800000D02*
X144300000Y-80300000D01*
X144300000Y-80300000D02*
X144300000Y-87700000D01*
X144300000Y-87700000D02*
X143800000Y-88200000D01*
X146750000Y-98770000D02*
X144900000Y-96920000D01*
X144900000Y-96920000D02*
X144900000Y-79900000D01*
X144900000Y-79900000D02*
X144600000Y-79600000D01*
X146500000Y-85691000D02*
X146500000Y-87900000D01*
X146500000Y-87900000D02*
X151800000Y-93200000D01*
X151800000Y-93200000D02*
X151800000Y-97300000D01*
X133067356Y-100123500D02*
X134776500Y-100123500D01*
X134776500Y-100123500D02*
X137300000Y-97600000D01*
X137300000Y-97600000D02*
X137300000Y-79000000D01*
X137300000Y-79000000D02*
X138300000Y-78000000D01*
X138300000Y-78000000D02*
X141400000Y-78000000D01*
X131000000Y-100500000D02*
X132521223Y-100500000D01*
X132521223Y-100500000D02*
X132797123Y-100775900D01*
X132797123Y-100775900D02*
X134924100Y-100775900D01*
X134924100Y-100775900D02*
X137900000Y-97800000D01*
X137900000Y-97800000D02*
X137900000Y-82700000D01*
X137900000Y-82700000D02*
X138600000Y-82000000D01*
X138600000Y-82000000D02*
X141400000Y-82000000D01*
X141500000Y-101900000D02*
X140427000Y-100827000D01*
X140427000Y-100827000D02*
X140427000Y-93627000D01*
X140427000Y-93627000D02*
X139837000Y-93037000D01*
X140600000Y-103800000D02*
X139900000Y-103100000D01*
X139900000Y-103100000D02*
X139900000Y-96623000D01*
X139900000Y-96623000D02*
X139750000Y-96473000D01*
D32*
X161127561Y-72754455D02*
X159900000Y-73982016D01*
X159900000Y-73982016D02*
X159900000Y-86500000D01*
X159900000Y-86500000D02*
X161357455Y-87957455D01*
X161357455Y-87957455D02*
X163127561Y-87957455D01*
D33*
X102100000Y-83500000D02*
X104250000Y-81350000D01*
X104250000Y-81350000D02*
X104250000Y-76250000D01*
D32*
X115800000Y-102025000D02*
X115800000Y-108000000D01*
D33*
X119600000Y-86900000D02*
X119400000Y-87100000D01*
X119400000Y-87100000D02*
X119400000Y-137000000D01*
X150752000Y-139348000D02*
X155900000Y-134200000D01*
X119400000Y-137000000D02*
X122300000Y-139900000D01*
X122300000Y-139900000D02*
X142800000Y-139900000D01*
X142800000Y-139900000D02*
X143352000Y-139348000D01*
X143352000Y-139348000D02*
X150752000Y-139348000D01*
X155900000Y-134200000D02*
X156200000Y-134200000D01*
X120373500Y-88000000D02*
X120200000Y-88173500D01*
X120200000Y-136600000D02*
X122700000Y-139100000D01*
X120200000Y-88173500D02*
X120200000Y-136600000D01*
X122700000Y-139100000D02*
X142400000Y-139100000D01*
X142400000Y-139100000D02*
X143000000Y-138500000D01*
X143000000Y-138500000D02*
X150300000Y-138500000D01*
X150300000Y-138500000D02*
X156200000Y-132600000D01*
X119400000Y-83151000D02*
X118600000Y-83951000D01*
X118600000Y-83951000D02*
X118600000Y-137400000D01*
X147050000Y-143200000D02*
X149500000Y-140750000D01*
X118600000Y-137400000D02*
X124400000Y-143200000D01*
X124400000Y-143200000D02*
X147050000Y-143200000D01*
X118500000Y-81881000D02*
X117800000Y-82581000D01*
X117800000Y-82581000D02*
X117800000Y-137800000D01*
X117800000Y-137800000D02*
X124100000Y-144100000D01*
X124100000Y-144100000D02*
X148650000Y-144100000D01*
X148650000Y-144100000D02*
X152000000Y-140750000D01*
X117600000Y-79341000D02*
X117000000Y-79941000D01*
X117000000Y-79941000D02*
X117000000Y-94700000D01*
X117000000Y-94700000D02*
X109900000Y-101800000D01*
X109900000Y-101800000D02*
X109900000Y-138100000D01*
X109900000Y-138100000D02*
X112500000Y-140700000D01*
X116200000Y-80700000D02*
X116200000Y-94300000D01*
X116200000Y-94300000D02*
X109000000Y-101500000D01*
X109000000Y-101500000D02*
X109000000Y-133771866D01*
X109000000Y-133771866D02*
X109127000Y-133898866D01*
X109127000Y-133898866D02*
X109127000Y-134501134D01*
X109000000Y-139750000D02*
X110000000Y-140750000D01*
X109127000Y-134501134D02*
X109000000Y-134628134D01*
X109000000Y-134628134D02*
X109000000Y-139750000D01*
X115400000Y-84500000D02*
X115400000Y-93900000D01*
X115400000Y-93900000D02*
X108200000Y-101100000D01*
X108200000Y-101100000D02*
X108200000Y-134000000D01*
X108200000Y-134000000D02*
X108400000Y-134200000D01*
X114600000Y-85700000D02*
X114600000Y-93600000D01*
X114600000Y-93600000D02*
X107400000Y-100800000D01*
X107400000Y-131400000D02*
X107300000Y-131500000D01*
X107400000Y-100800000D02*
X107400000Y-131400000D01*
D31*
X120600000Y-78100000D02*
X121000000Y-78500000D01*
X121000000Y-78500000D02*
X121000000Y-93750000D01*
X121000000Y-93750000D02*
X123723000Y-96473000D01*
X123723000Y-96473000D02*
X127750000Y-96473000D01*
D33*
X113300000Y-76250000D02*
X104250000Y-76250000D01*
D31*
X153198100Y-76250000D02*
X158000000Y-76250000D01*
X158000000Y-76250000D02*
X158250000Y-76500000D01*
X153000000Y-76051900D02*
X153198100Y-76250000D01*
X138600000Y-97300000D02*
X138500000Y-97200000D01*
X138800000Y-87000000D02*
X141200000Y-87000000D01*
X138500000Y-97200000D02*
X138500000Y-87300000D01*
X138500000Y-87300000D02*
X138800000Y-87000000D01*
X145500000Y-80700000D02*
X145500000Y-94980000D01*
X145600000Y-80600000D02*
X145500000Y-80700000D01*
X145500000Y-94980000D02*
X146750000Y-96230000D01*
X135486788Y-95000000D02*
X135700000Y-94786788D01*
X102857000Y-74500000D02*
X100954000Y-72597000D01*
X135700000Y-94786788D02*
X135700000Y-76500000D01*
X135100000Y-95000000D02*
X135486788Y-95000000D01*
X135700000Y-76500000D02*
X133700000Y-74500000D01*
X133700000Y-74500000D02*
X102857000Y-74500000D01*
X136648100Y-95000000D02*
X136600000Y-94951900D01*
X156000000Y-75400000D02*
X156000000Y-75343016D01*
X136600000Y-94951900D02*
X136600000Y-76600000D01*
X137800000Y-75400000D02*
X156000000Y-75400000D01*
X156000000Y-75343016D02*
X158587561Y-72755455D01*
X136600000Y-76600000D02*
X137800000Y-75400000D01*
D33*
X122750000Y-93500000D02*
X124250000Y-92000000D01*
X124250000Y-92000000D02*
X127250000Y-92000000D01*
%TA.AperFunction,Conductor*%
G36*
X158690349Y-62600511D02*
G01*
X159398206Y-62616739D01*
X159401486Y-62616902D01*
X160106520Y-62670970D01*
X160109815Y-62671312D01*
X160810916Y-62763086D01*
X160814170Y-62763600D01*
X161509370Y-62892824D01*
X161512613Y-62893517D01*
X162199871Y-63059809D01*
X162203049Y-63060668D01*
X162795311Y-63238067D01*
X162880418Y-63263559D01*
X162883565Y-63264594D01*
X163549109Y-63503504D01*
X163552124Y-63504679D01*
X164203931Y-63778925D01*
X164206913Y-63780276D01*
X164843059Y-64089050D01*
X164845964Y-64090558D01*
X165300658Y-64342218D01*
X165464620Y-64432967D01*
X165467477Y-64434649D01*
X166066894Y-64809724D01*
X166069617Y-64811530D01*
X166639124Y-65211902D01*
X166648085Y-65218202D01*
X166650753Y-65220187D01*
X167206568Y-65657257D01*
X167209126Y-65659381D01*
X167740723Y-66125616D01*
X167743160Y-66127873D01*
X167767863Y-66151999D01*
X168248990Y-66621914D01*
X168251305Y-66624300D01*
X168729930Y-67144741D01*
X168732106Y-67147237D01*
X168751970Y-67171307D01*
X169182183Y-67692622D01*
X169184229Y-67695242D01*
X169604392Y-68263915D01*
X169606295Y-68266641D01*
X169995390Y-68857036D01*
X169997144Y-68859860D01*
X170074552Y-68992253D01*
X170354040Y-69470266D01*
X170355630Y-69473161D01*
X170679294Y-70101806D01*
X170680736Y-70104802D01*
X170970248Y-70749905D01*
X170971524Y-70752964D01*
X171219813Y-71396500D01*
X171226043Y-71412647D01*
X171227156Y-71415780D01*
X171445950Y-72088148D01*
X171446894Y-72091336D01*
X171629336Y-72774457D01*
X171630107Y-72777690D01*
X171775684Y-73469643D01*
X171776280Y-73472911D01*
X171786966Y-73541865D01*
X171884554Y-74171626D01*
X171884975Y-74174924D01*
X171955649Y-74878462D01*
X171955893Y-74881778D01*
X171988758Y-75588088D01*
X171988824Y-75591412D01*
X171983873Y-76286379D01*
X171983584Y-76291938D01*
X171982381Y-76304307D01*
X171982381Y-76304308D01*
X171982993Y-76317626D01*
X171983023Y-76322574D01*
X171981549Y-76365990D01*
X171983562Y-76374671D01*
X171986636Y-76396990D01*
X172299149Y-83203866D01*
X172299174Y-83208963D01*
X172282979Y-83654801D01*
X172282652Y-83659292D01*
X172233421Y-84109462D01*
X172232770Y-84113918D01*
X172151008Y-84559328D01*
X172150034Y-84563725D01*
X172036174Y-85002018D01*
X172034885Y-85006332D01*
X171889519Y-85435223D01*
X171887920Y-85439432D01*
X171711820Y-85856646D01*
X171709920Y-85860728D01*
X171504015Y-86264064D01*
X171501824Y-86267997D01*
X171418230Y-86405998D01*
X171285504Y-86625110D01*
X171267207Y-86655315D01*
X171264736Y-86659079D01*
X171002617Y-87028379D01*
X170999880Y-87031954D01*
X170711674Y-87381243D01*
X170708684Y-87384610D01*
X170395884Y-87712080D01*
X170392657Y-87715221D01*
X170056929Y-88019128D01*
X170053483Y-88022026D01*
X169696586Y-88300777D01*
X169692939Y-88303418D01*
X169316775Y-88555527D01*
X169312946Y-88557896D01*
X168919454Y-88782066D01*
X168915474Y-88784145D01*
X168680119Y-88896449D01*
X168512744Y-88976315D01*
X168508081Y-88978310D01*
X164484209Y-90508563D01*
X164461690Y-90514491D01*
X164459388Y-90515158D01*
X164411862Y-90535993D01*
X164409010Y-90537160D01*
X164388640Y-90544907D01*
X164388629Y-90544912D01*
X164380591Y-90549367D01*
X164375430Y-90551922D01*
X164212850Y-90623200D01*
X163855677Y-90817438D01*
X163516264Y-91041272D01*
X163197063Y-91293083D01*
X163197046Y-91293098D01*
X162900366Y-91571066D01*
X162900360Y-91571072D01*
X162628325Y-91873204D01*
X162628303Y-91873230D01*
X162392755Y-92184298D01*
X162382877Y-92197343D01*
X162382859Y-92197371D01*
X162165821Y-92541108D01*
X162165814Y-92541120D01*
X161978695Y-92902064D01*
X161978683Y-92902089D01*
X161827195Y-93267143D01*
X161822857Y-93277597D01*
X161699436Y-93664984D01*
X161611778Y-94050619D01*
X161609317Y-94061444D01*
X161553150Y-94464101D01*
X161553147Y-94464133D01*
X161531337Y-94870098D01*
X161531337Y-94870110D01*
X161537414Y-95064553D01*
X161537445Y-95066468D01*
X161546164Y-119726392D01*
X161553899Y-141606564D01*
X161553916Y-141652773D01*
X161553831Y-141656031D01*
X161549045Y-141747343D01*
X161537105Y-141975155D01*
X161536426Y-141981613D01*
X161486691Y-142295618D01*
X161485341Y-142301970D01*
X161403052Y-142609071D01*
X161401046Y-142615247D01*
X161287111Y-142912056D01*
X161284470Y-142917989D01*
X161140130Y-143201268D01*
X161136883Y-143206892D01*
X160993937Y-143427011D01*
X160970448Y-143463181D01*
X160963732Y-143473522D01*
X160959915Y-143478775D01*
X160759832Y-143725858D01*
X160755486Y-143730684D01*
X160530684Y-143955486D01*
X160525858Y-143959832D01*
X160278775Y-144159915D01*
X160273522Y-144163732D01*
X160006892Y-144336883D01*
X160001268Y-144340130D01*
X159717989Y-144484470D01*
X159712056Y-144487111D01*
X159415247Y-144601046D01*
X159409071Y-144603052D01*
X159101970Y-144685341D01*
X159095618Y-144686691D01*
X158781613Y-144736426D01*
X158775155Y-144737105D01*
X158456036Y-144753831D01*
X158452790Y-144753916D01*
X149149523Y-144753916D01*
X149082484Y-144734231D01*
X149036729Y-144681427D01*
X149026785Y-144612269D01*
X149055810Y-144548713D01*
X149074035Y-144531541D01*
X149074482Y-144531197D01*
X149078282Y-144528282D01*
X149099983Y-144499999D01*
X149105311Y-144493922D01*
X151124500Y-142474733D01*
X151143746Y-142459011D01*
X151379218Y-142303212D01*
X151384045Y-142300328D01*
X151617403Y-142175021D01*
X151623096Y-142172328D01*
X151635662Y-142167147D01*
X151851664Y-142078090D01*
X151858136Y-142075834D01*
X151964696Y-142045185D01*
X152016340Y-142030331D01*
X152050615Y-142025500D01*
X152106608Y-142025500D01*
X152106610Y-142025500D01*
X152316198Y-141986321D01*
X152515019Y-141909298D01*
X152696302Y-141797052D01*
X152853872Y-141653407D01*
X152982366Y-141483255D01*
X153008210Y-141431353D01*
X153077403Y-141292394D01*
X153077403Y-141292393D01*
X153077405Y-141292389D01*
X153130994Y-141104043D01*
X153168273Y-141044952D01*
X153231583Y-141015395D01*
X153300823Y-141024757D01*
X153354009Y-141070067D01*
X153369526Y-141104046D01*
X153423058Y-141292196D01*
X153423066Y-141292216D01*
X153518059Y-141482989D01*
X153646500Y-141653071D01*
X153804000Y-141796651D01*
X153804002Y-141796653D01*
X153985201Y-141908846D01*
X153985207Y-141908849D01*
X154183941Y-141985838D01*
X154200000Y-141988840D01*
X154200000Y-141118564D01*
X154240555Y-141153705D01*
X154364801Y-141210446D01*
X154466025Y-141225000D01*
X154533975Y-141225000D01*
X154635199Y-141210446D01*
X154759445Y-141153705D01*
X154800000Y-141118564D01*
X154800000Y-141988839D01*
X154816058Y-141985838D01*
X155014792Y-141908849D01*
X155014798Y-141908846D01*
X155195997Y-141796653D01*
X155195999Y-141796651D01*
X155353499Y-141653071D01*
X155481940Y-141482989D01*
X155576933Y-141292216D01*
X155576938Y-141292203D01*
X155630472Y-141104047D01*
X155667751Y-141044953D01*
X155731061Y-141015395D01*
X155800300Y-141024757D01*
X155853487Y-141070066D01*
X155869005Y-141104045D01*
X155922596Y-141292392D01*
X155922596Y-141292394D01*
X156017632Y-141483253D01*
X156146127Y-141653406D01*
X156146128Y-141653407D01*
X156303698Y-141797052D01*
X156484981Y-141909298D01*
X156683802Y-141986321D01*
X156893390Y-142025500D01*
X156893392Y-142025500D01*
X157106608Y-142025500D01*
X157106610Y-142025500D01*
X157316198Y-141986321D01*
X157515019Y-141909298D01*
X157696302Y-141797052D01*
X157853872Y-141653407D01*
X157982366Y-141483255D01*
X158008210Y-141431353D01*
X158077403Y-141292394D01*
X158077403Y-141292393D01*
X158077405Y-141292389D01*
X158135756Y-141087310D01*
X158150500Y-140928194D01*
X158150500Y-140571806D01*
X158135756Y-140412690D01*
X158077405Y-140207611D01*
X158077403Y-140207606D01*
X158077403Y-140207605D01*
X157982367Y-140016746D01*
X157853872Y-139846593D01*
X157776745Y-139776282D01*
X157696302Y-139702948D01*
X157515019Y-139590702D01*
X157515017Y-139590701D01*
X157385790Y-139540639D01*
X157316198Y-139513679D01*
X157106610Y-139474500D01*
X156893390Y-139474500D01*
X156683802Y-139513679D01*
X156683799Y-139513679D01*
X156683799Y-139513680D01*
X156484982Y-139590701D01*
X156484980Y-139590702D01*
X156303699Y-139702947D01*
X156146127Y-139846593D01*
X156017632Y-140016746D01*
X155922596Y-140207605D01*
X155922596Y-140207607D01*
X155869005Y-140395954D01*
X155831725Y-140455047D01*
X155768415Y-140484604D01*
X155699176Y-140475242D01*
X155645990Y-140429931D01*
X155630472Y-140395952D01*
X155576938Y-140207796D01*
X155576933Y-140207783D01*
X155481940Y-140017010D01*
X155353499Y-139846928D01*
X155195999Y-139703348D01*
X155195997Y-139703346D01*
X155014798Y-139591153D01*
X155014792Y-139591151D01*
X154816060Y-139514162D01*
X154800000Y-139511159D01*
X154800000Y-140381435D01*
X154759445Y-140346295D01*
X154635199Y-140289554D01*
X154533975Y-140275000D01*
X154466025Y-140275000D01*
X154364801Y-140289554D01*
X154240555Y-140346295D01*
X154200000Y-140381435D01*
X154200000Y-139511159D01*
X154183939Y-139514162D01*
X153985207Y-139591151D01*
X153985201Y-139591153D01*
X153804002Y-139703346D01*
X153804000Y-139703348D01*
X153646500Y-139846928D01*
X153518059Y-140017010D01*
X153423066Y-140207783D01*
X153423058Y-140207803D01*
X153369526Y-140395953D01*
X153332247Y-140455046D01*
X153268938Y-140484604D01*
X153199698Y-140475242D01*
X153146511Y-140429932D01*
X153130994Y-140395954D01*
X153130994Y-140395953D01*
X153077405Y-140207611D01*
X153077403Y-140207606D01*
X153077403Y-140207605D01*
X152982367Y-140016746D01*
X152853872Y-139846593D01*
X152776745Y-139776282D01*
X152696302Y-139702948D01*
X152515019Y-139590702D01*
X152515017Y-139590701D01*
X152385790Y-139540639D01*
X152316198Y-139513679D01*
X152106610Y-139474500D01*
X151893390Y-139474500D01*
X151772095Y-139497174D01*
X151702580Y-139490143D01*
X151647901Y-139446645D01*
X151625419Y-139380491D01*
X151642272Y-139312684D01*
X151661625Y-139287608D01*
X156107233Y-134842001D01*
X156168557Y-134808516D01*
X156194915Y-134805682D01*
X156200001Y-134805682D01*
X156252253Y-134798802D01*
X156356762Y-134785044D01*
X156502841Y-134724536D01*
X156628282Y-134628282D01*
X156724536Y-134502841D01*
X156785044Y-134356762D01*
X156805682Y-134200000D01*
X156799989Y-134156760D01*
X156785044Y-134043239D01*
X156785044Y-134043238D01*
X156724536Y-133897159D01*
X156628282Y-133771718D01*
X156502841Y-133675464D01*
X156356762Y-133614956D01*
X156321087Y-133610259D01*
X156257191Y-133581991D01*
X156218721Y-133523666D01*
X156217891Y-133453801D01*
X156249591Y-133399642D01*
X156593923Y-133055310D01*
X156599998Y-133049984D01*
X156628282Y-133028282D01*
X156724536Y-132902841D01*
X156785044Y-132756762D01*
X156805682Y-132600000D01*
X156802974Y-132579434D01*
X156785044Y-132443239D01*
X156785044Y-132443238D01*
X156724536Y-132297159D01*
X156628282Y-132171718D01*
X156502841Y-132075464D01*
X156497952Y-132073439D01*
X156356762Y-132014956D01*
X156356760Y-132014955D01*
X156200001Y-131994318D01*
X156199999Y-131994318D01*
X156043239Y-132014955D01*
X156043237Y-132014956D01*
X155897157Y-132075464D01*
X155771719Y-132171716D01*
X155750019Y-132199994D01*
X155744668Y-132206096D01*
X150087584Y-137863181D01*
X150026261Y-137896666D01*
X149999903Y-137899500D01*
X143043428Y-137899500D01*
X143035329Y-137898969D01*
X143000000Y-137894318D01*
X142960639Y-137899500D01*
X142843239Y-137914955D01*
X142843237Y-137914956D01*
X142697160Y-137975463D01*
X142571714Y-138071721D01*
X142550024Y-138099990D01*
X142544671Y-138106094D01*
X142187584Y-138463181D01*
X142126261Y-138496666D01*
X142099903Y-138499500D01*
X136138803Y-138499500D01*
X136071764Y-138479815D01*
X136026009Y-138427011D01*
X136016065Y-138357853D01*
X136037228Y-138304376D01*
X136134932Y-138164839D01*
X136225518Y-137970576D01*
X136225522Y-137970567D01*
X136280995Y-137763537D01*
X136280997Y-137763527D01*
X136299679Y-137550000D01*
X136299679Y-137549999D01*
X136280997Y-137336472D01*
X136280995Y-137336462D01*
X136225522Y-137129432D01*
X136225518Y-137129423D01*
X136134933Y-136935162D01*
X136095173Y-136878378D01*
X135687920Y-137285630D01*
X135625449Y-137166601D01*
X135517555Y-137044814D01*
X135383651Y-136952387D01*
X135333194Y-136933251D01*
X135741620Y-136524825D01*
X135684839Y-136485067D01*
X135490576Y-136394481D01*
X135490567Y-136394477D01*
X135283537Y-136339004D01*
X135283527Y-136339002D01*
X135070001Y-136320321D01*
X135069999Y-136320321D01*
X134856472Y-136339002D01*
X134856462Y-136339004D01*
X134649432Y-136394477D01*
X134649423Y-136394481D01*
X134455158Y-136485068D01*
X134398378Y-136524824D01*
X134806805Y-136933251D01*
X134756349Y-136952387D01*
X134622445Y-137044814D01*
X134514551Y-137166601D01*
X134452078Y-137285632D01*
X134044824Y-136878378D01*
X134005068Y-136935158D01*
X133914481Y-137129423D01*
X133914477Y-137129432D01*
X133859004Y-137336462D01*
X133859002Y-137336472D01*
X133840321Y-137549999D01*
X133840321Y-137550000D01*
X133859002Y-137763527D01*
X133859004Y-137763537D01*
X133914477Y-137970567D01*
X133914481Y-137970576D01*
X134005067Y-138164839D01*
X134102772Y-138304376D01*
X134125099Y-138370582D01*
X134108089Y-138438350D01*
X134057141Y-138486163D01*
X134001197Y-138499500D01*
X127498803Y-138499500D01*
X127431764Y-138479815D01*
X127386009Y-138427011D01*
X127376065Y-138357853D01*
X127397228Y-138304376D01*
X127494932Y-138164839D01*
X127585518Y-137970576D01*
X127585522Y-137970567D01*
X127640995Y-137763537D01*
X127640997Y-137763527D01*
X127659679Y-137550000D01*
X127659679Y-137549999D01*
X127640997Y-137336472D01*
X127640995Y-137336462D01*
X127585522Y-137129432D01*
X127585518Y-137129423D01*
X127494933Y-136935162D01*
X127455173Y-136878378D01*
X127047920Y-137285630D01*
X126985449Y-137166601D01*
X126877555Y-137044814D01*
X126743651Y-136952387D01*
X126693194Y-136933251D01*
X127101620Y-136524825D01*
X127044839Y-136485067D01*
X126850576Y-136394481D01*
X126850567Y-136394477D01*
X126643537Y-136339004D01*
X126643527Y-136339002D01*
X126430001Y-136320321D01*
X126429999Y-136320321D01*
X126216472Y-136339002D01*
X126216462Y-136339004D01*
X126009432Y-136394477D01*
X126009423Y-136394481D01*
X125815158Y-136485068D01*
X125758378Y-136524824D01*
X126166805Y-136933251D01*
X126116349Y-136952387D01*
X125982445Y-137044814D01*
X125874551Y-137166601D01*
X125812078Y-137285632D01*
X125404824Y-136878378D01*
X125365068Y-136935158D01*
X125274481Y-137129423D01*
X125274477Y-137129432D01*
X125219004Y-137336462D01*
X125219002Y-137336472D01*
X125200321Y-137549999D01*
X125200321Y-137550000D01*
X125219002Y-137763527D01*
X125219004Y-137763537D01*
X125274477Y-137970567D01*
X125274481Y-137970576D01*
X125365067Y-138164839D01*
X125462772Y-138304376D01*
X125485099Y-138370582D01*
X125468089Y-138438350D01*
X125417141Y-138486163D01*
X125361197Y-138499500D01*
X123000097Y-138499500D01*
X122933058Y-138479815D01*
X122912416Y-138463181D01*
X120836819Y-136387584D01*
X120803334Y-136326261D01*
X120800500Y-136299903D01*
X120800500Y-134575282D01*
X146058500Y-134575282D01*
X146073284Y-134800852D01*
X146073286Y-134800864D01*
X146132102Y-135096553D01*
X146132106Y-135096568D01*
X146229016Y-135382055D01*
X146229025Y-135382076D01*
X146362370Y-135652471D01*
X146529870Y-135903154D01*
X146728664Y-136129835D01*
X146955342Y-136328626D01*
X147206030Y-136496131D01*
X147476437Y-136629481D01*
X147476447Y-136629485D01*
X147761926Y-136726392D01*
X147761946Y-136726397D01*
X148057638Y-136785214D01*
X148057643Y-136785215D01*
X148108500Y-136788548D01*
X148108500Y-135600623D01*
X148304727Y-135628837D01*
X148519332Y-135618614D01*
X148608500Y-135596981D01*
X148608500Y-136788548D01*
X148659356Y-136785215D01*
X148659361Y-136785214D01*
X148955053Y-136726397D01*
X148955068Y-136726393D01*
X149240555Y-136629483D01*
X149240576Y-136629474D01*
X149510971Y-136496129D01*
X149761654Y-136328629D01*
X149988335Y-136129835D01*
X150187129Y-135903154D01*
X150354629Y-135652471D01*
X150487974Y-135382076D01*
X150487983Y-135382055D01*
X150584893Y-135096568D01*
X150584897Y-135096553D01*
X150643713Y-134800864D01*
X150643715Y-134800852D01*
X150658500Y-134575282D01*
X150658500Y-134250000D01*
X149483500Y-134250000D01*
X149483500Y-133750000D01*
X150658500Y-133750000D01*
X150658500Y-133424717D01*
X150643715Y-133199147D01*
X150643713Y-133199135D01*
X150584897Y-132903446D01*
X150584893Y-132903431D01*
X150487983Y-132617944D01*
X150487974Y-132617923D01*
X150354629Y-132347528D01*
X150187129Y-132096845D01*
X149988335Y-131870164D01*
X149761657Y-131671373D01*
X149510969Y-131503868D01*
X149240562Y-131370518D01*
X149240552Y-131370514D01*
X148955073Y-131273607D01*
X148955053Y-131273602D01*
X148659351Y-131214783D01*
X148608500Y-131211449D01*
X148608500Y-132399376D01*
X148412273Y-132371163D01*
X148197668Y-132381386D01*
X148108500Y-132403018D01*
X148108500Y-131211449D01*
X148057650Y-131214783D01*
X148057647Y-131214783D01*
X147761946Y-131273602D01*
X147761931Y-131273606D01*
X147476444Y-131370516D01*
X147476423Y-131370525D01*
X147206028Y-131503870D01*
X146955345Y-131671370D01*
X146728664Y-131870164D01*
X146529870Y-132096845D01*
X146362370Y-132347528D01*
X146229025Y-132617923D01*
X146229016Y-132617944D01*
X146132106Y-132903431D01*
X146132102Y-132903446D01*
X146073286Y-133199135D01*
X146073284Y-133199147D01*
X146058500Y-133424717D01*
X146058500Y-133750000D01*
X147233500Y-133750000D01*
X147233500Y-134250000D01*
X146058500Y-134250000D01*
X146058500Y-134575282D01*
X120800500Y-134575282D01*
X120800500Y-133771718D01*
X120800500Y-131207122D01*
X120820184Y-131140087D01*
X120872988Y-131094332D01*
X120942146Y-131084388D01*
X121005702Y-131113413D01*
X121008606Y-131116010D01*
X121962054Y-131996114D01*
X121972236Y-132004722D01*
X121972238Y-132004723D01*
X121994500Y-132021939D01*
X121995295Y-132022552D01*
X121995297Y-132022554D01*
X122044487Y-132047565D01*
X122095372Y-132073439D01*
X122162411Y-132093124D01*
X122248483Y-132105500D01*
X122248486Y-132105500D01*
X128759822Y-132105500D01*
X128759824Y-132105500D01*
X128769255Y-132105209D01*
X128769312Y-132105205D01*
X128769325Y-132105205D01*
X128789236Y-132103973D01*
X128789237Y-132103972D01*
X128789244Y-132103972D01*
X128891921Y-132079339D01*
X128956024Y-132051543D01*
X129030066Y-132005950D01*
X129030069Y-132005946D01*
X129030074Y-132005944D01*
X129290508Y-131788914D01*
X129550960Y-131571871D01*
X129584326Y-131539456D01*
X129609259Y-131511236D01*
X129622556Y-131495105D01*
X129673442Y-131395028D01*
X129693126Y-131327989D01*
X129705500Y-131241921D01*
X129705499Y-130273695D01*
X129700305Y-130217603D01*
X129700302Y-130217582D01*
X129691944Y-130172842D01*
X129691940Y-130172825D01*
X129684786Y-130142943D01*
X129684786Y-130142941D01*
X129633927Y-130042851D01*
X129591369Y-129987438D01*
X129529130Y-129926715D01*
X129529129Y-129926714D01*
X128910857Y-129475670D01*
X128907181Y-129473072D01*
X128899269Y-129467652D01*
X128899270Y-129467652D01*
X128899268Y-129467651D01*
X128812687Y-129426561D01*
X128812683Y-129426559D01*
X128745654Y-129406877D01*
X128745648Y-129406876D01*
X128659576Y-129394500D01*
X128659573Y-129394500D01*
X123770002Y-129394500D01*
X123702963Y-129374815D01*
X123685136Y-129360909D01*
X122943951Y-128665163D01*
X122908544Y-128604929D01*
X122904817Y-128574754D01*
X122904817Y-117575282D01*
X146058500Y-117575282D01*
X146073284Y-117800852D01*
X146073286Y-117800864D01*
X146132102Y-118096553D01*
X146132106Y-118096568D01*
X146229016Y-118382055D01*
X146229025Y-118382076D01*
X146362370Y-118652471D01*
X146529870Y-118903154D01*
X146728664Y-119129835D01*
X146955342Y-119328626D01*
X147206030Y-119496131D01*
X147476437Y-119629481D01*
X147476447Y-119629485D01*
X147761926Y-119726392D01*
X147761946Y-119726397D01*
X148057638Y-119785214D01*
X148057643Y-119785215D01*
X148108500Y-119788548D01*
X148108500Y-118600623D01*
X148304727Y-118628837D01*
X148519332Y-118618614D01*
X148608500Y-118596981D01*
X148608500Y-119788548D01*
X148659356Y-119785215D01*
X148659361Y-119785214D01*
X148955053Y-119726397D01*
X148955068Y-119726393D01*
X149240555Y-119629483D01*
X149240576Y-119629474D01*
X149510971Y-119496129D01*
X149761654Y-119328629D01*
X149988335Y-119129835D01*
X150187129Y-118903154D01*
X150354629Y-118652471D01*
X150487974Y-118382076D01*
X150487983Y-118382055D01*
X150584893Y-118096568D01*
X150584897Y-118096553D01*
X150643713Y-117800864D01*
X150643715Y-117800852D01*
X150658500Y-117575282D01*
X150658500Y-117250000D01*
X149483500Y-117250000D01*
X149483500Y-116750000D01*
X150658500Y-116750000D01*
X150658500Y-116424717D01*
X150643715Y-116199147D01*
X150643713Y-116199135D01*
X150584897Y-115903446D01*
X150584893Y-115903431D01*
X150487983Y-115617944D01*
X150487974Y-115617923D01*
X150354629Y-115347528D01*
X150187129Y-115096845D01*
X149988335Y-114870164D01*
X149761657Y-114671373D01*
X149510969Y-114503868D01*
X149240562Y-114370518D01*
X149240552Y-114370514D01*
X148955073Y-114273607D01*
X148955053Y-114273602D01*
X148659351Y-114214783D01*
X148608500Y-114211449D01*
X148608500Y-115399376D01*
X148412273Y-115371163D01*
X148197668Y-115381386D01*
X148108500Y-115403018D01*
X148108500Y-114211449D01*
X148057650Y-114214783D01*
X148057647Y-114214783D01*
X147761946Y-114273602D01*
X147761931Y-114273606D01*
X147476444Y-114370516D01*
X147476423Y-114370525D01*
X147206028Y-114503870D01*
X146955345Y-114671370D01*
X146728664Y-114870164D01*
X146529870Y-115096845D01*
X146362370Y-115347528D01*
X146229025Y-115617923D01*
X146229016Y-115617944D01*
X146132106Y-115903431D01*
X146132102Y-115903446D01*
X146073286Y-116199135D01*
X146073284Y-116199147D01*
X146058500Y-116424717D01*
X146058500Y-116750000D01*
X147233500Y-116750000D01*
X147233500Y-117250000D01*
X146058500Y-117250000D01*
X146058500Y-117575282D01*
X122904817Y-117575282D01*
X122904817Y-112867500D01*
X156069356Y-112867500D01*
X156089884Y-113089035D01*
X156089885Y-113089037D01*
X156150769Y-113303023D01*
X156150775Y-113303038D01*
X156249938Y-113502183D01*
X156249943Y-113502191D01*
X156384020Y-113679738D01*
X156548437Y-113829623D01*
X156548439Y-113829625D01*
X156737595Y-113946745D01*
X156737596Y-113946745D01*
X156737599Y-113946747D01*
X156945060Y-114027118D01*
X157163757Y-114068000D01*
X157163759Y-114068000D01*
X157386241Y-114068000D01*
X157386243Y-114068000D01*
X157604940Y-114027118D01*
X157812401Y-113946747D01*
X158001562Y-113829624D01*
X158165981Y-113679736D01*
X158300058Y-113502189D01*
X158399229Y-113303028D01*
X158460115Y-113089036D01*
X158480643Y-112867500D01*
X158460115Y-112645964D01*
X158399229Y-112431972D01*
X158399224Y-112431961D01*
X158300061Y-112232816D01*
X158300056Y-112232808D01*
X158165979Y-112055261D01*
X158001562Y-111905376D01*
X158001560Y-111905374D01*
X157812404Y-111788254D01*
X157812398Y-111788252D01*
X157604940Y-111707882D01*
X157386243Y-111667000D01*
X157163757Y-111667000D01*
X156945060Y-111707882D01*
X156836341Y-111750000D01*
X156737601Y-111788252D01*
X156737595Y-111788254D01*
X156548439Y-111905374D01*
X156548437Y-111905376D01*
X156384020Y-112055261D01*
X156249943Y-112232808D01*
X156249938Y-112232816D01*
X156150775Y-112431961D01*
X156150769Y-112431976D01*
X156089885Y-112645962D01*
X156089884Y-112645964D01*
X156069356Y-112867499D01*
X156069356Y-112867500D01*
X122904817Y-112867500D01*
X122904817Y-110341094D01*
X122904817Y-110341082D01*
X122904378Y-110329505D01*
X122902516Y-110305000D01*
X122902515Y-110304997D01*
X122902515Y-110304993D01*
X122888164Y-110250284D01*
X122874658Y-110198792D01*
X122845074Y-110135494D01*
X122797417Y-110062757D01*
X122637886Y-109881898D01*
X122559130Y-109792613D01*
X122544092Y-109777775D01*
X122544078Y-109777761D01*
X122510100Y-109748582D01*
X122497217Y-109738113D01*
X122397141Y-109687227D01*
X122397140Y-109687226D01*
X122397137Y-109687225D01*
X122330108Y-109667543D01*
X122330102Y-109667542D01*
X122244030Y-109655166D01*
X120924500Y-109655166D01*
X120857461Y-109635481D01*
X120811706Y-109582677D01*
X120800500Y-109531166D01*
X120800500Y-106467500D01*
X156069859Y-106467500D01*
X156090378Y-106688939D01*
X156151240Y-106902850D01*
X156250369Y-107101928D01*
X156266137Y-107122808D01*
X156266138Y-107122808D01*
X156712226Y-106676719D01*
X156750901Y-106770088D01*
X156847075Y-106895425D01*
X156972412Y-106991599D01*
X157065779Y-107030272D01*
X156621672Y-107474379D01*
X156621672Y-107474380D01*
X156737821Y-107546297D01*
X156737822Y-107546298D01*
X156945195Y-107626634D01*
X157163807Y-107667500D01*
X157386193Y-107667500D01*
X157604809Y-107626633D01*
X157812168Y-107546301D01*
X157812181Y-107546295D01*
X157928326Y-107474379D01*
X157484220Y-107030272D01*
X157577588Y-106991599D01*
X157702925Y-106895425D01*
X157799099Y-106770089D01*
X157837773Y-106676720D01*
X158283861Y-107122808D01*
X158299631Y-107101925D01*
X158299633Y-107101922D01*
X158398759Y-106902850D01*
X158459621Y-106688939D01*
X158480140Y-106467500D01*
X158480140Y-106467499D01*
X158459621Y-106246060D01*
X158398759Y-106032149D01*
X158299635Y-105833080D01*
X158299630Y-105833072D01*
X158283860Y-105812190D01*
X157837772Y-106258278D01*
X157799099Y-106164912D01*
X157702925Y-106039575D01*
X157577588Y-105943401D01*
X157484220Y-105904727D01*
X157928327Y-105460619D01*
X157812178Y-105388702D01*
X157812177Y-105388701D01*
X157604804Y-105308365D01*
X157386193Y-105267500D01*
X157163807Y-105267500D01*
X156945195Y-105308365D01*
X156737824Y-105388700D01*
X156737823Y-105388701D01*
X156621671Y-105460619D01*
X157065779Y-105904727D01*
X156972412Y-105943401D01*
X156847075Y-106039575D01*
X156750901Y-106164911D01*
X156712226Y-106258279D01*
X156266138Y-105812191D01*
X156266137Y-105812191D01*
X156250368Y-105833074D01*
X156151240Y-106032149D01*
X156090378Y-106246060D01*
X156069859Y-106467499D01*
X156069859Y-106467500D01*
X120800500Y-106467500D01*
X120800500Y-94557676D01*
X120820185Y-94490637D01*
X120872989Y-94444882D01*
X120942147Y-94434938D01*
X121005703Y-94463963D01*
X121012181Y-94469995D01*
X123321614Y-96779428D01*
X123338246Y-96800066D01*
X123340854Y-96804125D01*
X123340857Y-96804128D01*
X123380067Y-96838103D01*
X123383283Y-96841097D01*
X123394407Y-96852221D01*
X123394412Y-96852224D01*
X123394417Y-96852229D01*
X123406979Y-96861633D01*
X123410427Y-96864411D01*
X123432951Y-96883927D01*
X123449627Y-96898377D01*
X123454010Y-96900379D01*
X123476807Y-96913905D01*
X123480669Y-96916796D01*
X123529295Y-96934932D01*
X123533351Y-96936612D01*
X123536124Y-96937879D01*
X123580540Y-96958164D01*
X123580541Y-96958164D01*
X123580543Y-96958165D01*
X123585312Y-96958850D01*
X123611002Y-96965407D01*
X123615517Y-96967091D01*
X123667258Y-96970791D01*
X123671657Y-96971264D01*
X123687201Y-96973500D01*
X123702906Y-96973500D01*
X123707328Y-96973657D01*
X123759073Y-96977359D01*
X123763784Y-96976334D01*
X123790143Y-96973500D01*
X127104578Y-96973500D01*
X127135739Y-96977478D01*
X127139761Y-96978523D01*
X127243918Y-96985743D01*
X127263836Y-96988765D01*
X127300971Y-96997536D01*
X127319439Y-97001898D01*
X127324551Y-97003339D01*
X127402457Y-97028961D01*
X127408777Y-97030889D01*
X127415567Y-97032800D01*
X127421856Y-97034428D01*
X127534915Y-97061131D01*
X127547137Y-97063497D01*
X127547162Y-97063500D01*
X127547174Y-97063503D01*
X127561284Y-97065642D01*
X127561294Y-97065643D01*
X127561306Y-97065645D01*
X127573641Y-97067005D01*
X127718906Y-97077077D01*
X127723921Y-97077342D01*
X127727200Y-97077461D01*
X127737829Y-97077548D01*
X127745408Y-97078077D01*
X127750000Y-97078682D01*
X127906762Y-97058044D01*
X128052841Y-96997536D01*
X128178282Y-96901282D01*
X128274536Y-96775841D01*
X128335044Y-96629762D01*
X128355682Y-96473000D01*
X128335044Y-96316238D01*
X128274536Y-96170159D01*
X128178282Y-96044718D01*
X128052841Y-95948464D01*
X128042317Y-95944105D01*
X127906762Y-95887956D01*
X127906760Y-95887955D01*
X127750002Y-95867318D01*
X127749993Y-95867318D01*
X127742294Y-95868331D01*
X127722152Y-95868490D01*
X127722135Y-95869229D01*
X127716402Y-95869096D01*
X127716401Y-95869096D01*
X127573626Y-95878994D01*
X127573575Y-95878998D01*
X127561260Y-95880358D01*
X127561253Y-95880359D01*
X127547089Y-95882510D01*
X127547073Y-95882513D01*
X127534911Y-95884869D01*
X127421953Y-95911547D01*
X127415904Y-95913109D01*
X127415799Y-95913137D01*
X127410287Y-95914681D01*
X127409081Y-95915020D01*
X127409074Y-95915021D01*
X127409053Y-95915028D01*
X127409040Y-95915031D01*
X127402599Y-95916991D01*
X127402526Y-95917014D01*
X127324536Y-95942662D01*
X127319417Y-95944105D01*
X127263849Y-95957230D01*
X127243923Y-95960253D01*
X127139758Y-95967475D01*
X127134946Y-95968696D01*
X127104467Y-95972500D01*
X123981676Y-95972500D01*
X123914637Y-95952815D01*
X123893995Y-95936181D01*
X121536819Y-93579004D01*
X121503334Y-93517681D01*
X121501433Y-93500001D01*
X122144318Y-93500001D01*
X122164955Y-93656760D01*
X122164956Y-93656762D01*
X122225464Y-93802841D01*
X122321718Y-93928282D01*
X122447159Y-94024536D01*
X122593238Y-94085044D01*
X122671619Y-94095363D01*
X122749999Y-94105682D01*
X122750000Y-94105682D01*
X122750001Y-94105682D01*
X122802253Y-94098802D01*
X122906762Y-94085044D01*
X123052841Y-94024536D01*
X123067943Y-94012948D01*
X123178282Y-93928282D01*
X123199984Y-93899998D01*
X123205310Y-93893923D01*
X124462415Y-92636819D01*
X124523739Y-92603334D01*
X124550097Y-92600500D01*
X127206572Y-92600500D01*
X127214670Y-92601030D01*
X127250000Y-92605682D01*
X127250001Y-92605682D01*
X127302254Y-92598802D01*
X127406762Y-92585044D01*
X127552841Y-92524536D01*
X127678282Y-92428282D01*
X127774536Y-92302841D01*
X127835044Y-92156762D01*
X127855682Y-92000000D01*
X127835044Y-91843238D01*
X127774536Y-91697159D01*
X127678282Y-91571718D01*
X127552841Y-91475464D01*
X127406762Y-91414956D01*
X127406760Y-91414955D01*
X127250001Y-91394318D01*
X127250000Y-91394318D01*
X127214670Y-91398969D01*
X127206572Y-91399500D01*
X124293428Y-91399500D01*
X124285329Y-91398969D01*
X124250000Y-91394318D01*
X124210639Y-91399500D01*
X124093239Y-91414955D01*
X124093237Y-91414956D01*
X123947157Y-91475464D01*
X123821719Y-91571716D01*
X123800019Y-91599994D01*
X123794668Y-91606096D01*
X122356096Y-93044668D01*
X122349994Y-93050019D01*
X122321716Y-93071718D01*
X122249967Y-93165224D01*
X122249968Y-93165225D01*
X122225463Y-93197160D01*
X122225462Y-93197162D01*
X122164956Y-93343237D01*
X122164955Y-93343239D01*
X122144318Y-93499998D01*
X122144318Y-93500001D01*
X121501433Y-93500001D01*
X121500500Y-93491323D01*
X121500500Y-78567138D01*
X121503334Y-78540779D01*
X121504358Y-78536073D01*
X121500657Y-78484337D01*
X121500500Y-78479915D01*
X121500500Y-78464200D01*
X121498264Y-78448652D01*
X121497790Y-78444245D01*
X121494091Y-78392519D01*
X121494091Y-78392515D01*
X121492408Y-78388004D01*
X121485851Y-78362316D01*
X121485165Y-78357543D01*
X121485161Y-78357536D01*
X121482189Y-78347410D01*
X121480818Y-78341774D01*
X121480809Y-78341711D01*
X121466396Y-78283374D01*
X121464865Y-78279056D01*
X121439285Y-78224626D01*
X121379325Y-78124124D01*
X121367514Y-78107072D01*
X121352581Y-78088364D01*
X121338537Y-78073035D01*
X121307253Y-78043237D01*
X121259864Y-77998098D01*
X121257980Y-77996225D01*
X121214099Y-77950687D01*
X121195943Y-77926543D01*
X121146990Y-77841568D01*
X121144318Y-77837697D01*
X121131804Y-77814707D01*
X121124536Y-77797159D01*
X121028282Y-77671718D01*
X120902841Y-77575464D01*
X120900796Y-77574617D01*
X120756762Y-77514956D01*
X120756760Y-77514955D01*
X120600001Y-77494318D01*
X120599999Y-77494318D01*
X120443239Y-77514955D01*
X120443237Y-77514956D01*
X120297160Y-77575463D01*
X120171718Y-77671718D01*
X120075463Y-77797160D01*
X120014956Y-77943237D01*
X120014955Y-77943239D01*
X119994318Y-78099998D01*
X119994318Y-78100001D01*
X120014955Y-78256760D01*
X120014956Y-78256762D01*
X120075456Y-78402823D01*
X120075464Y-78402841D01*
X120171718Y-78528282D01*
X120297159Y-78624536D01*
X120297160Y-78624536D01*
X120297161Y-78624537D01*
X120325291Y-78636188D01*
X120408655Y-78670719D01*
X120411574Y-78672018D01*
X120418845Y-78675483D01*
X120424759Y-78678302D01*
X120424104Y-78679675D01*
X120474404Y-78716949D01*
X120499139Y-78782294D01*
X120499499Y-78791741D01*
X120499500Y-87270318D01*
X120479815Y-87337357D01*
X120427011Y-87383112D01*
X120381525Y-87393007D01*
X120381558Y-87393257D01*
X120378567Y-87393650D01*
X120375500Y-87394318D01*
X120373499Y-87394318D01*
X120229924Y-87413220D01*
X120160889Y-87402454D01*
X120108633Y-87356074D01*
X120089748Y-87288805D01*
X120110229Y-87222005D01*
X120115355Y-87214804D01*
X120124536Y-87202841D01*
X120185044Y-87056762D01*
X120201918Y-86928589D01*
X120205682Y-86900001D01*
X120205682Y-86899998D01*
X120185044Y-86743239D01*
X120185044Y-86743238D01*
X120124536Y-86597159D01*
X120028282Y-86471718D01*
X119902841Y-86375464D01*
X119828046Y-86344483D01*
X119756762Y-86314956D01*
X119756760Y-86314955D01*
X119600001Y-86294318D01*
X119599999Y-86294318D01*
X119443239Y-86314955D01*
X119443234Y-86314957D01*
X119371952Y-86344483D01*
X119302483Y-86351952D01*
X119240004Y-86320676D01*
X119204352Y-86260587D01*
X119200500Y-86229922D01*
X119200500Y-84251096D01*
X119220185Y-84184057D01*
X119236815Y-84163419D01*
X119793923Y-83606310D01*
X119799998Y-83600984D01*
X119828282Y-83579282D01*
X119924536Y-83453841D01*
X119985044Y-83307762D01*
X120005682Y-83151000D01*
X119999696Y-83105535D01*
X119987977Y-83016520D01*
X119985044Y-82994238D01*
X119924536Y-82848159D01*
X119828282Y-82722718D01*
X119702841Y-82626464D01*
X119694666Y-82623078D01*
X119556762Y-82565956D01*
X119556760Y-82565955D01*
X119400001Y-82545318D01*
X119399999Y-82545318D01*
X119243239Y-82565955D01*
X119243237Y-82565956D01*
X119097157Y-82626464D01*
X118971719Y-82722716D01*
X118950019Y-82750994D01*
X118944668Y-82757096D01*
X118612181Y-83089583D01*
X118550858Y-83123068D01*
X118481167Y-83118084D01*
X118425233Y-83076213D01*
X118400816Y-83010748D01*
X118400500Y-83001902D01*
X118400500Y-82881097D01*
X118420185Y-82814058D01*
X118436819Y-82793416D01*
X118664280Y-82565955D01*
X118893916Y-82336318D01*
X118900006Y-82330977D01*
X118928282Y-82309282D01*
X119012521Y-82199500D01*
X119024536Y-82183841D01*
X119085044Y-82037762D01*
X119105682Y-81881000D01*
X119104923Y-81875237D01*
X119085044Y-81724239D01*
X119085044Y-81724238D01*
X119024536Y-81578159D01*
X118928282Y-81452718D01*
X118802841Y-81356464D01*
X118802836Y-81356462D01*
X118656762Y-81295956D01*
X118656760Y-81295955D01*
X118500001Y-81275318D01*
X118499999Y-81275318D01*
X118343239Y-81295955D01*
X118343234Y-81295957D01*
X118197163Y-81356461D01*
X118197162Y-81356462D01*
X118197159Y-81356463D01*
X118197159Y-81356464D01*
X118120932Y-81414955D01*
X118103340Y-81428454D01*
X118071717Y-81452718D01*
X118050023Y-81480989D01*
X118044671Y-81487091D01*
X117812181Y-81719582D01*
X117750858Y-81753067D01*
X117681167Y-81748083D01*
X117625233Y-81706212D01*
X117600816Y-81640747D01*
X117600500Y-81631901D01*
X117600500Y-80241096D01*
X117620185Y-80174057D01*
X117636819Y-80153415D01*
X117809873Y-79980361D01*
X117993914Y-79796319D01*
X117999999Y-79790983D01*
X118028282Y-79769282D01*
X118124536Y-79643841D01*
X118185044Y-79497762D01*
X118202981Y-79361515D01*
X118205682Y-79341001D01*
X118205682Y-79340998D01*
X118185044Y-79184239D01*
X118185044Y-79184238D01*
X118124536Y-79038159D01*
X118028282Y-78912718D01*
X117902841Y-78816464D01*
X117897510Y-78814256D01*
X117756762Y-78755956D01*
X117756760Y-78755955D01*
X117600001Y-78735318D01*
X117599999Y-78735318D01*
X117443239Y-78755955D01*
X117443237Y-78755956D01*
X117297157Y-78816464D01*
X117171719Y-78912716D01*
X117150019Y-78940994D01*
X117144668Y-78947096D01*
X116606096Y-79485668D01*
X116599994Y-79491019D01*
X116571717Y-79512718D01*
X116504580Y-79600215D01*
X116475464Y-79638158D01*
X116475461Y-79638163D01*
X116414957Y-79784234D01*
X116414955Y-79784239D01*
X116394318Y-79940998D01*
X116394318Y-79940999D01*
X116397193Y-79962837D01*
X116386428Y-80031873D01*
X116340048Y-80084129D01*
X116272779Y-80103014D01*
X116258070Y-80101962D01*
X116200003Y-80094318D01*
X116199999Y-80094318D01*
X116043239Y-80114955D01*
X116043237Y-80114956D01*
X115897160Y-80175463D01*
X115771718Y-80271718D01*
X115675463Y-80397160D01*
X115614956Y-80543237D01*
X115614955Y-80543239D01*
X115594318Y-80699998D01*
X115594318Y-80699999D01*
X115598969Y-80735326D01*
X115599500Y-80743428D01*
X115599500Y-83779187D01*
X115579815Y-83846226D01*
X115527011Y-83891981D01*
X115459316Y-83902126D01*
X115400003Y-83894318D01*
X115399999Y-83894318D01*
X115243239Y-83914955D01*
X115243237Y-83914956D01*
X115097160Y-83975463D01*
X114971718Y-84071718D01*
X114875463Y-84197160D01*
X114814956Y-84343237D01*
X114814955Y-84343239D01*
X114794318Y-84499998D01*
X114794318Y-84500000D01*
X114798472Y-84531555D01*
X114798969Y-84535326D01*
X114799500Y-84543428D01*
X114799500Y-84979187D01*
X114779815Y-85046226D01*
X114727011Y-85091981D01*
X114659316Y-85102126D01*
X114600003Y-85094318D01*
X114599999Y-85094318D01*
X114443239Y-85114955D01*
X114443234Y-85114957D01*
X114325307Y-85163804D01*
X114255838Y-85171273D01*
X114193359Y-85139998D01*
X114157707Y-85079909D01*
X114160201Y-85010083D01*
X114160387Y-85009529D01*
X114251730Y-84739344D01*
X114320185Y-84414132D01*
X114320186Y-84414129D01*
X114334817Y-84250000D01*
X113076933Y-84250000D01*
X113089705Y-84187440D01*
X113099782Y-83937385D01*
X113077030Y-83750000D01*
X114339707Y-83750000D01*
X114290778Y-83422245D01*
X114290777Y-83422240D01*
X114203181Y-83101672D01*
X114078277Y-82793691D01*
X113917835Y-82502667D01*
X113917828Y-82502656D01*
X113724089Y-82232647D01*
X113499773Y-81987444D01*
X113248032Y-81770494D01*
X113248018Y-81770483D01*
X112972398Y-81584840D01*
X112972397Y-81584839D01*
X112676724Y-81433081D01*
X112365202Y-81317367D01*
X112042165Y-81239306D01*
X112042160Y-81239305D01*
X111712160Y-81200000D01*
X111296000Y-81200000D01*
X111296000Y-82450000D01*
X110796000Y-82450000D01*
X110796000Y-81200000D01*
X110462993Y-81200000D01*
X110214258Y-81214761D01*
X110214248Y-81214763D01*
X109887161Y-81273548D01*
X109569316Y-81370608D01*
X109265196Y-81504574D01*
X108979033Y-81673580D01*
X108979028Y-81673584D01*
X108714881Y-81875237D01*
X108714879Y-81875239D01*
X108476429Y-82106725D01*
X108476428Y-82106726D01*
X108267031Y-82364790D01*
X108267026Y-82364796D01*
X108089630Y-82645800D01*
X108089625Y-82645810D01*
X107946705Y-82945827D01*
X107946705Y-82945828D01*
X107840268Y-83260660D01*
X107771814Y-83585867D01*
X107771813Y-83585870D01*
X107757182Y-83749999D01*
X107757183Y-83750000D01*
X109015067Y-83750000D01*
X109002295Y-83812560D01*
X108992218Y-84062615D01*
X109014970Y-84250000D01*
X107752293Y-84250000D01*
X107801221Y-84577754D01*
X107801222Y-84577759D01*
X107888818Y-84898327D01*
X108013722Y-85206308D01*
X108174164Y-85497332D01*
X108174171Y-85497343D01*
X108367910Y-85767352D01*
X108592226Y-86012555D01*
X108843967Y-86229505D01*
X108843981Y-86229516D01*
X109119601Y-86415159D01*
X109119602Y-86415160D01*
X109415275Y-86566918D01*
X109726797Y-86682632D01*
X110049834Y-86760693D01*
X110049839Y-86760694D01*
X110379839Y-86799999D01*
X110379841Y-86800000D01*
X110796000Y-86800000D01*
X110796000Y-85550000D01*
X111296000Y-85550000D01*
X111296000Y-86800000D01*
X111629007Y-86800000D01*
X111877741Y-86785238D01*
X111877751Y-86785236D01*
X112204838Y-86726451D01*
X112522683Y-86629391D01*
X112826803Y-86495425D01*
X113112966Y-86326419D01*
X113112971Y-86326415D01*
X113377118Y-86124762D01*
X113377120Y-86124760D01*
X113615570Y-85893274D01*
X113615571Y-85893273D01*
X113779211Y-85691602D01*
X113836737Y-85651947D01*
X113906570Y-85649689D01*
X113966539Y-85685543D01*
X113997603Y-85748127D01*
X113999500Y-85769733D01*
X113999500Y-93299902D01*
X113979815Y-93366941D01*
X113963181Y-93387583D01*
X107006096Y-100344668D01*
X106999994Y-100350019D01*
X106971716Y-100371719D01*
X106877644Y-100494318D01*
X106875464Y-100497158D01*
X106875461Y-100497163D01*
X106814957Y-100643234D01*
X106814955Y-100643239D01*
X106794318Y-100799998D01*
X106794318Y-100799999D01*
X106798969Y-100835326D01*
X106799500Y-100843428D01*
X106799500Y-103083100D01*
X106779815Y-103150139D01*
X106727011Y-103195894D01*
X106657853Y-103205838D01*
X106657305Y-103205758D01*
X106649022Y-103204529D01*
X106233076Y-103620474D01*
X106209493Y-103540156D01*
X106131761Y-103419202D01*
X106023100Y-103325048D01*
X105892315Y-103265320D01*
X105882533Y-103263913D01*
X106295469Y-102850976D01*
X106295469Y-102850975D01*
X106153766Y-102775233D01*
X105955834Y-102715191D01*
X105750000Y-102694919D01*
X105544166Y-102715191D01*
X105346234Y-102775234D01*
X105204529Y-102850975D01*
X105204529Y-102850976D01*
X105617466Y-103263913D01*
X105607685Y-103265320D01*
X105476900Y-103325048D01*
X105368239Y-103419202D01*
X105290507Y-103540156D01*
X105266923Y-103620476D01*
X104850976Y-103204529D01*
X104850975Y-103204529D01*
X104775234Y-103346234D01*
X104715191Y-103544166D01*
X104694919Y-103750000D01*
X104715191Y-103955834D01*
X104775233Y-104153766D01*
X104850975Y-104295469D01*
X104850976Y-104295469D01*
X105266922Y-103879523D01*
X105290507Y-103959844D01*
X105368239Y-104080798D01*
X105476900Y-104174952D01*
X105607685Y-104234680D01*
X105617466Y-104236086D01*
X105204528Y-104649023D01*
X105294386Y-104697053D01*
X105344231Y-104746015D01*
X105359691Y-104814153D01*
X105335859Y-104879833D01*
X105294387Y-104915769D01*
X105219373Y-104955865D01*
X105074642Y-105074642D01*
X104955864Y-105219373D01*
X104955862Y-105219376D01*
X104867604Y-105384497D01*
X104813253Y-105563666D01*
X104813252Y-105563668D01*
X104794901Y-105750000D01*
X104813252Y-105936331D01*
X104813253Y-105936333D01*
X104867604Y-106115502D01*
X104955862Y-106280623D01*
X104955864Y-106280626D01*
X105074642Y-106425357D01*
X105219373Y-106544135D01*
X105219376Y-106544137D01*
X105384499Y-106632396D01*
X105390123Y-106634726D01*
X105389282Y-106636756D01*
X105439456Y-106669639D01*
X105467912Y-106733451D01*
X105457350Y-106802518D01*
X105411125Y-106854911D01*
X105389854Y-106864624D01*
X105390123Y-106865274D01*
X105384499Y-106867603D01*
X105219376Y-106955862D01*
X105219373Y-106955864D01*
X105074642Y-107074642D01*
X104955864Y-107219373D01*
X104955862Y-107219376D01*
X104867604Y-107384497D01*
X104813253Y-107563666D01*
X104813252Y-107563668D01*
X104794901Y-107750000D01*
X104813252Y-107936331D01*
X104813253Y-107936333D01*
X104867604Y-108115502D01*
X104955862Y-108280623D01*
X104955864Y-108280626D01*
X105074642Y-108425357D01*
X105219373Y-108544135D01*
X105219376Y-108544137D01*
X105384492Y-108632393D01*
X105384495Y-108632393D01*
X105384499Y-108632396D01*
X105459638Y-108655189D01*
X105518074Y-108693486D01*
X105546531Y-108757298D01*
X105535970Y-108826365D01*
X105489746Y-108878759D01*
X105474076Y-108887128D01*
X105297270Y-108965848D01*
X105297265Y-108965851D01*
X105144129Y-109077111D01*
X105017466Y-109217785D01*
X104922821Y-109381715D01*
X104922818Y-109381722D01*
X104873965Y-109532077D01*
X104864326Y-109561744D01*
X104844540Y-109750000D01*
X104864326Y-109938256D01*
X104864327Y-109938259D01*
X104922818Y-110118277D01*
X104922821Y-110118284D01*
X105017467Y-110282216D01*
X105144129Y-110422888D01*
X105297265Y-110534148D01*
X105297267Y-110534149D01*
X105297270Y-110534151D01*
X105338437Y-110552480D01*
X105391672Y-110597728D01*
X105411994Y-110664577D01*
X105392949Y-110731801D01*
X105346453Y-110775116D01*
X105204529Y-110850975D01*
X105204529Y-110850976D01*
X105617466Y-111263913D01*
X105607685Y-111265320D01*
X105476900Y-111325048D01*
X105368239Y-111419202D01*
X105290507Y-111540156D01*
X105266923Y-111620476D01*
X104850976Y-111204529D01*
X104850975Y-111204529D01*
X104775234Y-111346234D01*
X104715191Y-111544166D01*
X104694919Y-111750000D01*
X104715191Y-111955834D01*
X104775233Y-112153766D01*
X104850975Y-112295469D01*
X104850976Y-112295469D01*
X105266922Y-111879523D01*
X105290507Y-111959844D01*
X105368239Y-112080798D01*
X105476900Y-112174952D01*
X105607685Y-112234680D01*
X105617466Y-112236086D01*
X105204528Y-112649023D01*
X105346233Y-112724766D01*
X105544165Y-112784808D01*
X105749999Y-112805080D01*
X105955834Y-112784808D01*
X106153764Y-112724766D01*
X106295470Y-112649022D01*
X105882534Y-112236086D01*
X105892315Y-112234680D01*
X106023100Y-112174952D01*
X106131761Y-112080798D01*
X106209493Y-111959844D01*
X106233076Y-111879524D01*
X106649022Y-112295469D01*
X106657305Y-112294241D01*
X106726507Y-112303876D01*
X106779515Y-112349395D01*
X106799499Y-112416346D01*
X106799500Y-112416899D01*
X106799500Y-131123742D01*
X106779815Y-131190781D01*
X106776073Y-131196103D01*
X106775465Y-131197156D01*
X106714956Y-131343237D01*
X106714955Y-131343239D01*
X106694318Y-131499998D01*
X106694318Y-131500001D01*
X106714955Y-131656760D01*
X106714956Y-131656762D01*
X106775464Y-131802841D01*
X106871718Y-131928282D01*
X106997159Y-132024536D01*
X107143238Y-132085044D01*
X107204597Y-132093122D01*
X107299999Y-132105682D01*
X107300000Y-132105682D01*
X107456762Y-132085044D01*
X107456765Y-132085042D01*
X107459314Y-132084707D01*
X107528349Y-132095472D01*
X107580605Y-132141852D01*
X107599500Y-132207646D01*
X107599500Y-133956571D01*
X107598969Y-133964669D01*
X107594318Y-134000000D01*
X107599500Y-134039361D01*
X107600011Y-134043239D01*
X107614955Y-134156760D01*
X107614956Y-134156762D01*
X107653576Y-134250000D01*
X107675464Y-134302841D01*
X107771718Y-134428282D01*
X107799995Y-134449980D01*
X107806085Y-134455320D01*
X107904352Y-134553587D01*
X107944669Y-134593904D01*
X107950020Y-134600005D01*
X107971718Y-134628282D01*
X108097159Y-134724536D01*
X108243238Y-134785044D01*
X108291685Y-134791422D01*
X108355580Y-134819686D01*
X108394052Y-134878010D01*
X108399500Y-134914360D01*
X108399500Y-139607370D01*
X108379815Y-139674409D01*
X108327011Y-139720164D01*
X108257853Y-139730108D01*
X108200775Y-139706325D01*
X108196308Y-139702952D01*
X108015019Y-139590702D01*
X108015017Y-139590701D01*
X107885790Y-139540639D01*
X107816198Y-139513679D01*
X107606610Y-139474500D01*
X107393390Y-139474500D01*
X107183802Y-139513679D01*
X107183799Y-139513679D01*
X107183799Y-139513680D01*
X106984982Y-139590701D01*
X106984980Y-139590702D01*
X106803699Y-139702947D01*
X106646127Y-139846593D01*
X106517632Y-140016746D01*
X106422596Y-140207605D01*
X106422596Y-140207607D01*
X106393766Y-140308933D01*
X106356486Y-140368026D01*
X106293177Y-140397583D01*
X106223937Y-140388221D01*
X106170751Y-140342911D01*
X106150504Y-140276039D01*
X106150500Y-140274998D01*
X106150500Y-140145181D01*
X106150500Y-139981898D01*
X106139877Y-139893436D01*
X106084361Y-139752658D01*
X106084360Y-139752657D01*
X106084360Y-139752656D01*
X105992922Y-139632077D01*
X105872343Y-139540639D01*
X105762123Y-139497174D01*
X105731564Y-139485123D01*
X105731563Y-139485122D01*
X105731561Y-139485122D01*
X105685926Y-139479642D01*
X105643102Y-139474500D01*
X104356898Y-139474500D01*
X104317853Y-139479188D01*
X104268438Y-139485122D01*
X104127656Y-139540639D01*
X104007077Y-139632077D01*
X103915639Y-139752656D01*
X103860122Y-139893438D01*
X103855367Y-139933044D01*
X103849500Y-139981898D01*
X103849500Y-141518102D01*
X103855126Y-141564954D01*
X103860122Y-141606561D01*
X103915639Y-141747343D01*
X104007077Y-141867922D01*
X104127656Y-141959360D01*
X104127657Y-141959360D01*
X104127658Y-141959361D01*
X104268436Y-142014877D01*
X104356898Y-142025500D01*
X104356903Y-142025500D01*
X105643097Y-142025500D01*
X105643102Y-142025500D01*
X105731564Y-142014877D01*
X105872342Y-141959361D01*
X105992922Y-141867922D01*
X106084361Y-141747342D01*
X106139877Y-141606564D01*
X106150500Y-141518102D01*
X106150500Y-141225000D01*
X106170185Y-141157962D01*
X106222989Y-141112207D01*
X106292147Y-141102263D01*
X106355703Y-141131288D01*
X106393477Y-141190066D01*
X106393766Y-141191066D01*
X106422596Y-141292392D01*
X106422596Y-141292394D01*
X106517632Y-141483253D01*
X106646127Y-141653406D01*
X106646128Y-141653407D01*
X106803698Y-141797052D01*
X106984981Y-141909298D01*
X107183802Y-141986321D01*
X107393390Y-142025500D01*
X107393392Y-142025500D01*
X107606608Y-142025500D01*
X107606610Y-142025500D01*
X107816198Y-141986321D01*
X108015019Y-141909298D01*
X108196302Y-141797052D01*
X108353872Y-141653407D01*
X108482366Y-141483255D01*
X108508210Y-141431353D01*
X108577403Y-141292394D01*
X108577403Y-141292393D01*
X108577405Y-141292389D01*
X108630734Y-141104959D01*
X108668014Y-141045867D01*
X108731323Y-141016310D01*
X108800563Y-141025672D01*
X108853749Y-141070982D01*
X108869265Y-141104959D01*
X108889992Y-141177805D01*
X108922596Y-141292392D01*
X108922596Y-141292394D01*
X109017632Y-141483253D01*
X109146127Y-141653406D01*
X109146128Y-141653407D01*
X109303698Y-141797052D01*
X109484981Y-141909298D01*
X109683802Y-141986321D01*
X109893390Y-142025500D01*
X109893392Y-142025500D01*
X110106608Y-142025500D01*
X110106610Y-142025500D01*
X110316198Y-141986321D01*
X110515019Y-141909298D01*
X110696302Y-141797052D01*
X110853872Y-141653407D01*
X110982366Y-141483255D01*
X111008210Y-141431353D01*
X111077403Y-141292394D01*
X111077403Y-141292393D01*
X111077405Y-141292389D01*
X111128220Y-141113794D01*
X111165499Y-141054702D01*
X111228809Y-141025145D01*
X111298049Y-141034507D01*
X111351235Y-141079817D01*
X111364133Y-141105664D01*
X111388682Y-141173738D01*
X111389988Y-141177789D01*
X111393766Y-141191066D01*
X111422594Y-141292386D01*
X111422598Y-141292397D01*
X111517632Y-141483253D01*
X111646127Y-141653406D01*
X111646128Y-141653407D01*
X111803698Y-141797052D01*
X111984981Y-141909298D01*
X112183802Y-141986321D01*
X112393390Y-142025500D01*
X112393392Y-142025500D01*
X112606608Y-142025500D01*
X112606610Y-142025500D01*
X112816198Y-141986321D01*
X113015019Y-141909298D01*
X113196302Y-141797052D01*
X113353872Y-141653407D01*
X113482366Y-141483255D01*
X113508210Y-141431353D01*
X113577403Y-141292394D01*
X113577403Y-141292393D01*
X113577405Y-141292389D01*
X113630994Y-141104043D01*
X113668273Y-141044952D01*
X113731583Y-141015395D01*
X113800823Y-141024757D01*
X113854009Y-141070067D01*
X113869526Y-141104046D01*
X113923058Y-141292196D01*
X113923066Y-141292216D01*
X114018059Y-141482989D01*
X114146500Y-141653071D01*
X114304000Y-141796651D01*
X114304002Y-141796653D01*
X114485201Y-141908846D01*
X114485207Y-141908849D01*
X114683941Y-141985838D01*
X114700000Y-141988840D01*
X114700000Y-141118564D01*
X114740555Y-141153705D01*
X114864801Y-141210446D01*
X114966025Y-141225000D01*
X115033975Y-141225000D01*
X115135199Y-141210446D01*
X115259445Y-141153705D01*
X115299999Y-141118564D01*
X115300000Y-141988839D01*
X115316058Y-141985838D01*
X115514792Y-141908849D01*
X115514798Y-141908846D01*
X115695997Y-141796653D01*
X115695999Y-141796651D01*
X115853499Y-141653071D01*
X115981940Y-141482989D01*
X116076933Y-141292216D01*
X116076938Y-141292203D01*
X116130472Y-141104047D01*
X116167751Y-141044953D01*
X116231061Y-141015395D01*
X116300300Y-141024757D01*
X116353487Y-141070066D01*
X116369005Y-141104045D01*
X116422596Y-141292392D01*
X116422596Y-141292394D01*
X116517632Y-141483253D01*
X116646127Y-141653406D01*
X116646128Y-141653407D01*
X116803698Y-141797052D01*
X116984981Y-141909298D01*
X117183802Y-141986321D01*
X117393390Y-142025500D01*
X117393392Y-142025500D01*
X117606608Y-142025500D01*
X117606610Y-142025500D01*
X117816198Y-141986321D01*
X118015019Y-141909298D01*
X118196302Y-141797052D01*
X118353872Y-141653407D01*
X118482366Y-141483255D01*
X118508210Y-141431353D01*
X118577403Y-141292394D01*
X118577403Y-141292393D01*
X118577405Y-141292389D01*
X118635756Y-141087310D01*
X118650500Y-140928194D01*
X118650500Y-140571806D01*
X118635756Y-140412690D01*
X118577405Y-140207611D01*
X118577403Y-140207606D01*
X118577403Y-140207605D01*
X118482367Y-140016746D01*
X118353872Y-139846593D01*
X118276745Y-139776282D01*
X118196302Y-139702948D01*
X118015019Y-139590702D01*
X118015017Y-139590701D01*
X117885790Y-139540639D01*
X117816198Y-139513679D01*
X117606610Y-139474500D01*
X117393390Y-139474500D01*
X117183802Y-139513679D01*
X117183799Y-139513679D01*
X117183799Y-139513680D01*
X116984982Y-139590701D01*
X116984980Y-139590702D01*
X116803699Y-139702947D01*
X116646127Y-139846593D01*
X116517632Y-140016746D01*
X116422596Y-140207605D01*
X116422596Y-140207607D01*
X116369005Y-140395954D01*
X116331725Y-140455047D01*
X116268415Y-140484604D01*
X116199176Y-140475242D01*
X116145990Y-140429931D01*
X116130472Y-140395952D01*
X116076938Y-140207796D01*
X116076933Y-140207783D01*
X115981940Y-140017010D01*
X115853499Y-139846928D01*
X115695999Y-139703348D01*
X115695997Y-139703346D01*
X115514798Y-139591153D01*
X115514792Y-139591151D01*
X115316060Y-139514162D01*
X115300000Y-139511159D01*
X115299999Y-140381435D01*
X115259445Y-140346295D01*
X115135199Y-140289554D01*
X115033975Y-140275000D01*
X114966025Y-140275000D01*
X114864801Y-140289554D01*
X114740555Y-140346295D01*
X114700000Y-140381435D01*
X114700000Y-139511159D01*
X114683939Y-139514162D01*
X114485207Y-139591151D01*
X114485201Y-139591153D01*
X114304002Y-139703346D01*
X114304000Y-139703348D01*
X114146500Y-139846928D01*
X114018059Y-140017010D01*
X113923066Y-140207783D01*
X113923058Y-140207803D01*
X113869526Y-140395953D01*
X113832247Y-140455046D01*
X113768938Y-140484604D01*
X113699698Y-140475242D01*
X113646511Y-140429932D01*
X113630994Y-140395954D01*
X113630994Y-140395953D01*
X113577405Y-140207611D01*
X113577403Y-140207606D01*
X113577403Y-140207605D01*
X113482367Y-140016746D01*
X113353872Y-139846593D01*
X113276745Y-139776282D01*
X113196302Y-139702948D01*
X113015019Y-139590702D01*
X113015017Y-139590701D01*
X112885790Y-139540639D01*
X112816198Y-139513679D01*
X112606610Y-139474500D01*
X112606608Y-139474500D01*
X112585934Y-139474500D01*
X112548823Y-139468816D01*
X112382118Y-139416527D01*
X112375763Y-139414145D01*
X112147219Y-139313871D01*
X112141674Y-139311101D01*
X111908255Y-139179490D01*
X111903539Y-139176544D01*
X111818477Y-139117943D01*
X111662894Y-139010758D01*
X111645561Y-138996326D01*
X110536818Y-137887583D01*
X110503333Y-137826260D01*
X110500499Y-137799902D01*
X110500499Y-134575282D01*
X111433500Y-134575282D01*
X111448284Y-134800852D01*
X111448286Y-134800864D01*
X111507102Y-135096553D01*
X111507106Y-135096568D01*
X111604016Y-135382055D01*
X111604025Y-135382076D01*
X111737370Y-135652471D01*
X111904870Y-135903154D01*
X112103664Y-136129835D01*
X112330342Y-136328626D01*
X112581030Y-136496131D01*
X112851437Y-136629481D01*
X112851447Y-136629485D01*
X113136926Y-136726392D01*
X113136946Y-136726397D01*
X113432638Y-136785214D01*
X113432643Y-136785215D01*
X113483500Y-136788548D01*
X113483500Y-135600623D01*
X113679727Y-135628837D01*
X113894332Y-135618614D01*
X113983500Y-135596981D01*
X113983500Y-136788548D01*
X114034356Y-136785215D01*
X114034361Y-136785214D01*
X114330053Y-136726397D01*
X114330068Y-136726393D01*
X114615555Y-136629483D01*
X114615576Y-136629474D01*
X114885971Y-136496129D01*
X115136654Y-136328629D01*
X115363335Y-136129835D01*
X115562129Y-135903154D01*
X115729629Y-135652471D01*
X115862974Y-135382076D01*
X115862983Y-135382055D01*
X115959893Y-135096568D01*
X115959897Y-135096553D01*
X116018713Y-134800864D01*
X116018715Y-134800852D01*
X116033500Y-134575282D01*
X116033500Y-134250000D01*
X114858500Y-134250000D01*
X114858500Y-133750000D01*
X116033500Y-133750000D01*
X116033500Y-133424717D01*
X116018715Y-133199147D01*
X116018713Y-133199135D01*
X115959897Y-132903446D01*
X115959893Y-132903431D01*
X115862983Y-132617944D01*
X115862974Y-132617923D01*
X115729629Y-132347528D01*
X115562129Y-132096845D01*
X115363335Y-131870164D01*
X115136657Y-131671373D01*
X114885969Y-131503868D01*
X114615562Y-131370518D01*
X114615552Y-131370514D01*
X114330073Y-131273607D01*
X114330053Y-131273602D01*
X114034351Y-131214783D01*
X113983500Y-131211449D01*
X113983500Y-132399376D01*
X113787273Y-132371163D01*
X113572668Y-132381386D01*
X113483499Y-132403018D01*
X113483499Y-131211449D01*
X113432650Y-131214783D01*
X113432647Y-131214783D01*
X113136946Y-131273602D01*
X113136931Y-131273606D01*
X112851444Y-131370516D01*
X112851423Y-131370525D01*
X112581028Y-131503870D01*
X112330345Y-131671370D01*
X112103664Y-131870164D01*
X111904870Y-132096845D01*
X111737370Y-132347528D01*
X111604025Y-132617923D01*
X111604016Y-132617944D01*
X111507106Y-132903431D01*
X111507102Y-132903446D01*
X111448286Y-133199135D01*
X111448284Y-133199147D01*
X111433500Y-133424717D01*
X111433500Y-133750000D01*
X112608500Y-133750000D01*
X112608500Y-134250000D01*
X111433500Y-134250000D01*
X111433500Y-134575282D01*
X110500499Y-134575282D01*
X110500499Y-128574754D01*
X110500499Y-117575282D01*
X111433500Y-117575282D01*
X111448284Y-117800852D01*
X111448286Y-117800864D01*
X111507102Y-118096553D01*
X111507106Y-118096568D01*
X111604016Y-118382055D01*
X111604025Y-118382076D01*
X111737370Y-118652471D01*
X111904870Y-118903154D01*
X112103664Y-119129835D01*
X112330342Y-119328626D01*
X112581030Y-119496131D01*
X112851437Y-119629481D01*
X112851447Y-119629485D01*
X113136926Y-119726392D01*
X113136946Y-119726397D01*
X113432638Y-119785214D01*
X113432643Y-119785215D01*
X113483500Y-119788548D01*
X113483500Y-118600623D01*
X113679727Y-118628837D01*
X113894332Y-118618614D01*
X113983500Y-118596981D01*
X113983500Y-119788548D01*
X114034356Y-119785215D01*
X114034361Y-119785214D01*
X114330053Y-119726397D01*
X114330068Y-119726393D01*
X114615555Y-119629483D01*
X114615576Y-119629474D01*
X114885971Y-119496129D01*
X115136654Y-119328629D01*
X115363335Y-119129835D01*
X115562129Y-118903154D01*
X115729629Y-118652471D01*
X115862974Y-118382076D01*
X115862983Y-118382055D01*
X115959893Y-118096568D01*
X115959897Y-118096553D01*
X116018713Y-117800864D01*
X116018715Y-117800852D01*
X116033500Y-117575282D01*
X116033500Y-117250000D01*
X114858500Y-117250000D01*
X114858500Y-116750000D01*
X116033500Y-116750000D01*
X116033500Y-116424717D01*
X116018715Y-116199147D01*
X116018713Y-116199135D01*
X115959897Y-115903446D01*
X115959893Y-115903431D01*
X115862983Y-115617944D01*
X115862974Y-115617923D01*
X115729629Y-115347528D01*
X115562129Y-115096845D01*
X115363335Y-114870164D01*
X115136657Y-114671373D01*
X114885969Y-114503868D01*
X114615562Y-114370518D01*
X114615552Y-114370514D01*
X114330073Y-114273607D01*
X114330053Y-114273602D01*
X114034351Y-114214783D01*
X113983500Y-114211449D01*
X113983500Y-115399376D01*
X113787273Y-115371163D01*
X113572668Y-115381386D01*
X113483499Y-115403018D01*
X113483499Y-114211449D01*
X113432650Y-114214783D01*
X113432647Y-114214783D01*
X113136946Y-114273602D01*
X113136931Y-114273606D01*
X112851444Y-114370516D01*
X112851423Y-114370525D01*
X112581028Y-114503870D01*
X112330345Y-114671370D01*
X112103664Y-114870164D01*
X111904870Y-115096845D01*
X111737370Y-115347528D01*
X111604025Y-115617923D01*
X111604016Y-115617944D01*
X111507106Y-115903431D01*
X111507102Y-115903446D01*
X111448286Y-116199135D01*
X111448284Y-116199147D01*
X111433500Y-116424717D01*
X111433500Y-116750000D01*
X112608500Y-116750000D01*
X112608500Y-117250000D01*
X111433500Y-117250000D01*
X111433500Y-117575282D01*
X110500499Y-117575282D01*
X110500499Y-102100092D01*
X110520184Y-102033057D01*
X110536809Y-102012425D01*
X116987819Y-95561414D01*
X117049142Y-95527930D01*
X117118834Y-95532914D01*
X117174767Y-95574786D01*
X117199184Y-95640250D01*
X117199500Y-95649096D01*
X117199500Y-98921729D01*
X117179815Y-98988768D01*
X117127011Y-99034523D01*
X117057853Y-99044467D01*
X116994297Y-99015442D01*
X116970073Y-98987007D01*
X116967165Y-98982310D01*
X116872052Y-98828698D01*
X116728407Y-98671128D01*
X116728406Y-98671127D01*
X116558253Y-98542632D01*
X116367393Y-98447596D01*
X116162310Y-98389244D01*
X116162309Y-98389244D01*
X116003194Y-98374500D01*
X115596806Y-98374500D01*
X115469513Y-98386295D01*
X115437689Y-98389244D01*
X115232607Y-98447596D01*
X115232605Y-98447596D01*
X115041746Y-98542632D01*
X114871593Y-98671127D01*
X114727947Y-98828699D01*
X114615702Y-99009980D01*
X114615701Y-99009982D01*
X114539298Y-99207203D01*
X114538679Y-99208802D01*
X114499500Y-99418390D01*
X114499500Y-99631610D01*
X114538679Y-99841198D01*
X114570350Y-99922952D01*
X114613062Y-100033206D01*
X114615702Y-100040019D01*
X114727948Y-100221302D01*
X114839107Y-100343237D01*
X114871593Y-100378872D01*
X115041746Y-100507367D01*
X115232606Y-100602403D01*
X115232608Y-100602403D01*
X115232611Y-100602405D01*
X115333933Y-100631234D01*
X115393026Y-100668514D01*
X115422583Y-100731823D01*
X115413221Y-100801063D01*
X115367911Y-100854249D01*
X115301039Y-100874496D01*
X115299998Y-100874500D01*
X115006898Y-100874500D01*
X114967853Y-100879188D01*
X114918438Y-100885122D01*
X114777656Y-100940639D01*
X114657077Y-101032077D01*
X114565639Y-101152656D01*
X114510122Y-101293438D01*
X114505490Y-101332016D01*
X114499500Y-101381898D01*
X114499500Y-102668102D01*
X114505126Y-102714954D01*
X114510122Y-102756561D01*
X114565639Y-102897343D01*
X114657077Y-103017922D01*
X114692817Y-103045024D01*
X114727511Y-103085866D01*
X114744920Y-103118790D01*
X114746515Y-103122031D01*
X114808531Y-103257922D01*
X114809665Y-103260567D01*
X114873907Y-103420608D01*
X114874734Y-103422788D01*
X114876814Y-103428593D01*
X114940460Y-103606242D01*
X114941083Y-103608069D01*
X114979219Y-103725952D01*
X114993480Y-103770032D01*
X114999500Y-103808200D01*
X114999500Y-106251552D01*
X114995669Y-106282136D01*
X114930978Y-106536313D01*
X114859130Y-106798127D01*
X114858763Y-106799410D01*
X114787563Y-107038566D01*
X114787099Y-107040056D01*
X114716558Y-107256883D01*
X114715961Y-107258631D01*
X114678579Y-107362874D01*
X114667285Y-107386294D01*
X114590701Y-107509982D01*
X114529679Y-107667500D01*
X114513679Y-107708802D01*
X114474500Y-107918390D01*
X114474500Y-108131610D01*
X114513679Y-108341198D01*
X114513680Y-108341200D01*
X114584988Y-108525271D01*
X114590702Y-108540019D01*
X114702948Y-108721302D01*
X114798726Y-108826365D01*
X114846593Y-108878872D01*
X115016746Y-109007367D01*
X115207606Y-109102403D01*
X115207608Y-109102403D01*
X115207611Y-109102405D01*
X115308933Y-109131234D01*
X115368026Y-109168514D01*
X115397583Y-109231823D01*
X115388221Y-109301063D01*
X115342911Y-109354249D01*
X115276039Y-109374496D01*
X115274998Y-109374500D01*
X114981898Y-109374500D01*
X114942853Y-109379188D01*
X114893438Y-109385122D01*
X114752656Y-109440639D01*
X114632077Y-109532077D01*
X114540639Y-109652656D01*
X114485122Y-109793438D01*
X114479188Y-109842853D01*
X114474500Y-109881898D01*
X114474500Y-111168102D01*
X114479022Y-111205758D01*
X114485122Y-111256561D01*
X114540639Y-111397343D01*
X114632077Y-111517922D01*
X114752656Y-111609360D01*
X114752657Y-111609360D01*
X114752658Y-111609361D01*
X114893436Y-111664877D01*
X114981898Y-111675500D01*
X114981903Y-111675500D01*
X116568097Y-111675500D01*
X116568102Y-111675500D01*
X116656564Y-111664877D01*
X116797342Y-111609361D01*
X116917922Y-111517922D01*
X116976696Y-111440416D01*
X117032888Y-111398894D01*
X117102609Y-111394342D01*
X117163724Y-111428207D01*
X117196827Y-111489736D01*
X117199500Y-111515342D01*
X117199500Y-137756571D01*
X117198969Y-137764673D01*
X117194318Y-137799999D01*
X117194318Y-137800000D01*
X117199500Y-137839360D01*
X117214955Y-137956760D01*
X117214956Y-137956762D01*
X117275464Y-138102841D01*
X117371718Y-138228282D01*
X117399995Y-138249980D01*
X117406085Y-138255320D01*
X123644681Y-144493917D01*
X123650026Y-144500013D01*
X123671718Y-144528282D01*
X123675966Y-144531542D01*
X123717168Y-144587969D01*
X123721322Y-144657716D01*
X123687109Y-144718635D01*
X123625391Y-144751388D01*
X123600478Y-144753916D01*
X103587210Y-144753916D01*
X103583964Y-144753831D01*
X103264844Y-144737105D01*
X103258386Y-144736426D01*
X102944381Y-144686691D01*
X102938029Y-144685341D01*
X102630928Y-144603052D01*
X102624752Y-144601046D01*
X102327943Y-144487111D01*
X102322010Y-144484470D01*
X102038731Y-144340130D01*
X102033107Y-144336883D01*
X101932425Y-144271500D01*
X101766467Y-144163724D01*
X101761224Y-144159915D01*
X101514141Y-143959832D01*
X101509315Y-143955486D01*
X101284513Y-143730684D01*
X101280167Y-143725858D01*
X101080084Y-143478775D01*
X101076277Y-143473536D01*
X100903116Y-143206892D01*
X100899869Y-143201268D01*
X100828872Y-143061931D01*
X100755524Y-142917979D01*
X100752888Y-142912056D01*
X100638953Y-142615247D01*
X100636947Y-142609071D01*
X100554658Y-142301970D01*
X100553308Y-142295618D01*
X100503571Y-141981596D01*
X100502895Y-141975172D01*
X100486166Y-141655993D01*
X100486084Y-141652819D01*
X100502554Y-95065096D01*
X100502585Y-95063224D01*
X100503445Y-95035731D01*
X100508621Y-94870104D01*
X100502432Y-94754912D01*
X100486811Y-94464137D01*
X100486810Y-94464133D01*
X100486810Y-94464121D01*
X100485886Y-94457500D01*
X100475811Y-94385267D01*
X100430643Y-94061450D01*
X100340525Y-93664994D01*
X100217105Y-93277611D01*
X100061273Y-92902092D01*
X99874151Y-92541143D01*
X99874138Y-92541123D01*
X99802890Y-92428282D01*
X99657089Y-92197366D01*
X99411651Y-91873239D01*
X99139606Y-91571097D01*
X99139596Y-91571087D01*
X98842927Y-91293129D01*
X98842910Y-91293114D01*
X98523709Y-91041303D01*
X98184314Y-90817480D01*
X98184305Y-90817475D01*
X97827136Y-90623238D01*
X97664949Y-90552134D01*
X97659781Y-90549575D01*
X97651362Y-90544908D01*
X97630992Y-90537162D01*
X97628138Y-90535994D01*
X97580615Y-90515160D01*
X97580610Y-90515158D01*
X97580609Y-90515158D01*
X97580607Y-90515157D01*
X97578307Y-90514490D01*
X97555789Y-90508563D01*
X93531921Y-88978312D01*
X93527257Y-88976316D01*
X93349509Y-88891500D01*
X93124526Y-88784144D01*
X93120547Y-88782065D01*
X92727061Y-88557900D01*
X92723232Y-88555531D01*
X92347055Y-88303412D01*
X92343408Y-88300771D01*
X91986516Y-88022025D01*
X91983070Y-88019127D01*
X91689315Y-87753216D01*
X97663624Y-87753216D01*
X97684151Y-87974751D01*
X97684152Y-87974753D01*
X97745036Y-88188739D01*
X97745042Y-88188754D01*
X97844205Y-88387899D01*
X97844210Y-88387907D01*
X97978287Y-88565454D01*
X98142704Y-88715339D01*
X98142706Y-88715341D01*
X98331862Y-88832461D01*
X98331863Y-88832461D01*
X98331866Y-88832463D01*
X98539327Y-88912834D01*
X98758024Y-88953716D01*
X98758026Y-88953716D01*
X98980508Y-88953716D01*
X98980510Y-88953716D01*
X99199207Y-88912834D01*
X99406668Y-88832463D01*
X99595829Y-88715340D01*
X99760248Y-88565452D01*
X99894325Y-88387905D01*
X99993496Y-88188744D01*
X100054382Y-87974752D01*
X100074910Y-87753216D01*
X100072666Y-87729004D01*
X100054382Y-87531680D01*
X100054381Y-87531678D01*
X100052241Y-87524157D01*
X99993496Y-87317688D01*
X99993491Y-87317677D01*
X99894328Y-87118532D01*
X99894323Y-87118524D01*
X99827632Y-87030211D01*
X99760248Y-86940980D01*
X99743931Y-86926105D01*
X99707649Y-86866394D01*
X99709409Y-86796546D01*
X99748651Y-86738738D01*
X99812918Y-86711324D01*
X99874920Y-86719905D01*
X100254812Y-86877262D01*
X100279142Y-86884186D01*
X100391458Y-86881591D01*
X100495253Y-86838598D01*
X100576508Y-86761013D01*
X100588816Y-86738915D01*
X101311983Y-84993033D01*
X101318907Y-84968703D01*
X101316312Y-84856387D01*
X101273319Y-84752592D01*
X101195734Y-84671337D01*
X101195733Y-84671336D01*
X101195732Y-84671335D01*
X101173639Y-84659030D01*
X100186151Y-84250000D01*
X99427754Y-83935862D01*
X99403424Y-83928938D01*
X99291109Y-83931532D01*
X99291107Y-83931532D01*
X99187316Y-83974524D01*
X99187312Y-83974526D01*
X99106056Y-84052112D01*
X99093751Y-84074205D01*
X98370583Y-85820091D01*
X98363659Y-85844419D01*
X98363659Y-85844422D01*
X98366253Y-85956735D01*
X98366253Y-85956737D01*
X98409245Y-86060528D01*
X98409247Y-86060532D01*
X98486833Y-86141788D01*
X98489760Y-86143418D01*
X98508930Y-86154095D01*
X98690986Y-86229505D01*
X98895349Y-86314155D01*
X98949752Y-86357996D01*
X98971817Y-86424290D01*
X98954538Y-86491989D01*
X98903401Y-86539600D01*
X98847896Y-86552716D01*
X98758024Y-86552716D01*
X98539327Y-86593598D01*
X98446935Y-86629391D01*
X98331868Y-86673968D01*
X98331862Y-86673970D01*
X98142706Y-86791090D01*
X98142704Y-86791092D01*
X97978287Y-86940977D01*
X97844210Y-87118524D01*
X97844205Y-87118532D01*
X97745042Y-87317677D01*
X97745036Y-87317692D01*
X97684152Y-87531678D01*
X97684151Y-87531680D01*
X97663624Y-87753215D01*
X97663624Y-87753216D01*
X91689315Y-87753216D01*
X91647342Y-87715221D01*
X91644115Y-87712080D01*
X91454377Y-87513443D01*
X91331312Y-87384606D01*
X91328325Y-87381242D01*
X91040103Y-87031932D01*
X91037376Y-87028370D01*
X91028954Y-87016504D01*
X90775258Y-86659071D01*
X90772807Y-86655337D01*
X90538168Y-86267981D01*
X90535985Y-86264063D01*
X90491617Y-86177154D01*
X90330072Y-85860714D01*
X90328179Y-85856645D01*
X90152080Y-85439432D01*
X90150481Y-85435223D01*
X90134530Y-85388160D01*
X90005110Y-85006316D01*
X90003830Y-85002032D01*
X89889965Y-84563722D01*
X89888995Y-84559343D01*
X89807226Y-84113892D01*
X89806579Y-84109462D01*
X89803909Y-84085043D01*
X89757346Y-83659274D01*
X89757023Y-83654831D01*
X89751398Y-83500001D01*
X101494318Y-83500001D01*
X101514955Y-83656760D01*
X101514956Y-83656762D01*
X101553576Y-83750000D01*
X101575464Y-83802841D01*
X101671718Y-83928282D01*
X101797159Y-84024536D01*
X101943238Y-84085044D01*
X102021619Y-84095363D01*
X102099999Y-84105682D01*
X102100000Y-84105682D01*
X102100001Y-84105682D01*
X102152253Y-84098802D01*
X102256762Y-84085044D01*
X102402841Y-84024536D01*
X102468015Y-83974526D01*
X102528282Y-83928282D01*
X102549983Y-83899999D01*
X102555311Y-83893922D01*
X104643922Y-81805311D01*
X104649999Y-81799983D01*
X104678282Y-81778282D01*
X104774536Y-81652841D01*
X104835044Y-81506762D01*
X104845341Y-81428550D01*
X104854831Y-81356462D01*
X104855682Y-81350001D01*
X104855682Y-81349999D01*
X104851031Y-81314673D01*
X104850500Y-81306571D01*
X104850500Y-76974500D01*
X104870185Y-76907461D01*
X104922989Y-76861706D01*
X104974500Y-76850500D01*
X113256572Y-76850500D01*
X113264670Y-76851030D01*
X113300000Y-76855682D01*
X113300001Y-76855682D01*
X113352254Y-76848802D01*
X113456762Y-76835044D01*
X113602841Y-76774536D01*
X113728282Y-76678282D01*
X113824536Y-76552841D01*
X113885044Y-76406762D01*
X113902864Y-76271407D01*
X113905682Y-76250001D01*
X113905682Y-76249998D01*
X113885044Y-76093239D01*
X113885044Y-76093238D01*
X113824536Y-75947159D01*
X113728282Y-75821718D01*
X113602841Y-75725464D01*
X113456762Y-75664956D01*
X113456760Y-75664955D01*
X113300001Y-75644318D01*
X113300000Y-75644318D01*
X113264670Y-75648969D01*
X113256572Y-75649500D01*
X104293428Y-75649500D01*
X104285329Y-75648969D01*
X104250000Y-75644318D01*
X104249999Y-75644318D01*
X104093239Y-75664955D01*
X104093237Y-75664956D01*
X103947160Y-75725463D01*
X103821718Y-75821718D01*
X103725463Y-75947160D01*
X103664956Y-76093237D01*
X103664955Y-76093239D01*
X103644318Y-76249998D01*
X103644318Y-76249999D01*
X103648969Y-76285326D01*
X103649500Y-76293428D01*
X103649500Y-81049902D01*
X103629815Y-81116941D01*
X103613181Y-81137583D01*
X101706096Y-83044668D01*
X101699993Y-83050020D01*
X101671718Y-83071717D01*
X101645768Y-83105534D01*
X101645769Y-83105535D01*
X101575464Y-83197158D01*
X101575461Y-83197163D01*
X101514957Y-83343234D01*
X101514955Y-83343239D01*
X101494318Y-83499998D01*
X101494318Y-83500001D01*
X89751398Y-83500001D01*
X89740890Y-83210730D01*
X89740936Y-83205184D01*
X89872029Y-80753216D01*
X97913624Y-80753216D01*
X97934151Y-80974751D01*
X97934152Y-80974753D01*
X97995036Y-81188739D01*
X97995042Y-81188754D01*
X98094205Y-81387899D01*
X98094210Y-81387907D01*
X98228287Y-81565454D01*
X98392704Y-81715339D01*
X98392706Y-81715341D01*
X98581862Y-81832461D01*
X98581863Y-81832461D01*
X98581866Y-81832463D01*
X98789327Y-81912834D01*
X99008024Y-81953716D01*
X99008026Y-81953716D01*
X99230508Y-81953716D01*
X99230510Y-81953716D01*
X99449207Y-81912834D01*
X99656668Y-81832463D01*
X99845829Y-81715340D01*
X100000191Y-81574620D01*
X100010246Y-81565454D01*
X100015046Y-81559099D01*
X100144325Y-81387905D01*
X100243496Y-81188744D01*
X100304382Y-80974752D01*
X100324910Y-80753216D01*
X100310712Y-80599998D01*
X100304382Y-80531680D01*
X100304381Y-80531678D01*
X100300943Y-80519596D01*
X100243496Y-80317688D01*
X100243491Y-80317677D01*
X100144328Y-80118532D01*
X100144323Y-80118524D01*
X100066111Y-80014955D01*
X100010248Y-79940980D01*
X99993931Y-79926105D01*
X99957649Y-79866394D01*
X99959409Y-79796546D01*
X99998651Y-79738738D01*
X100062918Y-79711324D01*
X100124920Y-79719905D01*
X100504812Y-79877262D01*
X100529142Y-79884186D01*
X100641458Y-79881591D01*
X100745253Y-79838598D01*
X100826508Y-79761013D01*
X100838816Y-79738915D01*
X101561983Y-77993033D01*
X101568907Y-77968703D01*
X101566312Y-77856387D01*
X101558570Y-77837697D01*
X101523320Y-77752595D01*
X101523319Y-77752592D01*
X101445734Y-77671337D01*
X101445733Y-77671336D01*
X101445732Y-77671335D01*
X101423639Y-77659030D01*
X100087736Y-77105682D01*
X99677754Y-76935862D01*
X99653424Y-76928938D01*
X99541109Y-76931532D01*
X99541107Y-76931532D01*
X99437316Y-76974524D01*
X99437312Y-76974526D01*
X99356056Y-77052112D01*
X99343751Y-77074205D01*
X98620583Y-78820091D01*
X98613659Y-78844419D01*
X98613659Y-78844422D01*
X98616253Y-78956735D01*
X98616253Y-78956737D01*
X98659245Y-79060528D01*
X98659247Y-79060532D01*
X98736833Y-79141788D01*
X98758926Y-79154093D01*
X98758930Y-79154095D01*
X98887410Y-79207313D01*
X99145349Y-79314155D01*
X99199752Y-79357996D01*
X99221817Y-79424290D01*
X99204538Y-79491989D01*
X99153401Y-79539600D01*
X99097896Y-79552716D01*
X99008024Y-79552716D01*
X98789327Y-79593598D01*
X98704075Y-79626625D01*
X98581868Y-79673968D01*
X98581862Y-79673970D01*
X98392706Y-79791090D01*
X98392704Y-79791092D01*
X98228287Y-79940977D01*
X98094210Y-80118524D01*
X98094205Y-80118532D01*
X97995042Y-80317677D01*
X97995036Y-80317692D01*
X97934152Y-80531678D01*
X97934151Y-80531680D01*
X97913624Y-80753215D01*
X97913624Y-80753216D01*
X89872029Y-80753216D01*
X90104874Y-76398063D01*
X90107902Y-76376673D01*
X90110451Y-76365683D01*
X90109048Y-76324369D01*
X90109102Y-76318965D01*
X90109174Y-76317626D01*
X90109701Y-76307781D01*
X90108377Y-76293011D01*
X90108131Y-76287918D01*
X90106354Y-76040683D01*
X90103139Y-75593266D01*
X90103203Y-75590022D01*
X90135832Y-74885852D01*
X90136074Y-74882553D01*
X90137677Y-74866546D01*
X90206304Y-74181148D01*
X90206720Y-74177887D01*
X90314353Y-73481234D01*
X90314935Y-73478036D01*
X90425286Y-72951992D01*
X90459660Y-72788134D01*
X90460427Y-72784907D01*
X90462349Y-72777690D01*
X90641828Y-72103743D01*
X90642755Y-72100602D01*
X90860327Y-71430071D01*
X90861403Y-71427034D01*
X91114519Y-70769083D01*
X91115763Y-70766090D01*
X91403692Y-70122619D01*
X91405112Y-70119662D01*
X91413515Y-70103292D01*
X91727025Y-69492519D01*
X91728580Y-69489680D01*
X92083572Y-68880628D01*
X92085300Y-68877841D01*
X92472306Y-68288706D01*
X92474200Y-68285984D01*
X92488725Y-68266259D01*
X92892162Y-67718369D01*
X92894199Y-67715752D01*
X93341919Y-67171283D01*
X93344074Y-67168803D01*
X93820268Y-66649046D01*
X93822530Y-66646707D01*
X94325857Y-66153128D01*
X94328234Y-66150920D01*
X94857210Y-65684978D01*
X94859723Y-65682880D01*
X95412877Y-65245867D01*
X95415494Y-65243913D01*
X95991200Y-64837115D01*
X95993899Y-64835314D01*
X96590582Y-64459847D01*
X96593334Y-64458216D01*
X97209225Y-64115195D01*
X97212080Y-64113703D01*
X97845416Y-63804108D01*
X97848391Y-63802751D01*
X98497365Y-63527465D01*
X98500396Y-63526274D01*
X99163160Y-63286078D01*
X99166245Y-63285053D01*
X99840897Y-63080637D01*
X99844027Y-63079779D01*
X100528650Y-62911726D01*
X100531823Y-62911036D01*
X101224458Y-62779825D01*
X101227687Y-62779302D01*
X101926331Y-62685313D01*
X101929568Y-62684966D01*
X102632226Y-62628465D01*
X102635518Y-62628290D01*
X103340875Y-62609420D01*
X103342533Y-62609398D01*
X103416347Y-62609398D01*
X103416514Y-62609385D01*
X112921983Y-62607857D01*
X112989023Y-62627531D01*
X113034786Y-62680327D01*
X113046000Y-62731857D01*
X113046000Y-73875500D01*
X113026315Y-73942539D01*
X112973511Y-73988294D01*
X112922000Y-73999500D01*
X111837726Y-73999500D01*
X111770687Y-73979815D01*
X111724932Y-73927011D01*
X111714988Y-73857853D01*
X111744013Y-73794297D01*
X111787640Y-73762066D01*
X111799983Y-73756616D01*
X111816765Y-73749206D01*
X111896206Y-73669765D01*
X111941585Y-73566991D01*
X111944500Y-73541865D01*
X111944499Y-71652136D01*
X111944497Y-71652117D01*
X111941586Y-71627012D01*
X111941585Y-71627010D01*
X111941585Y-71627009D01*
X111896206Y-71524235D01*
X111816765Y-71444794D01*
X111816763Y-71444793D01*
X111713992Y-71399415D01*
X111688865Y-71396500D01*
X109799143Y-71396500D01*
X109799117Y-71396502D01*
X109774012Y-71399413D01*
X109774008Y-71399415D01*
X109671235Y-71444793D01*
X109591794Y-71524234D01*
X109546415Y-71627006D01*
X109546415Y-71627008D01*
X109543500Y-71652131D01*
X109543500Y-72066578D01*
X109523815Y-72133617D01*
X109471011Y-72179372D01*
X109401853Y-72189316D01*
X109338297Y-72160291D01*
X109308500Y-72121850D01*
X109229061Y-71962316D01*
X109229056Y-71962308D01*
X109094979Y-71784761D01*
X108930562Y-71634876D01*
X108930560Y-71634874D01*
X108741404Y-71517754D01*
X108741398Y-71517752D01*
X108533940Y-71437382D01*
X108315243Y-71396500D01*
X108092757Y-71396500D01*
X107874060Y-71437382D01*
X107742864Y-71488207D01*
X107666601Y-71517752D01*
X107666595Y-71517754D01*
X107477439Y-71634874D01*
X107477437Y-71634876D01*
X107313020Y-71784761D01*
X107178943Y-71962308D01*
X107178938Y-71962316D01*
X107079775Y-72161461D01*
X107079769Y-72161476D01*
X107018885Y-72375462D01*
X107018884Y-72375464D01*
X106998357Y-72596999D01*
X106998357Y-72597000D01*
X107018884Y-72818535D01*
X107018885Y-72818537D01*
X107079769Y-73032523D01*
X107079775Y-73032538D01*
X107178938Y-73231683D01*
X107178943Y-73231691D01*
X107313020Y-73409238D01*
X107477437Y-73559123D01*
X107477439Y-73559125D01*
X107666595Y-73676245D01*
X107666596Y-73676245D01*
X107666599Y-73676247D01*
X107874060Y-73756618D01*
X107874065Y-73756618D01*
X107879406Y-73758688D01*
X107878855Y-73760108D01*
X107931808Y-73793518D01*
X107961362Y-73856829D01*
X107951996Y-73926068D01*
X107906684Y-73979252D01*
X107839811Y-73999496D01*
X107838776Y-73999500D01*
X104587726Y-73999500D01*
X104520687Y-73979815D01*
X104474932Y-73927011D01*
X104464988Y-73857853D01*
X104494013Y-73794297D01*
X104537640Y-73762066D01*
X104549983Y-73756616D01*
X104566765Y-73749206D01*
X104646206Y-73669765D01*
X104691585Y-73566991D01*
X104694500Y-73541865D01*
X104694499Y-71652136D01*
X104694497Y-71652117D01*
X104691586Y-71627012D01*
X104691585Y-71627010D01*
X104691585Y-71627009D01*
X104646206Y-71524235D01*
X104566765Y-71444794D01*
X104566763Y-71444793D01*
X104463992Y-71399415D01*
X104438865Y-71396500D01*
X102549143Y-71396500D01*
X102549117Y-71396502D01*
X102524012Y-71399413D01*
X102524008Y-71399415D01*
X102421235Y-71444793D01*
X102341794Y-71524234D01*
X102296415Y-71627006D01*
X102296415Y-71627008D01*
X102293500Y-71652131D01*
X102293500Y-72066581D01*
X102273815Y-72133620D01*
X102221011Y-72179375D01*
X102151853Y-72189319D01*
X102088297Y-72160294D01*
X102058500Y-72121852D01*
X101979058Y-71962312D01*
X101979058Y-71962311D01*
X101863735Y-71809598D01*
X101844979Y-71784761D01*
X101680562Y-71634876D01*
X101680560Y-71634874D01*
X101491404Y-71517754D01*
X101491398Y-71517752D01*
X101283940Y-71437382D01*
X101065243Y-71396500D01*
X100842757Y-71396500D01*
X100624060Y-71437382D01*
X100492864Y-71488207D01*
X100416601Y-71517752D01*
X100416595Y-71517754D01*
X100227439Y-71634874D01*
X100227437Y-71634876D01*
X100063020Y-71784761D01*
X99928943Y-71962308D01*
X99928938Y-71962316D01*
X99829775Y-72161461D01*
X99829769Y-72161476D01*
X99768885Y-72375462D01*
X99768884Y-72375464D01*
X99748357Y-72596999D01*
X99748357Y-72597000D01*
X99768884Y-72818535D01*
X99768885Y-72818537D01*
X99829769Y-73032523D01*
X99829775Y-73032538D01*
X99928938Y-73231683D01*
X99928943Y-73231691D01*
X100063020Y-73409238D01*
X100227437Y-73559123D01*
X100227439Y-73559125D01*
X100335632Y-73626114D01*
X100416599Y-73676247D01*
X100416604Y-73676248D01*
X100416606Y-73676250D01*
X100437056Y-73684172D01*
X100499416Y-73708330D01*
X100506622Y-73711667D01*
X100527562Y-73723047D01*
X100585681Y-73741855D01*
X100588964Y-73743021D01*
X100624060Y-73756618D01*
X100636134Y-73758875D01*
X100637273Y-73759088D01*
X100644974Y-73761045D01*
X100901280Y-73843993D01*
X100911533Y-73846920D01*
X100922571Y-73849658D01*
X100922685Y-73849687D01*
X100933060Y-73851880D01*
X100933096Y-73851886D01*
X100933125Y-73851893D01*
X101229109Y-73903714D01*
X101427906Y-73941797D01*
X101455327Y-73950444D01*
X101608713Y-74019263D01*
X101636970Y-74036835D01*
X101882479Y-74239858D01*
X101883272Y-74240310D01*
X101884611Y-74241331D01*
X101886895Y-74242910D01*
X101886820Y-74243017D01*
X101909538Y-74260352D01*
X102455614Y-74806428D01*
X102472246Y-74827066D01*
X102474854Y-74831125D01*
X102474858Y-74831129D01*
X102514055Y-74865093D01*
X102517296Y-74868110D01*
X102528396Y-74879211D01*
X102528401Y-74879215D01*
X102528406Y-74879220D01*
X102540979Y-74888631D01*
X102544419Y-74891402D01*
X102583627Y-74925377D01*
X102588012Y-74927379D01*
X102610813Y-74940908D01*
X102614669Y-74943795D01*
X102647928Y-74956200D01*
X102663269Y-74961922D01*
X102667359Y-74963617D01*
X102698081Y-74977647D01*
X102714543Y-74985165D01*
X102719316Y-74985851D01*
X102745004Y-74992408D01*
X102749517Y-74994091D01*
X102801245Y-74997790D01*
X102805652Y-74998264D01*
X102821200Y-75000500D01*
X102821201Y-75000500D01*
X102836915Y-75000500D01*
X102841337Y-75000657D01*
X102893073Y-75004358D01*
X102896302Y-75003655D01*
X102897781Y-75003334D01*
X102924138Y-75000500D01*
X133441324Y-75000500D01*
X133508363Y-75020185D01*
X133529005Y-75036819D01*
X135163181Y-76670995D01*
X135196666Y-76732318D01*
X135199500Y-76758676D01*
X135199500Y-94272473D01*
X135179815Y-94339512D01*
X135127011Y-94385267D01*
X135091686Y-94395412D01*
X134943238Y-94414956D01*
X134943237Y-94414956D01*
X134797160Y-94475463D01*
X134671718Y-94571718D01*
X134575463Y-94697160D01*
X134514956Y-94843237D01*
X134514955Y-94843239D01*
X134494318Y-94999998D01*
X134494318Y-95000001D01*
X134514955Y-95156760D01*
X134514956Y-95156762D01*
X134531085Y-95195702D01*
X134575464Y-95302841D01*
X134671718Y-95428282D01*
X134797159Y-95524536D01*
X134943238Y-95585044D01*
X135021619Y-95595363D01*
X135099999Y-95605682D01*
X135100000Y-95605682D01*
X135100001Y-95605682D01*
X135118237Y-95603280D01*
X135256762Y-95585044D01*
X135294625Y-95569359D01*
X135321494Y-95561641D01*
X135330518Y-95560123D01*
X135459958Y-95512643D01*
X135463149Y-95511571D01*
X135469514Y-95509627D01*
X135481678Y-95505911D01*
X135517907Y-95500500D01*
X135522587Y-95500500D01*
X135538130Y-95498264D01*
X135542528Y-95497791D01*
X135594271Y-95494091D01*
X135598780Y-95492408D01*
X135624473Y-95485850D01*
X135629245Y-95485165D01*
X135676434Y-95463613D01*
X135680516Y-95461922D01*
X135709426Y-95451140D01*
X135729117Y-95443797D01*
X135729117Y-95443796D01*
X135729119Y-95443796D01*
X135732977Y-95440907D01*
X135755783Y-95427375D01*
X135760161Y-95425377D01*
X135799352Y-95391416D01*
X135802802Y-95388637D01*
X135805718Y-95386453D01*
X135815381Y-95379221D01*
X135826507Y-95368093D01*
X135829712Y-95365109D01*
X135868931Y-95331128D01*
X135871539Y-95327068D01*
X135888169Y-95306431D01*
X135921474Y-95273126D01*
X135923960Y-95270777D01*
X135929702Y-95265648D01*
X135992812Y-95235672D01*
X136062112Y-95244575D01*
X136115598Y-95289530D01*
X136119692Y-95296133D01*
X136123561Y-95302834D01*
X136123564Y-95302841D01*
X136219818Y-95428282D01*
X136345259Y-95524536D01*
X136491338Y-95585044D01*
X136648100Y-95605682D01*
X136659313Y-95604205D01*
X136728345Y-95614968D01*
X136780603Y-95661346D01*
X136799500Y-95727144D01*
X136799500Y-97341324D01*
X136779815Y-97408363D01*
X136763181Y-97429005D01*
X134605505Y-99586681D01*
X134544182Y-99620166D01*
X134517824Y-99623000D01*
X133712782Y-99623000D01*
X133681617Y-99619020D01*
X133677599Y-99617976D01*
X133573429Y-99610753D01*
X133553504Y-99607730D01*
X133497932Y-99594604D01*
X133492813Y-99593161D01*
X133414827Y-99567515D01*
X133408430Y-99565566D01*
X133408421Y-99565564D01*
X133401655Y-99563663D01*
X133401654Y-99563662D01*
X133395479Y-99562067D01*
X133395478Y-99562066D01*
X133395448Y-99562059D01*
X133282425Y-99535365D01*
X133270193Y-99532997D01*
X133270186Y-99532995D01*
X133270176Y-99532994D01*
X133270171Y-99532993D01*
X133256044Y-99530853D01*
X133243723Y-99529495D01*
X133098368Y-99519416D01*
X133093272Y-99519148D01*
X133089999Y-99519032D01*
X133089957Y-99519031D01*
X133079508Y-99518946D01*
X133071921Y-99518418D01*
X133067359Y-99517818D01*
X133067354Y-99517818D01*
X132910594Y-99538456D01*
X132910593Y-99538456D01*
X132764516Y-99598963D01*
X132639074Y-99695218D01*
X132542818Y-99820661D01*
X132511758Y-99895648D01*
X132501465Y-99920500D01*
X132500449Y-99922952D01*
X132456608Y-99977356D01*
X132390314Y-99999421D01*
X132385888Y-99999500D01*
X131645423Y-99999500D01*
X131614264Y-99995521D01*
X131610243Y-99994477D01*
X131610242Y-99994476D01*
X131610239Y-99994476D01*
X131589526Y-99993039D01*
X131506073Y-99987253D01*
X131486148Y-99984230D01*
X131430576Y-99971104D01*
X131425457Y-99969661D01*
X131347471Y-99944015D01*
X131341074Y-99942066D01*
X131341065Y-99942064D01*
X131334299Y-99940163D01*
X131334298Y-99940162D01*
X131328123Y-99938567D01*
X131328122Y-99938566D01*
X131328092Y-99938559D01*
X131215069Y-99911865D01*
X131202837Y-99909497D01*
X131202830Y-99909495D01*
X131202820Y-99909494D01*
X131202815Y-99909493D01*
X131188688Y-99907353D01*
X131176367Y-99905995D01*
X131031012Y-99895916D01*
X131025916Y-99895648D01*
X131022643Y-99895532D01*
X131022601Y-99895531D01*
X131012152Y-99895446D01*
X131004565Y-99894918D01*
X131000003Y-99894318D01*
X130999998Y-99894318D01*
X130843238Y-99914956D01*
X130843237Y-99914956D01*
X130697160Y-99975463D01*
X130571718Y-100071718D01*
X130475463Y-100197160D01*
X130414956Y-100343237D01*
X130414955Y-100343239D01*
X130394318Y-100499998D01*
X130394318Y-100500001D01*
X130414955Y-100656760D01*
X130414956Y-100656762D01*
X130474727Y-100801063D01*
X130475464Y-100802841D01*
X130571718Y-100928282D01*
X130697159Y-101024536D01*
X130843238Y-101085044D01*
X131000000Y-101105682D01*
X131007692Y-101104668D01*
X131027854Y-101104519D01*
X131027872Y-101103770D01*
X131033597Y-101103903D01*
X131033597Y-101103902D01*
X131033598Y-101103903D01*
X131176358Y-101094005D01*
X131188692Y-101092645D01*
X131188707Y-101092642D01*
X131188713Y-101092642D01*
X131202823Y-101090503D01*
X131202829Y-101090501D01*
X131202861Y-101090497D01*
X131215083Y-101088131D01*
X131328142Y-101061428D01*
X131334431Y-101059800D01*
X131341221Y-101057889D01*
X131347541Y-101055961D01*
X131425451Y-101030337D01*
X131430552Y-101028899D01*
X131486162Y-101015764D01*
X131506076Y-101012743D01*
X131610238Y-101005523D01*
X131615055Y-101004301D01*
X131645525Y-101000500D01*
X132262547Y-101000500D01*
X132329586Y-101020185D01*
X132350228Y-101036819D01*
X132395737Y-101082328D01*
X132412369Y-101102966D01*
X132414977Y-101107025D01*
X132414980Y-101107028D01*
X132454190Y-101141003D01*
X132457406Y-101143997D01*
X132468530Y-101155121D01*
X132468535Y-101155124D01*
X132468540Y-101155129D01*
X132481102Y-101164533D01*
X132484550Y-101167311D01*
X132515070Y-101193756D01*
X132523750Y-101201277D01*
X132528133Y-101203279D01*
X132550930Y-101216805D01*
X132554792Y-101219696D01*
X132603418Y-101237832D01*
X132607474Y-101239512D01*
X132629580Y-101249608D01*
X132654663Y-101261064D01*
X132654664Y-101261064D01*
X132654666Y-101261065D01*
X132659435Y-101261750D01*
X132685125Y-101268307D01*
X132689640Y-101269991D01*
X132741381Y-101273691D01*
X132745780Y-101274164D01*
X132761324Y-101276400D01*
X132777029Y-101276400D01*
X132781451Y-101276557D01*
X132833196Y-101280259D01*
X132837907Y-101279234D01*
X132864266Y-101276400D01*
X134856957Y-101276400D01*
X134883315Y-101279234D01*
X134888027Y-101280259D01*
X134939771Y-101276557D01*
X134944194Y-101276400D01*
X134959899Y-101276400D01*
X134975442Y-101274164D01*
X134979840Y-101273691D01*
X135031583Y-101269991D01*
X135036092Y-101268308D01*
X135061785Y-101261750D01*
X135066557Y-101261065D01*
X135113746Y-101239513D01*
X135117836Y-101237820D01*
X135157717Y-101222946D01*
X135166429Y-101219697D01*
X135166429Y-101219696D01*
X135166431Y-101219696D01*
X135170289Y-101216807D01*
X135193095Y-101203275D01*
X135197473Y-101201277D01*
X135236671Y-101167311D01*
X135240114Y-101164537D01*
X135243030Y-101162353D01*
X135252693Y-101155121D01*
X135263820Y-101143992D01*
X135267025Y-101141009D01*
X135306243Y-101107028D01*
X135308851Y-101102968D01*
X135325481Y-101082331D01*
X138206431Y-98201381D01*
X138227068Y-98184751D01*
X138231128Y-98182143D01*
X138265109Y-98142925D01*
X138268092Y-98139720D01*
X138279221Y-98128593D01*
X138288637Y-98116014D01*
X138291417Y-98112564D01*
X138325377Y-98073373D01*
X138327375Y-98068995D01*
X138340907Y-98046189D01*
X138343796Y-98042331D01*
X138361922Y-97993728D01*
X138363613Y-97989647D01*
X138375106Y-97964481D01*
X138420860Y-97911678D01*
X138487899Y-97891993D01*
X138504074Y-97893053D01*
X138600000Y-97905682D01*
X138600001Y-97905682D01*
X138659384Y-97897864D01*
X138756762Y-97885044D01*
X138902841Y-97824536D01*
X139028282Y-97728282D01*
X139124536Y-97602841D01*
X139160939Y-97514955D01*
X139204780Y-97460552D01*
X139271074Y-97438487D01*
X139338773Y-97455766D01*
X139386384Y-97506903D01*
X139399500Y-97562408D01*
X139399500Y-103032858D01*
X139396667Y-103059206D01*
X139395641Y-103063927D01*
X139395641Y-103063929D01*
X139395641Y-103063930D01*
X139399342Y-103115669D01*
X139399500Y-103120094D01*
X139399500Y-103135799D01*
X139401734Y-103151343D01*
X139402207Y-103155740D01*
X139405909Y-103207485D01*
X139407593Y-103212000D01*
X139414148Y-103237682D01*
X139414834Y-103242455D01*
X139414835Y-103242457D01*
X139436383Y-103289642D01*
X139438071Y-103293716D01*
X139456203Y-103342329D01*
X139459096Y-103346194D01*
X139472617Y-103368983D01*
X139474619Y-103373367D01*
X139474622Y-103373371D01*
X139474623Y-103373373D01*
X139508598Y-103412583D01*
X139511358Y-103416008D01*
X139515611Y-103421689D01*
X139520775Y-103428588D01*
X139520782Y-103428596D01*
X139531886Y-103439700D01*
X139534896Y-103442932D01*
X139562810Y-103475147D01*
X139568871Y-103482142D01*
X139568874Y-103482145D01*
X139572928Y-103484750D01*
X139593571Y-103501385D01*
X139789706Y-103697520D01*
X139808926Y-103722367D01*
X139811033Y-103725951D01*
X139811032Y-103725951D01*
X139879579Y-103804711D01*
X139891531Y-103820937D01*
X139921548Y-103869519D01*
X139924147Y-103874159D01*
X139961067Y-103947258D01*
X139961069Y-103947261D01*
X139964058Y-103952885D01*
X139967486Y-103959024D01*
X139970929Y-103964882D01*
X139970934Y-103964889D01*
X140032014Y-104063742D01*
X140038951Y-104074014D01*
X140043846Y-104080664D01*
X140047435Y-104085540D01*
X140055239Y-104095285D01*
X140061815Y-104102841D01*
X140150887Y-104205186D01*
X140153843Y-104208471D01*
X140154215Y-104208884D01*
X140156434Y-104211271D01*
X140163916Y-104218879D01*
X140168892Y-104224599D01*
X140171718Y-104228282D01*
X140297159Y-104324536D01*
X140443238Y-104385044D01*
X140521619Y-104395363D01*
X140599999Y-104405682D01*
X140600000Y-104405682D01*
X140600001Y-104405682D01*
X140652253Y-104398802D01*
X140756762Y-104385044D01*
X140902841Y-104324536D01*
X141028282Y-104228282D01*
X141124536Y-104102841D01*
X141185044Y-103956762D01*
X141204058Y-103812339D01*
X141205682Y-103800001D01*
X141205682Y-103799998D01*
X141185044Y-103643239D01*
X141185044Y-103643238D01*
X141124536Y-103497159D01*
X141028282Y-103371718D01*
X141022123Y-103366992D01*
X141007770Y-103352850D01*
X141007229Y-103353368D01*
X141003268Y-103349219D01*
X140999838Y-103346234D01*
X140975496Y-103325048D01*
X140895287Y-103255240D01*
X140888744Y-103250000D01*
X140885541Y-103247435D01*
X140874001Y-103238942D01*
X140872135Y-103237682D01*
X140863754Y-103232022D01*
X140863744Y-103232016D01*
X140764889Y-103170934D01*
X140764882Y-103170929D01*
X140759024Y-103167486D01*
X140752885Y-103164058D01*
X140747298Y-103161088D01*
X140674152Y-103124145D01*
X140669511Y-103121545D01*
X140620948Y-103091538D01*
X140604724Y-103079588D01*
X140525958Y-103011038D01*
X140525953Y-103011035D01*
X140525951Y-103011033D01*
X140521678Y-103008488D01*
X140497449Y-102989635D01*
X140436818Y-102929004D01*
X140403334Y-102867680D01*
X140400500Y-102841323D01*
X140400500Y-101807676D01*
X140420185Y-101740637D01*
X140472989Y-101694882D01*
X140542147Y-101684938D01*
X140605703Y-101713963D01*
X140612181Y-101719995D01*
X140689706Y-101797520D01*
X140708926Y-101822367D01*
X140711033Y-101825951D01*
X140711032Y-101825951D01*
X140779579Y-101904711D01*
X140791531Y-101920937D01*
X140821548Y-101969519D01*
X140824147Y-101974159D01*
X140861067Y-102047258D01*
X140861069Y-102047261D01*
X140864058Y-102052885D01*
X140867486Y-102059024D01*
X140870929Y-102064882D01*
X140870934Y-102064889D01*
X140932014Y-102163742D01*
X140938951Y-102174014D01*
X140943846Y-102180664D01*
X140947435Y-102185540D01*
X140955239Y-102195285D01*
X140961815Y-102202841D01*
X141050887Y-102305186D01*
X141053843Y-102308471D01*
X141054215Y-102308884D01*
X141056434Y-102311271D01*
X141063916Y-102318879D01*
X141068892Y-102324599D01*
X141071718Y-102328282D01*
X141197159Y-102424536D01*
X141343238Y-102485044D01*
X141413522Y-102494297D01*
X141499999Y-102505682D01*
X141500000Y-102505682D01*
X141500001Y-102505682D01*
X141552254Y-102498802D01*
X141656762Y-102485044D01*
X141802841Y-102424536D01*
X141928282Y-102328282D01*
X142024536Y-102202841D01*
X142085044Y-102056762D01*
X142105682Y-101900000D01*
X142104765Y-101893038D01*
X142085044Y-101743239D01*
X142085044Y-101743238D01*
X142024536Y-101597159D01*
X141928282Y-101471718D01*
X141922123Y-101466992D01*
X141907770Y-101452850D01*
X141907229Y-101453368D01*
X141903268Y-101449219D01*
X141795287Y-101355240D01*
X141788800Y-101350045D01*
X141785541Y-101347435D01*
X141774001Y-101338942D01*
X141772243Y-101337754D01*
X141763754Y-101332022D01*
X141763744Y-101332016D01*
X141664889Y-101270934D01*
X141664882Y-101270929D01*
X141659024Y-101267486D01*
X141652885Y-101264058D01*
X141647298Y-101261088D01*
X141574152Y-101224145D01*
X141569511Y-101221545D01*
X141520948Y-101191538D01*
X141504724Y-101179588D01*
X141425958Y-101111038D01*
X141425953Y-101111035D01*
X141425951Y-101111033D01*
X141421678Y-101108488D01*
X141397446Y-101089632D01*
X140963819Y-100656004D01*
X140930334Y-100594681D01*
X140927500Y-100568323D01*
X140927500Y-93694143D01*
X140930334Y-93667785D01*
X140931359Y-93663073D01*
X140927658Y-93611329D01*
X140927500Y-93606904D01*
X140927500Y-93591201D01*
X140925264Y-93575657D01*
X140924791Y-93571254D01*
X140924272Y-93564000D01*
X140921091Y-93519517D01*
X140919407Y-93515002D01*
X140912850Y-93489312D01*
X140912165Y-93484543D01*
X140911983Y-93484145D01*
X140890616Y-93437359D01*
X140888932Y-93433295D01*
X140870796Y-93384669D01*
X140867905Y-93380807D01*
X140854379Y-93358010D01*
X140852377Y-93353627D01*
X140843374Y-93343237D01*
X140818411Y-93314427D01*
X140815633Y-93310979D01*
X140806229Y-93298417D01*
X140806224Y-93298412D01*
X140806221Y-93298407D01*
X140795097Y-93287283D01*
X140792103Y-93284067D01*
X140758128Y-93244857D01*
X140758125Y-93244854D01*
X140754066Y-93242246D01*
X140733428Y-93225614D01*
X140647290Y-93139476D01*
X140628066Y-93114623D01*
X140625964Y-93111046D01*
X140595038Y-93075511D01*
X140557412Y-93032278D01*
X140545463Y-93016055D01*
X140541943Y-93010359D01*
X140515440Y-92967467D01*
X140512861Y-92962863D01*
X140475894Y-92889670D01*
X140472859Y-92883964D01*
X140469415Y-92877808D01*
X140466048Y-92872084D01*
X140466046Y-92872082D01*
X140466035Y-92872062D01*
X140404984Y-92773257D01*
X140404973Y-92773240D01*
X140398040Y-92762975D01*
X140398033Y-92762966D01*
X140398028Y-92762958D01*
X140398014Y-92762939D01*
X140389553Y-92751446D01*
X140389546Y-92751436D01*
X140381751Y-92741705D01*
X140286129Y-92631833D01*
X140282775Y-92628105D01*
X140280551Y-92625713D01*
X140273086Y-92618124D01*
X140268104Y-92612396D01*
X140265282Y-92608718D01*
X140265280Y-92608716D01*
X140265279Y-92608715D01*
X140139842Y-92512464D01*
X139993762Y-92451956D01*
X139993760Y-92451955D01*
X139837001Y-92431318D01*
X139836999Y-92431318D01*
X139680239Y-92451955D01*
X139680237Y-92451956D01*
X139534160Y-92512463D01*
X139408718Y-92608718D01*
X139312463Y-92734160D01*
X139251956Y-92880237D01*
X139251956Y-92880238D01*
X139251464Y-92883979D01*
X139247439Y-92914549D01*
X139219172Y-92978445D01*
X139160848Y-93016916D01*
X139090983Y-93017747D01*
X139031760Y-92980675D01*
X139001981Y-92917469D01*
X139000500Y-92898363D01*
X139000500Y-88200001D01*
X143194318Y-88200001D01*
X143214955Y-88356760D01*
X143214956Y-88356762D01*
X143275464Y-88502841D01*
X143371718Y-88628282D01*
X143497159Y-88724536D01*
X143643238Y-88785044D01*
X143721619Y-88795363D01*
X143799999Y-88805682D01*
X143800000Y-88805682D01*
X143800001Y-88805682D01*
X143852254Y-88798802D01*
X143956762Y-88785044D01*
X144102841Y-88724536D01*
X144200013Y-88649973D01*
X144265183Y-88624779D01*
X144333628Y-88638817D01*
X144383617Y-88687631D01*
X144399500Y-88748349D01*
X144399500Y-96852858D01*
X144396667Y-96879206D01*
X144395641Y-96883927D01*
X144395641Y-96883929D01*
X144395641Y-96883930D01*
X144399342Y-96935669D01*
X144399500Y-96940094D01*
X144399500Y-96955799D01*
X144401734Y-96971343D01*
X144402207Y-96975740D01*
X144405909Y-97027485D01*
X144407593Y-97032000D01*
X144414148Y-97057682D01*
X144414834Y-97062455D01*
X144414835Y-97062457D01*
X144436383Y-97109642D01*
X144438071Y-97113716D01*
X144456203Y-97162329D01*
X144459096Y-97166194D01*
X144472617Y-97188983D01*
X144474619Y-97193367D01*
X144474622Y-97193371D01*
X144474623Y-97193373D01*
X144508598Y-97232583D01*
X144511362Y-97236013D01*
X144520775Y-97248588D01*
X144520782Y-97248596D01*
X144531886Y-97259700D01*
X144534896Y-97262932D01*
X144547259Y-97277200D01*
X144568871Y-97302142D01*
X144568874Y-97302145D01*
X144572928Y-97304750D01*
X144593571Y-97321385D01*
X145157849Y-97885663D01*
X145174961Y-97908305D01*
X145175184Y-97908153D01*
X145178427Y-97912880D01*
X145368841Y-98141850D01*
X145386138Y-98169281D01*
X145450617Y-98309340D01*
X145459468Y-98336361D01*
X145496958Y-98519764D01*
X145547996Y-98796850D01*
X145548000Y-98796869D01*
X145550193Y-98806871D01*
X145550199Y-98806894D01*
X145552900Y-98817499D01*
X145555729Y-98827239D01*
X145555742Y-98827281D01*
X145666771Y-99167092D01*
X145667469Y-99169378D01*
X145671842Y-99184743D01*
X145672595Y-99187389D01*
X145672599Y-99187397D01*
X145676195Y-99194618D01*
X145678184Y-99199038D01*
X145681481Y-99207203D01*
X145682683Y-99208962D01*
X145686998Y-99216315D01*
X145767632Y-99378253D01*
X145884491Y-99532997D01*
X145896128Y-99548407D01*
X146053698Y-99692052D01*
X146234981Y-99804298D01*
X146433802Y-99881321D01*
X146630613Y-99918111D01*
X146692893Y-99949779D01*
X146728166Y-100010092D01*
X146725232Y-100079900D01*
X146685023Y-100137040D01*
X146630613Y-100161888D01*
X146433802Y-100198679D01*
X146433799Y-100198679D01*
X146433799Y-100198680D01*
X146234982Y-100275701D01*
X146234980Y-100275702D01*
X146053699Y-100387947D01*
X145896127Y-100531593D01*
X145767632Y-100701746D01*
X145672596Y-100892605D01*
X145672596Y-100892607D01*
X145614244Y-101097689D01*
X145597685Y-101276399D01*
X145594571Y-101310000D01*
X145614244Y-101522310D01*
X145660516Y-101684938D01*
X145672596Y-101727392D01*
X145672596Y-101727394D01*
X145767632Y-101918253D01*
X145878368Y-102064889D01*
X145896128Y-102088407D01*
X146053698Y-102232052D01*
X146234981Y-102344298D01*
X146433802Y-102421321D01*
X146606544Y-102453612D01*
X146668823Y-102485279D01*
X146704096Y-102545591D01*
X146701162Y-102615400D01*
X146660953Y-102672540D01*
X146596235Y-102698871D01*
X146583757Y-102699500D01*
X145855143Y-102699500D01*
X145855117Y-102699502D01*
X145830012Y-102702413D01*
X145830008Y-102702415D01*
X145727235Y-102747793D01*
X145647794Y-102827234D01*
X145602415Y-102930006D01*
X145602415Y-102930008D01*
X145599500Y-102955131D01*
X145599500Y-104744856D01*
X145599502Y-104744882D01*
X145602413Y-104769987D01*
X145602415Y-104769991D01*
X145647793Y-104872764D01*
X145647793Y-104872765D01*
X145647794Y-104872765D01*
X145727235Y-104952206D01*
X145830009Y-104997585D01*
X145855135Y-105000500D01*
X147644864Y-105000499D01*
X147644879Y-105000497D01*
X147644882Y-105000497D01*
X147669987Y-104997586D01*
X147669988Y-104997585D01*
X147669991Y-104997585D01*
X147772765Y-104952206D01*
X147852206Y-104872765D01*
X147897585Y-104769991D01*
X147900500Y-104744865D01*
X147900499Y-102955136D01*
X147897800Y-102931861D01*
X147897586Y-102930012D01*
X147897585Y-102930010D01*
X147897585Y-102930009D01*
X147852206Y-102827235D01*
X147772765Y-102747794D01*
X147772763Y-102747793D01*
X147669992Y-102702415D01*
X147644868Y-102699500D01*
X146916243Y-102699500D01*
X146849204Y-102679815D01*
X146803449Y-102627011D01*
X146793505Y-102557853D01*
X146822530Y-102494297D01*
X146881308Y-102456523D01*
X146893441Y-102453614D01*
X147066198Y-102421321D01*
X147265019Y-102344298D01*
X147446302Y-102232052D01*
X147603872Y-102088407D01*
X147732366Y-101918255D01*
X147741457Y-101899998D01*
X147827403Y-101727394D01*
X147827403Y-101727393D01*
X147827405Y-101727389D01*
X147885756Y-101522310D01*
X147891761Y-101457500D01*
X156051856Y-101457500D01*
X156072384Y-101679035D01*
X156072385Y-101679037D01*
X156133269Y-101893023D01*
X156133275Y-101893038D01*
X156232438Y-102092183D01*
X156232443Y-102092191D01*
X156366520Y-102269738D01*
X156530937Y-102419623D01*
X156530939Y-102419625D01*
X156720095Y-102536745D01*
X156720096Y-102536745D01*
X156720099Y-102536747D01*
X156927560Y-102617118D01*
X157146257Y-102658000D01*
X157146259Y-102658000D01*
X157368741Y-102658000D01*
X157368743Y-102658000D01*
X157587440Y-102617118D01*
X157794901Y-102536747D01*
X157984062Y-102419624D01*
X158148481Y-102269736D01*
X158282558Y-102092189D01*
X158381729Y-101893028D01*
X158442615Y-101679036D01*
X158463143Y-101457500D01*
X158462375Y-101449217D01*
X158442615Y-101235964D01*
X158442614Y-101235962D01*
X158437986Y-101219697D01*
X158381729Y-101021972D01*
X158381724Y-101021961D01*
X158282561Y-100822816D01*
X158282556Y-100822808D01*
X158148479Y-100645261D01*
X157984062Y-100495376D01*
X157984060Y-100495374D01*
X157794904Y-100378254D01*
X157794898Y-100378252D01*
X157587440Y-100297882D01*
X157368743Y-100257000D01*
X157146257Y-100257000D01*
X156927560Y-100297882D01*
X156810486Y-100343237D01*
X156720101Y-100378252D01*
X156720095Y-100378254D01*
X156530939Y-100495374D01*
X156530937Y-100495376D01*
X156366520Y-100645261D01*
X156232443Y-100822808D01*
X156232438Y-100822816D01*
X156133275Y-101021961D01*
X156133269Y-101021976D01*
X156072385Y-101235962D01*
X156072384Y-101235964D01*
X156051856Y-101457499D01*
X156051856Y-101457500D01*
X147891761Y-101457500D01*
X147905429Y-101310000D01*
X147885756Y-101097690D01*
X147827405Y-100892611D01*
X147827403Y-100892606D01*
X147827403Y-100892605D01*
X147732367Y-100701746D01*
X147603872Y-100531593D01*
X147446302Y-100387948D01*
X147265019Y-100275702D01*
X147265017Y-100275701D01*
X147124585Y-100221298D01*
X147066198Y-100198679D01*
X146869385Y-100161888D01*
X146807106Y-100130221D01*
X146771833Y-100069908D01*
X146774767Y-100000100D01*
X146814976Y-99942960D01*
X146869384Y-99918111D01*
X147066198Y-99881321D01*
X147265019Y-99804298D01*
X147446302Y-99692052D01*
X147603872Y-99548407D01*
X147732366Y-99378255D01*
X147816743Y-99208802D01*
X147827403Y-99187394D01*
X147827403Y-99187393D01*
X147827405Y-99187389D01*
X147885756Y-98982310D01*
X147905429Y-98770000D01*
X147885756Y-98557690D01*
X147827405Y-98352611D01*
X147827403Y-98352606D01*
X147827403Y-98352605D01*
X147732367Y-98161746D01*
X147603872Y-97991593D01*
X147574134Y-97964483D01*
X147446302Y-97847948D01*
X147395912Y-97816748D01*
X147265020Y-97735702D01*
X147265018Y-97735701D01*
X147230865Y-97722470D01*
X147186481Y-97705276D01*
X147179131Y-97701859D01*
X147158166Y-97690390D01*
X147158165Y-97690389D01*
X147158157Y-97690386D01*
X147095162Y-97669804D01*
X147092034Y-97668688D01*
X147074812Y-97662016D01*
X147066196Y-97658678D01*
X147066191Y-97658677D01*
X147058315Y-97657205D01*
X147050449Y-97655194D01*
X146945703Y-97620970D01*
X146906167Y-97608052D01*
X146848557Y-97568520D01*
X146821464Y-97504116D01*
X146833492Y-97435290D01*
X146880820Y-97383892D01*
X146921887Y-97368297D01*
X147066198Y-97341321D01*
X147265019Y-97264298D01*
X147446302Y-97152052D01*
X147603872Y-97008407D01*
X147732366Y-96838255D01*
X147751382Y-96800066D01*
X147827403Y-96647394D01*
X147827403Y-96647393D01*
X147827405Y-96647389D01*
X147885756Y-96442310D01*
X147905429Y-96230000D01*
X147904190Y-96216634D01*
X147901229Y-96184676D01*
X147885756Y-96017690D01*
X147827405Y-95812611D01*
X147827403Y-95812606D01*
X147827403Y-95812605D01*
X147732367Y-95621746D01*
X147603872Y-95451593D01*
X147577302Y-95427371D01*
X147446302Y-95307948D01*
X147265019Y-95195702D01*
X147236035Y-95184473D01*
X147180635Y-95141901D01*
X147157045Y-95076134D01*
X147172757Y-95008054D01*
X147222781Y-94959275D01*
X147228426Y-94956466D01*
X147427578Y-94863599D01*
X147621082Y-94728105D01*
X147788105Y-94561082D01*
X147923600Y-94367578D01*
X148023429Y-94153492D01*
X148023432Y-94153486D01*
X148080636Y-93940000D01*
X147183686Y-93940000D01*
X147209493Y-93899844D01*
X147250000Y-93761889D01*
X147250000Y-93618111D01*
X147209493Y-93480156D01*
X147183686Y-93440000D01*
X148080636Y-93440000D01*
X148080635Y-93439999D01*
X148023432Y-93226513D01*
X148023429Y-93226507D01*
X147923600Y-93012422D01*
X147923599Y-93012420D01*
X147788113Y-92818926D01*
X147788108Y-92818920D01*
X147621082Y-92651894D01*
X147427578Y-92516399D01*
X147228426Y-92423533D01*
X147175987Y-92377360D01*
X147156835Y-92310167D01*
X147177051Y-92243286D01*
X147230216Y-92197951D01*
X147236005Y-92195537D01*
X147265019Y-92184298D01*
X147446302Y-92072052D01*
X147603872Y-91928407D01*
X147732366Y-91758255D01*
X147732367Y-91758253D01*
X147827403Y-91567394D01*
X147827403Y-91567393D01*
X147827405Y-91567389D01*
X147885756Y-91362310D01*
X147905429Y-91150000D01*
X147885756Y-90937690D01*
X147827405Y-90732611D01*
X147827403Y-90732606D01*
X147827403Y-90732605D01*
X147732367Y-90541746D01*
X147603872Y-90371593D01*
X147499499Y-90276444D01*
X147446302Y-90227948D01*
X147265019Y-90115702D01*
X147265017Y-90115701D01*
X147165608Y-90077190D01*
X147066198Y-90038679D01*
X146856610Y-89999500D01*
X146643390Y-89999500D01*
X146433802Y-90038679D01*
X146433799Y-90038679D01*
X146433799Y-90038680D01*
X146234982Y-90115701D01*
X146234978Y-90115703D01*
X146189776Y-90143691D01*
X146122415Y-90162245D01*
X146055716Y-90141437D01*
X146010855Y-90087871D01*
X146000500Y-90038263D01*
X146000500Y-88407676D01*
X146020185Y-88340637D01*
X146072989Y-88294882D01*
X146142147Y-88284938D01*
X146205703Y-88313963D01*
X146212181Y-88319995D01*
X151263182Y-93370996D01*
X151296666Y-93432317D01*
X151299500Y-93458675D01*
X151299500Y-96654576D01*
X151295522Y-96685732D01*
X151294477Y-96689757D01*
X151294476Y-96689760D01*
X151287253Y-96793925D01*
X151284230Y-96813849D01*
X151271106Y-96869412D01*
X151269663Y-96874532D01*
X151244027Y-96952485D01*
X151242045Y-96958987D01*
X151240178Y-96965640D01*
X151240162Y-96965700D01*
X151240154Y-96965730D01*
X151239424Y-96968554D01*
X151238554Y-96971920D01*
X151211866Y-97084921D01*
X151211866Y-97084922D01*
X151209512Y-97097078D01*
X151207361Y-97111238D01*
X151205995Y-97123604D01*
X151195922Y-97268904D01*
X151195657Y-97273925D01*
X151195543Y-97277074D01*
X151195538Y-97277200D01*
X151195449Y-97287849D01*
X151194920Y-97295422D01*
X151194318Y-97299997D01*
X151194318Y-97300001D01*
X151214956Y-97456761D01*
X151214956Y-97456762D01*
X151239887Y-97516952D01*
X151275464Y-97602841D01*
X151371718Y-97728282D01*
X151497159Y-97824536D01*
X151643238Y-97885044D01*
X151721619Y-97895363D01*
X151799999Y-97905682D01*
X151800000Y-97905682D01*
X151800001Y-97905682D01*
X151859384Y-97897864D01*
X151956762Y-97885044D01*
X152102841Y-97824536D01*
X152228282Y-97728282D01*
X152324536Y-97602841D01*
X152385044Y-97456762D01*
X152405682Y-97300000D01*
X152404668Y-97292307D01*
X152404522Y-97272145D01*
X152403770Y-97272128D01*
X152403903Y-97266401D01*
X152403438Y-97259700D01*
X152394005Y-97123641D01*
X152392645Y-97111306D01*
X152392635Y-97111238D01*
X152390503Y-97097174D01*
X152390500Y-97097162D01*
X152390497Y-97097137D01*
X152388131Y-97084915D01*
X152361428Y-96971856D01*
X152361295Y-96971343D01*
X152359807Y-96965593D01*
X152359797Y-96965557D01*
X152357947Y-96958987D01*
X152357888Y-96958776D01*
X152355982Y-96952527D01*
X152355959Y-96952450D01*
X152335136Y-96889137D01*
X152330333Y-96874532D01*
X152328894Y-96869428D01*
X152315766Y-96813841D01*
X152312745Y-96793929D01*
X152305523Y-96689761D01*
X152304300Y-96684939D01*
X152300500Y-96654473D01*
X152300500Y-95057500D01*
X156052359Y-95057500D01*
X156072878Y-95278939D01*
X156133740Y-95492850D01*
X156232869Y-95691928D01*
X156248637Y-95712808D01*
X156248638Y-95712808D01*
X156694726Y-95266719D01*
X156733401Y-95360088D01*
X156829575Y-95485425D01*
X156954912Y-95581599D01*
X157048279Y-95620272D01*
X156604172Y-96064379D01*
X156604172Y-96064380D01*
X156720321Y-96136297D01*
X156720322Y-96136298D01*
X156927695Y-96216634D01*
X157146307Y-96257500D01*
X157368693Y-96257500D01*
X157587309Y-96216633D01*
X157794668Y-96136301D01*
X157794681Y-96136295D01*
X157910826Y-96064379D01*
X157466720Y-95620272D01*
X157560088Y-95581599D01*
X157685425Y-95485425D01*
X157781599Y-95360089D01*
X157820273Y-95266720D01*
X158266361Y-95712808D01*
X158282131Y-95691925D01*
X158282133Y-95691922D01*
X158381259Y-95492850D01*
X158442121Y-95278939D01*
X158462640Y-95057500D01*
X158462640Y-95057499D01*
X158442121Y-94836060D01*
X158381259Y-94622149D01*
X158282135Y-94423080D01*
X158282130Y-94423072D01*
X158266360Y-94402190D01*
X157820272Y-94848278D01*
X157781599Y-94754912D01*
X157685425Y-94629575D01*
X157560088Y-94533401D01*
X157466720Y-94494727D01*
X157910827Y-94050619D01*
X157794678Y-93978702D01*
X157794677Y-93978701D01*
X157587304Y-93898365D01*
X157368693Y-93857500D01*
X157146307Y-93857500D01*
X156927695Y-93898365D01*
X156720324Y-93978700D01*
X156720323Y-93978701D01*
X156604171Y-94050619D01*
X157048279Y-94494727D01*
X156954912Y-94533401D01*
X156829575Y-94629575D01*
X156733401Y-94754911D01*
X156694726Y-94848279D01*
X156248638Y-94402191D01*
X156248637Y-94402191D01*
X156232868Y-94423074D01*
X156133740Y-94622149D01*
X156072878Y-94836060D01*
X156052359Y-95057499D01*
X156052359Y-95057500D01*
X152300500Y-95057500D01*
X152300500Y-93267143D01*
X152303334Y-93240785D01*
X152304359Y-93236073D01*
X152300658Y-93184329D01*
X152300500Y-93179904D01*
X152300500Y-93164201D01*
X152298264Y-93148657D01*
X152297791Y-93144254D01*
X152297449Y-93139476D01*
X152294091Y-93092517D01*
X152292407Y-93088002D01*
X152285850Y-93062312D01*
X152285165Y-93057543D01*
X152280600Y-93047548D01*
X152266611Y-93016916D01*
X152263612Y-93010351D01*
X152261932Y-93006295D01*
X152243796Y-92957669D01*
X152240905Y-92953807D01*
X152227379Y-92931010D01*
X152225377Y-92926627D01*
X152214911Y-92914549D01*
X152191411Y-92887427D01*
X152188633Y-92883979D01*
X152179229Y-92871417D01*
X152179224Y-92871412D01*
X152179221Y-92871407D01*
X152168097Y-92860283D01*
X152165103Y-92857067D01*
X152131128Y-92817857D01*
X152131125Y-92817854D01*
X152127066Y-92815246D01*
X152106428Y-92798614D01*
X147036819Y-87729004D01*
X147003334Y-87667681D01*
X147000500Y-87641323D01*
X147000500Y-86336421D01*
X147004480Y-86305256D01*
X147005523Y-86301239D01*
X147012743Y-86197076D01*
X147015764Y-86177164D01*
X147028899Y-86121550D01*
X147030337Y-86116453D01*
X147055960Y-86038538D01*
X147057888Y-86032220D01*
X147059799Y-86025432D01*
X147061426Y-86019145D01*
X147061428Y-86019135D01*
X147061432Y-86019122D01*
X147088123Y-85906120D01*
X147088125Y-85906110D01*
X147088132Y-85906081D01*
X147090500Y-85893845D01*
X147092647Y-85879674D01*
X147094006Y-85867352D01*
X147104077Y-85722093D01*
X147104342Y-85717078D01*
X147104461Y-85713799D01*
X147104549Y-85703154D01*
X147105077Y-85695586D01*
X147105682Y-85691000D01*
X147085044Y-85534238D01*
X147024536Y-85388159D01*
X146928282Y-85262718D01*
X146802841Y-85166464D01*
X146796810Y-85163966D01*
X146656762Y-85105956D01*
X146656760Y-85105955D01*
X146500001Y-85085318D01*
X146499999Y-85085318D01*
X146343239Y-85105955D01*
X146343237Y-85105956D01*
X146197156Y-85166465D01*
X146190119Y-85170528D01*
X146188977Y-85168551D01*
X146134807Y-85189489D01*
X146066363Y-85175445D01*
X146016377Y-85126627D01*
X146000500Y-85065918D01*
X146000500Y-84250000D01*
X147752293Y-84250000D01*
X147801221Y-84577754D01*
X147801222Y-84577759D01*
X147888818Y-84898327D01*
X148013722Y-85206308D01*
X148174164Y-85497332D01*
X148174171Y-85497343D01*
X148367910Y-85767352D01*
X148592226Y-86012555D01*
X148843967Y-86229505D01*
X148843981Y-86229516D01*
X149119601Y-86415159D01*
X149119602Y-86415160D01*
X149415275Y-86566918D01*
X149726797Y-86682632D01*
X150049834Y-86760693D01*
X150049839Y-86760694D01*
X150379839Y-86799999D01*
X150379841Y-86800000D01*
X150796000Y-86800000D01*
X150796000Y-85550000D01*
X151296000Y-85550000D01*
X151296000Y-86800000D01*
X151629007Y-86800000D01*
X151877741Y-86785238D01*
X151877751Y-86785236D01*
X152204838Y-86726451D01*
X152522683Y-86629391D01*
X152826803Y-86495425D01*
X153112966Y-86326419D01*
X153112971Y-86326415D01*
X153377118Y-86124762D01*
X153377120Y-86124760D01*
X153615570Y-85893274D01*
X153615571Y-85893273D01*
X153824968Y-85635209D01*
X153824973Y-85635203D01*
X154002369Y-85354199D01*
X154002374Y-85354189D01*
X154145294Y-85054172D01*
X154145294Y-85054171D01*
X154251731Y-84739339D01*
X154320185Y-84414132D01*
X154320186Y-84414129D01*
X154334817Y-84250000D01*
X153076933Y-84250000D01*
X153089705Y-84187440D01*
X153099782Y-83937385D01*
X153077030Y-83750000D01*
X154339707Y-83750000D01*
X154290778Y-83422245D01*
X154290777Y-83422240D01*
X154203181Y-83101672D01*
X154078277Y-82793691D01*
X153917835Y-82502667D01*
X153917828Y-82502656D01*
X153724089Y-82232647D01*
X153499773Y-81987444D01*
X153248032Y-81770494D01*
X153248018Y-81770483D01*
X152972398Y-81584840D01*
X152972397Y-81584839D01*
X152676724Y-81433081D01*
X152365202Y-81317367D01*
X152042165Y-81239306D01*
X152042160Y-81239305D01*
X151712160Y-81200000D01*
X151296000Y-81200000D01*
X151296000Y-82450000D01*
X150796000Y-82450000D01*
X150796000Y-81200000D01*
X150462993Y-81200000D01*
X150214258Y-81214761D01*
X150214248Y-81214763D01*
X149887161Y-81273548D01*
X149569316Y-81370608D01*
X149265196Y-81504574D01*
X148979033Y-81673580D01*
X148979028Y-81673584D01*
X148714881Y-81875237D01*
X148714879Y-81875239D01*
X148476429Y-82106725D01*
X148476428Y-82106726D01*
X148267031Y-82364790D01*
X148267026Y-82364796D01*
X148089630Y-82645800D01*
X148089625Y-82645810D01*
X147946705Y-82945827D01*
X147946705Y-82945828D01*
X147840268Y-83260660D01*
X147771814Y-83585867D01*
X147771813Y-83585870D01*
X147757182Y-83749999D01*
X147757183Y-83750000D01*
X149015067Y-83750000D01*
X149002295Y-83812560D01*
X148992218Y-84062615D01*
X149014970Y-84250000D01*
X147752293Y-84250000D01*
X146000500Y-84250000D01*
X146000500Y-81227261D01*
X146004693Y-81195289D01*
X146004945Y-81194343D01*
X146005442Y-81192481D01*
X146009974Y-81132923D01*
X146025569Y-81081496D01*
X146036255Y-81062518D01*
X146037508Y-81060397D01*
X146059766Y-81024314D01*
X146084042Y-80984962D01*
X146087923Y-80978299D01*
X146091843Y-80971162D01*
X146095253Y-80964578D01*
X146147249Y-80857947D01*
X146149049Y-80854121D01*
X146150203Y-80851579D01*
X146156545Y-80836550D01*
X146158023Y-80828771D01*
X146165282Y-80804470D01*
X146185044Y-80756762D01*
X146205682Y-80600000D01*
X146185044Y-80443238D01*
X146124536Y-80297159D01*
X146028282Y-80171718D01*
X145902841Y-80075464D01*
X145897778Y-80073367D01*
X145756762Y-80014956D01*
X145756760Y-80014955D01*
X145600001Y-79994318D01*
X145599997Y-79994318D01*
X145540790Y-80002112D01*
X145471755Y-79991346D01*
X145419499Y-79944965D01*
X145400922Y-79888014D01*
X145400658Y-79884324D01*
X145400500Y-79879902D01*
X145400500Y-79864201D01*
X145398264Y-79848657D01*
X145397791Y-79844254D01*
X145394091Y-79792517D01*
X145392407Y-79788002D01*
X145385850Y-79762312D01*
X145385165Y-79757543D01*
X145373891Y-79732858D01*
X145363616Y-79710359D01*
X145361932Y-79706295D01*
X145343796Y-79657669D01*
X145340905Y-79653807D01*
X145327379Y-79631010D01*
X145325377Y-79626627D01*
X145317856Y-79617947D01*
X145291411Y-79587427D01*
X145288633Y-79583979D01*
X145279229Y-79571417D01*
X145279224Y-79571412D01*
X145279221Y-79571407D01*
X145268101Y-79560287D01*
X145265096Y-79557058D01*
X145258762Y-79549748D01*
X145246690Y-79533239D01*
X145216589Y-79484011D01*
X145213728Y-79478785D01*
X145156725Y-79361516D01*
X145152885Y-79356283D01*
X145138294Y-79330375D01*
X145124536Y-79297159D01*
X145028282Y-79171718D01*
X144902841Y-79075464D01*
X144866782Y-79060528D01*
X144756762Y-79014956D01*
X144756760Y-79014955D01*
X144600001Y-78994318D01*
X144599999Y-78994318D01*
X144440685Y-79015292D01*
X144371650Y-79004526D01*
X144319394Y-78958146D01*
X144300500Y-78892353D01*
X144300500Y-78845421D01*
X144304480Y-78814256D01*
X144305523Y-78810239D01*
X144312744Y-78706069D01*
X144315764Y-78686165D01*
X144328899Y-78630555D01*
X144330338Y-78625456D01*
X144340680Y-78594006D01*
X144355961Y-78547541D01*
X144357889Y-78541221D01*
X144359800Y-78534431D01*
X144361428Y-78528142D01*
X144388131Y-78415083D01*
X144390497Y-78402861D01*
X144392066Y-78392515D01*
X144392642Y-78388713D01*
X144392645Y-78388688D01*
X144392646Y-78388687D01*
X144394005Y-78376358D01*
X144404077Y-78231093D01*
X144404342Y-78226078D01*
X144404461Y-78222799D01*
X144404549Y-78212154D01*
X144405077Y-78204586D01*
X144405682Y-78200000D01*
X144385044Y-78043238D01*
X144324536Y-77897159D01*
X144228282Y-77771718D01*
X144102841Y-77675464D01*
X144093797Y-77671718D01*
X143956762Y-77614956D01*
X143956760Y-77614955D01*
X143800001Y-77594318D01*
X143799999Y-77594318D01*
X143643239Y-77614955D01*
X143643237Y-77614956D01*
X143497160Y-77675463D01*
X143371718Y-77771718D01*
X143275463Y-77897160D01*
X143214956Y-78043237D01*
X143214955Y-78043239D01*
X143194318Y-78199998D01*
X143194318Y-78200000D01*
X143195331Y-78207697D01*
X143195492Y-78227845D01*
X143196229Y-78227863D01*
X143196096Y-78233595D01*
X143205995Y-78376366D01*
X143207353Y-78388687D01*
X143207353Y-78388689D01*
X143209493Y-78402815D01*
X143209494Y-78402820D01*
X143209497Y-78402837D01*
X143211865Y-78415069D01*
X143238559Y-78528092D01*
X143238566Y-78528122D01*
X143238567Y-78528123D01*
X143240162Y-78534298D01*
X143240163Y-78534299D01*
X143242064Y-78541065D01*
X143242066Y-78541074D01*
X143244011Y-78547458D01*
X143269662Y-78625459D01*
X143271104Y-78630571D01*
X143282377Y-78678302D01*
X143284230Y-78686148D01*
X143287253Y-78706072D01*
X143294476Y-78810238D01*
X143294477Y-78810243D01*
X143295697Y-78815054D01*
X143299500Y-78845528D01*
X143299500Y-79732858D01*
X143296667Y-79759206D01*
X143295641Y-79763927D01*
X143295641Y-79763929D01*
X143295641Y-79763930D01*
X143297093Y-79784234D01*
X143299029Y-79811301D01*
X143299342Y-79815669D01*
X143299500Y-79820094D01*
X143299500Y-79835799D01*
X143301734Y-79851343D01*
X143302207Y-79855740D01*
X143305909Y-79907485D01*
X143307593Y-79912000D01*
X143314148Y-79937682D01*
X143314834Y-79942455D01*
X143314835Y-79942457D01*
X143336383Y-79989642D01*
X143338071Y-79993716D01*
X143356203Y-80042329D01*
X143359096Y-80046194D01*
X143372617Y-80068983D01*
X143374619Y-80073367D01*
X143374622Y-80073371D01*
X143374623Y-80073373D01*
X143408598Y-80112583D01*
X143411358Y-80116008D01*
X143415993Y-80122200D01*
X143420775Y-80128588D01*
X143420782Y-80128596D01*
X143431886Y-80139700D01*
X143434896Y-80142932D01*
X143462810Y-80175147D01*
X143468871Y-80182142D01*
X143468874Y-80182145D01*
X143472928Y-80184750D01*
X143493571Y-80201385D01*
X143763181Y-80470995D01*
X143796666Y-80532318D01*
X143799500Y-80558676D01*
X143799500Y-87409758D01*
X143779815Y-87476797D01*
X143740675Y-87515248D01*
X143730462Y-87521558D01*
X143725823Y-87524157D01*
X143652781Y-87561046D01*
X143647279Y-87563967D01*
X143647244Y-87563986D01*
X143641161Y-87567377D01*
X143641105Y-87567409D01*
X143635193Y-87570880D01*
X143635186Y-87570884D01*
X143536261Y-87632010D01*
X143536235Y-87632027D01*
X143525976Y-87638955D01*
X143514477Y-87647418D01*
X143514455Y-87647436D01*
X143504708Y-87655242D01*
X143504700Y-87655249D01*
X143394766Y-87750928D01*
X143390935Y-87754376D01*
X143388480Y-87756663D01*
X143388475Y-87756668D01*
X143381117Y-87763912D01*
X143375368Y-87768916D01*
X143371719Y-87771715D01*
X143275464Y-87897157D01*
X143214956Y-88043237D01*
X143214955Y-88043239D01*
X143194318Y-88199998D01*
X143194318Y-88200001D01*
X139000500Y-88200001D01*
X139000500Y-87624500D01*
X139020185Y-87557461D01*
X139072989Y-87511706D01*
X139124500Y-87500500D01*
X140554578Y-87500500D01*
X140585739Y-87504478D01*
X140589761Y-87505523D01*
X140693918Y-87512743D01*
X140713836Y-87515765D01*
X140750971Y-87524536D01*
X140769439Y-87528898D01*
X140774551Y-87530339D01*
X140852457Y-87555961D01*
X140858777Y-87557889D01*
X140865567Y-87559800D01*
X140865588Y-87559805D01*
X140865590Y-87559806D01*
X140870399Y-87561051D01*
X140871856Y-87561428D01*
X140984915Y-87588131D01*
X140997137Y-87590497D01*
X140997162Y-87590500D01*
X140997174Y-87590503D01*
X141011284Y-87592642D01*
X141011294Y-87592643D01*
X141011306Y-87592645D01*
X141023641Y-87594005D01*
X141168906Y-87604077D01*
X141173921Y-87604342D01*
X141177200Y-87604461D01*
X141187829Y-87604548D01*
X141195408Y-87605077D01*
X141200000Y-87605682D01*
X141356762Y-87585044D01*
X141502841Y-87524536D01*
X141628282Y-87428282D01*
X141724536Y-87302841D01*
X141785044Y-87156762D01*
X141805682Y-87000000D01*
X141785044Y-86843238D01*
X141724536Y-86697159D01*
X141628282Y-86571718D01*
X141502841Y-86475464D01*
X141493797Y-86471718D01*
X141356762Y-86414956D01*
X141356760Y-86414955D01*
X141200002Y-86394318D01*
X141199993Y-86394318D01*
X141192294Y-86395331D01*
X141172152Y-86395490D01*
X141172135Y-86396229D01*
X141166402Y-86396096D01*
X141166401Y-86396096D01*
X141023626Y-86405994D01*
X141023575Y-86405998D01*
X141011260Y-86407358D01*
X141011253Y-86407359D01*
X140997089Y-86409510D01*
X140997073Y-86409513D01*
X140984911Y-86411869D01*
X140871953Y-86438547D01*
X140865904Y-86440109D01*
X140865799Y-86440137D01*
X140860287Y-86441681D01*
X140859081Y-86442020D01*
X140859074Y-86442021D01*
X140859053Y-86442028D01*
X140859040Y-86442031D01*
X140852599Y-86443991D01*
X140852526Y-86444014D01*
X140774536Y-86469662D01*
X140769417Y-86471105D01*
X140713849Y-86484230D01*
X140693923Y-86487253D01*
X140589758Y-86494475D01*
X140584946Y-86495696D01*
X140554467Y-86499500D01*
X138867143Y-86499500D01*
X138840785Y-86496666D01*
X138836074Y-86495641D01*
X138836070Y-86495641D01*
X138797552Y-86498396D01*
X138784328Y-86499342D01*
X138779906Y-86499500D01*
X138764199Y-86499500D01*
X138748656Y-86501734D01*
X138744260Y-86502207D01*
X138692517Y-86505909D01*
X138692513Y-86505910D01*
X138687986Y-86507598D01*
X138662327Y-86514146D01*
X138657550Y-86514833D01*
X138657543Y-86514835D01*
X138610353Y-86536385D01*
X138606265Y-86538078D01*
X138567835Y-86552412D01*
X138498143Y-86557398D01*
X138436820Y-86523913D01*
X138403334Y-86462591D01*
X138400500Y-86436231D01*
X138400500Y-82958675D01*
X138420185Y-82891636D01*
X138436819Y-82870994D01*
X138770995Y-82536819D01*
X138832318Y-82503334D01*
X138858676Y-82500500D01*
X140754578Y-82500500D01*
X140785739Y-82504478D01*
X140789761Y-82505523D01*
X140893918Y-82512743D01*
X140913836Y-82515765D01*
X140950971Y-82524536D01*
X140969439Y-82528898D01*
X140974551Y-82530339D01*
X141052457Y-82555961D01*
X141058777Y-82557889D01*
X141065567Y-82559800D01*
X141071856Y-82561428D01*
X141184915Y-82588131D01*
X141197137Y-82590497D01*
X141197162Y-82590500D01*
X141197174Y-82590503D01*
X141211284Y-82592642D01*
X141211294Y-82592643D01*
X141211306Y-82592645D01*
X141223641Y-82594005D01*
X141368906Y-82604077D01*
X141373921Y-82604342D01*
X141377200Y-82604461D01*
X141387829Y-82604548D01*
X141395408Y-82605077D01*
X141400000Y-82605682D01*
X141556762Y-82585044D01*
X141702841Y-82524536D01*
X141828282Y-82428282D01*
X141924536Y-82302841D01*
X141985044Y-82156762D01*
X142005682Y-82000000D01*
X141985044Y-81843238D01*
X141924536Y-81697159D01*
X141828282Y-81571718D01*
X141702841Y-81475464D01*
X141692317Y-81471105D01*
X141556762Y-81414956D01*
X141556760Y-81414955D01*
X141400002Y-81394318D01*
X141399993Y-81394318D01*
X141392294Y-81395331D01*
X141372152Y-81395490D01*
X141372135Y-81396229D01*
X141366402Y-81396096D01*
X141366401Y-81396096D01*
X141223626Y-81405994D01*
X141223575Y-81405998D01*
X141211260Y-81407358D01*
X141211253Y-81407359D01*
X141197089Y-81409510D01*
X141197073Y-81409513D01*
X141184911Y-81411869D01*
X141071953Y-81438547D01*
X141065904Y-81440109D01*
X141065799Y-81440137D01*
X141060287Y-81441681D01*
X141059081Y-81442020D01*
X141059074Y-81442021D01*
X141059053Y-81442028D01*
X141059040Y-81442031D01*
X141052599Y-81443991D01*
X141052526Y-81444014D01*
X140974536Y-81469662D01*
X140969417Y-81471105D01*
X140913849Y-81484230D01*
X140893923Y-81487253D01*
X140789758Y-81494475D01*
X140784946Y-81495696D01*
X140754467Y-81499500D01*
X138667138Y-81499500D01*
X138640781Y-81496666D01*
X138636076Y-81495642D01*
X138636068Y-81495642D01*
X138591357Y-81498840D01*
X138584337Y-81499342D01*
X138579915Y-81499500D01*
X138564199Y-81499500D01*
X138548646Y-81501736D01*
X138544250Y-81502208D01*
X138492517Y-81505909D01*
X138492514Y-81505910D01*
X138487996Y-81507595D01*
X138462320Y-81514148D01*
X138457541Y-81514835D01*
X138410355Y-81536384D01*
X138406267Y-81538077D01*
X138357668Y-81556205D01*
X138357667Y-81556206D01*
X138353802Y-81559099D01*
X138331020Y-81572616D01*
X138326631Y-81574620D01*
X138326630Y-81574621D01*
X138326628Y-81574622D01*
X138326627Y-81574623D01*
X138314837Y-81584839D01*
X138287417Y-81608597D01*
X138283973Y-81611372D01*
X138280682Y-81613835D01*
X138271406Y-81620780D01*
X138271402Y-81620783D01*
X138271403Y-81620783D01*
X138260290Y-81631893D01*
X138257056Y-81634904D01*
X138217862Y-81668866D01*
X138217850Y-81668880D01*
X138215240Y-81672941D01*
X138198615Y-81693569D01*
X138012181Y-81880004D01*
X137950858Y-81913489D01*
X137881167Y-81908505D01*
X137825233Y-81866634D01*
X137800816Y-81801169D01*
X137800500Y-81792323D01*
X137800500Y-79258675D01*
X137820185Y-79191636D01*
X137836819Y-79170994D01*
X138470995Y-78536819D01*
X138532318Y-78503334D01*
X138558676Y-78500500D01*
X140754578Y-78500500D01*
X140785739Y-78504478D01*
X140789761Y-78505523D01*
X140893918Y-78512743D01*
X140913836Y-78515765D01*
X140950971Y-78524536D01*
X140969439Y-78528898D01*
X140974551Y-78530339D01*
X141052457Y-78555961D01*
X141058777Y-78557889D01*
X141065567Y-78559800D01*
X141071856Y-78561428D01*
X141184915Y-78588131D01*
X141197137Y-78590497D01*
X141197162Y-78590500D01*
X141197174Y-78590503D01*
X141211284Y-78592642D01*
X141211294Y-78592643D01*
X141211306Y-78592645D01*
X141223641Y-78594005D01*
X141368906Y-78604077D01*
X141373921Y-78604342D01*
X141377200Y-78604461D01*
X141387829Y-78604548D01*
X141395408Y-78605077D01*
X141400000Y-78605682D01*
X141556762Y-78585044D01*
X141702841Y-78524536D01*
X141828282Y-78428282D01*
X141924536Y-78302841D01*
X141985044Y-78156762D01*
X142005682Y-78000000D01*
X142005312Y-77997192D01*
X141991923Y-77895492D01*
X141985044Y-77843238D01*
X141924536Y-77697159D01*
X141828282Y-77571718D01*
X141702841Y-77475464D01*
X141692317Y-77471105D01*
X141556762Y-77414956D01*
X141556760Y-77414955D01*
X141400002Y-77394318D01*
X141399993Y-77394318D01*
X141392294Y-77395331D01*
X141372152Y-77395490D01*
X141372135Y-77396229D01*
X141366402Y-77396096D01*
X141366401Y-77396096D01*
X141223626Y-77405994D01*
X141223575Y-77405998D01*
X141211260Y-77407358D01*
X141211253Y-77407359D01*
X141197089Y-77409510D01*
X141197073Y-77409513D01*
X141184911Y-77411869D01*
X141071953Y-77438547D01*
X141065904Y-77440109D01*
X141065799Y-77440137D01*
X141060287Y-77441681D01*
X141059081Y-77442020D01*
X141059074Y-77442021D01*
X141059053Y-77442028D01*
X141059040Y-77442031D01*
X141052599Y-77443991D01*
X141052526Y-77444014D01*
X140974536Y-77469662D01*
X140969417Y-77471105D01*
X140913849Y-77484230D01*
X140893923Y-77487253D01*
X140789758Y-77494475D01*
X140784946Y-77495696D01*
X140754467Y-77499500D01*
X138367143Y-77499500D01*
X138340785Y-77496666D01*
X138336074Y-77495641D01*
X138336070Y-77495641D01*
X138297552Y-77498396D01*
X138284328Y-77499342D01*
X138279906Y-77499500D01*
X138264199Y-77499500D01*
X138248656Y-77501734D01*
X138244260Y-77502207D01*
X138192517Y-77505909D01*
X138192513Y-77505910D01*
X138187986Y-77507598D01*
X138162327Y-77514146D01*
X138157550Y-77514833D01*
X138157543Y-77514835D01*
X138110353Y-77536385D01*
X138106264Y-77538078D01*
X138057675Y-77556200D01*
X138057664Y-77556206D01*
X138053799Y-77559100D01*
X138031020Y-77572615D01*
X138026636Y-77574617D01*
X138026626Y-77574623D01*
X138003897Y-77594318D01*
X137987428Y-77608587D01*
X137983996Y-77611354D01*
X137971402Y-77620781D01*
X137960291Y-77631892D01*
X137957055Y-77634905D01*
X137917861Y-77668867D01*
X137917854Y-77668876D01*
X137915243Y-77672938D01*
X137898616Y-77693568D01*
X137312181Y-78280004D01*
X137250858Y-78313489D01*
X137181167Y-78308505D01*
X137125233Y-78266634D01*
X137100816Y-78201169D01*
X137100500Y-78192323D01*
X137100500Y-76858674D01*
X137120185Y-76791635D01*
X137136814Y-76770998D01*
X137970993Y-75936818D01*
X138032317Y-75903334D01*
X138058675Y-75900500D01*
X152272855Y-75900500D01*
X152339894Y-75920185D01*
X152385649Y-75972989D01*
X152395794Y-76040683D01*
X152394318Y-76051895D01*
X152394318Y-76051901D01*
X152414955Y-76208660D01*
X152414956Y-76208662D01*
X152456246Y-76308346D01*
X152475464Y-76354741D01*
X152571718Y-76480182D01*
X152697159Y-76576436D01*
X152843238Y-76636944D01*
X152850122Y-76637850D01*
X152914020Y-76666111D01*
X152915105Y-76667040D01*
X152924727Y-76675377D01*
X152929110Y-76677379D01*
X152951907Y-76690905D01*
X152955769Y-76693796D01*
X153004395Y-76711932D01*
X153008451Y-76713612D01*
X153030557Y-76723708D01*
X153055640Y-76735164D01*
X153055641Y-76735164D01*
X153055643Y-76735165D01*
X153060412Y-76735850D01*
X153086102Y-76742407D01*
X153090617Y-76744091D01*
X153142358Y-76747791D01*
X153146757Y-76748264D01*
X153162301Y-76750500D01*
X153178006Y-76750500D01*
X153182428Y-76750657D01*
X153234173Y-76754359D01*
X153238884Y-76753334D01*
X153265243Y-76750500D01*
X153443153Y-76750500D01*
X153447981Y-76750688D01*
X153453519Y-76751120D01*
X153488038Y-76753816D01*
X153493900Y-76754161D01*
X153497745Y-76754313D01*
X153516537Y-76754466D01*
X153516869Y-76754469D01*
X153516869Y-76754468D01*
X153516871Y-76754469D01*
X153523029Y-76753169D01*
X153548624Y-76750500D01*
X157619692Y-76750500D01*
X157686731Y-76770185D01*
X157722691Y-76805456D01*
X157724647Y-76808374D01*
X157724673Y-76808412D01*
X157728799Y-76814052D01*
X157732056Y-76818506D01*
X157793343Y-76895481D01*
X157798755Y-76901907D01*
X157798779Y-76901935D01*
X157802390Y-76905991D01*
X157802406Y-76906008D01*
X157810895Y-76914819D01*
X157815432Y-76920092D01*
X157821718Y-76928283D01*
X157947157Y-77024535D01*
X157947158Y-77024535D01*
X157947159Y-77024536D01*
X158093238Y-77085044D01*
X158171618Y-77095363D01*
X158249999Y-77105682D01*
X158250000Y-77105682D01*
X158250001Y-77105682D01*
X158302253Y-77098802D01*
X158406762Y-77085044D01*
X158552841Y-77024536D01*
X158678282Y-76928282D01*
X158774536Y-76802841D01*
X158835044Y-76656762D01*
X158852560Y-76523707D01*
X158861686Y-76503077D01*
X158856523Y-76495042D01*
X158852561Y-76476292D01*
X158835044Y-76343239D01*
X158835044Y-76343238D01*
X158774536Y-76197159D01*
X158678282Y-76071718D01*
X158678280Y-76071717D01*
X158678280Y-76071716D01*
X158552841Y-75975464D01*
X158552838Y-75975462D01*
X158510866Y-75958077D01*
X158488077Y-75945703D01*
X158478266Y-75938958D01*
X158478264Y-75938957D01*
X158478265Y-75938957D01*
X158347291Y-75880867D01*
X158323262Y-75866788D01*
X158316017Y-75861365D01*
X158312586Y-75858601D01*
X158273373Y-75824623D01*
X158273371Y-75824622D01*
X158273367Y-75824619D01*
X158268983Y-75822617D01*
X158246194Y-75809096D01*
X158242331Y-75806204D01*
X158242329Y-75806203D01*
X158193716Y-75788071D01*
X158189642Y-75786383D01*
X158142457Y-75764835D01*
X158142455Y-75764834D01*
X158137682Y-75764148D01*
X158112000Y-75757593D01*
X158107485Y-75755909D01*
X158055740Y-75752207D01*
X158051343Y-75751734D01*
X158035799Y-75749500D01*
X158020094Y-75749500D01*
X158015671Y-75749342D01*
X157998083Y-75748084D01*
X157963929Y-75745641D01*
X157963925Y-75745641D01*
X157959215Y-75746666D01*
X157932857Y-75749500D01*
X157885720Y-75749500D01*
X157883238Y-75749450D01*
X157776244Y-75745163D01*
X157774339Y-75745107D01*
X157772934Y-75745067D01*
X157770832Y-75745029D01*
X157770831Y-75745029D01*
X157758188Y-75745060D01*
X157749805Y-75746829D01*
X157724208Y-75749500D01*
X156600691Y-75749500D01*
X156533652Y-75729815D01*
X156487897Y-75677011D01*
X156477953Y-75607853D01*
X156506978Y-75544297D01*
X156513010Y-75537819D01*
X157065667Y-74985162D01*
X157632656Y-74418172D01*
X157655180Y-74401199D01*
X157654984Y-74400911D01*
X157659704Y-74397689D01*
X157659718Y-74397682D01*
X157905195Y-74194618D01*
X157933400Y-74177064D01*
X158086789Y-74108146D01*
X158114183Y-74099489D01*
X158312924Y-74061278D01*
X158608646Y-74009355D01*
X158618971Y-74007172D01*
X158630092Y-74004417D01*
X158630113Y-74004410D01*
X158630121Y-74004409D01*
X158632645Y-74003688D01*
X158640412Y-74001471D01*
X158896750Y-73918467D01*
X158904444Y-73916512D01*
X158917501Y-73914073D01*
X158917509Y-73914070D01*
X158930702Y-73908959D01*
X159000325Y-73903094D01*
X159062067Y-73935802D01*
X159096324Y-73996697D01*
X159099500Y-74024584D01*
X159099500Y-76460107D01*
X159087954Y-76499424D01*
X159098019Y-76520786D01*
X159099500Y-76539892D01*
X159099500Y-86590191D01*
X159099501Y-86590200D01*
X159108791Y-86630908D01*
X159109955Y-86637763D01*
X159114632Y-86679259D01*
X159128420Y-86718662D01*
X159130345Y-86725345D01*
X159139639Y-86766061D01*
X159157759Y-86803688D01*
X159160421Y-86810114D01*
X159174212Y-86849525D01*
X159196422Y-86884872D01*
X159199787Y-86890959D01*
X159217910Y-86928589D01*
X159243940Y-86961229D01*
X159247966Y-86966904D01*
X159270182Y-87002259D01*
X159270184Y-87002262D01*
X159302174Y-87034252D01*
X160710197Y-88442274D01*
X160710198Y-88442276D01*
X160710199Y-88442276D01*
X160727639Y-88459716D01*
X160727639Y-88459717D01*
X160823449Y-88555527D01*
X160855193Y-88587271D01*
X160890551Y-88609488D01*
X160896225Y-88613515D01*
X160928866Y-88639545D01*
X160928869Y-88639547D01*
X160966493Y-88657665D01*
X160972578Y-88661029D01*
X161007933Y-88683244D01*
X161047354Y-88697038D01*
X161053762Y-88699693D01*
X161091394Y-88717815D01*
X161132096Y-88727105D01*
X161138783Y-88729031D01*
X161178197Y-88742822D01*
X161178200Y-88742823D01*
X161219696Y-88747498D01*
X161226548Y-88748662D01*
X161267261Y-88757955D01*
X161312501Y-88757955D01*
X161615060Y-88757955D01*
X161658726Y-88765898D01*
X161763400Y-88805281D01*
X161767100Y-88806811D01*
X162063336Y-88940678D01*
X162066681Y-88942314D01*
X162243882Y-89035795D01*
X162293992Y-89084486D01*
X162300585Y-89098016D01*
X162380024Y-89289799D01*
X162380030Y-89289812D01*
X162392334Y-89311903D01*
X162392333Y-89311903D01*
X162392335Y-89311905D01*
X162392336Y-89311906D01*
X162473591Y-89389491D01*
X162577386Y-89432484D01*
X162689702Y-89435079D01*
X162714031Y-89428157D01*
X164459913Y-88704988D01*
X164482012Y-88692680D01*
X164559597Y-88611425D01*
X164602590Y-88507630D01*
X164605185Y-88395314D01*
X164598263Y-88370985D01*
X164585692Y-88340637D01*
X163875097Y-86625110D01*
X163875091Y-86625097D01*
X163862787Y-86603006D01*
X163862788Y-86603006D01*
X163856665Y-86597160D01*
X163781531Y-86525419D01*
X163781527Y-86525417D01*
X163677735Y-86482425D01*
X163568014Y-86479890D01*
X163565420Y-86479831D01*
X163565419Y-86479831D01*
X163541083Y-86486755D01*
X163161203Y-86644107D01*
X163091733Y-86651576D01*
X163029254Y-86620301D01*
X162993602Y-86560212D01*
X162996096Y-86490387D01*
X163030210Y-86437910D01*
X163046526Y-86423037D01*
X163180603Y-86245490D01*
X163279774Y-86046329D01*
X163340660Y-85832337D01*
X163361188Y-85610801D01*
X163354927Y-85543238D01*
X163340660Y-85389265D01*
X163340659Y-85389263D01*
X163340345Y-85388160D01*
X163279774Y-85175273D01*
X163279769Y-85175262D01*
X163180606Y-84976117D01*
X163180601Y-84976109D01*
X163046524Y-84798562D01*
X162882107Y-84648677D01*
X162882105Y-84648675D01*
X162692949Y-84531555D01*
X162692943Y-84531553D01*
X162485485Y-84451183D01*
X162266788Y-84410301D01*
X162044302Y-84410301D01*
X161825605Y-84451183D01*
X161699599Y-84499998D01*
X161618146Y-84531553D01*
X161618140Y-84531555D01*
X161428984Y-84648675D01*
X161428982Y-84648677D01*
X161264565Y-84798562D01*
X161130488Y-84976109D01*
X161130483Y-84976117D01*
X161031320Y-85175262D01*
X161031314Y-85175277D01*
X160970430Y-85389263D01*
X160970429Y-85389265D01*
X160949902Y-85610800D01*
X160949902Y-85610801D01*
X160970429Y-85832336D01*
X160970430Y-85832338D01*
X161031314Y-86046324D01*
X161031320Y-86046339D01*
X161130483Y-86245484D01*
X161130492Y-86245498D01*
X161142441Y-86261321D01*
X161167133Y-86326682D01*
X161152568Y-86395017D01*
X161103370Y-86444629D01*
X161035160Y-86459767D01*
X160969594Y-86435625D01*
X160955806Y-86423728D01*
X160736819Y-86204741D01*
X160703334Y-86143418D01*
X160700500Y-86117060D01*
X160700500Y-79377114D01*
X160720185Y-79310075D01*
X160772989Y-79264320D01*
X160842147Y-79254376D01*
X160905703Y-79283401D01*
X160923454Y-79302388D01*
X161014562Y-79423035D01*
X161014564Y-79423038D01*
X161142427Y-79539600D01*
X161177313Y-79571403D01*
X161178982Y-79572924D01*
X161178984Y-79572926D01*
X161368140Y-79690046D01*
X161368141Y-79690046D01*
X161368144Y-79690048D01*
X161575605Y-79770419D01*
X161794302Y-79811301D01*
X161794304Y-79811301D01*
X161884174Y-79811301D01*
X161951213Y-79830986D01*
X161996968Y-79883790D01*
X162006912Y-79952948D01*
X161977887Y-80016504D01*
X161931627Y-80049862D01*
X161545216Y-80209918D01*
X161545203Y-80209924D01*
X161523112Y-80222228D01*
X161445525Y-80303484D01*
X161445523Y-80303488D01*
X161402531Y-80407279D01*
X161402531Y-80407281D01*
X161399937Y-80519596D01*
X161406861Y-80543932D01*
X162130024Y-82289799D01*
X162130030Y-82289812D01*
X162142334Y-82311903D01*
X162142333Y-82311903D01*
X162142335Y-82311905D01*
X162142336Y-82311906D01*
X162223591Y-82389491D01*
X162327386Y-82432484D01*
X162439702Y-82435079D01*
X162464031Y-82428157D01*
X164209913Y-81704988D01*
X164232012Y-81692680D01*
X164309597Y-81611425D01*
X164352590Y-81507630D01*
X164355185Y-81395314D01*
X164348263Y-81370985D01*
X164342248Y-81356464D01*
X163625097Y-79625110D01*
X163625091Y-79625097D01*
X163612787Y-79603006D01*
X163612788Y-79603006D01*
X163531531Y-79525419D01*
X163531527Y-79525417D01*
X163427735Y-79482425D01*
X163318013Y-79479890D01*
X163315420Y-79479831D01*
X163315419Y-79479831D01*
X163291083Y-79486755D01*
X162911203Y-79644107D01*
X162841733Y-79651576D01*
X162779254Y-79620301D01*
X162743602Y-79560212D01*
X162746096Y-79490387D01*
X162780210Y-79437910D01*
X162796526Y-79423037D01*
X162930603Y-79245490D01*
X163029774Y-79046329D01*
X163090660Y-78832337D01*
X163111188Y-78610801D01*
X163110600Y-78604460D01*
X163090660Y-78389265D01*
X163090659Y-78389263D01*
X163090495Y-78388688D01*
X163029774Y-78175273D01*
X163004298Y-78124110D01*
X162930606Y-77976117D01*
X162930601Y-77976109D01*
X162796524Y-77798562D01*
X162632107Y-77648677D01*
X162632105Y-77648675D01*
X162442949Y-77531555D01*
X162442943Y-77531553D01*
X162235485Y-77451183D01*
X162016788Y-77410301D01*
X161794302Y-77410301D01*
X161575605Y-77451183D01*
X161512929Y-77475464D01*
X161368146Y-77531553D01*
X161368140Y-77531555D01*
X161178984Y-77648675D01*
X161178982Y-77648677D01*
X161014565Y-77798562D01*
X160923454Y-77919214D01*
X160867345Y-77960850D01*
X160797633Y-77965541D01*
X160736451Y-77931799D01*
X160703224Y-77870336D01*
X160700500Y-77844487D01*
X160700500Y-74621634D01*
X160720185Y-74554595D01*
X160744187Y-74527157D01*
X160825507Y-74458031D01*
X160828436Y-74455694D01*
X161045645Y-74293118D01*
X161049032Y-74290760D01*
X161263304Y-74152143D01*
X161267212Y-74149818D01*
X161478319Y-74034693D01*
X161482809Y-74032478D01*
X161577194Y-73990593D01*
X161633487Y-73965613D01*
X161683783Y-73954954D01*
X162072417Y-73954954D01*
X162072425Y-73954954D01*
X162072440Y-73954952D01*
X162072443Y-73954952D01*
X162097548Y-73952041D01*
X162097549Y-73952040D01*
X162097552Y-73952040D01*
X162200326Y-73906661D01*
X162279767Y-73827220D01*
X162325146Y-73724446D01*
X162328061Y-73699320D01*
X162328060Y-71809591D01*
X162328058Y-71809572D01*
X162325147Y-71784467D01*
X162325146Y-71784465D01*
X162325146Y-71784464D01*
X162279767Y-71681690D01*
X162200326Y-71602249D01*
X162200324Y-71602248D01*
X162097553Y-71556870D01*
X162072426Y-71553955D01*
X160182704Y-71553955D01*
X160182678Y-71553957D01*
X160157573Y-71556868D01*
X160157569Y-71556870D01*
X160054796Y-71602248D01*
X159975355Y-71681689D01*
X159929976Y-71784461D01*
X159929976Y-71784463D01*
X159927061Y-71809586D01*
X159927061Y-72224033D01*
X159907376Y-72291072D01*
X159854572Y-72336827D01*
X159785414Y-72346771D01*
X159721858Y-72317746D01*
X159692061Y-72279305D01*
X159612622Y-72119771D01*
X159612617Y-72119763D01*
X159478540Y-71942216D01*
X159314123Y-71792331D01*
X159314121Y-71792329D01*
X159124965Y-71675209D01*
X159124959Y-71675207D01*
X158917501Y-71594837D01*
X158698804Y-71553955D01*
X158476318Y-71553955D01*
X158257621Y-71594837D01*
X158174576Y-71627009D01*
X158050162Y-71675207D01*
X158050156Y-71675209D01*
X157861000Y-71792329D01*
X157860998Y-71792331D01*
X157696581Y-71942216D01*
X157562504Y-72119763D01*
X157562497Y-72119775D01*
X157463336Y-72318917D01*
X157463328Y-72318938D01*
X157455412Y-72346759D01*
X157454771Y-72348870D01*
X157340602Y-72701858D01*
X157340598Y-72701871D01*
X157337652Y-72712205D01*
X157337642Y-72712241D01*
X157334896Y-72723341D01*
X157334888Y-72723376D01*
X157332686Y-72733827D01*
X157317905Y-72818536D01*
X157281030Y-73029862D01*
X157272965Y-73072149D01*
X157243082Y-73228817D01*
X157234445Y-73256272D01*
X157165778Y-73409582D01*
X157148184Y-73437900D01*
X156945265Y-73683374D01*
X156945257Y-73683385D01*
X156944809Y-73684172D01*
X156943813Y-73685476D01*
X156942222Y-73687781D01*
X156942112Y-73687705D01*
X156924774Y-73710426D01*
X155772021Y-74863181D01*
X155710698Y-74896666D01*
X155684340Y-74899500D01*
X137867143Y-74899500D01*
X137840785Y-74896666D01*
X137836074Y-74895641D01*
X137836070Y-74895641D01*
X137797552Y-74898396D01*
X137784328Y-74899342D01*
X137779906Y-74899500D01*
X137764199Y-74899500D01*
X137748656Y-74901734D01*
X137744260Y-74902207D01*
X137692517Y-74905909D01*
X137692513Y-74905910D01*
X137687986Y-74907598D01*
X137662327Y-74914146D01*
X137657550Y-74914833D01*
X137657543Y-74914835D01*
X137610353Y-74936385D01*
X137606264Y-74938078D01*
X137557675Y-74956200D01*
X137557668Y-74956204D01*
X137553800Y-74959100D01*
X137531019Y-74972617D01*
X137526628Y-74974622D01*
X137487428Y-75008587D01*
X137483988Y-75011360D01*
X137471408Y-75020778D01*
X137460298Y-75031886D01*
X137457064Y-75034897D01*
X137417858Y-75068870D01*
X137417856Y-75068873D01*
X137415245Y-75072936D01*
X137398615Y-75093570D01*
X136293568Y-76198616D01*
X136272933Y-76215247D01*
X136262218Y-76222134D01*
X136195179Y-76241822D01*
X136128139Y-76222141D01*
X136101455Y-76199020D01*
X136091407Y-76187423D01*
X136088631Y-76183978D01*
X136079227Y-76171415D01*
X136079226Y-76171414D01*
X136079221Y-76171407D01*
X136068097Y-76160283D01*
X136065103Y-76157067D01*
X136031128Y-76117857D01*
X136031125Y-76117854D01*
X136027066Y-76115246D01*
X136006428Y-76098614D01*
X134101385Y-74193571D01*
X134084752Y-74172932D01*
X134084180Y-74172042D01*
X134064494Y-74105003D01*
X134084177Y-74037963D01*
X134136980Y-73992207D01*
X134188494Y-73981000D01*
X149046000Y-73981000D01*
X149046000Y-72730455D01*
X150132918Y-72730455D01*
X150153445Y-72951990D01*
X150153446Y-72951992D01*
X150214330Y-73165978D01*
X150214336Y-73165993D01*
X150313499Y-73365138D01*
X150313504Y-73365146D01*
X150447581Y-73542693D01*
X150586972Y-73669764D01*
X150606652Y-73687705D01*
X150611998Y-73692578D01*
X150612000Y-73692580D01*
X150801156Y-73809700D01*
X150801157Y-73809700D01*
X150801160Y-73809702D01*
X151008621Y-73890073D01*
X151227318Y-73930955D01*
X151227320Y-73930955D01*
X151449802Y-73930955D01*
X151449804Y-73930955D01*
X151668501Y-73890073D01*
X151875962Y-73809702D01*
X152065123Y-73692579D01*
X152229542Y-73542691D01*
X152363619Y-73365144D01*
X152443060Y-73205604D01*
X152490563Y-73154366D01*
X152558226Y-73136945D01*
X152624567Y-73158870D01*
X152668522Y-73213182D01*
X152678061Y-73260875D01*
X152678061Y-73675311D01*
X152678063Y-73675337D01*
X152680974Y-73700442D01*
X152680976Y-73700446D01*
X152726354Y-73803219D01*
X152726354Y-73803220D01*
X152726355Y-73803220D01*
X152805796Y-73882661D01*
X152908570Y-73928040D01*
X152933696Y-73930955D01*
X154823425Y-73930954D01*
X154823440Y-73930952D01*
X154823443Y-73930952D01*
X154848548Y-73928041D01*
X154848549Y-73928040D01*
X154848552Y-73928040D01*
X154951326Y-73882661D01*
X155030767Y-73803220D01*
X155076146Y-73700446D01*
X155079061Y-73675320D01*
X155079060Y-71785591D01*
X155078930Y-71784467D01*
X155076147Y-71760467D01*
X155076146Y-71760465D01*
X155076146Y-71760464D01*
X155030767Y-71657690D01*
X154951326Y-71578249D01*
X154951324Y-71578248D01*
X154848553Y-71532870D01*
X154823426Y-71529955D01*
X152933704Y-71529955D01*
X152933678Y-71529957D01*
X152908573Y-71532868D01*
X152908569Y-71532870D01*
X152805796Y-71578248D01*
X152726355Y-71657689D01*
X152680976Y-71760461D01*
X152680976Y-71760463D01*
X152678061Y-71785586D01*
X152678061Y-72200033D01*
X152658376Y-72267072D01*
X152605572Y-72312827D01*
X152536414Y-72322771D01*
X152472858Y-72293746D01*
X152443061Y-72255305D01*
X152363622Y-72095771D01*
X152363617Y-72095763D01*
X152229540Y-71918216D01*
X152065123Y-71768331D01*
X152065121Y-71768329D01*
X151875965Y-71651209D01*
X151875959Y-71651207D01*
X151668501Y-71570837D01*
X151449804Y-71529955D01*
X151227318Y-71529955D01*
X151008621Y-71570837D01*
X150918555Y-71605729D01*
X150801162Y-71651207D01*
X150801156Y-71651209D01*
X150612000Y-71768329D01*
X150611998Y-71768331D01*
X150447581Y-71918216D01*
X150313504Y-72095763D01*
X150313499Y-72095771D01*
X150214336Y-72294916D01*
X150214330Y-72294931D01*
X150153446Y-72508917D01*
X150153445Y-72508919D01*
X150132918Y-72730454D01*
X150132918Y-72730455D01*
X149046000Y-72730455D01*
X149046000Y-62726029D01*
X149065685Y-62658990D01*
X149118489Y-62613235D01*
X149169979Y-62602029D01*
X158617909Y-62600510D01*
X158621832Y-62600760D01*
X158623746Y-62600752D01*
X158623748Y-62600753D01*
X158688715Y-62600499D01*
X158688924Y-62600499D01*
X158690349Y-62600511D01*
G37*
%TD.AperFunction*%
%TA.AperFunction,Conductor*%
G36*
X125260554Y-140520185D02*
G01*
X125306309Y-140572989D01*
X125316253Y-140642147D01*
X125297379Y-140689833D01*
X125298226Y-140690322D01*
X125295519Y-140695009D01*
X125199018Y-140901957D01*
X125199014Y-140901966D01*
X125139918Y-141122517D01*
X125139916Y-141122527D01*
X125120015Y-141349999D01*
X125120015Y-141350000D01*
X125139916Y-141577472D01*
X125139918Y-141577482D01*
X125199014Y-141798033D01*
X125199018Y-141798042D01*
X125295520Y-142004992D01*
X125347384Y-142079062D01*
X125812078Y-141614367D01*
X125874551Y-141733399D01*
X125982445Y-141855186D01*
X126116349Y-141947613D01*
X126166803Y-141966747D01*
X125700936Y-142432614D01*
X125703743Y-142464693D01*
X125689976Y-142533193D01*
X125641361Y-142583376D01*
X125580215Y-142599500D01*
X124700097Y-142599500D01*
X124633058Y-142579815D01*
X124612416Y-142563181D01*
X122761416Y-140712181D01*
X122727931Y-140650858D01*
X122732915Y-140581166D01*
X122774787Y-140525233D01*
X122840251Y-140500816D01*
X122849097Y-140500500D01*
X125193515Y-140500500D01*
X125260554Y-140520185D01*
G37*
%TD.AperFunction*%
%TA.AperFunction,Conductor*%
G36*
X133900554Y-140520185D02*
G01*
X133946309Y-140572989D01*
X133956253Y-140642147D01*
X133937379Y-140689833D01*
X133938226Y-140690322D01*
X133935519Y-140695009D01*
X133839018Y-140901957D01*
X133839014Y-140901966D01*
X133779918Y-141122517D01*
X133779916Y-141122527D01*
X133760015Y-141349999D01*
X133760015Y-141350000D01*
X133779916Y-141577472D01*
X133779918Y-141577482D01*
X133839014Y-141798033D01*
X133839018Y-141798042D01*
X133935520Y-142004992D01*
X133987384Y-142079062D01*
X134452078Y-141614367D01*
X134514551Y-141733399D01*
X134622445Y-141855186D01*
X134756349Y-141947613D01*
X134806803Y-141966748D01*
X134340936Y-142432614D01*
X134343743Y-142464693D01*
X134329976Y-142533193D01*
X134281361Y-142583376D01*
X134220215Y-142599500D01*
X127279784Y-142599500D01*
X127212745Y-142579815D01*
X127166990Y-142527011D01*
X127156256Y-142464694D01*
X127159062Y-142432615D01*
X126693194Y-141966748D01*
X126743651Y-141947613D01*
X126877555Y-141855186D01*
X126985449Y-141733399D01*
X127047921Y-141614368D01*
X127512614Y-142079061D01*
X127564479Y-142004994D01*
X127564481Y-142004990D01*
X127660980Y-141798047D01*
X127660985Y-141798033D01*
X127720081Y-141577482D01*
X127720083Y-141577472D01*
X127739985Y-141350000D01*
X127739985Y-141349999D01*
X127720083Y-141122527D01*
X127720081Y-141122517D01*
X127660985Y-140901966D01*
X127660981Y-140901957D01*
X127564480Y-140695009D01*
X127561774Y-140690322D01*
X127562903Y-140689669D01*
X127542583Y-140629422D01*
X127559591Y-140561654D01*
X127610537Y-140513839D01*
X127666485Y-140500500D01*
X133833515Y-140500500D01*
X133900554Y-140520185D01*
G37*
%TD.AperFunction*%
%TA.AperFunction,Conductor*%
G36*
X143283624Y-140377181D02*
G01*
X143333615Y-140425993D01*
X143349500Y-140486714D01*
X143349500Y-141518102D01*
X143355126Y-141564954D01*
X143360122Y-141606561D01*
X143415639Y-141747343D01*
X143507077Y-141867922D01*
X143627656Y-141959360D01*
X143627657Y-141959360D01*
X143627658Y-141959361D01*
X143768436Y-142014877D01*
X143856898Y-142025500D01*
X143856903Y-142025500D01*
X145143097Y-142025500D01*
X145143102Y-142025500D01*
X145231564Y-142014877D01*
X145372342Y-141959361D01*
X145492922Y-141867922D01*
X145584361Y-141747342D01*
X145639877Y-141606564D01*
X145650500Y-141518102D01*
X145650500Y-141225000D01*
X145670185Y-141157962D01*
X145722989Y-141112207D01*
X145792147Y-141102263D01*
X145855703Y-141131288D01*
X145893477Y-141190066D01*
X145893766Y-141191066D01*
X145922596Y-141292392D01*
X145922596Y-141292394D01*
X146017632Y-141483253D01*
X146146127Y-141653406D01*
X146146128Y-141653407D01*
X146303698Y-141797052D01*
X146484981Y-141909298D01*
X146683802Y-141986321D01*
X146893390Y-142025500D01*
X146893392Y-142025500D01*
X147075902Y-142025500D01*
X147142941Y-142045185D01*
X147188696Y-142097989D01*
X147198640Y-142167147D01*
X147169615Y-142230703D01*
X147163583Y-142237181D01*
X146837584Y-142563181D01*
X146776261Y-142596666D01*
X146749903Y-142599500D01*
X135919784Y-142599500D01*
X135852745Y-142579815D01*
X135806990Y-142527011D01*
X135796256Y-142464694D01*
X135799062Y-142432615D01*
X135333195Y-141966748D01*
X135383651Y-141947613D01*
X135517555Y-141855186D01*
X135625449Y-141733399D01*
X135687921Y-141614368D01*
X136152614Y-142079061D01*
X136204479Y-142004994D01*
X136204481Y-142004990D01*
X136300980Y-141798047D01*
X136300985Y-141798033D01*
X136360081Y-141577482D01*
X136360083Y-141577472D01*
X136379985Y-141350000D01*
X136379985Y-141349999D01*
X136360083Y-141122527D01*
X136360081Y-141122517D01*
X136300985Y-140901966D01*
X136300981Y-140901957D01*
X136204480Y-140695009D01*
X136201774Y-140690322D01*
X136202903Y-140689669D01*
X136182583Y-140629422D01*
X136199591Y-140561654D01*
X136250537Y-140513839D01*
X136306485Y-140500500D01*
X142756572Y-140500500D01*
X142764670Y-140501030D01*
X142800000Y-140505682D01*
X142800001Y-140505682D01*
X142852253Y-140498802D01*
X142956762Y-140485044D01*
X143102841Y-140424536D01*
X143128311Y-140404992D01*
X143138518Y-140397160D01*
X143144317Y-140392710D01*
X143150011Y-140388340D01*
X143215179Y-140363144D01*
X143283624Y-140377181D01*
G37*
%TD.AperFunction*%
%TA.AperFunction,Conductor*%
G36*
X106752151Y-110098515D02*
G01*
X106792680Y-110155429D01*
X106799500Y-110195986D01*
X106799500Y-111083100D01*
X106779815Y-111150139D01*
X106727011Y-111195894D01*
X106657853Y-111205838D01*
X106657305Y-111205758D01*
X106649022Y-111204529D01*
X106233076Y-111620475D01*
X106209493Y-111540156D01*
X106131761Y-111419202D01*
X106023100Y-111325048D01*
X105892315Y-111265320D01*
X105882533Y-111263913D01*
X106295469Y-110850976D01*
X106295469Y-110850974D01*
X106153547Y-110775116D01*
X106103703Y-110726154D01*
X106088242Y-110658016D01*
X106112074Y-110592337D01*
X106161562Y-110552480D01*
X106202730Y-110534151D01*
X106355871Y-110422888D01*
X106482533Y-110282216D01*
X106568112Y-110133987D01*
X106618679Y-110085771D01*
X106687286Y-110072547D01*
X106752151Y-110098515D01*
G37*
%TD.AperFunction*%
%TA.AperFunction,Conductor*%
G36*
X106649022Y-104295469D02*
G01*
X106657305Y-104294241D01*
X106726507Y-104303876D01*
X106779515Y-104349395D01*
X106799499Y-104416346D01*
X106799500Y-104416899D01*
X106799500Y-105202091D01*
X106779815Y-105269130D01*
X106727011Y-105314885D01*
X106657853Y-105324829D01*
X106594297Y-105295804D01*
X106566142Y-105260545D01*
X106560378Y-105249762D01*
X106544136Y-105219375D01*
X106508013Y-105175359D01*
X106425357Y-105074642D01*
X106280626Y-104955864D01*
X106280623Y-104955862D01*
X106205613Y-104915769D01*
X106155769Y-104866807D01*
X106140308Y-104798669D01*
X106164140Y-104732990D01*
X106205613Y-104697053D01*
X106295470Y-104649023D01*
X105882534Y-104236086D01*
X105892315Y-104234680D01*
X106023100Y-104174952D01*
X106131761Y-104080798D01*
X106209493Y-103959844D01*
X106233076Y-103879524D01*
X106649022Y-104295469D01*
G37*
%TD.AperFunction*%
%TA.AperFunction,Conductor*%
G36*
X122311069Y-109980351D02*
G01*
X122337023Y-110002639D01*
X122568310Y-110264847D01*
X122597894Y-110328145D01*
X122599317Y-110346874D01*
X122599317Y-128760664D01*
X122599318Y-128760664D01*
X122599318Y-128760666D01*
X123600000Y-129700000D01*
X128659576Y-129700000D01*
X128726615Y-129719685D01*
X128732657Y-129723824D01*
X129349080Y-130173519D01*
X129391638Y-130228932D01*
X129399999Y-130273695D01*
X129400000Y-131241921D01*
X129380316Y-131308960D01*
X129355383Y-131337180D01*
X128834489Y-131771259D01*
X128770386Y-131799055D01*
X128755106Y-131800000D01*
X122248483Y-131800000D01*
X122181444Y-131780315D01*
X122164376Y-131767116D01*
X120939497Y-130636459D01*
X120903588Y-130576523D01*
X120899607Y-130546252D01*
X120800500Y-116971165D01*
X120800500Y-110084666D01*
X120820185Y-110017627D01*
X120872989Y-109971872D01*
X120924500Y-109960666D01*
X122244030Y-109960666D01*
X122311069Y-109980351D01*
G37*
%TD.AperFunction*%
%TA.AperFunction,Conductor*%
G36*
X144087502Y-78199958D02*
G01*
X144095764Y-78203412D01*
X144099163Y-78211697D01*
X144099135Y-78212467D01*
X144089666Y-78349037D01*
X144089381Y-78350917D01*
X144064855Y-78454757D01*
X144064719Y-78455240D01*
X144035202Y-78544994D01*
X144035202Y-78544995D01*
X144010399Y-78650009D01*
X144000755Y-78789109D01*
X143996764Y-78797126D01*
X143989083Y-78800000D01*
X143610917Y-78800000D01*
X143602644Y-78796573D01*
X143599245Y-78789109D01*
X143589600Y-78650009D01*
X143589600Y-78650008D01*
X143564800Y-78545004D01*
X143535276Y-78455227D01*
X143535144Y-78454757D01*
X143529484Y-78430795D01*
X143510616Y-78350908D01*
X143510334Y-78349047D01*
X143500864Y-78212465D01*
X143503710Y-78203977D01*
X143511727Y-78199986D01*
X143512486Y-78199958D01*
X143800000Y-78199000D01*
X144087502Y-78199958D01*
G37*
%TD.AperFunction*%
%TA.AperFunction,Conductor*%
G36*
X144090561Y-87642034D02*
G01*
X144357965Y-87909438D01*
X144361392Y-87917711D01*
X144358518Y-87925392D01*
X144266976Y-88030573D01*
X144210271Y-88122344D01*
X144167658Y-88206715D01*
X144167413Y-88207153D01*
X144111339Y-88297903D01*
X144110212Y-88299434D01*
X144020337Y-88402704D01*
X144012320Y-88406695D01*
X144003830Y-88403849D01*
X144003265Y-88403324D01*
X143799266Y-88200679D01*
X143596675Y-87996734D01*
X143593276Y-87988449D01*
X143596730Y-87980187D01*
X143597271Y-87979683D01*
X143700569Y-87889780D01*
X143702088Y-87888662D01*
X143792864Y-87832572D01*
X143793282Y-87832339D01*
X143798257Y-87829826D01*
X143877642Y-87789733D01*
X143969427Y-87733020D01*
X144074608Y-87641480D01*
X144083097Y-87638635D01*
X144090561Y-87642034D01*
G37*
%TD.AperFunction*%
%TA.AperFunction,Conductor*%
G36*
X145697545Y-97433320D02*
G01*
X145970068Y-97659954D01*
X146206619Y-97768854D01*
X146410182Y-97810464D01*
X146441424Y-97816851D01*
X146549270Y-97836716D01*
X146716445Y-97867510D01*
X146717183Y-97867698D01*
X147063284Y-97980782D01*
X147070082Y-97986607D01*
X147070770Y-97995536D01*
X147070463Y-97996368D01*
X146752562Y-98766214D01*
X146746237Y-98772553D01*
X146746214Y-98772562D01*
X145976368Y-99090463D01*
X145967413Y-99090454D01*
X145961088Y-99084115D01*
X145960788Y-99083301D01*
X145847698Y-98737183D01*
X145847510Y-98736445D01*
X145816716Y-98569270D01*
X145796851Y-98461424D01*
X145790464Y-98430182D01*
X145748854Y-98226619D01*
X145639954Y-97990068D01*
X145413320Y-97717545D01*
X145410666Y-97708994D01*
X145414043Y-97701793D01*
X145681793Y-97434043D01*
X145690065Y-97430617D01*
X145697545Y-97433320D01*
G37*
%TD.AperFunction*%
%TA.AperFunction,Conductor*%
G36*
X144875955Y-79489395D02*
G01*
X144881967Y-79495076D01*
X144946715Y-79628276D01*
X144946716Y-79628277D01*
X145007716Y-79728036D01*
X145007838Y-79728245D01*
X145055736Y-79814410D01*
X145056705Y-79816695D01*
X145088043Y-79919885D01*
X145088515Y-79922411D01*
X145099058Y-80063162D01*
X145096259Y-80071668D01*
X145088265Y-80075703D01*
X145087391Y-80075736D01*
X144709571Y-80075736D01*
X144701298Y-80072309D01*
X144698103Y-80066354D01*
X144697458Y-80063162D01*
X144681404Y-79983746D01*
X144631729Y-79936300D01*
X144631727Y-79936298D01*
X144560120Y-79908482D01*
X144477164Y-79875938D01*
X144474603Y-79874543D01*
X144399012Y-79820151D01*
X144394299Y-79812537D01*
X144396349Y-79803820D01*
X144397545Y-79802409D01*
X144598338Y-79600669D01*
X144602181Y-79598104D01*
X144867000Y-79489368D01*
X144875955Y-79489395D01*
G37*
%TD.AperFunction*%
%TA.AperFunction,Conductor*%
G36*
X146787502Y-85690958D02*
G01*
X146795764Y-85694412D01*
X146799163Y-85702697D01*
X146799135Y-85703467D01*
X146789666Y-85840037D01*
X146789381Y-85841918D01*
X146764854Y-85945757D01*
X146764718Y-85946240D01*
X146735202Y-86035994D01*
X146735202Y-86035995D01*
X146710399Y-86141009D01*
X146700755Y-86280109D01*
X146696764Y-86288126D01*
X146689083Y-86291000D01*
X146310917Y-86291000D01*
X146302644Y-86287573D01*
X146299245Y-86280109D01*
X146289600Y-86141009D01*
X146289600Y-86141008D01*
X146264799Y-86036004D01*
X146235276Y-85946228D01*
X146235144Y-85945757D01*
X146229484Y-85921795D01*
X146210616Y-85841908D01*
X146210334Y-85840047D01*
X146200864Y-85703465D01*
X146203710Y-85694977D01*
X146211727Y-85690986D01*
X146212486Y-85690958D01*
X146500000Y-85690000D01*
X146787502Y-85690958D01*
G37*
%TD.AperFunction*%
%TA.AperFunction,Conductor*%
G36*
X151997356Y-96703427D02*
G01*
X152000755Y-96710891D01*
X152010399Y-96849989D01*
X152035201Y-96955003D01*
X152035201Y-96955004D01*
X152064719Y-97044758D01*
X152064855Y-97045241D01*
X152089381Y-97149081D01*
X152089666Y-97150961D01*
X152099135Y-97287532D01*
X152096289Y-97296022D01*
X152088272Y-97300013D01*
X152087502Y-97300041D01*
X151800000Y-97300999D01*
X151512497Y-97300041D01*
X151504235Y-97296587D01*
X151500836Y-97288302D01*
X151500864Y-97287532D01*
X151510334Y-97150949D01*
X151510616Y-97149092D01*
X151535143Y-97045240D01*
X151535273Y-97044777D01*
X151564800Y-96954995D01*
X151589600Y-96849991D01*
X151599244Y-96710891D01*
X151603236Y-96702874D01*
X151610917Y-96700000D01*
X151989083Y-96700000D01*
X151997356Y-96703427D01*
G37*
%TD.AperFunction*%
%TA.AperFunction,Conductor*%
G36*
X133079809Y-99824363D02*
G01*
X133216403Y-99833834D01*
X133218264Y-99834116D01*
X133298151Y-99852984D01*
X133322113Y-99858644D01*
X133322583Y-99858776D01*
X133382174Y-99878373D01*
X133412350Y-99888297D01*
X133412353Y-99888297D01*
X133412360Y-99888300D01*
X133517364Y-99913100D01*
X133656466Y-99922744D01*
X133664482Y-99926735D01*
X133667356Y-99934416D01*
X133667356Y-100312583D01*
X133663929Y-100320856D01*
X133656465Y-100324255D01*
X133517365Y-100333899D01*
X133412351Y-100358702D01*
X133412350Y-100358702D01*
X133322596Y-100388219D01*
X133322113Y-100388355D01*
X133218273Y-100412881D01*
X133216393Y-100413166D01*
X133079823Y-100422635D01*
X133071333Y-100419789D01*
X133067342Y-100411772D01*
X133067314Y-100411002D01*
X133067238Y-100388300D01*
X133066356Y-100123500D01*
X133067314Y-99835996D01*
X133070768Y-99827735D01*
X133079053Y-99824336D01*
X133079809Y-99824363D01*
G37*
%TD.AperFunction*%
%TA.AperFunction,Conductor*%
G36*
X141396022Y-77703710D02*
G01*
X141400013Y-77711727D01*
X141400041Y-77712497D01*
X141401000Y-78000039D01*
X141400041Y-78287502D01*
X141396586Y-78295764D01*
X141388302Y-78299163D01*
X141387532Y-78299135D01*
X141250961Y-78289666D01*
X141249081Y-78289381D01*
X141145241Y-78264855D01*
X141144758Y-78264719D01*
X141055004Y-78235202D01*
X140949989Y-78210399D01*
X140810891Y-78200755D01*
X140802874Y-78196764D01*
X140800000Y-78189083D01*
X140800000Y-77810916D01*
X140803427Y-77802643D01*
X140810888Y-77799244D01*
X140949991Y-77789600D01*
X141054995Y-77764800D01*
X141144777Y-77735274D01*
X141145241Y-77735144D01*
X141249092Y-77710616D01*
X141250949Y-77710334D01*
X141387533Y-77700864D01*
X141396022Y-77703710D01*
G37*
%TD.AperFunction*%
%TA.AperFunction,Conductor*%
G36*
X131012453Y-100200863D02*
G01*
X131149047Y-100210334D01*
X131150908Y-100210616D01*
X131230795Y-100229484D01*
X131254757Y-100235144D01*
X131255227Y-100235276D01*
X131314818Y-100254873D01*
X131344994Y-100264797D01*
X131344997Y-100264797D01*
X131345004Y-100264800D01*
X131450008Y-100289600D01*
X131589109Y-100299244D01*
X131597125Y-100303235D01*
X131599999Y-100310916D01*
X131599999Y-100689083D01*
X131596572Y-100697356D01*
X131589108Y-100700755D01*
X131450009Y-100710399D01*
X131344995Y-100735202D01*
X131344994Y-100735202D01*
X131255240Y-100764719D01*
X131254757Y-100764855D01*
X131150917Y-100789381D01*
X131149037Y-100789666D01*
X131012467Y-100799135D01*
X131003977Y-100796289D01*
X130999986Y-100788272D01*
X130999958Y-100787502D01*
X130999882Y-100764800D01*
X130999000Y-100500000D01*
X130999958Y-100212496D01*
X131003412Y-100204235D01*
X131011697Y-100200836D01*
X131012453Y-100200863D01*
G37*
%TD.AperFunction*%
%TA.AperFunction,Conductor*%
G36*
X141396022Y-81703710D02*
G01*
X141400013Y-81711727D01*
X141400041Y-81712497D01*
X141401000Y-82000039D01*
X141400041Y-82287502D01*
X141396586Y-82295764D01*
X141388302Y-82299163D01*
X141387532Y-82299135D01*
X141250961Y-82289666D01*
X141249081Y-82289381D01*
X141145241Y-82264855D01*
X141144758Y-82264719D01*
X141055004Y-82235202D01*
X140949989Y-82210399D01*
X140810891Y-82200755D01*
X140802874Y-82196764D01*
X140800000Y-82189083D01*
X140800000Y-81810916D01*
X140803427Y-81802643D01*
X140810888Y-81799244D01*
X140949991Y-81789600D01*
X141054995Y-81764800D01*
X141144777Y-81735274D01*
X141145241Y-81735144D01*
X141249092Y-81710616D01*
X141250949Y-81710334D01*
X141387533Y-81700864D01*
X141396022Y-81703710D01*
G37*
%TD.AperFunction*%
%TA.AperFunction,Conductor*%
G36*
X141225391Y-101341480D02*
G01*
X141330571Y-101433020D01*
X141330573Y-101433021D01*
X141422344Y-101489726D01*
X141422347Y-101489727D01*
X141422356Y-101489733D01*
X141473979Y-101515805D01*
X141506715Y-101532339D01*
X141507143Y-101532578D01*
X141597903Y-101588658D01*
X141599433Y-101589784D01*
X141702704Y-101679663D01*
X141706695Y-101687679D01*
X141703849Y-101696169D01*
X141703324Y-101696734D01*
X141500734Y-101900679D01*
X141296734Y-102103324D01*
X141288449Y-102106723D01*
X141280187Y-102103269D01*
X141279672Y-102102715D01*
X141189784Y-101999433D01*
X141188658Y-101997903D01*
X141132578Y-101907143D01*
X141132339Y-101906715D01*
X141115805Y-101873979D01*
X141089733Y-101822356D01*
X141033020Y-101730571D01*
X140941480Y-101625391D01*
X140938635Y-101616902D01*
X140942033Y-101609439D01*
X141209439Y-101342033D01*
X141217711Y-101338607D01*
X141225391Y-101341480D01*
G37*
%TD.AperFunction*%
%TA.AperFunction,Conductor*%
G36*
X140056812Y-92833730D02*
G01*
X140057328Y-92834285D01*
X140131621Y-92919648D01*
X140147212Y-92937563D01*
X140148339Y-92939094D01*
X140204413Y-93029844D01*
X140204658Y-93030282D01*
X140247271Y-93114653D01*
X140303976Y-93206424D01*
X140303978Y-93206427D01*
X140333428Y-93240265D01*
X140395518Y-93311607D01*
X140398364Y-93320097D01*
X140394965Y-93327561D01*
X140127561Y-93594965D01*
X140119288Y-93598392D01*
X140111607Y-93595518D01*
X140110972Y-93594965D01*
X140006427Y-93503978D01*
X140006424Y-93503976D01*
X139914653Y-93447271D01*
X139914645Y-93447267D01*
X139914642Y-93447265D01*
X139890222Y-93434932D01*
X139830282Y-93404658D01*
X139829844Y-93404413D01*
X139739094Y-93348339D01*
X139737563Y-93347212D01*
X139696652Y-93311607D01*
X139634294Y-93257336D01*
X139630304Y-93249320D01*
X139633150Y-93240830D01*
X139633659Y-93240282D01*
X139758465Y-93114642D01*
X139836266Y-93036321D01*
X139942193Y-92931096D01*
X140040266Y-92833674D01*
X140048550Y-92830276D01*
X140056812Y-92833730D01*
G37*
%TD.AperFunction*%
%TA.AperFunction,Conductor*%
G36*
X140325391Y-103241480D02*
G01*
X140430571Y-103333020D01*
X140430573Y-103333021D01*
X140522344Y-103389726D01*
X140522347Y-103389727D01*
X140522356Y-103389733D01*
X140573979Y-103415805D01*
X140606715Y-103432339D01*
X140607143Y-103432578D01*
X140697903Y-103488658D01*
X140699433Y-103489784D01*
X140802704Y-103579663D01*
X140806695Y-103587679D01*
X140803849Y-103596169D01*
X140803324Y-103596734D01*
X140600734Y-103800679D01*
X140396734Y-104003324D01*
X140388449Y-104006723D01*
X140380187Y-104003269D01*
X140379672Y-104002715D01*
X140289784Y-103899433D01*
X140288658Y-103897903D01*
X140232578Y-103807143D01*
X140232339Y-103806715D01*
X140215805Y-103773979D01*
X140189733Y-103722356D01*
X140133020Y-103630571D01*
X140041480Y-103525391D01*
X140038635Y-103516902D01*
X140042033Y-103509439D01*
X140309439Y-103242033D01*
X140317711Y-103238607D01*
X140325391Y-103241480D01*
G37*
%TD.AperFunction*%
%TA.AperFunction,Conductor*%
G36*
X140038771Y-96472962D02*
G01*
X140047032Y-96476416D01*
X140050423Y-96484220D01*
X140055200Y-96610631D01*
X140067598Y-96707894D01*
X140067601Y-96707912D01*
X140082376Y-96791605D01*
X140082418Y-96791882D01*
X140094766Y-96888753D01*
X140094809Y-96889272D01*
X140099496Y-97013312D01*
X140099500Y-97013533D01*
X140099500Y-97014947D01*
X140096073Y-97023220D01*
X140087800Y-97026647D01*
X139710353Y-97026647D01*
X139702080Y-97023220D01*
X139698740Y-97016372D01*
X139694430Y-96981243D01*
X139685451Y-96908043D01*
X139647268Y-96831178D01*
X139647264Y-96831173D01*
X139593667Y-96769758D01*
X139541614Y-96707894D01*
X139533514Y-96698266D01*
X139532208Y-96696357D01*
X139479070Y-96599204D01*
X139478108Y-96590303D01*
X139483722Y-96583326D01*
X139484813Y-96582800D01*
X139747822Y-96472909D01*
X139752362Y-96472007D01*
X140038771Y-96472962D01*
G37*
%TD.AperFunction*%
%TA.AperFunction,Conductor*%
G36*
X161122950Y-72751939D02*
G01*
X161129739Y-72757778D01*
X161129745Y-72757790D01*
X161575966Y-73643481D01*
X161576628Y-73652411D01*
X161570781Y-73659194D01*
X161570263Y-73659439D01*
X161345197Y-73759317D01*
X161108893Y-73888183D01*
X160872592Y-74041050D01*
X160636297Y-74217912D01*
X160403276Y-74415990D01*
X160395698Y-74418775D01*
X159418607Y-74418775D01*
X159410334Y-74415348D01*
X159406907Y-74407075D01*
X159408063Y-74402005D01*
X159565512Y-74074538D01*
X159731024Y-73706301D01*
X159896536Y-73314065D01*
X160062048Y-72897828D01*
X160223613Y-72468091D01*
X160229731Y-72461555D01*
X160238217Y-72461095D01*
X161122950Y-72751939D01*
G37*
%TD.AperFunction*%
%TA.AperFunction,Conductor*%
G36*
X162966159Y-87063255D02*
G01*
X162967387Y-87066753D01*
X163127404Y-87953374D01*
X163125501Y-87962124D01*
X163125483Y-87962150D01*
X162522505Y-88825786D01*
X162514959Y-88830607D01*
X162507453Y-88829436D01*
X162199358Y-88666902D01*
X162199342Y-88666894D01*
X161882105Y-88523536D01*
X161882091Y-88523530D01*
X161882086Y-88523528D01*
X161564834Y-88404164D01*
X161564825Y-88404161D01*
X161564819Y-88404159D01*
X161338225Y-88336046D01*
X161247582Y-88308800D01*
X160951058Y-88242098D01*
X160943740Y-88236940D01*
X160942212Y-88228116D01*
X160945352Y-88222413D01*
X161634847Y-87532918D01*
X161641038Y-87529679D01*
X161902851Y-87482431D01*
X162168267Y-87410532D01*
X162433683Y-87314634D01*
X162699099Y-87194735D01*
X162950297Y-87058544D01*
X162959203Y-87057615D01*
X162966159Y-87063255D01*
G37*
%TD.AperFunction*%
%TA.AperFunction,Conductor*%
G36*
X115808167Y-102031966D02*
G01*
X116258455Y-102471170D01*
X116643735Y-102846967D01*
X116647265Y-102855197D01*
X116645909Y-102860812D01*
X116580001Y-102985455D01*
X116509998Y-103138849D01*
X116440004Y-103313218D01*
X116439991Y-103313253D01*
X116370005Y-103508599D01*
X116369996Y-103508624D01*
X116302620Y-103716901D01*
X116296813Y-103723718D01*
X116291488Y-103725000D01*
X115308512Y-103725000D01*
X115300239Y-103721573D01*
X115297380Y-103716901D01*
X115230002Y-103508624D01*
X115229993Y-103508599D01*
X115160007Y-103313253D01*
X115159999Y-103313230D01*
X115090000Y-103138846D01*
X115020000Y-102985461D01*
X114954090Y-102860812D01*
X114953252Y-102851897D01*
X114956264Y-102846967D01*
X115791832Y-102031966D01*
X115800146Y-102028644D01*
X115808167Y-102031966D01*
G37*
%TD.AperFunction*%
%TA.AperFunction,Conductor*%
G36*
X116298923Y-106328427D02*
G01*
X116302062Y-106334120D01*
X116366320Y-106618384D01*
X116411660Y-106804597D01*
X116432646Y-106890785D01*
X116495809Y-107130198D01*
X116498973Y-107142189D01*
X116565271Y-107372498D01*
X116565289Y-107372559D01*
X116628643Y-107572577D01*
X116627874Y-107581499D01*
X116622873Y-107586497D01*
X115780549Y-108023123D01*
X115771627Y-108023888D01*
X115769525Y-108022987D01*
X114940468Y-107566801D01*
X114934871Y-107559810D01*
X114935094Y-107552602D01*
X115005382Y-107356593D01*
X115079036Y-107130195D01*
X115152691Y-106882796D01*
X115226345Y-106614398D01*
X115297756Y-106333814D01*
X115303119Y-106326642D01*
X115309096Y-106325000D01*
X116290650Y-106325000D01*
X116298923Y-106328427D01*
G37*
%TD.AperFunction*%
%TA.AperFunction,Conductor*%
G36*
X148718045Y-140347520D02*
G01*
X149496317Y-140747039D01*
X149502112Y-140753866D01*
X149502157Y-140754008D01*
X149583959Y-141019967D01*
X149752007Y-141566338D01*
X149779519Y-141655785D01*
X149778676Y-141664700D01*
X149771776Y-141670408D01*
X149770218Y-141670773D01*
X149518765Y-141711748D01*
X149518762Y-141711749D01*
X149254078Y-141787879D01*
X149254075Y-141787879D01*
X149254072Y-141787881D01*
X149091653Y-141854845D01*
X148989367Y-141897017D01*
X148724678Y-142039147D01*
X148467953Y-142209007D01*
X148459162Y-142210714D01*
X148453224Y-142207522D01*
X148042176Y-141796474D01*
X148038749Y-141788201D01*
X148040414Y-141782186D01*
X148169852Y-141566320D01*
X148303985Y-141309623D01*
X148438118Y-141019927D01*
X148572251Y-140697230D01*
X148701758Y-140353800D01*
X148707882Y-140347270D01*
X148716832Y-140346983D01*
X148718045Y-140347520D01*
G37*
%TD.AperFunction*%
%TA.AperFunction,Conductor*%
G36*
X151218045Y-140347520D02*
G01*
X151996317Y-140747039D01*
X152002112Y-140753866D01*
X152002157Y-140754008D01*
X152083959Y-141019967D01*
X152252007Y-141566338D01*
X152279519Y-141655785D01*
X152278676Y-141664700D01*
X152271776Y-141670408D01*
X152270218Y-141670773D01*
X152018765Y-141711748D01*
X152018762Y-141711749D01*
X151754078Y-141787879D01*
X151754075Y-141787879D01*
X151754072Y-141787881D01*
X151591653Y-141854845D01*
X151489367Y-141897017D01*
X151224678Y-142039147D01*
X150967953Y-142209007D01*
X150959162Y-142210714D01*
X150953224Y-142207522D01*
X150542176Y-141796474D01*
X150538749Y-141788201D01*
X150540414Y-141782186D01*
X150669852Y-141566320D01*
X150803985Y-141309623D01*
X150938118Y-141019927D01*
X151072251Y-140697230D01*
X151201758Y-140353800D01*
X151207882Y-140347270D01*
X151216832Y-140346983D01*
X151218045Y-140347520D01*
G37*
%TD.AperFunction*%
%TA.AperFunction,Conductor*%
G36*
X111488030Y-139261271D02*
G01*
X111743826Y-139437495D01*
X112007642Y-139586244D01*
X112007649Y-139586247D01*
X112007647Y-139586247D01*
X112150395Y-139648876D01*
X112271458Y-139701993D01*
X112535274Y-139784742D01*
X112535278Y-139784742D01*
X112535287Y-139784745D01*
X112638726Y-139804250D01*
X112786014Y-139832026D01*
X112793508Y-139836925D01*
X112795342Y-139845690D01*
X112794970Y-139847145D01*
X112502222Y-140746054D01*
X112496402Y-140752859D01*
X112496330Y-140752895D01*
X111716252Y-141142998D01*
X111707320Y-141143634D01*
X111700555Y-141137767D01*
X111700013Y-141136503D01*
X111574735Y-140789117D01*
X111444993Y-140462356D01*
X111444985Y-140462335D01*
X111315239Y-140168560D01*
X111185492Y-139907785D01*
X111185487Y-139907777D01*
X111185481Y-139907764D01*
X111119342Y-139791655D01*
X111060161Y-139687762D01*
X111059044Y-139678879D01*
X111062053Y-139673702D01*
X111473122Y-139262633D01*
X111481394Y-139259207D01*
X111488030Y-139261271D01*
G37*
%TD.AperFunction*%
%TA.AperFunction,Conductor*%
G36*
X109303132Y-139395777D02*
G01*
X109505056Y-139548665D01*
X109710112Y-139670924D01*
X109915168Y-139760183D01*
X110120224Y-139816442D01*
X110310621Y-139838039D01*
X110318455Y-139842376D01*
X110320927Y-139850983D01*
X110320321Y-139853597D01*
X110001739Y-140746125D01*
X109995730Y-140752765D01*
X109995222Y-140752991D01*
X109204944Y-141082433D01*
X109195989Y-141082453D01*
X109189643Y-141076136D01*
X109189073Y-141074399D01*
X109093848Y-140682852D01*
X109093846Y-140682842D01*
X108995384Y-140310983D01*
X108896923Y-139972124D01*
X108798461Y-139666265D01*
X108705654Y-139409077D01*
X108706070Y-139400132D01*
X108712689Y-139394101D01*
X108716660Y-139393406D01*
X109296070Y-139393406D01*
X109303132Y-139395777D01*
G37*
%TD.AperFunction*%
%TA.AperFunction,Conductor*%
G36*
X120876647Y-77989110D02*
G01*
X120882274Y-77994066D01*
X120957541Y-78124719D01*
X121043455Y-78213874D01*
X121120304Y-78287074D01*
X121122282Y-78289552D01*
X121176928Y-78381148D01*
X121178459Y-78385466D01*
X121198064Y-78520939D01*
X121195858Y-78529618D01*
X121188161Y-78534194D01*
X121186485Y-78534315D01*
X120809394Y-78534315D01*
X120801121Y-78530888D01*
X120797970Y-78525143D01*
X120782863Y-78456878D01*
X120735998Y-78422387D01*
X120666223Y-78410898D01*
X120581292Y-78402562D01*
X120579428Y-78402225D01*
X120507710Y-78383152D01*
X120498094Y-78380594D01*
X120490980Y-78375157D01*
X120489795Y-78366281D01*
X120490282Y-78364837D01*
X120598141Y-78103503D01*
X120604460Y-78097168D01*
X120867695Y-77989083D01*
X120876647Y-77989110D01*
G37*
%TD.AperFunction*%
%TA.AperFunction,Conductor*%
G36*
X127746022Y-96176710D02*
G01*
X127750013Y-96184727D01*
X127750041Y-96185497D01*
X127751000Y-96473039D01*
X127750041Y-96760502D01*
X127746586Y-96768764D01*
X127738302Y-96772163D01*
X127737532Y-96772135D01*
X127600961Y-96762666D01*
X127599081Y-96762381D01*
X127495241Y-96737855D01*
X127494758Y-96737719D01*
X127405004Y-96708202D01*
X127299989Y-96683399D01*
X127160891Y-96673755D01*
X127152874Y-96669764D01*
X127150000Y-96662083D01*
X127150000Y-96283916D01*
X127153427Y-96275643D01*
X127160888Y-96272244D01*
X127299991Y-96262600D01*
X127404995Y-96237800D01*
X127494777Y-96208274D01*
X127495241Y-96208144D01*
X127599092Y-96183616D01*
X127600949Y-96183334D01*
X127737533Y-96173864D01*
X127746022Y-96176710D01*
G37*
%TD.AperFunction*%
%TA.AperFunction,Conductor*%
G36*
X153219933Y-75848511D02*
G01*
X153220359Y-75848963D01*
X153277036Y-75912305D01*
X153277230Y-75912534D01*
X153304118Y-75945874D01*
X153324299Y-75970899D01*
X153324301Y-75970901D01*
X153324302Y-75970902D01*
X153369898Y-76014083D01*
X153369901Y-76014085D01*
X153400055Y-76027457D01*
X153430211Y-76040831D01*
X153510977Y-76048942D01*
X153518866Y-76053178D01*
X153521508Y-76060583D01*
X153521508Y-76437351D01*
X153518081Y-76445624D01*
X153509808Y-76449051D01*
X153508897Y-76449015D01*
X153391928Y-76439880D01*
X153389821Y-76439520D01*
X153300000Y-76415540D01*
X153299472Y-76415371D01*
X153283921Y-76409579D01*
X153221786Y-76386433D01*
X153221773Y-76386430D01*
X153130652Y-76362102D01*
X153130641Y-76362100D01*
X153010753Y-76352739D01*
X153002772Y-76348679D01*
X152999964Y-76341114D01*
X152999016Y-76056785D01*
X153002414Y-76048501D01*
X153203387Y-75848471D01*
X153211668Y-75845065D01*
X153219933Y-75848511D01*
G37*
%TD.AperFunction*%
%TA.AperFunction,Conductor*%
G36*
X157765691Y-76050486D02*
G01*
X157910532Y-76056290D01*
X157911296Y-76056373D01*
X158020411Y-76075656D01*
X158022358Y-76076176D01*
X158114115Y-76109404D01*
X158114578Y-76109595D01*
X158219046Y-76158188D01*
X158354405Y-76218223D01*
X158360577Y-76224709D01*
X158360483Y-76233361D01*
X158251897Y-76497814D01*
X158249328Y-76501663D01*
X158047132Y-76702910D01*
X158038850Y-76706317D01*
X158030585Y-76702871D01*
X158029725Y-76701905D01*
X157974953Y-76633113D01*
X157973890Y-76631527D01*
X157934415Y-76560804D01*
X157934406Y-76560789D01*
X157897786Y-76502894D01*
X157896085Y-76501663D01*
X157844245Y-76464136D01*
X157844244Y-76464135D01*
X157763451Y-76451542D01*
X157755804Y-76446882D01*
X157753553Y-76439982D01*
X157753553Y-76062178D01*
X157756980Y-76053905D01*
X157765253Y-76050478D01*
X157765691Y-76050486D01*
G37*
%TD.AperFunction*%
%TA.AperFunction,Conductor*%
G36*
X141196022Y-86703710D02*
G01*
X141200013Y-86711727D01*
X141200041Y-86712497D01*
X141201000Y-87000039D01*
X141200041Y-87287502D01*
X141196586Y-87295764D01*
X141188302Y-87299163D01*
X141187532Y-87299135D01*
X141050961Y-87289666D01*
X141049081Y-87289381D01*
X140945241Y-87264855D01*
X140944758Y-87264719D01*
X140855004Y-87235202D01*
X140749989Y-87210399D01*
X140610891Y-87200755D01*
X140602874Y-87196764D01*
X140600000Y-87189083D01*
X140600000Y-86810916D01*
X140603427Y-86802643D01*
X140610888Y-86799244D01*
X140749991Y-86789600D01*
X140854995Y-86764800D01*
X140944777Y-86735274D01*
X140945241Y-86735144D01*
X141049092Y-86710616D01*
X141050949Y-86710334D01*
X141187533Y-86700864D01*
X141196022Y-86703710D01*
G37*
%TD.AperFunction*%
%TA.AperFunction,Conductor*%
G36*
X138697430Y-96723318D02*
G01*
X138700823Y-96730703D01*
X138709278Y-96841793D01*
X138709278Y-96841795D01*
X138709279Y-96841797D01*
X138734924Y-96924983D01*
X138773646Y-96993745D01*
X138792487Y-97024288D01*
X138822006Y-97072142D01*
X138822285Y-97072650D01*
X138871729Y-97174050D01*
X138872275Y-97182988D01*
X138866341Y-97189694D01*
X138865724Y-97189974D01*
X138602182Y-97300088D01*
X138597632Y-97300992D01*
X138311661Y-97300038D01*
X138303399Y-97296584D01*
X138300000Y-97288338D01*
X138300000Y-96731591D01*
X138303427Y-96723318D01*
X138311700Y-96719891D01*
X138689157Y-96719891D01*
X138697430Y-96723318D01*
G37*
%TD.AperFunction*%
%TA.AperFunction,Conductor*%
G36*
X145602178Y-80599910D02*
G01*
X145865724Y-80710025D01*
X145872036Y-80716377D01*
X145872009Y-80725332D01*
X145871729Y-80725949D01*
X145822285Y-80827347D01*
X145822006Y-80827855D01*
X145773645Y-80906255D01*
X145734924Y-80975015D01*
X145709278Y-81058205D01*
X145700823Y-81169297D01*
X145696778Y-81177286D01*
X145689157Y-81180109D01*
X145311700Y-81180109D01*
X145303427Y-81176682D01*
X145300000Y-81168409D01*
X145300000Y-81036241D01*
X145299999Y-80934142D01*
X145300000Y-80845965D01*
X145300000Y-80611661D01*
X145303427Y-80603388D01*
X145311660Y-80599961D01*
X145597636Y-80599007D01*
X145602178Y-80599910D01*
G37*
%TD.AperFunction*%
%TA.AperFunction,Conductor*%
G36*
X145697545Y-94893320D02*
G01*
X145970068Y-95119954D01*
X146206619Y-95228854D01*
X146410182Y-95270464D01*
X146441424Y-95276851D01*
X146549270Y-95296716D01*
X146716445Y-95327510D01*
X146717183Y-95327698D01*
X147063284Y-95440782D01*
X147070082Y-95446607D01*
X147070770Y-95455536D01*
X147070463Y-95456368D01*
X146752562Y-96226214D01*
X146746237Y-96232553D01*
X146746214Y-96232562D01*
X145976368Y-96550463D01*
X145967413Y-96550454D01*
X145961088Y-96544115D01*
X145960788Y-96543301D01*
X145847698Y-96197183D01*
X145847510Y-96196445D01*
X145816716Y-96029270D01*
X145796851Y-95921424D01*
X145790464Y-95890182D01*
X145748854Y-95686619D01*
X145639954Y-95450068D01*
X145413320Y-95177545D01*
X145410666Y-95168994D01*
X145414043Y-95161793D01*
X145681793Y-94894043D01*
X145690065Y-94890617D01*
X145697545Y-94893320D01*
G37*
%TD.AperFunction*%
%TA.AperFunction,Conductor*%
G36*
X101782745Y-72257426D02*
G01*
X101789071Y-72263765D01*
X101789389Y-72264628D01*
X101908694Y-72633274D01*
X101908891Y-72634068D01*
X101960206Y-72927160D01*
X102008188Y-73177635D01*
X102008190Y-73177640D01*
X102121342Y-73429838D01*
X102361429Y-73720167D01*
X102364061Y-73728726D01*
X102360686Y-73735896D01*
X102092896Y-74003686D01*
X102084623Y-74007113D01*
X102077167Y-74004429D01*
X101786838Y-73764342D01*
X101534641Y-73651190D01*
X101534639Y-73651189D01*
X101534635Y-73651188D01*
X101284160Y-73603206D01*
X100991068Y-73551891D01*
X100990274Y-73551694D01*
X100621628Y-73432389D01*
X100614812Y-73426581D01*
X100614099Y-73417654D01*
X100614411Y-73416805D01*
X100951438Y-72600783D01*
X100957761Y-72594447D01*
X101773792Y-72257417D01*
X101782745Y-72257426D01*
G37*
%TD.AperFunction*%
%TA.AperFunction,Conductor*%
G36*
X135113255Y-94701820D02*
G01*
X135202624Y-94714095D01*
X135204958Y-94714665D01*
X135284674Y-94743093D01*
X135353230Y-94765578D01*
X135420159Y-94760792D01*
X135488093Y-94713418D01*
X135496839Y-94711498D01*
X135503058Y-94714743D01*
X135770220Y-94981905D01*
X135773647Y-94990178D01*
X135770220Y-94998451D01*
X135769741Y-94998904D01*
X135663217Y-95094054D01*
X135661583Y-95095275D01*
X135568881Y-95152687D01*
X135566870Y-95153679D01*
X135475404Y-95188373D01*
X135475038Y-95188498D01*
X135364248Y-95222348D01*
X135364217Y-95222359D01*
X135225314Y-95273309D01*
X135216367Y-95272941D01*
X135210490Y-95266837D01*
X135100201Y-95002882D01*
X135099298Y-94998346D01*
X135099968Y-94713382D01*
X135103414Y-94705119D01*
X135111696Y-94701712D01*
X135113255Y-94701820D01*
G37*
%TD.AperFunction*%
%TA.AperFunction,Conductor*%
G36*
X136796949Y-94412995D02*
G01*
X136800370Y-94420886D01*
X136803991Y-94531653D01*
X136816987Y-94617787D01*
X136816988Y-94617792D01*
X136827755Y-94651045D01*
X136840512Y-94690441D01*
X136840513Y-94690444D01*
X136876099Y-94772097D01*
X136920532Y-94874310D01*
X136920688Y-94883263D01*
X136914466Y-94889704D01*
X136914313Y-94889770D01*
X136650282Y-95000088D01*
X136645732Y-95000992D01*
X136360197Y-95000040D01*
X136351935Y-94996586D01*
X136348536Y-94988301D01*
X136348543Y-94987947D01*
X136353488Y-94853484D01*
X136353528Y-94852993D01*
X136363564Y-94772097D01*
X136366352Y-94749616D01*
X136366391Y-94749357D01*
X136381731Y-94660075D01*
X136394602Y-94556322D01*
X136399585Y-94420836D01*
X136403313Y-94412696D01*
X136411277Y-94409568D01*
X136788676Y-94409568D01*
X136796949Y-94412995D01*
G37*
%TD.AperFunction*%
%TA.AperFunction,Conductor*%
G36*
X157767770Y-72414873D02*
G01*
X158182308Y-72586081D01*
X158583775Y-72751892D01*
X158590114Y-72758218D01*
X158590123Y-72758240D01*
X158927144Y-73574249D01*
X158927135Y-73583203D01*
X158920796Y-73589529D01*
X158919934Y-73589846D01*
X158551407Y-73709175D01*
X158550616Y-73709371D01*
X158278383Y-73757170D01*
X158257677Y-73760806D01*
X158146493Y-73782182D01*
X158007296Y-73808945D01*
X158007291Y-73808947D01*
X157755222Y-73922202D01*
X157464993Y-74162283D01*
X157456433Y-74164916D01*
X157449262Y-74161541D01*
X157181472Y-73893751D01*
X157178045Y-73885478D01*
X157180727Y-73878024D01*
X157237829Y-73808947D01*
X157420772Y-73587638D01*
X157533772Y-73335353D01*
X157581570Y-73084744D01*
X157632724Y-72791585D01*
X157632921Y-72790789D01*
X157752173Y-72422084D01*
X157757978Y-72415269D01*
X157766905Y-72414555D01*
X157767770Y-72414873D01*
G37*
%TD.AperFunction*%
M02*
