%TF.GenerationSoftware,KiCad,Pcbnew,7.0.5*%
%TF.CreationDate,2023-06-03T10:53:18+02:00*%
%TF.ProjectId,electronix,656c6563-7472-46f6-9e69-782e6b696361,rev?*%
%TF.SameCoordinates,Original*%
%TF.FileFunction,Soldermask,Top*%
%TF.FilePolarity,Negative*%
%FSLAX46Y46*%
G04 Gerber Fmt 4.6, Leading zero omitted, Abs format (unit mm)*
G04 Created by KiCad (PCBNEW 7.0.5) date 2023-06-03 10:53:18*
%MOMM*%
%LPD*%
G01*
G04 APERTURE LIST*
G04 Aperture macros list*
%AMRoundRect*
0 Rectangle with rounded corners*
0 $1 Rounding radius*
0 $2 $3 $4 $5 $6 $7 $8 $9 X,Y pos of 4 corners*
0 Add a 4 corners polygon primitive as box body*
4,1,4,$2,$3,$4,$5,$6,$7,$8,$9,$2,$3,0*
0 Add four circle primitives for the rounded corners*
1,1,$1+$1,$2,$3*
1,1,$1+$1,$4,$5*
1,1,$1+$1,$6,$7*
1,1,$1+$1,$8,$9*
0 Add four rect primitives between the rounded corners*
20,1,$1+$1,$2,$3,$4,$5,0*
20,1,$1+$1,$4,$5,$6,$7,0*
20,1,$1+$1,$6,$7,$8,$9,0*
20,1,$1+$1,$8,$9,$2,$3,0*%
%AMRotRect*
0 Rectangle, with rotation*
0 The origin of the aperture is its center*
0 $1 length*
0 $2 width*
0 $3 Rotation angle, in degrees counterclockwise*
0 Add horizontal line*
21,1,$1,$2,0,0,$3*%
G04 Aperture macros list end*
%ADD10RoundRect,0.250000X0.475000X-0.250000X0.475000X0.250000X-0.475000X0.250000X-0.475000X-0.250000X0*%
%ADD11RoundRect,0.200000X-0.200000X-0.275000X0.200000X-0.275000X0.200000X0.275000X-0.200000X0.275000X0*%
%ADD12RoundRect,0.225000X0.225000X0.250000X-0.225000X0.250000X-0.225000X-0.250000X0.225000X-0.250000X0*%
%ADD13RoundRect,0.200000X-0.275000X0.200000X-0.275000X-0.200000X0.275000X-0.200000X0.275000X0.200000X0*%
%ADD14RoundRect,0.200000X0.200000X0.275000X-0.200000X0.275000X-0.200000X-0.275000X0.200000X-0.275000X0*%
%ADD15R,1.800000X1.800000*%
%ADD16C,1.800000*%
%ADD17RoundRect,0.225000X0.250000X-0.225000X0.250000X0.225000X-0.250000X0.225000X-0.250000X-0.225000X0*%
%ADD18RoundRect,0.200000X0.275000X-0.200000X0.275000X0.200000X-0.275000X0.200000X-0.275000X-0.200000X0*%
%ADD19RoundRect,0.250000X0.750000X-0.600000X0.750000X0.600000X-0.750000X0.600000X-0.750000X-0.600000X0*%
%ADD20O,2.000000X1.700000*%
%ADD21RoundRect,0.250000X0.250000X0.475000X-0.250000X0.475000X-0.250000X-0.475000X0.250000X-0.475000X0*%
%ADD22RoundRect,0.250000X-0.250000X-0.475000X0.250000X-0.475000X0.250000X0.475000X-0.250000X0.475000X0*%
%ADD23RoundRect,0.087500X-0.087500X0.187500X-0.087500X-0.187500X0.087500X-0.187500X0.087500X0.187500X0*%
%ADD24RoundRect,0.087500X-0.187500X0.087500X-0.187500X-0.087500X0.187500X-0.087500X0.187500X0.087500X0*%
%ADD25RoundRect,0.150000X-0.150000X0.512500X-0.150000X-0.512500X0.150000X-0.512500X0.150000X0.512500X0*%
%ADD26RoundRect,0.218750X0.218750X0.256250X-0.218750X0.256250X-0.218750X-0.256250X0.218750X-0.256250X0*%
%ADD27RoundRect,0.225000X-0.250000X0.225000X-0.250000X-0.225000X0.250000X-0.225000X0.250000X0.225000X0*%
%ADD28R,0.340000X0.700000*%
%ADD29R,0.650000X0.400000*%
%ADD30RoundRect,0.250000X-0.475000X0.250000X-0.475000X-0.250000X0.475000X-0.250000X0.475000X0.250000X0*%
%ADD31C,1.300000*%
%ADD32C,1.200000*%
%ADD33C,1.500000*%
%ADD34RoundRect,0.250000X-0.312500X-1.450000X0.312500X-1.450000X0.312500X1.450000X-0.312500X1.450000X0*%
%ADD35RoundRect,0.250000X0.800000X-0.450000X0.800000X0.450000X-0.800000X0.450000X-0.800000X-0.450000X0*%
%ADD36R,1.500000X0.900000*%
%ADD37R,0.900000X1.500000*%
%ADD38C,0.600000*%
%ADD39R,4.200000X4.200000*%
%ADD40RoundRect,0.250000X-0.600000X-0.725000X0.600000X-0.725000X0.600000X0.725000X-0.600000X0.725000X0*%
%ADD41O,1.700000X1.950000*%
%ADD42RotRect,1.800000X1.800000X112.500000*%
%ADD43RoundRect,0.218750X-0.218750X-0.256250X0.218750X-0.256250X0.218750X0.256250X-0.218750X0.256250X0*%
%ADD44RoundRect,0.150000X0.512500X0.150000X-0.512500X0.150000X-0.512500X-0.150000X0.512500X-0.150000X0*%
%ADD45RoundRect,0.062500X-0.362500X-0.062500X0.362500X-0.062500X0.362500X0.062500X-0.362500X0.062500X0*%
%ADD46R,1.650000X2.380000*%
%ADD47R,0.400000X0.650000*%
%ADD48RotRect,1.800000X1.800000X247.500000*%
%ADD49RoundRect,0.225000X-0.225000X-0.250000X0.225000X-0.250000X0.225000X0.250000X-0.225000X0.250000X0*%
%ADD50R,0.700000X1.200000*%
%ADD51R,0.760000X1.200000*%
%ADD52R,0.800000X1.200000*%
%ADD53C,1.850000*%
%ADD54C,2.010000*%
%ADD55R,1.400000X4.200000*%
%ADD56R,1.700000X1.700000*%
%ADD57O,1.700000X1.700000*%
%ADD58O,4.000000X5.000000*%
%ADD59O,6.000000X5.000000*%
G04 APERTURE END LIST*
D10*
X115200000Y-77250000D03*
X115200000Y-75350000D03*
X117400000Y-77250000D03*
X117400000Y-75350000D03*
D11*
X109975000Y-103925000D03*
X111625000Y-103925000D03*
D12*
X109275000Y-136000000D03*
X107725000Y-136000000D03*
D13*
X108050000Y-98200000D03*
X108050000Y-99850000D03*
D14*
X136294000Y-132400000D03*
X134644000Y-132400000D03*
D15*
X153878561Y-72730455D03*
D16*
X151338561Y-72730455D03*
D17*
X133825000Y-106175000D03*
X133825000Y-104625000D03*
D13*
X151113561Y-77573455D03*
X151113561Y-79223455D03*
D18*
X153025000Y-112642500D03*
X153025000Y-110992500D03*
D10*
X153117500Y-97267500D03*
X153117500Y-95367500D03*
D19*
X115800000Y-102025000D03*
D20*
X115800000Y-99525000D03*
D21*
X122184000Y-116942000D03*
X120284000Y-116942000D03*
D19*
X115775000Y-110525000D03*
D20*
X115775000Y-108025000D03*
D18*
X109772000Y-78599000D03*
X109772000Y-76949000D03*
D22*
X136759000Y-115942000D03*
X138659000Y-115942000D03*
D17*
X133825000Y-102925000D03*
X133825000Y-101375000D03*
D22*
X136759000Y-120442000D03*
X138659000Y-120442000D03*
D13*
X159127561Y-77573455D03*
X159127561Y-79223455D03*
D18*
X153145561Y-79223455D03*
X153145561Y-77573455D03*
D23*
X131800000Y-102175000D03*
X131300000Y-102175000D03*
X130800000Y-102175000D03*
X130300000Y-102175000D03*
X129800000Y-102175000D03*
D24*
X129575000Y-102900000D03*
X129575000Y-103400000D03*
X129575000Y-103900000D03*
D23*
X129800000Y-104625000D03*
X130300000Y-104625000D03*
X130800000Y-104625000D03*
X131300000Y-104625000D03*
X131800000Y-104625000D03*
D24*
X132025000Y-103900000D03*
X132025000Y-103400000D03*
X132025000Y-102900000D03*
D25*
X111750000Y-97287500D03*
X110800000Y-97287500D03*
X109850000Y-97287500D03*
X109850000Y-99562500D03*
X110800000Y-99562500D03*
X111750000Y-99562500D03*
D11*
X157011561Y-75350455D03*
X158661561Y-75350455D03*
D26*
X138276500Y-122442000D03*
X136701500Y-122442000D03*
D27*
X119250000Y-75425000D03*
X119250000Y-76975000D03*
D28*
X106000000Y-134750000D03*
X105500000Y-134750000D03*
X105000000Y-134750000D03*
X105000000Y-136250000D03*
X105500000Y-136250000D03*
X106000000Y-136250000D03*
D18*
X132531000Y-134721000D03*
X132531000Y-133071000D03*
D29*
X103234000Y-77441000D03*
X103234000Y-78091000D03*
X103234000Y-78741000D03*
X105134000Y-78741000D03*
X105134000Y-78091000D03*
X105134000Y-77441000D03*
D15*
X110744000Y-72597000D03*
D16*
X108204000Y-72597000D03*
D30*
X128009000Y-133892000D03*
X128009000Y-131992000D03*
D31*
X105750000Y-105750000D03*
X105750000Y-107750000D03*
D32*
X105750000Y-109750000D03*
D33*
X105750000Y-103750000D03*
X105750000Y-111750000D03*
D11*
X136664000Y-124192000D03*
X138314000Y-124192000D03*
D34*
X113662500Y-94025000D03*
X117937500Y-94025000D03*
D11*
X157699000Y-81317000D03*
X159349000Y-81317000D03*
X157723000Y-84586000D03*
X159373000Y-84586000D03*
D14*
X159373000Y-82884000D03*
X157723000Y-82884000D03*
D10*
X153025000Y-108517500D03*
X153025000Y-106617500D03*
D30*
X135575000Y-100950000D03*
X135575000Y-102850000D03*
D11*
X125975000Y-102900000D03*
X127625000Y-102900000D03*
D13*
X132025000Y-98825000D03*
X132025000Y-100475000D03*
D16*
X157257500Y-95057500D03*
X157257500Y-101457500D03*
D14*
X106599000Y-80822000D03*
X104949000Y-80822000D03*
D12*
X155402561Y-75350455D03*
X153852561Y-75350455D03*
D35*
X143000000Y-99200000D03*
X143000000Y-94800000D03*
D21*
X122184000Y-121442000D03*
X120284000Y-121442000D03*
D16*
X157275000Y-106467500D03*
X157275000Y-112867500D03*
D12*
X157050000Y-136000000D03*
X155500000Y-136000000D03*
X162167561Y-75350455D03*
X160617561Y-75350455D03*
D13*
X104900000Y-82575000D03*
X104900000Y-84225000D03*
D11*
X107675000Y-132500000D03*
X109325000Y-132500000D03*
D13*
X107969000Y-76949000D03*
X107969000Y-78599000D03*
D36*
X122296000Y-75531000D03*
X122296000Y-76801000D03*
X122296000Y-78071000D03*
X122296000Y-79341000D03*
X122296000Y-80611000D03*
X122296000Y-81881000D03*
X122296000Y-83151000D03*
X122296000Y-84421000D03*
X122296000Y-85691000D03*
X122296000Y-86961000D03*
X122296000Y-88231000D03*
X122296000Y-89501000D03*
X122296000Y-90771000D03*
X122296000Y-92041000D03*
D37*
X125336000Y-93291000D03*
X126606000Y-93291000D03*
X127876000Y-93291000D03*
X129146000Y-93291000D03*
X130416000Y-93291000D03*
X131686000Y-93291000D03*
X132956000Y-93291000D03*
X134226000Y-93291000D03*
X135496000Y-93291000D03*
X136766000Y-93291000D03*
D36*
X139796000Y-92041000D03*
X139796000Y-90771000D03*
X139796000Y-89501000D03*
X139796000Y-88231000D03*
X139796000Y-86961000D03*
X139796000Y-85691000D03*
X139796000Y-84421000D03*
X139796000Y-83151000D03*
X139796000Y-81881000D03*
X139796000Y-80611000D03*
X139796000Y-79341000D03*
X139796000Y-78071000D03*
X139796000Y-76801000D03*
X139796000Y-75531000D03*
D38*
X128841000Y-82108500D03*
X128841000Y-83633500D03*
X129603500Y-81346000D03*
X129603500Y-82871000D03*
X129603500Y-84396000D03*
X130366000Y-82108500D03*
D39*
X130366000Y-82871000D03*
D38*
X130366000Y-83633500D03*
X131128500Y-81346000D03*
X131128500Y-82871000D03*
X131128500Y-84396000D03*
X131891000Y-82108500D03*
X131891000Y-83633500D03*
D40*
X105000000Y-140750000D03*
D41*
X107500000Y-140750000D03*
X110000000Y-140750000D03*
X112500000Y-140750000D03*
X115000000Y-140750000D03*
X117500000Y-140750000D03*
D11*
X155450000Y-134250000D03*
X157100000Y-134250000D03*
D26*
X144537500Y-77000000D03*
X142962500Y-77000000D03*
D22*
X136759000Y-118192000D03*
X138659000Y-118192000D03*
D42*
X163127561Y-87957455D03*
D16*
X162155545Y-85610801D03*
D18*
X153117500Y-101392500D03*
X153117500Y-99742500D03*
D43*
X134712500Y-130700000D03*
X136287500Y-130700000D03*
D30*
X126009000Y-131992000D03*
X126009000Y-133892000D03*
D29*
X157077561Y-78857455D03*
X157077561Y-78207455D03*
X157077561Y-77557455D03*
X155177561Y-77557455D03*
X155177561Y-78207455D03*
X155177561Y-78857455D03*
D15*
X161127561Y-72754455D03*
D16*
X158587561Y-72754455D03*
D40*
X144500000Y-140750000D03*
D41*
X147000000Y-140750000D03*
X149500000Y-140750000D03*
X152000000Y-140750000D03*
X154500000Y-140750000D03*
X157000000Y-140750000D03*
D29*
X141600000Y-102560000D03*
X141600000Y-103210000D03*
X141600000Y-103860000D03*
X143500000Y-103860000D03*
X143500000Y-103210000D03*
X143500000Y-102560000D03*
D44*
X127209000Y-120092000D03*
X127209000Y-119142000D03*
X127209000Y-118192000D03*
X124934000Y-118192000D03*
X124934000Y-119142000D03*
X124934000Y-120092000D03*
D18*
X130499000Y-134721000D03*
X130499000Y-133071000D03*
D45*
X129969000Y-129347000D03*
X129969000Y-129847000D03*
X129969000Y-130347000D03*
X129969000Y-130847000D03*
X129969000Y-131347000D03*
X132869000Y-131347000D03*
X132869000Y-130847000D03*
X132869000Y-130347000D03*
X132869000Y-129847000D03*
X132869000Y-129347000D03*
D46*
X131419000Y-130347000D03*
D42*
X162877561Y-80957455D03*
D16*
X161905545Y-78610801D03*
D47*
X110150000Y-94625000D03*
X110800000Y-94625000D03*
X111450000Y-94625000D03*
X111450000Y-92725000D03*
X110800000Y-92725000D03*
X110150000Y-92725000D03*
D48*
X99841283Y-85406562D03*
D16*
X98869267Y-87753216D03*
D13*
X102726000Y-88125000D03*
X102726000Y-89775000D03*
D11*
X106951000Y-75122000D03*
X108601000Y-75122000D03*
X132434000Y-124192000D03*
X134084000Y-124192000D03*
D15*
X103494000Y-72597000D03*
D16*
X100954000Y-72597000D03*
D28*
X153525000Y-134750000D03*
X153025000Y-134750000D03*
X152525000Y-134750000D03*
X152525000Y-136250000D03*
X153025000Y-136250000D03*
X153525000Y-136250000D03*
D49*
X120679000Y-119192000D03*
X122229000Y-119192000D03*
D13*
X105800000Y-93325000D03*
X105800000Y-94975000D03*
D14*
X134084000Y-122192000D03*
X132434000Y-122192000D03*
D50*
X130250000Y-137470000D03*
D51*
X132270000Y-137470000D03*
D52*
X133500000Y-137470000D03*
D50*
X131250000Y-137470000D03*
D51*
X129230000Y-137470000D03*
D52*
X128000000Y-137470000D03*
D53*
X126430000Y-137550000D03*
D54*
X126430000Y-141350000D03*
D53*
X135070000Y-137550000D03*
D54*
X135070000Y-141350000D03*
D18*
X104050000Y-94975000D03*
X104050000Y-93325000D03*
D12*
X111575000Y-101925000D03*
X110025000Y-101925000D03*
D18*
X102726000Y-82472000D03*
X102726000Y-80822000D03*
D14*
X151904561Y-75350455D03*
X150254561Y-75350455D03*
D12*
X126525000Y-122000000D03*
X124975000Y-122000000D03*
D11*
X134684000Y-128692000D03*
X136334000Y-128692000D03*
X99839000Y-75122000D03*
X101489000Y-75122000D03*
D55*
X130334000Y-118192000D03*
X134034000Y-118192000D03*
D17*
X102726000Y-85978000D03*
X102726000Y-84428000D03*
D11*
X142925000Y-75250000D03*
X144575000Y-75250000D03*
D13*
X130075000Y-98825000D03*
X130075000Y-100475000D03*
D49*
X103444000Y-75122000D03*
X104994000Y-75122000D03*
D48*
X100091283Y-78406562D03*
D16*
X99119267Y-80753216D03*
D11*
X155450000Y-132500000D03*
X157100000Y-132500000D03*
D56*
X146750000Y-103850000D03*
D57*
X146750000Y-101310000D03*
X146750000Y-98770000D03*
X146750000Y-96230000D03*
X146750000Y-93690000D03*
X146750000Y-91150000D03*
D11*
X107675000Y-134250000D03*
X109325000Y-134250000D03*
D58*
X148358500Y-117000000D03*
X148358500Y-134000000D03*
D59*
X151046000Y-84000000D03*
X111046000Y-84000000D03*
D58*
X113733500Y-134000000D03*
X113733500Y-117000000D03*
M02*
