%TF.GenerationSoftware,KiCad,Pcbnew,7.0.5*%
%TF.CreationDate,2023-06-03T10:53:26+02:00*%
%TF.ProjectId,electronix,656c6563-7472-46f6-9e69-782e6b696361,rev?*%
%TF.SameCoordinates,Original*%
%TF.FileFunction,Drillmap*%
%TF.FilePolarity,Positive*%
%FSLAX45Y45*%
G04 Gerber Fmt 4.5, Leading zero omitted, Abs format (unit mm)*
G04 Created by KiCad (PCBNEW 7.0.5) date 2023-06-03 10:53:26*
%MOMM*%
%LPD*%
G01*
G04 APERTURE LIST*
%ADD10C,0.500000*%
%ADD11C,0.200000*%
%ADD12C,0.020000*%
%ADD13C,0.030000*%
%ADD14C,0.075000*%
%ADD15C,0.080000*%
%ADD16C,0.090000*%
%ADD17C,0.095000*%
%ADD18C,0.100000*%
%ADD19C,0.120000*%
%ADD20C,0.134000*%
%ADD21C,0.225000*%
%ADD22C,0.310000*%
G04 APERTURE END LIST*
D10*
X16870373Y-8943938D02*
X16460000Y-9100000D01*
X16203794Y-9505765D02*
X16205442Y-14165442D01*
X17248399Y-7631711D02*
G75*
G03*
X15868769Y-6210000I-1374279J46651D01*
G01*
X15845442Y-14525442D02*
X10358558Y-14525442D01*
X8924000Y-8320000D02*
G75*
G03*
X9333627Y-8943938I680000J0D01*
G01*
X17248400Y-7631711D02*
X17280000Y-8320000D01*
X15845442Y-14525442D02*
G75*
G03*
X16205442Y-14165442I-2J360002D01*
G01*
X9333627Y-8943938D02*
X9744000Y-9100000D01*
X15868769Y-6210000D02*
X10334181Y-6210890D01*
X10334181Y-6210890D02*
G75*
G03*
X8960801Y-7631681I0J-1374172D01*
G01*
X8960800Y-7631681D02*
X8924000Y-8320000D01*
X10000206Y-9505765D02*
X9998558Y-14165442D01*
X16459998Y-9099996D02*
G75*
G03*
X16203794Y-9505765I172022J-392384D01*
G01*
X9998558Y-14165442D02*
G75*
G03*
X10358558Y-14525442I360002J2D01*
G01*
X10000202Y-9505765D02*
G75*
G03*
X9744000Y-9100000I-428222J13385D01*
G01*
X16870373Y-8943938D02*
G75*
G03*
X17280000Y-8320000I-270373J623938D01*
G01*
D11*
D12*
X13074400Y-12930700D02*
X13094400Y-12950700D01*
X13094400Y-12930700D02*
X13074400Y-12950700D01*
X13074400Y-13024700D02*
X13094400Y-13044700D01*
X13094400Y-13024700D02*
X13074400Y-13044700D01*
X13074400Y-13118700D02*
X13094400Y-13138700D01*
X13094400Y-13118700D02*
X13074400Y-13138700D01*
X13189400Y-12930700D02*
X13209400Y-12950700D01*
X13209400Y-12930700D02*
X13189400Y-12950700D01*
X13189400Y-13024700D02*
X13209400Y-13044700D01*
X13209400Y-13024700D02*
X13189400Y-13044700D01*
X13189400Y-13118700D02*
X13209400Y-13138700D01*
X13209400Y-13118700D02*
X13189400Y-13138700D01*
D13*
X9265000Y-7150000D02*
G75*
G03*
X9265000Y-7150000I-15000J0D01*
G01*
X9265000Y-7650000D02*
G75*
G03*
X9265000Y-7650000I-15000J0D01*
G01*
X9265000Y-8150000D02*
G75*
G03*
X9265000Y-8150000I-15000J0D01*
G01*
X9265000Y-8650000D02*
G75*
G03*
X9265000Y-8650000I-15000J0D01*
G01*
X9765000Y-6650000D02*
G75*
G03*
X9765000Y-6650000I-15000J0D01*
G01*
X9765000Y-7150000D02*
G75*
G03*
X9765000Y-7150000I-15000J0D01*
G01*
X9765000Y-7650000D02*
G75*
G03*
X9765000Y-7650000I-15000J0D01*
G01*
X9765000Y-8150000D02*
G75*
G03*
X9765000Y-8150000I-15000J0D01*
G01*
X9765000Y-8650000D02*
G75*
G03*
X9765000Y-8650000I-15000J0D01*
G01*
X10045000Y-8290000D02*
G75*
G03*
X10045000Y-8290000I-15000J0D01*
G01*
X10155000Y-9150000D02*
G75*
G03*
X10155000Y-9150000I-15000J0D01*
G01*
X10155000Y-9650000D02*
G75*
G03*
X10155000Y-9650000I-15000J0D01*
G01*
X10155000Y-10150000D02*
G75*
G03*
X10155000Y-10150000I-15000J0D01*
G01*
X10155000Y-11650000D02*
G75*
G03*
X10155000Y-11650000I-15000J0D01*
G01*
X10155000Y-12140000D02*
G75*
G03*
X10155000Y-12140000I-15000J0D01*
G01*
X10155000Y-12660000D02*
G75*
G03*
X10155000Y-12660000I-15000J0D01*
G01*
X10155000Y-13150000D02*
G75*
G03*
X10155000Y-13150000I-15000J0D01*
G01*
X10155000Y-13660000D02*
G75*
G03*
X10155000Y-13660000I-15000J0D01*
G01*
X10155000Y-14230000D02*
G75*
G03*
X10155000Y-14230000I-15000J0D01*
G01*
X10165000Y-8725000D02*
G75*
G03*
X10165000Y-8725000I-15000J0D01*
G01*
X10225000Y-8350000D02*
G75*
G03*
X10225000Y-8350000I-15000J0D01*
G01*
X10265000Y-6650000D02*
G75*
G03*
X10265000Y-6650000I-15000J0D01*
G01*
X10265000Y-7650000D02*
G75*
G03*
X10265000Y-7650000I-15000J0D01*
G01*
X10440000Y-7625000D02*
G75*
G03*
X10440000Y-7625000I-15000J0D01*
G01*
X10535000Y-8670000D02*
G75*
G03*
X10535000Y-8670000I-15000J0D01*
G01*
X10565000Y-8925000D02*
G75*
G03*
X10565000Y-8925000I-15000J0D01*
G01*
X10625000Y-11650000D02*
G75*
G03*
X10625000Y-11650000I-15000J0D01*
G01*
X10625000Y-12150000D02*
G75*
G03*
X10625000Y-12150000I-15000J0D01*
G01*
X10635000Y-10170000D02*
G75*
G03*
X10635000Y-10170000I-15000J0D01*
G01*
X10635000Y-12660000D02*
G75*
G03*
X10635000Y-12660000I-15000J0D01*
G01*
X10665000Y-7925000D02*
G75*
G03*
X10665000Y-7925000I-15000J0D01*
G01*
X10665000Y-13090000D02*
G75*
G03*
X10665000Y-13090000I-15000J0D01*
G01*
X10705000Y-9650000D02*
G75*
G03*
X10705000Y-9650000I-15000J0D01*
G01*
X10735000Y-9360000D02*
G75*
G03*
X10735000Y-9360000I-15000J0D01*
G01*
X10745000Y-13150000D02*
G75*
G03*
X10745000Y-13150000I-15000J0D01*
G01*
X10755000Y-14390000D02*
G75*
G03*
X10755000Y-14390000I-15000J0D01*
G01*
X10765000Y-6650000D02*
G75*
G03*
X10765000Y-6650000I-15000J0D01*
G01*
X10835000Y-13720000D02*
G75*
G03*
X10835000Y-13720000I-15000J0D01*
G01*
X10855000Y-13420000D02*
G75*
G03*
X10855000Y-13420000I-15000J0D01*
G01*
X10945000Y-9330000D02*
G75*
G03*
X10945000Y-9330000I-15000J0D01*
G01*
X10945000Y-9420000D02*
G75*
G03*
X10945000Y-9420000I-15000J0D01*
G01*
X10945000Y-9510000D02*
G75*
G03*
X10945000Y-9510000I-15000J0D01*
G01*
X10945000Y-9600000D02*
G75*
G03*
X10945000Y-9600000I-15000J0D01*
G01*
X11035000Y-9600000D02*
G75*
G03*
X11035000Y-9600000I-15000J0D01*
G01*
X11065000Y-8025000D02*
G75*
G03*
X11065000Y-8025000I-15000J0D01*
G01*
X11125000Y-9600000D02*
G75*
G03*
X11125000Y-9600000I-15000J0D01*
G01*
X11190000Y-13100000D02*
G75*
G03*
X11190000Y-13100000I-15000J0D01*
G01*
X11240000Y-13725000D02*
G75*
G03*
X11240000Y-13725000I-15000J0D01*
G01*
X11265000Y-6650000D02*
G75*
G03*
X11265000Y-6650000I-15000J0D01*
G01*
X11265000Y-7150000D02*
G75*
G03*
X11265000Y-7150000I-15000J0D01*
G01*
X11265000Y-8800000D02*
G75*
G03*
X11265000Y-8800000I-15000J0D01*
G01*
X11265000Y-10650000D02*
G75*
G03*
X11265000Y-10650000I-15000J0D01*
G01*
X11265000Y-11150000D02*
G75*
G03*
X11265000Y-11150000I-15000J0D01*
G01*
X11265000Y-12150000D02*
G75*
G03*
X11265000Y-12150000I-15000J0D01*
G01*
X11265000Y-12650000D02*
G75*
G03*
X11265000Y-12650000I-15000J0D01*
G01*
X11295000Y-7790000D02*
G75*
G03*
X11295000Y-7790000I-15000J0D01*
G01*
X11305000Y-10160000D02*
G75*
G03*
X11305000Y-10160000I-15000J0D01*
G01*
X11345000Y-7625000D02*
G75*
G03*
X11345000Y-7625000I-15000J0D01*
G01*
X11385000Y-7530000D02*
G75*
G03*
X11385000Y-7530000I-15000J0D01*
G01*
X11390000Y-7975000D02*
G75*
G03*
X11390000Y-7975000I-15000J0D01*
G01*
X11405000Y-9960000D02*
G75*
G03*
X11405000Y-9960000I-15000J0D01*
G01*
X11475000Y-8570000D02*
G75*
G03*
X11475000Y-8570000I-15000J0D01*
G01*
X11555000Y-8450000D02*
G75*
G03*
X11555000Y-8450000I-15000J0D01*
G01*
X11635000Y-8070000D02*
G75*
G03*
X11635000Y-8070000I-15000J0D01*
G01*
X11650000Y-12645000D02*
G75*
G03*
X11650000Y-12645000I-15000J0D01*
G01*
X11660000Y-12145000D02*
G75*
G03*
X11660000Y-12145000I-15000J0D01*
G01*
X11660000Y-13135000D02*
G75*
G03*
X11660000Y-13135000I-15000J0D01*
G01*
X11675000Y-13670000D02*
G75*
G03*
X11675000Y-13670000I-15000J0D01*
G01*
X11685000Y-11240000D02*
G75*
G03*
X11685000Y-11240000I-15000J0D01*
G01*
X11775000Y-7934100D02*
G75*
G03*
X11775000Y-7934100I-15000J0D01*
G01*
X11865000Y-8188100D02*
G75*
G03*
X11865000Y-8188100I-15000J0D01*
G01*
X11955000Y-8315100D02*
G75*
G03*
X11955000Y-8315100I-15000J0D01*
G01*
X11975000Y-8690000D02*
G75*
G03*
X11975000Y-8690000I-15000J0D01*
G01*
X12052350Y-8800000D02*
G75*
G03*
X12052350Y-8800000I-15000J0D01*
G01*
X12075000Y-7810000D02*
G75*
G03*
X12075000Y-7810000I-15000J0D01*
G01*
X12090000Y-14325000D02*
G75*
G03*
X12090000Y-14325000I-15000J0D01*
G01*
X12135000Y-9580000D02*
G75*
G03*
X12135000Y-9580000I-15000J0D01*
G01*
X12135000Y-11050000D02*
G75*
G03*
X12135000Y-11050000I-15000J0D01*
G01*
X12135000Y-11140000D02*
G75*
G03*
X12135000Y-11140000I-15000J0D01*
G01*
X12145000Y-9980000D02*
G75*
G03*
X12145000Y-9980000I-15000J0D01*
G01*
X12145000Y-10340000D02*
G75*
G03*
X12145000Y-10340000I-15000J0D01*
G01*
X12145000Y-10870000D02*
G75*
G03*
X12145000Y-10870000I-15000J0D01*
G01*
X12155000Y-13470000D02*
G75*
G03*
X12155000Y-13470000I-15000J0D01*
G01*
X12225000Y-11050000D02*
G75*
G03*
X12225000Y-11050000I-15000J0D01*
G01*
X12225000Y-11140000D02*
G75*
G03*
X12225000Y-11140000I-15000J0D01*
G01*
X12265000Y-13650000D02*
G75*
G03*
X12265000Y-13650000I-15000J0D01*
G01*
X12290000Y-9350000D02*
G75*
G03*
X12290000Y-9350000I-15000J0D01*
G01*
X12365000Y-11800000D02*
G75*
G03*
X12365000Y-11800000I-15000J0D01*
G01*
X12365000Y-12020000D02*
G75*
G03*
X12365000Y-12020000I-15000J0D01*
G01*
X12365000Y-12140000D02*
G75*
G03*
X12365000Y-12140000I-15000J0D01*
G01*
X12365000Y-12260000D02*
G75*
G03*
X12365000Y-12260000I-15000J0D01*
G01*
X12365000Y-12650000D02*
G75*
G03*
X12365000Y-12650000I-15000J0D01*
G01*
X12540000Y-9800000D02*
G75*
G03*
X12540000Y-9800000I-15000J0D01*
G01*
X12565000Y-10870000D02*
G75*
G03*
X12565000Y-10870000I-15000J0D01*
G01*
X12565000Y-11320000D02*
G75*
G03*
X12565000Y-11320000I-15000J0D01*
G01*
X12615000Y-12100000D02*
G75*
G03*
X12615000Y-12100000I-15000J0D01*
G01*
X12645000Y-9990000D02*
G75*
G03*
X12645000Y-9990000I-15000J0D01*
G01*
X12705000Y-13100000D02*
G75*
G03*
X12705000Y-13100000I-15000J0D01*
G01*
X12740000Y-9200000D02*
G75*
G03*
X12740000Y-9200000I-15000J0D01*
G01*
X12765000Y-7650000D02*
G75*
G03*
X12765000Y-7650000I-15000J0D01*
G01*
X12765000Y-8650000D02*
G75*
G03*
X12765000Y-8650000I-15000J0D01*
G01*
X12765000Y-9075000D02*
G75*
G03*
X12765000Y-9075000I-15000J0D01*
G01*
X12775000Y-13040000D02*
G75*
G03*
X12775000Y-13040000I-15000J0D01*
G01*
X12790000Y-9647300D02*
G75*
G03*
X12790000Y-9647300I-15000J0D01*
G01*
X12835000Y-13100000D02*
G75*
G03*
X12835000Y-13100000I-15000J0D01*
G01*
X12845000Y-12340000D02*
G75*
G03*
X12845000Y-12340000I-15000J0D01*
G01*
X12875000Y-10380000D02*
G75*
G03*
X12875000Y-10380000I-15000J0D01*
G01*
X12905000Y-13040000D02*
G75*
G03*
X12905000Y-13040000I-15000J0D01*
G01*
X12915000Y-11975000D02*
G75*
G03*
X12915000Y-11975000I-15000J0D01*
G01*
X12915000Y-12100000D02*
G75*
G03*
X12915000Y-12100000I-15000J0D01*
G01*
X12915000Y-14150000D02*
G75*
G03*
X12915000Y-14150000I-15000J0D01*
G01*
X12940000Y-13300000D02*
G75*
G03*
X12940000Y-13300000I-15000J0D01*
G01*
X12940000Y-13500000D02*
G75*
G03*
X12940000Y-13500000I-15000J0D01*
G01*
X12965000Y-11320000D02*
G75*
G03*
X12965000Y-11320000I-15000J0D01*
G01*
X12975000Y-12340000D02*
G75*
G03*
X12975000Y-12340000I-15000J0D01*
G01*
X13055000Y-10300000D02*
G75*
G03*
X13055000Y-10300000I-15000J0D01*
G01*
X13095000Y-12220000D02*
G75*
G03*
X13095000Y-12220000I-15000J0D01*
G01*
X13095000Y-12340000D02*
G75*
G03*
X13095000Y-12340000I-15000J0D01*
G01*
X13115000Y-10050000D02*
G75*
G03*
X13115000Y-10050000I-15000J0D01*
G01*
X13125000Y-10370000D02*
G75*
G03*
X13125000Y-10370000I-15000J0D01*
G01*
X13135000Y-12650000D02*
G75*
G03*
X13135000Y-12650000I-15000J0D01*
G01*
X13265000Y-7650000D02*
G75*
G03*
X13265000Y-7650000I-15000J0D01*
G01*
X13265000Y-8650000D02*
G75*
G03*
X13265000Y-8650000I-15000J0D01*
G01*
X13265000Y-9075000D02*
G75*
G03*
X13265000Y-9075000I-15000J0D01*
G01*
X13265000Y-10650000D02*
G75*
G03*
X13265000Y-10650000I-15000J0D01*
G01*
X13265000Y-14150000D02*
G75*
G03*
X13265000Y-14150000I-15000J0D01*
G01*
X13295000Y-10220000D02*
G75*
G03*
X13295000Y-10220000I-15000J0D01*
G01*
X13321736Y-10012350D02*
G75*
G03*
X13321736Y-10012350I-15000J0D01*
G01*
X13365000Y-13225000D02*
G75*
G03*
X13365000Y-13225000I-15000J0D01*
G01*
X13390000Y-13350000D02*
G75*
G03*
X13390000Y-13350000I-15000J0D01*
G01*
X13525000Y-9500000D02*
G75*
G03*
X13525000Y-9500000I-15000J0D01*
G01*
X13555000Y-10410000D02*
G75*
G03*
X13555000Y-10410000I-15000J0D01*
G01*
X13555000Y-10660000D02*
G75*
G03*
X13555000Y-10660000I-15000J0D01*
G01*
X13555000Y-12410000D02*
G75*
G03*
X13555000Y-12410000I-15000J0D01*
G01*
X13595000Y-13380000D02*
G75*
G03*
X13595000Y-13380000I-15000J0D01*
G01*
X13645000Y-7490000D02*
G75*
G03*
X13645000Y-7490000I-15000J0D01*
G01*
X13679810Y-9500000D02*
G75*
G03*
X13679810Y-9500000I-15000J0D01*
G01*
X13815000Y-7725000D02*
G75*
G03*
X13815000Y-7725000I-15000J0D01*
G01*
X13875000Y-9730000D02*
G75*
G03*
X13875000Y-9730000I-15000J0D01*
G01*
X13945000Y-12840000D02*
G75*
G03*
X13945000Y-12840000I-15000J0D01*
G01*
X13965000Y-11450000D02*
G75*
G03*
X13965000Y-11450000I-15000J0D01*
G01*
X13975000Y-11930000D02*
G75*
G03*
X13975000Y-11930000I-15000J0D01*
G01*
X13985000Y-11710000D02*
G75*
G03*
X13985000Y-11710000I-15000J0D01*
G01*
X13990000Y-9647300D02*
G75*
G03*
X13990000Y-9647300I-15000J0D01*
G01*
X13998700Y-9303700D02*
G75*
G03*
X13998700Y-9303700I-15000J0D01*
G01*
X14055000Y-13750000D02*
G75*
G03*
X14055000Y-13750000I-15000J0D01*
G01*
X14075000Y-10380000D02*
G75*
G03*
X14075000Y-10380000I-15000J0D01*
G01*
X14085000Y-12460000D02*
G75*
G03*
X14085000Y-12460000I-15000J0D01*
G01*
X14095000Y-10760000D02*
G75*
G03*
X14095000Y-10760000I-15000J0D01*
G01*
X14105000Y-11150000D02*
G75*
G03*
X14105000Y-11150000I-15000J0D01*
G01*
X14135000Y-8700000D02*
G75*
G03*
X14135000Y-8700000I-15000J0D01*
G01*
X14155000Y-7800000D02*
G75*
G03*
X14155000Y-7800000I-15000J0D01*
G01*
X14155000Y-8200000D02*
G75*
G03*
X14155000Y-8200000I-15000J0D01*
G01*
X14165000Y-10190000D02*
G75*
G03*
X14165000Y-10190000I-15000J0D01*
G01*
X14235000Y-9640000D02*
G75*
G03*
X14235000Y-9640000I-15000J0D01*
G01*
X14240000Y-14100000D02*
G75*
G03*
X14240000Y-14100000I-15000J0D01*
G01*
X14335000Y-8730000D02*
G75*
G03*
X14335000Y-8730000I-15000J0D01*
G01*
X14345000Y-8230000D02*
G75*
G03*
X14345000Y-8230000I-15000J0D01*
G01*
X14365000Y-11620000D02*
G75*
G03*
X14365000Y-11620000I-15000J0D01*
G01*
X14375000Y-12000000D02*
G75*
G03*
X14375000Y-12000000I-15000J0D01*
G01*
X14395000Y-7820000D02*
G75*
G03*
X14395000Y-7820000I-15000J0D01*
G01*
X14395000Y-8820000D02*
G75*
G03*
X14395000Y-8820000I-15000J0D01*
G01*
X14475000Y-7960000D02*
G75*
G03*
X14475000Y-7960000I-15000J0D01*
G01*
X14515000Y-13700000D02*
G75*
G03*
X14515000Y-13700000I-15000J0D01*
G01*
X14555000Y-11150000D02*
G75*
G03*
X14555000Y-11150000I-15000J0D01*
G01*
X14575000Y-8060000D02*
G75*
G03*
X14575000Y-8060000I-15000J0D01*
G01*
X14665000Y-8569100D02*
G75*
G03*
X14665000Y-8569100I-15000J0D01*
G01*
X14755000Y-8710000D02*
G75*
G03*
X14755000Y-8710000I-15000J0D01*
G01*
X14765000Y-8150000D02*
G75*
G03*
X14765000Y-8150000I-15000J0D01*
G01*
X14765000Y-12150000D02*
G75*
G03*
X14765000Y-12150000I-15000J0D01*
G01*
X14765000Y-12650000D02*
G75*
G03*
X14765000Y-12650000I-15000J0D01*
G01*
X14765000Y-12940000D02*
G75*
G03*
X14765000Y-12940000I-15000J0D01*
G01*
X14790000Y-7650000D02*
G75*
G03*
X14790000Y-7650000I-15000J0D01*
G01*
X14805000Y-9240000D02*
G75*
G03*
X14805000Y-9240000I-15000J0D01*
G01*
X14805000Y-9750000D02*
G75*
G03*
X14805000Y-9750000I-15000J0D01*
G01*
X14825000Y-10230000D02*
G75*
G03*
X14825000Y-10230000I-15000J0D01*
G01*
X14865000Y-10740000D02*
G75*
G03*
X14865000Y-10740000I-15000J0D01*
G01*
X14985000Y-11150000D02*
G75*
G03*
X14985000Y-11150000I-15000J0D01*
G01*
X15105000Y-13640000D02*
G75*
G03*
X15105000Y-13640000I-15000J0D01*
G01*
X15165000Y-10550000D02*
G75*
G03*
X15165000Y-10550000I-15000J0D01*
G01*
X15165000Y-14300000D02*
G75*
G03*
X15165000Y-14300000I-15000J0D01*
G01*
X15185000Y-13180000D02*
G75*
G03*
X15185000Y-13180000I-15000J0D01*
G01*
X15195000Y-9730000D02*
G75*
G03*
X15195000Y-9730000I-15000J0D01*
G01*
X15205000Y-10140000D02*
G75*
G03*
X15205000Y-10140000I-15000J0D01*
G01*
X15215000Y-7650000D02*
G75*
G03*
X15215000Y-7650000I-15000J0D01*
G01*
X15265000Y-7100000D02*
G75*
G03*
X15265000Y-7100000I-15000J0D01*
G01*
X15265000Y-11650000D02*
G75*
G03*
X15265000Y-11650000I-15000J0D01*
G01*
X15265000Y-12150000D02*
G75*
G03*
X15265000Y-12150000I-15000J0D01*
G01*
X15265000Y-12650000D02*
G75*
G03*
X15265000Y-12650000I-15000J0D01*
G01*
X15290000Y-6675000D02*
G75*
G03*
X15290000Y-6675000I-15000J0D01*
G01*
X15315000Y-7605190D02*
G75*
G03*
X15315000Y-7605190I-15000J0D01*
G01*
X15335000Y-9110000D02*
G75*
G03*
X15335000Y-9110000I-15000J0D01*
G01*
X15635000Y-13260000D02*
G75*
G03*
X15635000Y-13260000I-15000J0D01*
G01*
X15635000Y-13420000D02*
G75*
G03*
X15635000Y-13420000I-15000J0D01*
G01*
X15640000Y-8625000D02*
G75*
G03*
X15640000Y-8625000I-15000J0D01*
G01*
X15705000Y-8000000D02*
G75*
G03*
X15705000Y-8000000I-15000J0D01*
G01*
X15740750Y-9790750D02*
G75*
G03*
X15740750Y-9790750I-15000J0D01*
G01*
X15765000Y-12150000D02*
G75*
G03*
X15765000Y-12150000I-15000J0D01*
G01*
X15765000Y-12650000D02*
G75*
G03*
X15765000Y-12650000I-15000J0D01*
G01*
X15815000Y-6650000D02*
G75*
G03*
X15815000Y-6650000I-15000J0D01*
G01*
X15815000Y-7100000D02*
G75*
G03*
X15815000Y-7100000I-15000J0D01*
G01*
X15840000Y-7650000D02*
G75*
G03*
X15840000Y-7650000I-15000J0D01*
G01*
X15990000Y-13125000D02*
G75*
G03*
X15990000Y-13125000I-15000J0D01*
G01*
X15990000Y-13675000D02*
G75*
G03*
X15990000Y-13675000I-15000J0D01*
G01*
X15990000Y-14300000D02*
G75*
G03*
X15990000Y-14300000I-15000J0D01*
G01*
X16040000Y-8825000D02*
G75*
G03*
X16040000Y-8825000I-15000J0D01*
G01*
X16090000Y-10425000D02*
G75*
G03*
X16090000Y-10425000I-15000J0D01*
G01*
X16095000Y-9390000D02*
G75*
G03*
X16095000Y-9390000I-15000J0D01*
G01*
X16095000Y-11390000D02*
G75*
G03*
X16095000Y-11390000I-15000J0D01*
G01*
X16335000Y-8280000D02*
G75*
G03*
X16335000Y-8280000I-15000J0D01*
G01*
X16365000Y-6650000D02*
G75*
G03*
X16365000Y-6650000I-15000J0D01*
G01*
X16365000Y-7100000D02*
G75*
G03*
X16365000Y-7100000I-15000J0D01*
G01*
X16395000Y-7710000D02*
G75*
G03*
X16395000Y-7710000I-15000J0D01*
G01*
X16765000Y-7150000D02*
G75*
G03*
X16765000Y-7150000I-15000J0D01*
G01*
X16765000Y-7650000D02*
G75*
G03*
X16765000Y-7650000I-15000J0D01*
G01*
X16765000Y-8650000D02*
G75*
G03*
X16765000Y-8650000I-15000J0D01*
G01*
X16845000Y-8090000D02*
G75*
G03*
X16845000Y-8090000I-15000J0D01*
G01*
X12884100Y-8195850D02*
X12884100Y-8225850D01*
X12869100Y-8210850D02*
X12899100Y-8210850D01*
X12884100Y-8348350D02*
X12884100Y-8378350D01*
X12869100Y-8363350D02*
X12899100Y-8363350D01*
X12960350Y-8119600D02*
X12960350Y-8149600D01*
X12945350Y-8134600D02*
X12975350Y-8134600D01*
X12960350Y-8272100D02*
X12960350Y-8302100D01*
X12945350Y-8287100D02*
X12975350Y-8287100D01*
X12960350Y-8424600D02*
X12960350Y-8454600D01*
X12945350Y-8439600D02*
X12975350Y-8439600D01*
X13036600Y-8195850D02*
X13036600Y-8225850D01*
X13021600Y-8210850D02*
X13051600Y-8210850D01*
X13036600Y-8348350D02*
X13036600Y-8378350D01*
X13021600Y-8363350D02*
X13051600Y-8363350D01*
X13112850Y-8119600D02*
X13112850Y-8149600D01*
X13097850Y-8134600D02*
X13127850Y-8134600D01*
X13112850Y-8272100D02*
X13112850Y-8302100D01*
X13097850Y-8287100D02*
X13127850Y-8287100D01*
X13112850Y-8424600D02*
X13112850Y-8454600D01*
X13097850Y-8439600D02*
X13127850Y-8439600D01*
X13189100Y-8195850D02*
X13189100Y-8225850D01*
X13174100Y-8210850D02*
X13204100Y-8210850D01*
X13189100Y-8348350D02*
X13189100Y-8378350D01*
X13174100Y-8363350D02*
X13204100Y-8363350D01*
D14*
X10601517Y-11001517D02*
X10601517Y-10948483D01*
X10548483Y-10948483D01*
X10548483Y-11001517D01*
X10601517Y-11001517D01*
D15*
X10575000Y-10615000D02*
X10615000Y-10575000D01*
X10575000Y-10535000D01*
X10535000Y-10575000D01*
X10575000Y-10615000D01*
X10575000Y-10815000D02*
X10615000Y-10775000D01*
X10575000Y-10735000D01*
X10535000Y-10775000D01*
X10575000Y-10815000D01*
D16*
X9841927Y-8730322D02*
X9931927Y-8820322D01*
X9931927Y-8730322D02*
X9841927Y-8820322D01*
X9931927Y-8775322D02*
G75*
G03*
X9931927Y-8775322I-45000J0D01*
G01*
X9866927Y-8030322D02*
X9956927Y-8120322D01*
X9956927Y-8030322D02*
X9866927Y-8120322D01*
X9956927Y-8075322D02*
G75*
G03*
X9956927Y-8075322I-45000J0D01*
G01*
X9939128Y-8495656D02*
X10029128Y-8585656D01*
X10029128Y-8495656D02*
X9939128Y-8585656D01*
X10029128Y-8540656D02*
G75*
G03*
X10029128Y-8540656I-45000J0D01*
G01*
X9964128Y-7795656D02*
X10054128Y-7885656D01*
X10054128Y-7795656D02*
X9964128Y-7885656D01*
X10054128Y-7840656D02*
G75*
G03*
X10054128Y-7840656I-45000J0D01*
G01*
X10050400Y-7214700D02*
X10140400Y-7304700D01*
X10140400Y-7214700D02*
X10050400Y-7304700D01*
X10140400Y-7259700D02*
G75*
G03*
X10140400Y-7259700I-45000J0D01*
G01*
X10304400Y-7214700D02*
X10394400Y-7304700D01*
X10394400Y-7214700D02*
X10304400Y-7304700D01*
X10394400Y-7259700D02*
G75*
G03*
X10394400Y-7259700I-45000J0D01*
G01*
X10775400Y-7214700D02*
X10865400Y-7304700D01*
X10865400Y-7214700D02*
X10775400Y-7304700D01*
X10865400Y-7259700D02*
G75*
G03*
X10865400Y-7259700I-45000J0D01*
G01*
X11029400Y-7214700D02*
X11119400Y-7304700D01*
X11119400Y-7214700D02*
X11029400Y-7304700D01*
X11119400Y-7259700D02*
G75*
G03*
X11119400Y-7259700I-45000J0D01*
G01*
X15088856Y-7228045D02*
X15178856Y-7318045D01*
X15178856Y-7228045D02*
X15088856Y-7318045D01*
X15178856Y-7273045D02*
G75*
G03*
X15178856Y-7273045I-45000J0D01*
G01*
X15342856Y-7228045D02*
X15432856Y-7318045D01*
X15432856Y-7228045D02*
X15342856Y-7318045D01*
X15432856Y-7273045D02*
G75*
G03*
X15432856Y-7273045I-45000J0D01*
G01*
X15813756Y-7230445D02*
X15903756Y-7320445D01*
X15903756Y-7230445D02*
X15813756Y-7320445D01*
X15903756Y-7275445D02*
G75*
G03*
X15903756Y-7275445I-45000J0D01*
G01*
X16067756Y-7230445D02*
X16157756Y-7320445D01*
X16157756Y-7230445D02*
X16067756Y-7320445D01*
X16157756Y-7275445D02*
G75*
G03*
X16157756Y-7275445I-45000J0D01*
G01*
X16145554Y-7816080D02*
X16235554Y-7906080D01*
X16235554Y-7816080D02*
X16145554Y-7906080D01*
X16235554Y-7861080D02*
G75*
G03*
X16235554Y-7861080I-45000J0D01*
G01*
X16170554Y-8516080D02*
X16260554Y-8606080D01*
X16260554Y-8516080D02*
X16170554Y-8606080D01*
X16260554Y-8561080D02*
G75*
G03*
X16260554Y-8561080I-45000J0D01*
G01*
X16242756Y-8050745D02*
X16332756Y-8140745D01*
X16332756Y-8050745D02*
X16242756Y-8140745D01*
X16332756Y-8095745D02*
G75*
G03*
X16332756Y-8095745I-45000J0D01*
G01*
X16267756Y-8750746D02*
X16357756Y-8840746D01*
X16357756Y-8750746D02*
X16267756Y-8840746D01*
X16357756Y-8795746D02*
G75*
G03*
X16357756Y-8795746I-45000J0D01*
G01*
D17*
X10452500Y-14027500D02*
X10547500Y-14122500D01*
X10547500Y-14027500D02*
X10452500Y-14122500D01*
X10500000Y-14027500D02*
X10500000Y-14122500D01*
X10452500Y-14075000D02*
X10547500Y-14075000D01*
X10702500Y-14027500D02*
X10797500Y-14122500D01*
X10797500Y-14027500D02*
X10702500Y-14122500D01*
X10750000Y-14027500D02*
X10750000Y-14122500D01*
X10702500Y-14075000D02*
X10797500Y-14075000D01*
X10952500Y-14027500D02*
X11047500Y-14122500D01*
X11047500Y-14027500D02*
X10952500Y-14122500D01*
X11000000Y-14027500D02*
X11000000Y-14122500D01*
X10952500Y-14075000D02*
X11047500Y-14075000D01*
X11202500Y-14027500D02*
X11297500Y-14122500D01*
X11297500Y-14027500D02*
X11202500Y-14122500D01*
X11250000Y-14027500D02*
X11250000Y-14122500D01*
X11202500Y-14075000D02*
X11297500Y-14075000D01*
X11452500Y-14027500D02*
X11547500Y-14122500D01*
X11547500Y-14027500D02*
X11452500Y-14122500D01*
X11500000Y-14027500D02*
X11500000Y-14122500D01*
X11452500Y-14075000D02*
X11547500Y-14075000D01*
X11702500Y-14027500D02*
X11797500Y-14122500D01*
X11797500Y-14027500D02*
X11702500Y-14122500D01*
X11750000Y-14027500D02*
X11750000Y-14122500D01*
X11702500Y-14075000D02*
X11797500Y-14075000D01*
X14402500Y-14027500D02*
X14497500Y-14122500D01*
X14497500Y-14027500D02*
X14402500Y-14122500D01*
X14450000Y-14027500D02*
X14450000Y-14122500D01*
X14402500Y-14075000D02*
X14497500Y-14075000D01*
X14652500Y-14027500D02*
X14747500Y-14122500D01*
X14747500Y-14027500D02*
X14652500Y-14122500D01*
X14700000Y-14027500D02*
X14700000Y-14122500D01*
X14652500Y-14075000D02*
X14747500Y-14075000D01*
X14902500Y-14027500D02*
X14997500Y-14122500D01*
X14997500Y-14027500D02*
X14902500Y-14122500D01*
X14950000Y-14027500D02*
X14950000Y-14122500D01*
X14902500Y-14075000D02*
X14997500Y-14075000D01*
X15152500Y-14027500D02*
X15247500Y-14122500D01*
X15247500Y-14027500D02*
X15152500Y-14122500D01*
X15200000Y-14027500D02*
X15200000Y-14122500D01*
X15152500Y-14075000D02*
X15247500Y-14075000D01*
X15402500Y-14027500D02*
X15497500Y-14122500D01*
X15497500Y-14027500D02*
X15402500Y-14122500D01*
X15450000Y-14027500D02*
X15450000Y-14122500D01*
X15402500Y-14075000D02*
X15497500Y-14075000D01*
X15652500Y-14027500D02*
X15747500Y-14122500D01*
X15747500Y-14027500D02*
X15652500Y-14122500D01*
X15700000Y-14027500D02*
X15700000Y-14122500D01*
X15652500Y-14075000D02*
X15747500Y-14075000D01*
D18*
X10525000Y-10325000D02*
X10625000Y-10425000D01*
X10625000Y-10325000D02*
X10525000Y-10425000D01*
X10610356Y-10410356D02*
X10610356Y-10339644D01*
X10539644Y-10339644D01*
X10539644Y-10410356D01*
X10610356Y-10410356D01*
X10525000Y-11125000D02*
X10625000Y-11225000D01*
X10625000Y-11125000D02*
X10525000Y-11225000D01*
X10610356Y-11210356D02*
X10610356Y-11139644D01*
X10539644Y-11139644D01*
X10539644Y-11210356D01*
X10610356Y-11210356D01*
X11527500Y-10752500D02*
X11627500Y-10852500D01*
X11627500Y-10752500D02*
X11527500Y-10852500D01*
X11612856Y-10837856D02*
X11612856Y-10767144D01*
X11542144Y-10767144D01*
X11542144Y-10837856D01*
X11612856Y-10837856D01*
X11527500Y-11002500D02*
X11627500Y-11102500D01*
X11627500Y-11002500D02*
X11527500Y-11102500D01*
X11612856Y-11087856D02*
X11612856Y-11017144D01*
X11542144Y-11017144D01*
X11542144Y-11087856D01*
X11612856Y-11087856D01*
X11530000Y-9902500D02*
X11630000Y-10002500D01*
X11630000Y-9902500D02*
X11530000Y-10002500D01*
X11615356Y-9987856D02*
X11615356Y-9917144D01*
X11544644Y-9917144D01*
X11544644Y-9987856D01*
X11615356Y-9987856D01*
X11530000Y-10152500D02*
X11630000Y-10252500D01*
X11630000Y-10152500D02*
X11530000Y-10252500D01*
X11615356Y-10237856D02*
X11615356Y-10167144D01*
X11544644Y-10167144D01*
X11544644Y-10237856D01*
X11615356Y-10237856D01*
X14625000Y-9065000D02*
X14725000Y-9165000D01*
X14725000Y-9065000D02*
X14625000Y-9165000D01*
X14710356Y-9150356D02*
X14710356Y-9079644D01*
X14639644Y-9079644D01*
X14639644Y-9150356D01*
X14710356Y-9150356D01*
X14625000Y-9319000D02*
X14725000Y-9419000D01*
X14725000Y-9319000D02*
X14625000Y-9419000D01*
X14710356Y-9404356D02*
X14710356Y-9333644D01*
X14639644Y-9333644D01*
X14639644Y-9404356D01*
X14710356Y-9404356D01*
X14625000Y-9573000D02*
X14725000Y-9673000D01*
X14725000Y-9573000D02*
X14625000Y-9673000D01*
X14710356Y-9658356D02*
X14710356Y-9587644D01*
X14639644Y-9587644D01*
X14639644Y-9658356D01*
X14710356Y-9658356D01*
X14625000Y-9827000D02*
X14725000Y-9927000D01*
X14725000Y-9827000D02*
X14625000Y-9927000D01*
X14710356Y-9912356D02*
X14710356Y-9841644D01*
X14639644Y-9841644D01*
X14639644Y-9912356D01*
X14710356Y-9912356D01*
X14625000Y-10081000D02*
X14725000Y-10181000D01*
X14725000Y-10081000D02*
X14625000Y-10181000D01*
X14710356Y-10166356D02*
X14710356Y-10095644D01*
X14639644Y-10095644D01*
X14639644Y-10166356D01*
X14710356Y-10166356D01*
X14625000Y-10335000D02*
X14725000Y-10435000D01*
X14725000Y-10335000D02*
X14625000Y-10435000D01*
X14710356Y-10420356D02*
X14710356Y-10349644D01*
X14639644Y-10349644D01*
X14639644Y-10420356D01*
X14710356Y-10420356D01*
D19*
X15665750Y-9445750D02*
X15785750Y-9565750D01*
X15785750Y-9445750D02*
X15665750Y-9565750D01*
X15725750Y-9565750D02*
X15785750Y-9505750D01*
X15725750Y-9445750D01*
X15665750Y-9505750D01*
X15725750Y-9565750D01*
X15665750Y-10085750D02*
X15785750Y-10205750D01*
X15785750Y-10085750D02*
X15665750Y-10205750D01*
X15725750Y-10205750D02*
X15785750Y-10145750D01*
X15725750Y-10085750D01*
X15665750Y-10145750D01*
X15725750Y-10205750D01*
X15667500Y-10586750D02*
X15787500Y-10706750D01*
X15787500Y-10586750D02*
X15667500Y-10706750D01*
X15727500Y-10706750D02*
X15787500Y-10646750D01*
X15727500Y-10586750D01*
X15667500Y-10646750D01*
X15727500Y-10706750D01*
X15667500Y-11226750D02*
X15787500Y-11346750D01*
X15787500Y-11226750D02*
X15667500Y-11346750D01*
X15727500Y-11346750D02*
X15787500Y-11286750D01*
X15727500Y-11226750D01*
X15667500Y-11286750D01*
X15727500Y-11346750D01*
D20*
X12643000Y-13688000D02*
X12643000Y-13822000D01*
X12576000Y-13755000D02*
X12710000Y-13755000D01*
X12710000Y-13755000D02*
G75*
G03*
X12710000Y-13755000I-67000J0D01*
G01*
X12643000Y-14068000D02*
X12643000Y-14202000D01*
X12576000Y-14135000D02*
X12710000Y-14135000D01*
X12710000Y-14135000D02*
G75*
G03*
X12710000Y-14135000I-67000J0D01*
G01*
X13507000Y-13688000D02*
X13507000Y-13822000D01*
X13440000Y-13755000D02*
X13574000Y-13755000D01*
X13574000Y-13755000D02*
G75*
G03*
X13574000Y-13755000I-67000J0D01*
G01*
X13507000Y-14068000D02*
X13507000Y-14202000D01*
X13440000Y-14135000D02*
X13574000Y-14135000D01*
X13574000Y-14135000D02*
G75*
G03*
X13574000Y-14135000I-67000J0D01*
G01*
D21*
X11452900Y-11779550D02*
X11452900Y-11620450D01*
X11293800Y-11620450D01*
X11293800Y-11779550D01*
X11452900Y-11779550D01*
X11485850Y-11700000D02*
G75*
G03*
X11485850Y-11700000I-112500J0D01*
G01*
D11*
X11260850Y-11650000D02*
X11260850Y-11750000D01*
X11260850Y-11750000D02*
G75*
G03*
X11485850Y-11750000I112500J0D01*
G01*
X11485850Y-11750000D02*
X11485850Y-11650000D01*
X11485850Y-11650000D02*
G75*
G03*
X11260850Y-11650000I-112500J0D01*
G01*
D21*
X11452900Y-13479550D02*
X11452900Y-13320450D01*
X11293800Y-13320450D01*
X11293800Y-13479550D01*
X11452900Y-13479550D01*
X11485850Y-13400000D02*
G75*
G03*
X11485850Y-13400000I-112500J0D01*
G01*
D11*
X11260850Y-13350000D02*
X11260850Y-13450000D01*
X11260850Y-13450000D02*
G75*
G03*
X11485850Y-13450000I112500J0D01*
G01*
X11485850Y-13450000D02*
X11485850Y-13350000D01*
X11485850Y-13350000D02*
G75*
G03*
X11260850Y-13350000I-112500J0D01*
G01*
D21*
X14915400Y-11779550D02*
X14915400Y-11620450D01*
X14756300Y-11620450D01*
X14756300Y-11779550D01*
X14915400Y-11779550D01*
X14948350Y-11700000D02*
G75*
G03*
X14948350Y-11700000I-112500J0D01*
G01*
D11*
X14948350Y-11750000D02*
X14948350Y-11650000D01*
X14948350Y-11650000D02*
G75*
G03*
X14723350Y-11650000I-112500J0D01*
G01*
X14723350Y-11650000D02*
X14723350Y-11750000D01*
X14723350Y-11750000D02*
G75*
G03*
X14948350Y-11750000I112500J0D01*
G01*
D21*
X14915400Y-13479550D02*
X14915400Y-13320450D01*
X14756300Y-13320450D01*
X14756300Y-13479550D01*
X14915400Y-13479550D01*
X14948350Y-13400000D02*
G75*
G03*
X14948350Y-13400000I-112500J0D01*
G01*
D11*
X14948350Y-13450000D02*
X14948350Y-13350000D01*
X14948350Y-13350000D02*
G75*
G03*
X14723350Y-13350000I-112500J0D01*
G01*
X14723350Y-13350000D02*
X14723350Y-13450000D01*
X14723350Y-13450000D02*
G75*
G03*
X14948350Y-13450000I112500J0D01*
G01*
D22*
X11104600Y-8555000D02*
X11259600Y-8400000D01*
X11104600Y-8245000D01*
X10949600Y-8400000D01*
X11104600Y-8555000D01*
X11259600Y-8400000D02*
G75*
G03*
X11259600Y-8400000I-155000J0D01*
G01*
D11*
X11154600Y-8245000D02*
X11054600Y-8245000D01*
X11054600Y-8245000D02*
G75*
G03*
X11054600Y-8555000I0J-155000D01*
G01*
X11054600Y-8555000D02*
X11154600Y-8555000D01*
X11154600Y-8555000D02*
G75*
G03*
X11154600Y-8245000I0J155000D01*
G01*
D22*
X15104600Y-8555000D02*
X15259600Y-8400000D01*
X15104600Y-8245000D01*
X14949600Y-8400000D01*
X15104600Y-8555000D01*
X15259600Y-8400000D02*
G75*
G03*
X15259600Y-8400000I-155000J0D01*
G01*
D11*
X15154600Y-8245000D02*
X15054600Y-8245000D01*
X15054600Y-8245000D02*
G75*
G03*
X15054600Y-8555000I0J-155000D01*
G01*
X15054600Y-8555000D02*
X15154600Y-8555000D01*
X15154600Y-8555000D02*
G75*
G03*
X15154600Y-8245000I0J155000D01*
G01*
X9159777Y-14861925D02*
X9159777Y-14661925D01*
X9159777Y-14661925D02*
X9207396Y-14661925D01*
X9207396Y-14661925D02*
X9235967Y-14671449D01*
X9235967Y-14671449D02*
X9255015Y-14690497D01*
X9255015Y-14690497D02*
X9264539Y-14709544D01*
X9264539Y-14709544D02*
X9274063Y-14747640D01*
X9274063Y-14747640D02*
X9274063Y-14776211D01*
X9274063Y-14776211D02*
X9264539Y-14814306D01*
X9264539Y-14814306D02*
X9255015Y-14833354D01*
X9255015Y-14833354D02*
X9235967Y-14852402D01*
X9235967Y-14852402D02*
X9207396Y-14861925D01*
X9207396Y-14861925D02*
X9159777Y-14861925D01*
X9359777Y-14861925D02*
X9359777Y-14728592D01*
X9359777Y-14766687D02*
X9369301Y-14747640D01*
X9369301Y-14747640D02*
X9378824Y-14738116D01*
X9378824Y-14738116D02*
X9397872Y-14728592D01*
X9397872Y-14728592D02*
X9416920Y-14728592D01*
X9483586Y-14861925D02*
X9483586Y-14728592D01*
X9483586Y-14661925D02*
X9474063Y-14671449D01*
X9474063Y-14671449D02*
X9483586Y-14680973D01*
X9483586Y-14680973D02*
X9493110Y-14671449D01*
X9493110Y-14671449D02*
X9483586Y-14661925D01*
X9483586Y-14661925D02*
X9483586Y-14680973D01*
X9607396Y-14861925D02*
X9588348Y-14852402D01*
X9588348Y-14852402D02*
X9578824Y-14833354D01*
X9578824Y-14833354D02*
X9578824Y-14661925D01*
X9712158Y-14861925D02*
X9693110Y-14852402D01*
X9693110Y-14852402D02*
X9683586Y-14833354D01*
X9683586Y-14833354D02*
X9683586Y-14661925D01*
X9940729Y-14861925D02*
X9940729Y-14661925D01*
X9940729Y-14661925D02*
X10007396Y-14804782D01*
X10007396Y-14804782D02*
X10074063Y-14661925D01*
X10074063Y-14661925D02*
X10074063Y-14861925D01*
X10255015Y-14861925D02*
X10255015Y-14757163D01*
X10255015Y-14757163D02*
X10245491Y-14738116D01*
X10245491Y-14738116D02*
X10226444Y-14728592D01*
X10226444Y-14728592D02*
X10188348Y-14728592D01*
X10188348Y-14728592D02*
X10169301Y-14738116D01*
X10255015Y-14852402D02*
X10235967Y-14861925D01*
X10235967Y-14861925D02*
X10188348Y-14861925D01*
X10188348Y-14861925D02*
X10169301Y-14852402D01*
X10169301Y-14852402D02*
X10159777Y-14833354D01*
X10159777Y-14833354D02*
X10159777Y-14814306D01*
X10159777Y-14814306D02*
X10169301Y-14795259D01*
X10169301Y-14795259D02*
X10188348Y-14785735D01*
X10188348Y-14785735D02*
X10235967Y-14785735D01*
X10235967Y-14785735D02*
X10255015Y-14776211D01*
X10350253Y-14728592D02*
X10350253Y-14928592D01*
X10350253Y-14738116D02*
X10369301Y-14728592D01*
X10369301Y-14728592D02*
X10407396Y-14728592D01*
X10407396Y-14728592D02*
X10426444Y-14738116D01*
X10426444Y-14738116D02*
X10435967Y-14747640D01*
X10435967Y-14747640D02*
X10445491Y-14766687D01*
X10445491Y-14766687D02*
X10445491Y-14823830D01*
X10445491Y-14823830D02*
X10435967Y-14842878D01*
X10435967Y-14842878D02*
X10426444Y-14852402D01*
X10426444Y-14852402D02*
X10407396Y-14861925D01*
X10407396Y-14861925D02*
X10369301Y-14861925D01*
X10369301Y-14861925D02*
X10350253Y-14852402D01*
X10531205Y-14842878D02*
X10540729Y-14852402D01*
X10540729Y-14852402D02*
X10531205Y-14861925D01*
X10531205Y-14861925D02*
X10521682Y-14852402D01*
X10521682Y-14852402D02*
X10531205Y-14842878D01*
X10531205Y-14842878D02*
X10531205Y-14861925D01*
X10531205Y-14738116D02*
X10540729Y-14747640D01*
X10540729Y-14747640D02*
X10531205Y-14757163D01*
X10531205Y-14757163D02*
X10521682Y-14747640D01*
X10521682Y-14747640D02*
X10531205Y-14738116D01*
X10531205Y-14738116D02*
X10531205Y-14757163D01*
D12*
X8879000Y-15180442D02*
X8899000Y-15200442D01*
X8899000Y-15180442D02*
X8879000Y-15200442D01*
D11*
X9197872Y-15081925D02*
X9216920Y-15081925D01*
X9216920Y-15081925D02*
X9235967Y-15091449D01*
X9235967Y-15091449D02*
X9245491Y-15100973D01*
X9245491Y-15100973D02*
X9255015Y-15120021D01*
X9255015Y-15120021D02*
X9264539Y-15158116D01*
X9264539Y-15158116D02*
X9264539Y-15205735D01*
X9264539Y-15205735D02*
X9255015Y-15243830D01*
X9255015Y-15243830D02*
X9245491Y-15262878D01*
X9245491Y-15262878D02*
X9235967Y-15272402D01*
X9235967Y-15272402D02*
X9216920Y-15281925D01*
X9216920Y-15281925D02*
X9197872Y-15281925D01*
X9197872Y-15281925D02*
X9178824Y-15272402D01*
X9178824Y-15272402D02*
X9169301Y-15262878D01*
X9169301Y-15262878D02*
X9159777Y-15243830D01*
X9159777Y-15243830D02*
X9150253Y-15205735D01*
X9150253Y-15205735D02*
X9150253Y-15158116D01*
X9150253Y-15158116D02*
X9159777Y-15120021D01*
X9159777Y-15120021D02*
X9169301Y-15100973D01*
X9169301Y-15100973D02*
X9178824Y-15091449D01*
X9178824Y-15091449D02*
X9197872Y-15081925D01*
X9350253Y-15262878D02*
X9359777Y-15272402D01*
X9359777Y-15272402D02*
X9350253Y-15281925D01*
X9350253Y-15281925D02*
X9340729Y-15272402D01*
X9340729Y-15272402D02*
X9350253Y-15262878D01*
X9350253Y-15262878D02*
X9350253Y-15281925D01*
X9435967Y-15100973D02*
X9445491Y-15091449D01*
X9445491Y-15091449D02*
X9464539Y-15081925D01*
X9464539Y-15081925D02*
X9512158Y-15081925D01*
X9512158Y-15081925D02*
X9531205Y-15091449D01*
X9531205Y-15091449D02*
X9540729Y-15100973D01*
X9540729Y-15100973D02*
X9550253Y-15120021D01*
X9550253Y-15120021D02*
X9550253Y-15139068D01*
X9550253Y-15139068D02*
X9540729Y-15167640D01*
X9540729Y-15167640D02*
X9426444Y-15281925D01*
X9426444Y-15281925D02*
X9550253Y-15281925D01*
X9674063Y-15081925D02*
X9693110Y-15081925D01*
X9693110Y-15081925D02*
X9712158Y-15091449D01*
X9712158Y-15091449D02*
X9721682Y-15100973D01*
X9721682Y-15100973D02*
X9731205Y-15120021D01*
X9731205Y-15120021D02*
X9740729Y-15158116D01*
X9740729Y-15158116D02*
X9740729Y-15205735D01*
X9740729Y-15205735D02*
X9731205Y-15243830D01*
X9731205Y-15243830D02*
X9721682Y-15262878D01*
X9721682Y-15262878D02*
X9712158Y-15272402D01*
X9712158Y-15272402D02*
X9693110Y-15281925D01*
X9693110Y-15281925D02*
X9674063Y-15281925D01*
X9674063Y-15281925D02*
X9655015Y-15272402D01*
X9655015Y-15272402D02*
X9645491Y-15262878D01*
X9645491Y-15262878D02*
X9635967Y-15243830D01*
X9635967Y-15243830D02*
X9626444Y-15205735D01*
X9626444Y-15205735D02*
X9626444Y-15158116D01*
X9626444Y-15158116D02*
X9635967Y-15120021D01*
X9635967Y-15120021D02*
X9645491Y-15100973D01*
X9645491Y-15100973D02*
X9655015Y-15091449D01*
X9655015Y-15091449D02*
X9674063Y-15081925D01*
X9864539Y-15081925D02*
X9883586Y-15081925D01*
X9883586Y-15081925D02*
X9902634Y-15091449D01*
X9902634Y-15091449D02*
X9912158Y-15100973D01*
X9912158Y-15100973D02*
X9921682Y-15120021D01*
X9921682Y-15120021D02*
X9931205Y-15158116D01*
X9931205Y-15158116D02*
X9931205Y-15205735D01*
X9931205Y-15205735D02*
X9921682Y-15243830D01*
X9921682Y-15243830D02*
X9912158Y-15262878D01*
X9912158Y-15262878D02*
X9902634Y-15272402D01*
X9902634Y-15272402D02*
X9883586Y-15281925D01*
X9883586Y-15281925D02*
X9864539Y-15281925D01*
X9864539Y-15281925D02*
X9845491Y-15272402D01*
X9845491Y-15272402D02*
X9835967Y-15262878D01*
X9835967Y-15262878D02*
X9826444Y-15243830D01*
X9826444Y-15243830D02*
X9816920Y-15205735D01*
X9816920Y-15205735D02*
X9816920Y-15158116D01*
X9816920Y-15158116D02*
X9826444Y-15120021D01*
X9826444Y-15120021D02*
X9835967Y-15100973D01*
X9835967Y-15100973D02*
X9845491Y-15091449D01*
X9845491Y-15091449D02*
X9864539Y-15081925D01*
X10016920Y-15281925D02*
X10016920Y-15148592D01*
X10016920Y-15167640D02*
X10026444Y-15158116D01*
X10026444Y-15158116D02*
X10045491Y-15148592D01*
X10045491Y-15148592D02*
X10074063Y-15148592D01*
X10074063Y-15148592D02*
X10093110Y-15158116D01*
X10093110Y-15158116D02*
X10102634Y-15177163D01*
X10102634Y-15177163D02*
X10102634Y-15281925D01*
X10102634Y-15177163D02*
X10112158Y-15158116D01*
X10112158Y-15158116D02*
X10131205Y-15148592D01*
X10131205Y-15148592D02*
X10159777Y-15148592D01*
X10159777Y-15148592D02*
X10178825Y-15158116D01*
X10178825Y-15158116D02*
X10188348Y-15177163D01*
X10188348Y-15177163D02*
X10188348Y-15281925D01*
X10283586Y-15281925D02*
X10283586Y-15148592D01*
X10283586Y-15167640D02*
X10293110Y-15158116D01*
X10293110Y-15158116D02*
X10312158Y-15148592D01*
X10312158Y-15148592D02*
X10340729Y-15148592D01*
X10340729Y-15148592D02*
X10359777Y-15158116D01*
X10359777Y-15158116D02*
X10369301Y-15177163D01*
X10369301Y-15177163D02*
X10369301Y-15281925D01*
X10369301Y-15177163D02*
X10378825Y-15158116D01*
X10378825Y-15158116D02*
X10397872Y-15148592D01*
X10397872Y-15148592D02*
X10426444Y-15148592D01*
X10426444Y-15148592D02*
X10445491Y-15158116D01*
X10445491Y-15158116D02*
X10455015Y-15177163D01*
X10455015Y-15177163D02*
X10455015Y-15281925D01*
X10845491Y-15072402D02*
X10674063Y-15329544D01*
X11102634Y-15081925D02*
X11121682Y-15081925D01*
X11121682Y-15081925D02*
X11140729Y-15091449D01*
X11140729Y-15091449D02*
X11150253Y-15100973D01*
X11150253Y-15100973D02*
X11159777Y-15120021D01*
X11159777Y-15120021D02*
X11169301Y-15158116D01*
X11169301Y-15158116D02*
X11169301Y-15205735D01*
X11169301Y-15205735D02*
X11159777Y-15243830D01*
X11159777Y-15243830D02*
X11150253Y-15262878D01*
X11150253Y-15262878D02*
X11140729Y-15272402D01*
X11140729Y-15272402D02*
X11121682Y-15281925D01*
X11121682Y-15281925D02*
X11102634Y-15281925D01*
X11102634Y-15281925D02*
X11083587Y-15272402D01*
X11083587Y-15272402D02*
X11074063Y-15262878D01*
X11074063Y-15262878D02*
X11064539Y-15243830D01*
X11064539Y-15243830D02*
X11055015Y-15205735D01*
X11055015Y-15205735D02*
X11055015Y-15158116D01*
X11055015Y-15158116D02*
X11064539Y-15120021D01*
X11064539Y-15120021D02*
X11074063Y-15100973D01*
X11074063Y-15100973D02*
X11083587Y-15091449D01*
X11083587Y-15091449D02*
X11102634Y-15081925D01*
X11255015Y-15262878D02*
X11264539Y-15272402D01*
X11264539Y-15272402D02*
X11255015Y-15281925D01*
X11255015Y-15281925D02*
X11245491Y-15272402D01*
X11245491Y-15272402D02*
X11255015Y-15262878D01*
X11255015Y-15262878D02*
X11255015Y-15281925D01*
X11388348Y-15081925D02*
X11407396Y-15081925D01*
X11407396Y-15081925D02*
X11426444Y-15091449D01*
X11426444Y-15091449D02*
X11435967Y-15100973D01*
X11435967Y-15100973D02*
X11445491Y-15120021D01*
X11445491Y-15120021D02*
X11455015Y-15158116D01*
X11455015Y-15158116D02*
X11455015Y-15205735D01*
X11455015Y-15205735D02*
X11445491Y-15243830D01*
X11445491Y-15243830D02*
X11435967Y-15262878D01*
X11435967Y-15262878D02*
X11426444Y-15272402D01*
X11426444Y-15272402D02*
X11407396Y-15281925D01*
X11407396Y-15281925D02*
X11388348Y-15281925D01*
X11388348Y-15281925D02*
X11369301Y-15272402D01*
X11369301Y-15272402D02*
X11359777Y-15262878D01*
X11359777Y-15262878D02*
X11350253Y-15243830D01*
X11350253Y-15243830D02*
X11340729Y-15205735D01*
X11340729Y-15205735D02*
X11340729Y-15158116D01*
X11340729Y-15158116D02*
X11350253Y-15120021D01*
X11350253Y-15120021D02*
X11359777Y-15100973D01*
X11359777Y-15100973D02*
X11369301Y-15091449D01*
X11369301Y-15091449D02*
X11388348Y-15081925D01*
X11578825Y-15081925D02*
X11597872Y-15081925D01*
X11597872Y-15081925D02*
X11616920Y-15091449D01*
X11616920Y-15091449D02*
X11626444Y-15100973D01*
X11626444Y-15100973D02*
X11635967Y-15120021D01*
X11635967Y-15120021D02*
X11645491Y-15158116D01*
X11645491Y-15158116D02*
X11645491Y-15205735D01*
X11645491Y-15205735D02*
X11635967Y-15243830D01*
X11635967Y-15243830D02*
X11626444Y-15262878D01*
X11626444Y-15262878D02*
X11616920Y-15272402D01*
X11616920Y-15272402D02*
X11597872Y-15281925D01*
X11597872Y-15281925D02*
X11578825Y-15281925D01*
X11578825Y-15281925D02*
X11559777Y-15272402D01*
X11559777Y-15272402D02*
X11550253Y-15262878D01*
X11550253Y-15262878D02*
X11540729Y-15243830D01*
X11540729Y-15243830D02*
X11531206Y-15205735D01*
X11531206Y-15205735D02*
X11531206Y-15158116D01*
X11531206Y-15158116D02*
X11540729Y-15120021D01*
X11540729Y-15120021D02*
X11550253Y-15100973D01*
X11550253Y-15100973D02*
X11559777Y-15091449D01*
X11559777Y-15091449D02*
X11578825Y-15081925D01*
X11712158Y-15081925D02*
X11845491Y-15081925D01*
X11845491Y-15081925D02*
X11759777Y-15281925D01*
X11931206Y-15281925D02*
X11969301Y-15281925D01*
X11969301Y-15281925D02*
X11988348Y-15272402D01*
X11988348Y-15272402D02*
X11997872Y-15262878D01*
X11997872Y-15262878D02*
X12016920Y-15234306D01*
X12016920Y-15234306D02*
X12026444Y-15196211D01*
X12026444Y-15196211D02*
X12026444Y-15120021D01*
X12026444Y-15120021D02*
X12016920Y-15100973D01*
X12016920Y-15100973D02*
X12007396Y-15091449D01*
X12007396Y-15091449D02*
X11988348Y-15081925D01*
X11988348Y-15081925D02*
X11950253Y-15081925D01*
X11950253Y-15081925D02*
X11931206Y-15091449D01*
X11931206Y-15091449D02*
X11921682Y-15100973D01*
X11921682Y-15100973D02*
X11912158Y-15120021D01*
X11912158Y-15120021D02*
X11912158Y-15167640D01*
X11912158Y-15167640D02*
X11921682Y-15186687D01*
X11921682Y-15186687D02*
X11931206Y-15196211D01*
X11931206Y-15196211D02*
X11950253Y-15205735D01*
X11950253Y-15205735D02*
X11988348Y-15205735D01*
X11988348Y-15205735D02*
X12007396Y-15196211D01*
X12007396Y-15196211D02*
X12016920Y-15186687D01*
X12016920Y-15186687D02*
X12026444Y-15167640D01*
X12102634Y-15081925D02*
X12102634Y-15120021D01*
X12178825Y-15081925D02*
X12178825Y-15120021D01*
X12474063Y-15358116D02*
X12464539Y-15348592D01*
X12464539Y-15348592D02*
X12445491Y-15320021D01*
X12445491Y-15320021D02*
X12435968Y-15300973D01*
X12435968Y-15300973D02*
X12426444Y-15272402D01*
X12426444Y-15272402D02*
X12416920Y-15224782D01*
X12416920Y-15224782D02*
X12416920Y-15186687D01*
X12416920Y-15186687D02*
X12426444Y-15139068D01*
X12426444Y-15139068D02*
X12435968Y-15110497D01*
X12435968Y-15110497D02*
X12445491Y-15091449D01*
X12445491Y-15091449D02*
X12464539Y-15062878D01*
X12464539Y-15062878D02*
X12474063Y-15053354D01*
X12635968Y-15081925D02*
X12597872Y-15081925D01*
X12597872Y-15081925D02*
X12578825Y-15091449D01*
X12578825Y-15091449D02*
X12569301Y-15100973D01*
X12569301Y-15100973D02*
X12550253Y-15129544D01*
X12550253Y-15129544D02*
X12540729Y-15167640D01*
X12540729Y-15167640D02*
X12540729Y-15243830D01*
X12540729Y-15243830D02*
X12550253Y-15262878D01*
X12550253Y-15262878D02*
X12559777Y-15272402D01*
X12559777Y-15272402D02*
X12578825Y-15281925D01*
X12578825Y-15281925D02*
X12616920Y-15281925D01*
X12616920Y-15281925D02*
X12635968Y-15272402D01*
X12635968Y-15272402D02*
X12645491Y-15262878D01*
X12645491Y-15262878D02*
X12655015Y-15243830D01*
X12655015Y-15243830D02*
X12655015Y-15196211D01*
X12655015Y-15196211D02*
X12645491Y-15177163D01*
X12645491Y-15177163D02*
X12635968Y-15167640D01*
X12635968Y-15167640D02*
X12616920Y-15158116D01*
X12616920Y-15158116D02*
X12578825Y-15158116D01*
X12578825Y-15158116D02*
X12559777Y-15167640D01*
X12559777Y-15167640D02*
X12550253Y-15177163D01*
X12550253Y-15177163D02*
X12540729Y-15196211D01*
X12893110Y-15281925D02*
X12893110Y-15081925D01*
X12978825Y-15281925D02*
X12978825Y-15177163D01*
X12978825Y-15177163D02*
X12969301Y-15158116D01*
X12969301Y-15158116D02*
X12950253Y-15148592D01*
X12950253Y-15148592D02*
X12921682Y-15148592D01*
X12921682Y-15148592D02*
X12902634Y-15158116D01*
X12902634Y-15158116D02*
X12893110Y-15167640D01*
X13102634Y-15281925D02*
X13083587Y-15272402D01*
X13083587Y-15272402D02*
X13074063Y-15262878D01*
X13074063Y-15262878D02*
X13064539Y-15243830D01*
X13064539Y-15243830D02*
X13064539Y-15186687D01*
X13064539Y-15186687D02*
X13074063Y-15167640D01*
X13074063Y-15167640D02*
X13083587Y-15158116D01*
X13083587Y-15158116D02*
X13102634Y-15148592D01*
X13102634Y-15148592D02*
X13131206Y-15148592D01*
X13131206Y-15148592D02*
X13150253Y-15158116D01*
X13150253Y-15158116D02*
X13159777Y-15167640D01*
X13159777Y-15167640D02*
X13169301Y-15186687D01*
X13169301Y-15186687D02*
X13169301Y-15243830D01*
X13169301Y-15243830D02*
X13159777Y-15262878D01*
X13159777Y-15262878D02*
X13150253Y-15272402D01*
X13150253Y-15272402D02*
X13131206Y-15281925D01*
X13131206Y-15281925D02*
X13102634Y-15281925D01*
X13283587Y-15281925D02*
X13264539Y-15272402D01*
X13264539Y-15272402D02*
X13255015Y-15253354D01*
X13255015Y-15253354D02*
X13255015Y-15081925D01*
X13435968Y-15272402D02*
X13416920Y-15281925D01*
X13416920Y-15281925D02*
X13378825Y-15281925D01*
X13378825Y-15281925D02*
X13359777Y-15272402D01*
X13359777Y-15272402D02*
X13350253Y-15253354D01*
X13350253Y-15253354D02*
X13350253Y-15177163D01*
X13350253Y-15177163D02*
X13359777Y-15158116D01*
X13359777Y-15158116D02*
X13378825Y-15148592D01*
X13378825Y-15148592D02*
X13416920Y-15148592D01*
X13416920Y-15148592D02*
X13435968Y-15158116D01*
X13435968Y-15158116D02*
X13445491Y-15177163D01*
X13445491Y-15177163D02*
X13445491Y-15196211D01*
X13445491Y-15196211D02*
X13350253Y-15215259D01*
X13521682Y-15272402D02*
X13540730Y-15281925D01*
X13540730Y-15281925D02*
X13578825Y-15281925D01*
X13578825Y-15281925D02*
X13597872Y-15272402D01*
X13597872Y-15272402D02*
X13607396Y-15253354D01*
X13607396Y-15253354D02*
X13607396Y-15243830D01*
X13607396Y-15243830D02*
X13597872Y-15224782D01*
X13597872Y-15224782D02*
X13578825Y-15215259D01*
X13578825Y-15215259D02*
X13550253Y-15215259D01*
X13550253Y-15215259D02*
X13531206Y-15205735D01*
X13531206Y-15205735D02*
X13521682Y-15186687D01*
X13521682Y-15186687D02*
X13521682Y-15177163D01*
X13521682Y-15177163D02*
X13531206Y-15158116D01*
X13531206Y-15158116D02*
X13550253Y-15148592D01*
X13550253Y-15148592D02*
X13578825Y-15148592D01*
X13578825Y-15148592D02*
X13597872Y-15158116D01*
X13674063Y-15358116D02*
X13683587Y-15348592D01*
X13683587Y-15348592D02*
X13702634Y-15320021D01*
X13702634Y-15320021D02*
X13712158Y-15300973D01*
X13712158Y-15300973D02*
X13721682Y-15272402D01*
X13721682Y-15272402D02*
X13731206Y-15224782D01*
X13731206Y-15224782D02*
X13731206Y-15186687D01*
X13731206Y-15186687D02*
X13721682Y-15139068D01*
X13721682Y-15139068D02*
X13712158Y-15110497D01*
X13712158Y-15110497D02*
X13702634Y-15091449D01*
X13702634Y-15091449D02*
X13683587Y-15062878D01*
X13683587Y-15062878D02*
X13674063Y-15053354D01*
D13*
X8899000Y-15454442D02*
G75*
G03*
X8899000Y-15454442I-15000J0D01*
G01*
D11*
X9197872Y-15345925D02*
X9216920Y-15345925D01*
X9216920Y-15345925D02*
X9235967Y-15355449D01*
X9235967Y-15355449D02*
X9245491Y-15364973D01*
X9245491Y-15364973D02*
X9255015Y-15384021D01*
X9255015Y-15384021D02*
X9264539Y-15422116D01*
X9264539Y-15422116D02*
X9264539Y-15469735D01*
X9264539Y-15469735D02*
X9255015Y-15507830D01*
X9255015Y-15507830D02*
X9245491Y-15526878D01*
X9245491Y-15526878D02*
X9235967Y-15536402D01*
X9235967Y-15536402D02*
X9216920Y-15545925D01*
X9216920Y-15545925D02*
X9197872Y-15545925D01*
X9197872Y-15545925D02*
X9178824Y-15536402D01*
X9178824Y-15536402D02*
X9169301Y-15526878D01*
X9169301Y-15526878D02*
X9159777Y-15507830D01*
X9159777Y-15507830D02*
X9150253Y-15469735D01*
X9150253Y-15469735D02*
X9150253Y-15422116D01*
X9150253Y-15422116D02*
X9159777Y-15384021D01*
X9159777Y-15384021D02*
X9169301Y-15364973D01*
X9169301Y-15364973D02*
X9178824Y-15355449D01*
X9178824Y-15355449D02*
X9197872Y-15345925D01*
X9350253Y-15526878D02*
X9359777Y-15536402D01*
X9359777Y-15536402D02*
X9350253Y-15545925D01*
X9350253Y-15545925D02*
X9340729Y-15536402D01*
X9340729Y-15536402D02*
X9350253Y-15526878D01*
X9350253Y-15526878D02*
X9350253Y-15545925D01*
X9426444Y-15345925D02*
X9550253Y-15345925D01*
X9550253Y-15345925D02*
X9483586Y-15422116D01*
X9483586Y-15422116D02*
X9512158Y-15422116D01*
X9512158Y-15422116D02*
X9531205Y-15431640D01*
X9531205Y-15431640D02*
X9540729Y-15441163D01*
X9540729Y-15441163D02*
X9550253Y-15460211D01*
X9550253Y-15460211D02*
X9550253Y-15507830D01*
X9550253Y-15507830D02*
X9540729Y-15526878D01*
X9540729Y-15526878D02*
X9531205Y-15536402D01*
X9531205Y-15536402D02*
X9512158Y-15545925D01*
X9512158Y-15545925D02*
X9455015Y-15545925D01*
X9455015Y-15545925D02*
X9435967Y-15536402D01*
X9435967Y-15536402D02*
X9426444Y-15526878D01*
X9674063Y-15345925D02*
X9693110Y-15345925D01*
X9693110Y-15345925D02*
X9712158Y-15355449D01*
X9712158Y-15355449D02*
X9721682Y-15364973D01*
X9721682Y-15364973D02*
X9731205Y-15384021D01*
X9731205Y-15384021D02*
X9740729Y-15422116D01*
X9740729Y-15422116D02*
X9740729Y-15469735D01*
X9740729Y-15469735D02*
X9731205Y-15507830D01*
X9731205Y-15507830D02*
X9721682Y-15526878D01*
X9721682Y-15526878D02*
X9712158Y-15536402D01*
X9712158Y-15536402D02*
X9693110Y-15545925D01*
X9693110Y-15545925D02*
X9674063Y-15545925D01*
X9674063Y-15545925D02*
X9655015Y-15536402D01*
X9655015Y-15536402D02*
X9645491Y-15526878D01*
X9645491Y-15526878D02*
X9635967Y-15507830D01*
X9635967Y-15507830D02*
X9626444Y-15469735D01*
X9626444Y-15469735D02*
X9626444Y-15422116D01*
X9626444Y-15422116D02*
X9635967Y-15384021D01*
X9635967Y-15384021D02*
X9645491Y-15364973D01*
X9645491Y-15364973D02*
X9655015Y-15355449D01*
X9655015Y-15355449D02*
X9674063Y-15345925D01*
X9864539Y-15345925D02*
X9883586Y-15345925D01*
X9883586Y-15345925D02*
X9902634Y-15355449D01*
X9902634Y-15355449D02*
X9912158Y-15364973D01*
X9912158Y-15364973D02*
X9921682Y-15384021D01*
X9921682Y-15384021D02*
X9931205Y-15422116D01*
X9931205Y-15422116D02*
X9931205Y-15469735D01*
X9931205Y-15469735D02*
X9921682Y-15507830D01*
X9921682Y-15507830D02*
X9912158Y-15526878D01*
X9912158Y-15526878D02*
X9902634Y-15536402D01*
X9902634Y-15536402D02*
X9883586Y-15545925D01*
X9883586Y-15545925D02*
X9864539Y-15545925D01*
X9864539Y-15545925D02*
X9845491Y-15536402D01*
X9845491Y-15536402D02*
X9835967Y-15526878D01*
X9835967Y-15526878D02*
X9826444Y-15507830D01*
X9826444Y-15507830D02*
X9816920Y-15469735D01*
X9816920Y-15469735D02*
X9816920Y-15422116D01*
X9816920Y-15422116D02*
X9826444Y-15384021D01*
X9826444Y-15384021D02*
X9835967Y-15364973D01*
X9835967Y-15364973D02*
X9845491Y-15355449D01*
X9845491Y-15355449D02*
X9864539Y-15345925D01*
X10016920Y-15545925D02*
X10016920Y-15412592D01*
X10016920Y-15431640D02*
X10026444Y-15422116D01*
X10026444Y-15422116D02*
X10045491Y-15412592D01*
X10045491Y-15412592D02*
X10074063Y-15412592D01*
X10074063Y-15412592D02*
X10093110Y-15422116D01*
X10093110Y-15422116D02*
X10102634Y-15441163D01*
X10102634Y-15441163D02*
X10102634Y-15545925D01*
X10102634Y-15441163D02*
X10112158Y-15422116D01*
X10112158Y-15422116D02*
X10131205Y-15412592D01*
X10131205Y-15412592D02*
X10159777Y-15412592D01*
X10159777Y-15412592D02*
X10178825Y-15422116D01*
X10178825Y-15422116D02*
X10188348Y-15441163D01*
X10188348Y-15441163D02*
X10188348Y-15545925D01*
X10283586Y-15545925D02*
X10283586Y-15412592D01*
X10283586Y-15431640D02*
X10293110Y-15422116D01*
X10293110Y-15422116D02*
X10312158Y-15412592D01*
X10312158Y-15412592D02*
X10340729Y-15412592D01*
X10340729Y-15412592D02*
X10359777Y-15422116D01*
X10359777Y-15422116D02*
X10369301Y-15441163D01*
X10369301Y-15441163D02*
X10369301Y-15545925D01*
X10369301Y-15441163D02*
X10378825Y-15422116D01*
X10378825Y-15422116D02*
X10397872Y-15412592D01*
X10397872Y-15412592D02*
X10426444Y-15412592D01*
X10426444Y-15412592D02*
X10445491Y-15422116D01*
X10445491Y-15422116D02*
X10455015Y-15441163D01*
X10455015Y-15441163D02*
X10455015Y-15545925D01*
X10845491Y-15336402D02*
X10674063Y-15593544D01*
X11102634Y-15345925D02*
X11121682Y-15345925D01*
X11121682Y-15345925D02*
X11140729Y-15355449D01*
X11140729Y-15355449D02*
X11150253Y-15364973D01*
X11150253Y-15364973D02*
X11159777Y-15384021D01*
X11159777Y-15384021D02*
X11169301Y-15422116D01*
X11169301Y-15422116D02*
X11169301Y-15469735D01*
X11169301Y-15469735D02*
X11159777Y-15507830D01*
X11159777Y-15507830D02*
X11150253Y-15526878D01*
X11150253Y-15526878D02*
X11140729Y-15536402D01*
X11140729Y-15536402D02*
X11121682Y-15545925D01*
X11121682Y-15545925D02*
X11102634Y-15545925D01*
X11102634Y-15545925D02*
X11083587Y-15536402D01*
X11083587Y-15536402D02*
X11074063Y-15526878D01*
X11074063Y-15526878D02*
X11064539Y-15507830D01*
X11064539Y-15507830D02*
X11055015Y-15469735D01*
X11055015Y-15469735D02*
X11055015Y-15422116D01*
X11055015Y-15422116D02*
X11064539Y-15384021D01*
X11064539Y-15384021D02*
X11074063Y-15364973D01*
X11074063Y-15364973D02*
X11083587Y-15355449D01*
X11083587Y-15355449D02*
X11102634Y-15345925D01*
X11255015Y-15526878D02*
X11264539Y-15536402D01*
X11264539Y-15536402D02*
X11255015Y-15545925D01*
X11255015Y-15545925D02*
X11245491Y-15536402D01*
X11245491Y-15536402D02*
X11255015Y-15526878D01*
X11255015Y-15526878D02*
X11255015Y-15545925D01*
X11388348Y-15345925D02*
X11407396Y-15345925D01*
X11407396Y-15345925D02*
X11426444Y-15355449D01*
X11426444Y-15355449D02*
X11435967Y-15364973D01*
X11435967Y-15364973D02*
X11445491Y-15384021D01*
X11445491Y-15384021D02*
X11455015Y-15422116D01*
X11455015Y-15422116D02*
X11455015Y-15469735D01*
X11455015Y-15469735D02*
X11445491Y-15507830D01*
X11445491Y-15507830D02*
X11435967Y-15526878D01*
X11435967Y-15526878D02*
X11426444Y-15536402D01*
X11426444Y-15536402D02*
X11407396Y-15545925D01*
X11407396Y-15545925D02*
X11388348Y-15545925D01*
X11388348Y-15545925D02*
X11369301Y-15536402D01*
X11369301Y-15536402D02*
X11359777Y-15526878D01*
X11359777Y-15526878D02*
X11350253Y-15507830D01*
X11350253Y-15507830D02*
X11340729Y-15469735D01*
X11340729Y-15469735D02*
X11340729Y-15422116D01*
X11340729Y-15422116D02*
X11350253Y-15384021D01*
X11350253Y-15384021D02*
X11359777Y-15364973D01*
X11359777Y-15364973D02*
X11369301Y-15355449D01*
X11369301Y-15355449D02*
X11388348Y-15345925D01*
X11645491Y-15545925D02*
X11531206Y-15545925D01*
X11588348Y-15545925D02*
X11588348Y-15345925D01*
X11588348Y-15345925D02*
X11569301Y-15374497D01*
X11569301Y-15374497D02*
X11550253Y-15393544D01*
X11550253Y-15393544D02*
X11531206Y-15403068D01*
X11835967Y-15545925D02*
X11721682Y-15545925D01*
X11778825Y-15545925D02*
X11778825Y-15345925D01*
X11778825Y-15345925D02*
X11759777Y-15374497D01*
X11759777Y-15374497D02*
X11740729Y-15393544D01*
X11740729Y-15393544D02*
X11721682Y-15403068D01*
X11950253Y-15431640D02*
X11931206Y-15422116D01*
X11931206Y-15422116D02*
X11921682Y-15412592D01*
X11921682Y-15412592D02*
X11912158Y-15393544D01*
X11912158Y-15393544D02*
X11912158Y-15384021D01*
X11912158Y-15384021D02*
X11921682Y-15364973D01*
X11921682Y-15364973D02*
X11931206Y-15355449D01*
X11931206Y-15355449D02*
X11950253Y-15345925D01*
X11950253Y-15345925D02*
X11988348Y-15345925D01*
X11988348Y-15345925D02*
X12007396Y-15355449D01*
X12007396Y-15355449D02*
X12016920Y-15364973D01*
X12016920Y-15364973D02*
X12026444Y-15384021D01*
X12026444Y-15384021D02*
X12026444Y-15393544D01*
X12026444Y-15393544D02*
X12016920Y-15412592D01*
X12016920Y-15412592D02*
X12007396Y-15422116D01*
X12007396Y-15422116D02*
X11988348Y-15431640D01*
X11988348Y-15431640D02*
X11950253Y-15431640D01*
X11950253Y-15431640D02*
X11931206Y-15441163D01*
X11931206Y-15441163D02*
X11921682Y-15450687D01*
X11921682Y-15450687D02*
X11912158Y-15469735D01*
X11912158Y-15469735D02*
X11912158Y-15507830D01*
X11912158Y-15507830D02*
X11921682Y-15526878D01*
X11921682Y-15526878D02*
X11931206Y-15536402D01*
X11931206Y-15536402D02*
X11950253Y-15545925D01*
X11950253Y-15545925D02*
X11988348Y-15545925D01*
X11988348Y-15545925D02*
X12007396Y-15536402D01*
X12007396Y-15536402D02*
X12016920Y-15526878D01*
X12016920Y-15526878D02*
X12026444Y-15507830D01*
X12026444Y-15507830D02*
X12026444Y-15469735D01*
X12026444Y-15469735D02*
X12016920Y-15450687D01*
X12016920Y-15450687D02*
X12007396Y-15441163D01*
X12007396Y-15441163D02*
X11988348Y-15431640D01*
X12102634Y-15345925D02*
X12102634Y-15384021D01*
X12178825Y-15345925D02*
X12178825Y-15384021D01*
X12474063Y-15622116D02*
X12464539Y-15612592D01*
X12464539Y-15612592D02*
X12445491Y-15584021D01*
X12445491Y-15584021D02*
X12435968Y-15564973D01*
X12435968Y-15564973D02*
X12426444Y-15536402D01*
X12426444Y-15536402D02*
X12416920Y-15488782D01*
X12416920Y-15488782D02*
X12416920Y-15450687D01*
X12416920Y-15450687D02*
X12426444Y-15403068D01*
X12426444Y-15403068D02*
X12435968Y-15374497D01*
X12435968Y-15374497D02*
X12445491Y-15355449D01*
X12445491Y-15355449D02*
X12464539Y-15326878D01*
X12464539Y-15326878D02*
X12474063Y-15317354D01*
X12540729Y-15364973D02*
X12550253Y-15355449D01*
X12550253Y-15355449D02*
X12569301Y-15345925D01*
X12569301Y-15345925D02*
X12616920Y-15345925D01*
X12616920Y-15345925D02*
X12635968Y-15355449D01*
X12635968Y-15355449D02*
X12645491Y-15364973D01*
X12645491Y-15364973D02*
X12655015Y-15384021D01*
X12655015Y-15384021D02*
X12655015Y-15403068D01*
X12655015Y-15403068D02*
X12645491Y-15431640D01*
X12645491Y-15431640D02*
X12531206Y-15545925D01*
X12531206Y-15545925D02*
X12655015Y-15545925D01*
X12845491Y-15545925D02*
X12731206Y-15545925D01*
X12788348Y-15545925D02*
X12788348Y-15345925D01*
X12788348Y-15345925D02*
X12769301Y-15374497D01*
X12769301Y-15374497D02*
X12750253Y-15393544D01*
X12750253Y-15393544D02*
X12731206Y-15403068D01*
X12912158Y-15345925D02*
X13045491Y-15345925D01*
X13045491Y-15345925D02*
X12959777Y-15545925D01*
X13274063Y-15545925D02*
X13274063Y-15345925D01*
X13359777Y-15545925D02*
X13359777Y-15441163D01*
X13359777Y-15441163D02*
X13350253Y-15422116D01*
X13350253Y-15422116D02*
X13331206Y-15412592D01*
X13331206Y-15412592D02*
X13302634Y-15412592D01*
X13302634Y-15412592D02*
X13283587Y-15422116D01*
X13283587Y-15422116D02*
X13274063Y-15431640D01*
X13483587Y-15545925D02*
X13464539Y-15536402D01*
X13464539Y-15536402D02*
X13455015Y-15526878D01*
X13455015Y-15526878D02*
X13445491Y-15507830D01*
X13445491Y-15507830D02*
X13445491Y-15450687D01*
X13445491Y-15450687D02*
X13455015Y-15431640D01*
X13455015Y-15431640D02*
X13464539Y-15422116D01*
X13464539Y-15422116D02*
X13483587Y-15412592D01*
X13483587Y-15412592D02*
X13512158Y-15412592D01*
X13512158Y-15412592D02*
X13531206Y-15422116D01*
X13531206Y-15422116D02*
X13540730Y-15431640D01*
X13540730Y-15431640D02*
X13550253Y-15450687D01*
X13550253Y-15450687D02*
X13550253Y-15507830D01*
X13550253Y-15507830D02*
X13540730Y-15526878D01*
X13540730Y-15526878D02*
X13531206Y-15536402D01*
X13531206Y-15536402D02*
X13512158Y-15545925D01*
X13512158Y-15545925D02*
X13483587Y-15545925D01*
X13664539Y-15545925D02*
X13645491Y-15536402D01*
X13645491Y-15536402D02*
X13635968Y-15517354D01*
X13635968Y-15517354D02*
X13635968Y-15345925D01*
X13816920Y-15536402D02*
X13797872Y-15545925D01*
X13797872Y-15545925D02*
X13759777Y-15545925D01*
X13759777Y-15545925D02*
X13740730Y-15536402D01*
X13740730Y-15536402D02*
X13731206Y-15517354D01*
X13731206Y-15517354D02*
X13731206Y-15441163D01*
X13731206Y-15441163D02*
X13740730Y-15422116D01*
X13740730Y-15422116D02*
X13759777Y-15412592D01*
X13759777Y-15412592D02*
X13797872Y-15412592D01*
X13797872Y-15412592D02*
X13816920Y-15422116D01*
X13816920Y-15422116D02*
X13826444Y-15441163D01*
X13826444Y-15441163D02*
X13826444Y-15460211D01*
X13826444Y-15460211D02*
X13731206Y-15479259D01*
X13902634Y-15536402D02*
X13921682Y-15545925D01*
X13921682Y-15545925D02*
X13959777Y-15545925D01*
X13959777Y-15545925D02*
X13978825Y-15536402D01*
X13978825Y-15536402D02*
X13988349Y-15517354D01*
X13988349Y-15517354D02*
X13988349Y-15507830D01*
X13988349Y-15507830D02*
X13978825Y-15488782D01*
X13978825Y-15488782D02*
X13959777Y-15479259D01*
X13959777Y-15479259D02*
X13931206Y-15479259D01*
X13931206Y-15479259D02*
X13912158Y-15469735D01*
X13912158Y-15469735D02*
X13902634Y-15450687D01*
X13902634Y-15450687D02*
X13902634Y-15441163D01*
X13902634Y-15441163D02*
X13912158Y-15422116D01*
X13912158Y-15422116D02*
X13931206Y-15412592D01*
X13931206Y-15412592D02*
X13959777Y-15412592D01*
X13959777Y-15412592D02*
X13978825Y-15422116D01*
X14055015Y-15622116D02*
X14064539Y-15612592D01*
X14064539Y-15612592D02*
X14083587Y-15584021D01*
X14083587Y-15584021D02*
X14093111Y-15564973D01*
X14093111Y-15564973D02*
X14102634Y-15536402D01*
X14102634Y-15536402D02*
X14112158Y-15488782D01*
X14112158Y-15488782D02*
X14112158Y-15450687D01*
X14112158Y-15450687D02*
X14102634Y-15403068D01*
X14102634Y-15403068D02*
X14093111Y-15374497D01*
X14093111Y-15374497D02*
X14083587Y-15355449D01*
X14083587Y-15355449D02*
X14064539Y-15326878D01*
X14064539Y-15326878D02*
X14055015Y-15317354D01*
D13*
X8884000Y-15703442D02*
X8884000Y-15733442D01*
X8869000Y-15718442D02*
X8899000Y-15718442D01*
D11*
X9197872Y-15609925D02*
X9216920Y-15609925D01*
X9216920Y-15609925D02*
X9235967Y-15619449D01*
X9235967Y-15619449D02*
X9245491Y-15628973D01*
X9245491Y-15628973D02*
X9255015Y-15648021D01*
X9255015Y-15648021D02*
X9264539Y-15686116D01*
X9264539Y-15686116D02*
X9264539Y-15733735D01*
X9264539Y-15733735D02*
X9255015Y-15771830D01*
X9255015Y-15771830D02*
X9245491Y-15790878D01*
X9245491Y-15790878D02*
X9235967Y-15800402D01*
X9235967Y-15800402D02*
X9216920Y-15809925D01*
X9216920Y-15809925D02*
X9197872Y-15809925D01*
X9197872Y-15809925D02*
X9178824Y-15800402D01*
X9178824Y-15800402D02*
X9169301Y-15790878D01*
X9169301Y-15790878D02*
X9159777Y-15771830D01*
X9159777Y-15771830D02*
X9150253Y-15733735D01*
X9150253Y-15733735D02*
X9150253Y-15686116D01*
X9150253Y-15686116D02*
X9159777Y-15648021D01*
X9159777Y-15648021D02*
X9169301Y-15628973D01*
X9169301Y-15628973D02*
X9178824Y-15619449D01*
X9178824Y-15619449D02*
X9197872Y-15609925D01*
X9350253Y-15790878D02*
X9359777Y-15800402D01*
X9359777Y-15800402D02*
X9350253Y-15809925D01*
X9350253Y-15809925D02*
X9340729Y-15800402D01*
X9340729Y-15800402D02*
X9350253Y-15790878D01*
X9350253Y-15790878D02*
X9350253Y-15809925D01*
X9426444Y-15609925D02*
X9550253Y-15609925D01*
X9550253Y-15609925D02*
X9483586Y-15686116D01*
X9483586Y-15686116D02*
X9512158Y-15686116D01*
X9512158Y-15686116D02*
X9531205Y-15695640D01*
X9531205Y-15695640D02*
X9540729Y-15705163D01*
X9540729Y-15705163D02*
X9550253Y-15724211D01*
X9550253Y-15724211D02*
X9550253Y-15771830D01*
X9550253Y-15771830D02*
X9540729Y-15790878D01*
X9540729Y-15790878D02*
X9531205Y-15800402D01*
X9531205Y-15800402D02*
X9512158Y-15809925D01*
X9512158Y-15809925D02*
X9455015Y-15809925D01*
X9455015Y-15809925D02*
X9435967Y-15800402D01*
X9435967Y-15800402D02*
X9426444Y-15790878D01*
X9674063Y-15609925D02*
X9693110Y-15609925D01*
X9693110Y-15609925D02*
X9712158Y-15619449D01*
X9712158Y-15619449D02*
X9721682Y-15628973D01*
X9721682Y-15628973D02*
X9731205Y-15648021D01*
X9731205Y-15648021D02*
X9740729Y-15686116D01*
X9740729Y-15686116D02*
X9740729Y-15733735D01*
X9740729Y-15733735D02*
X9731205Y-15771830D01*
X9731205Y-15771830D02*
X9721682Y-15790878D01*
X9721682Y-15790878D02*
X9712158Y-15800402D01*
X9712158Y-15800402D02*
X9693110Y-15809925D01*
X9693110Y-15809925D02*
X9674063Y-15809925D01*
X9674063Y-15809925D02*
X9655015Y-15800402D01*
X9655015Y-15800402D02*
X9645491Y-15790878D01*
X9645491Y-15790878D02*
X9635967Y-15771830D01*
X9635967Y-15771830D02*
X9626444Y-15733735D01*
X9626444Y-15733735D02*
X9626444Y-15686116D01*
X9626444Y-15686116D02*
X9635967Y-15648021D01*
X9635967Y-15648021D02*
X9645491Y-15628973D01*
X9645491Y-15628973D02*
X9655015Y-15619449D01*
X9655015Y-15619449D02*
X9674063Y-15609925D01*
X9864539Y-15609925D02*
X9883586Y-15609925D01*
X9883586Y-15609925D02*
X9902634Y-15619449D01*
X9902634Y-15619449D02*
X9912158Y-15628973D01*
X9912158Y-15628973D02*
X9921682Y-15648021D01*
X9921682Y-15648021D02*
X9931205Y-15686116D01*
X9931205Y-15686116D02*
X9931205Y-15733735D01*
X9931205Y-15733735D02*
X9921682Y-15771830D01*
X9921682Y-15771830D02*
X9912158Y-15790878D01*
X9912158Y-15790878D02*
X9902634Y-15800402D01*
X9902634Y-15800402D02*
X9883586Y-15809925D01*
X9883586Y-15809925D02*
X9864539Y-15809925D01*
X9864539Y-15809925D02*
X9845491Y-15800402D01*
X9845491Y-15800402D02*
X9835967Y-15790878D01*
X9835967Y-15790878D02*
X9826444Y-15771830D01*
X9826444Y-15771830D02*
X9816920Y-15733735D01*
X9816920Y-15733735D02*
X9816920Y-15686116D01*
X9816920Y-15686116D02*
X9826444Y-15648021D01*
X9826444Y-15648021D02*
X9835967Y-15628973D01*
X9835967Y-15628973D02*
X9845491Y-15619449D01*
X9845491Y-15619449D02*
X9864539Y-15609925D01*
X10016920Y-15809925D02*
X10016920Y-15676592D01*
X10016920Y-15695640D02*
X10026444Y-15686116D01*
X10026444Y-15686116D02*
X10045491Y-15676592D01*
X10045491Y-15676592D02*
X10074063Y-15676592D01*
X10074063Y-15676592D02*
X10093110Y-15686116D01*
X10093110Y-15686116D02*
X10102634Y-15705163D01*
X10102634Y-15705163D02*
X10102634Y-15809925D01*
X10102634Y-15705163D02*
X10112158Y-15686116D01*
X10112158Y-15686116D02*
X10131205Y-15676592D01*
X10131205Y-15676592D02*
X10159777Y-15676592D01*
X10159777Y-15676592D02*
X10178825Y-15686116D01*
X10178825Y-15686116D02*
X10188348Y-15705163D01*
X10188348Y-15705163D02*
X10188348Y-15809925D01*
X10283586Y-15809925D02*
X10283586Y-15676592D01*
X10283586Y-15695640D02*
X10293110Y-15686116D01*
X10293110Y-15686116D02*
X10312158Y-15676592D01*
X10312158Y-15676592D02*
X10340729Y-15676592D01*
X10340729Y-15676592D02*
X10359777Y-15686116D01*
X10359777Y-15686116D02*
X10369301Y-15705163D01*
X10369301Y-15705163D02*
X10369301Y-15809925D01*
X10369301Y-15705163D02*
X10378825Y-15686116D01*
X10378825Y-15686116D02*
X10397872Y-15676592D01*
X10397872Y-15676592D02*
X10426444Y-15676592D01*
X10426444Y-15676592D02*
X10445491Y-15686116D01*
X10445491Y-15686116D02*
X10455015Y-15705163D01*
X10455015Y-15705163D02*
X10455015Y-15809925D01*
X10845491Y-15600402D02*
X10674063Y-15857544D01*
X11102634Y-15609925D02*
X11121682Y-15609925D01*
X11121682Y-15609925D02*
X11140729Y-15619449D01*
X11140729Y-15619449D02*
X11150253Y-15628973D01*
X11150253Y-15628973D02*
X11159777Y-15648021D01*
X11159777Y-15648021D02*
X11169301Y-15686116D01*
X11169301Y-15686116D02*
X11169301Y-15733735D01*
X11169301Y-15733735D02*
X11159777Y-15771830D01*
X11159777Y-15771830D02*
X11150253Y-15790878D01*
X11150253Y-15790878D02*
X11140729Y-15800402D01*
X11140729Y-15800402D02*
X11121682Y-15809925D01*
X11121682Y-15809925D02*
X11102634Y-15809925D01*
X11102634Y-15809925D02*
X11083587Y-15800402D01*
X11083587Y-15800402D02*
X11074063Y-15790878D01*
X11074063Y-15790878D02*
X11064539Y-15771830D01*
X11064539Y-15771830D02*
X11055015Y-15733735D01*
X11055015Y-15733735D02*
X11055015Y-15686116D01*
X11055015Y-15686116D02*
X11064539Y-15648021D01*
X11064539Y-15648021D02*
X11074063Y-15628973D01*
X11074063Y-15628973D02*
X11083587Y-15619449D01*
X11083587Y-15619449D02*
X11102634Y-15609925D01*
X11255015Y-15790878D02*
X11264539Y-15800402D01*
X11264539Y-15800402D02*
X11255015Y-15809925D01*
X11255015Y-15809925D02*
X11245491Y-15800402D01*
X11245491Y-15800402D02*
X11255015Y-15790878D01*
X11255015Y-15790878D02*
X11255015Y-15809925D01*
X11388348Y-15609925D02*
X11407396Y-15609925D01*
X11407396Y-15609925D02*
X11426444Y-15619449D01*
X11426444Y-15619449D02*
X11435967Y-15628973D01*
X11435967Y-15628973D02*
X11445491Y-15648021D01*
X11445491Y-15648021D02*
X11455015Y-15686116D01*
X11455015Y-15686116D02*
X11455015Y-15733735D01*
X11455015Y-15733735D02*
X11445491Y-15771830D01*
X11445491Y-15771830D02*
X11435967Y-15790878D01*
X11435967Y-15790878D02*
X11426444Y-15800402D01*
X11426444Y-15800402D02*
X11407396Y-15809925D01*
X11407396Y-15809925D02*
X11388348Y-15809925D01*
X11388348Y-15809925D02*
X11369301Y-15800402D01*
X11369301Y-15800402D02*
X11359777Y-15790878D01*
X11359777Y-15790878D02*
X11350253Y-15771830D01*
X11350253Y-15771830D02*
X11340729Y-15733735D01*
X11340729Y-15733735D02*
X11340729Y-15686116D01*
X11340729Y-15686116D02*
X11350253Y-15648021D01*
X11350253Y-15648021D02*
X11359777Y-15628973D01*
X11359777Y-15628973D02*
X11369301Y-15619449D01*
X11369301Y-15619449D02*
X11388348Y-15609925D01*
X11645491Y-15809925D02*
X11531206Y-15809925D01*
X11588348Y-15809925D02*
X11588348Y-15609925D01*
X11588348Y-15609925D02*
X11569301Y-15638497D01*
X11569301Y-15638497D02*
X11550253Y-15657544D01*
X11550253Y-15657544D02*
X11531206Y-15667068D01*
X11835967Y-15809925D02*
X11721682Y-15809925D01*
X11778825Y-15809925D02*
X11778825Y-15609925D01*
X11778825Y-15609925D02*
X11759777Y-15638497D01*
X11759777Y-15638497D02*
X11740729Y-15657544D01*
X11740729Y-15657544D02*
X11721682Y-15667068D01*
X11950253Y-15695640D02*
X11931206Y-15686116D01*
X11931206Y-15686116D02*
X11921682Y-15676592D01*
X11921682Y-15676592D02*
X11912158Y-15657544D01*
X11912158Y-15657544D02*
X11912158Y-15648021D01*
X11912158Y-15648021D02*
X11921682Y-15628973D01*
X11921682Y-15628973D02*
X11931206Y-15619449D01*
X11931206Y-15619449D02*
X11950253Y-15609925D01*
X11950253Y-15609925D02*
X11988348Y-15609925D01*
X11988348Y-15609925D02*
X12007396Y-15619449D01*
X12007396Y-15619449D02*
X12016920Y-15628973D01*
X12016920Y-15628973D02*
X12026444Y-15648021D01*
X12026444Y-15648021D02*
X12026444Y-15657544D01*
X12026444Y-15657544D02*
X12016920Y-15676592D01*
X12016920Y-15676592D02*
X12007396Y-15686116D01*
X12007396Y-15686116D02*
X11988348Y-15695640D01*
X11988348Y-15695640D02*
X11950253Y-15695640D01*
X11950253Y-15695640D02*
X11931206Y-15705163D01*
X11931206Y-15705163D02*
X11921682Y-15714687D01*
X11921682Y-15714687D02*
X11912158Y-15733735D01*
X11912158Y-15733735D02*
X11912158Y-15771830D01*
X11912158Y-15771830D02*
X11921682Y-15790878D01*
X11921682Y-15790878D02*
X11931206Y-15800402D01*
X11931206Y-15800402D02*
X11950253Y-15809925D01*
X11950253Y-15809925D02*
X11988348Y-15809925D01*
X11988348Y-15809925D02*
X12007396Y-15800402D01*
X12007396Y-15800402D02*
X12016920Y-15790878D01*
X12016920Y-15790878D02*
X12026444Y-15771830D01*
X12026444Y-15771830D02*
X12026444Y-15733735D01*
X12026444Y-15733735D02*
X12016920Y-15714687D01*
X12016920Y-15714687D02*
X12007396Y-15705163D01*
X12007396Y-15705163D02*
X11988348Y-15695640D01*
X12102634Y-15609925D02*
X12102634Y-15648021D01*
X12178825Y-15609925D02*
X12178825Y-15648021D01*
X12474063Y-15886116D02*
X12464539Y-15876592D01*
X12464539Y-15876592D02*
X12445491Y-15848021D01*
X12445491Y-15848021D02*
X12435968Y-15828973D01*
X12435968Y-15828973D02*
X12426444Y-15800402D01*
X12426444Y-15800402D02*
X12416920Y-15752782D01*
X12416920Y-15752782D02*
X12416920Y-15714687D01*
X12416920Y-15714687D02*
X12426444Y-15667068D01*
X12426444Y-15667068D02*
X12435968Y-15638497D01*
X12435968Y-15638497D02*
X12445491Y-15619449D01*
X12445491Y-15619449D02*
X12464539Y-15590878D01*
X12464539Y-15590878D02*
X12474063Y-15581354D01*
X12655015Y-15809925D02*
X12540729Y-15809925D01*
X12597872Y-15809925D02*
X12597872Y-15609925D01*
X12597872Y-15609925D02*
X12578825Y-15638497D01*
X12578825Y-15638497D02*
X12559777Y-15657544D01*
X12559777Y-15657544D02*
X12540729Y-15667068D01*
X12731206Y-15628973D02*
X12740729Y-15619449D01*
X12740729Y-15619449D02*
X12759777Y-15609925D01*
X12759777Y-15609925D02*
X12807396Y-15609925D01*
X12807396Y-15609925D02*
X12826444Y-15619449D01*
X12826444Y-15619449D02*
X12835968Y-15628973D01*
X12835968Y-15628973D02*
X12845491Y-15648021D01*
X12845491Y-15648021D02*
X12845491Y-15667068D01*
X12845491Y-15667068D02*
X12835968Y-15695640D01*
X12835968Y-15695640D02*
X12721682Y-15809925D01*
X12721682Y-15809925D02*
X12845491Y-15809925D01*
X13083587Y-15809925D02*
X13083587Y-15609925D01*
X13169301Y-15809925D02*
X13169301Y-15705163D01*
X13169301Y-15705163D02*
X13159777Y-15686116D01*
X13159777Y-15686116D02*
X13140730Y-15676592D01*
X13140730Y-15676592D02*
X13112158Y-15676592D01*
X13112158Y-15676592D02*
X13093110Y-15686116D01*
X13093110Y-15686116D02*
X13083587Y-15695640D01*
X13293110Y-15809925D02*
X13274063Y-15800402D01*
X13274063Y-15800402D02*
X13264539Y-15790878D01*
X13264539Y-15790878D02*
X13255015Y-15771830D01*
X13255015Y-15771830D02*
X13255015Y-15714687D01*
X13255015Y-15714687D02*
X13264539Y-15695640D01*
X13264539Y-15695640D02*
X13274063Y-15686116D01*
X13274063Y-15686116D02*
X13293110Y-15676592D01*
X13293110Y-15676592D02*
X13321682Y-15676592D01*
X13321682Y-15676592D02*
X13340730Y-15686116D01*
X13340730Y-15686116D02*
X13350253Y-15695640D01*
X13350253Y-15695640D02*
X13359777Y-15714687D01*
X13359777Y-15714687D02*
X13359777Y-15771830D01*
X13359777Y-15771830D02*
X13350253Y-15790878D01*
X13350253Y-15790878D02*
X13340730Y-15800402D01*
X13340730Y-15800402D02*
X13321682Y-15809925D01*
X13321682Y-15809925D02*
X13293110Y-15809925D01*
X13474063Y-15809925D02*
X13455015Y-15800402D01*
X13455015Y-15800402D02*
X13445491Y-15781354D01*
X13445491Y-15781354D02*
X13445491Y-15609925D01*
X13626444Y-15800402D02*
X13607396Y-15809925D01*
X13607396Y-15809925D02*
X13569301Y-15809925D01*
X13569301Y-15809925D02*
X13550253Y-15800402D01*
X13550253Y-15800402D02*
X13540730Y-15781354D01*
X13540730Y-15781354D02*
X13540730Y-15705163D01*
X13540730Y-15705163D02*
X13550253Y-15686116D01*
X13550253Y-15686116D02*
X13569301Y-15676592D01*
X13569301Y-15676592D02*
X13607396Y-15676592D01*
X13607396Y-15676592D02*
X13626444Y-15686116D01*
X13626444Y-15686116D02*
X13635968Y-15705163D01*
X13635968Y-15705163D02*
X13635968Y-15724211D01*
X13635968Y-15724211D02*
X13540730Y-15743259D01*
X13712158Y-15800402D02*
X13731206Y-15809925D01*
X13731206Y-15809925D02*
X13769301Y-15809925D01*
X13769301Y-15809925D02*
X13788349Y-15800402D01*
X13788349Y-15800402D02*
X13797872Y-15781354D01*
X13797872Y-15781354D02*
X13797872Y-15771830D01*
X13797872Y-15771830D02*
X13788349Y-15752782D01*
X13788349Y-15752782D02*
X13769301Y-15743259D01*
X13769301Y-15743259D02*
X13740730Y-15743259D01*
X13740730Y-15743259D02*
X13721682Y-15733735D01*
X13721682Y-15733735D02*
X13712158Y-15714687D01*
X13712158Y-15714687D02*
X13712158Y-15705163D01*
X13712158Y-15705163D02*
X13721682Y-15686116D01*
X13721682Y-15686116D02*
X13740730Y-15676592D01*
X13740730Y-15676592D02*
X13769301Y-15676592D01*
X13769301Y-15676592D02*
X13788349Y-15686116D01*
X13864539Y-15886116D02*
X13874063Y-15876592D01*
X13874063Y-15876592D02*
X13893111Y-15848021D01*
X13893111Y-15848021D02*
X13902634Y-15828973D01*
X13902634Y-15828973D02*
X13912158Y-15800402D01*
X13912158Y-15800402D02*
X13921682Y-15752782D01*
X13921682Y-15752782D02*
X13921682Y-15714687D01*
X13921682Y-15714687D02*
X13912158Y-15667068D01*
X13912158Y-15667068D02*
X13902634Y-15638497D01*
X13902634Y-15638497D02*
X13893111Y-15619449D01*
X13893111Y-15619449D02*
X13874063Y-15590878D01*
X13874063Y-15590878D02*
X13864539Y-15581354D01*
D14*
X8888017Y-16008958D02*
X8888017Y-15955925D01*
X8834983Y-15955925D01*
X8834983Y-16008958D01*
X8888017Y-16008958D01*
D11*
X9197872Y-15873925D02*
X9216920Y-15873925D01*
X9216920Y-15873925D02*
X9235967Y-15883449D01*
X9235967Y-15883449D02*
X9245491Y-15892973D01*
X9245491Y-15892973D02*
X9255015Y-15912021D01*
X9255015Y-15912021D02*
X9264539Y-15950116D01*
X9264539Y-15950116D02*
X9264539Y-15997735D01*
X9264539Y-15997735D02*
X9255015Y-16035830D01*
X9255015Y-16035830D02*
X9245491Y-16054878D01*
X9245491Y-16054878D02*
X9235967Y-16064402D01*
X9235967Y-16064402D02*
X9216920Y-16073925D01*
X9216920Y-16073925D02*
X9197872Y-16073925D01*
X9197872Y-16073925D02*
X9178824Y-16064402D01*
X9178824Y-16064402D02*
X9169301Y-16054878D01*
X9169301Y-16054878D02*
X9159777Y-16035830D01*
X9159777Y-16035830D02*
X9150253Y-15997735D01*
X9150253Y-15997735D02*
X9150253Y-15950116D01*
X9150253Y-15950116D02*
X9159777Y-15912021D01*
X9159777Y-15912021D02*
X9169301Y-15892973D01*
X9169301Y-15892973D02*
X9178824Y-15883449D01*
X9178824Y-15883449D02*
X9197872Y-15873925D01*
X9350253Y-16054878D02*
X9359777Y-16064402D01*
X9359777Y-16064402D02*
X9350253Y-16073925D01*
X9350253Y-16073925D02*
X9340729Y-16064402D01*
X9340729Y-16064402D02*
X9350253Y-16054878D01*
X9350253Y-16054878D02*
X9350253Y-16073925D01*
X9426444Y-15873925D02*
X9559777Y-15873925D01*
X9559777Y-15873925D02*
X9474063Y-16073925D01*
X9731205Y-15873925D02*
X9635967Y-15873925D01*
X9635967Y-15873925D02*
X9626444Y-15969163D01*
X9626444Y-15969163D02*
X9635967Y-15959640D01*
X9635967Y-15959640D02*
X9655015Y-15950116D01*
X9655015Y-15950116D02*
X9702634Y-15950116D01*
X9702634Y-15950116D02*
X9721682Y-15959640D01*
X9721682Y-15959640D02*
X9731205Y-15969163D01*
X9731205Y-15969163D02*
X9740729Y-15988211D01*
X9740729Y-15988211D02*
X9740729Y-16035830D01*
X9740729Y-16035830D02*
X9731205Y-16054878D01*
X9731205Y-16054878D02*
X9721682Y-16064402D01*
X9721682Y-16064402D02*
X9702634Y-16073925D01*
X9702634Y-16073925D02*
X9655015Y-16073925D01*
X9655015Y-16073925D02*
X9635967Y-16064402D01*
X9635967Y-16064402D02*
X9626444Y-16054878D01*
X9864539Y-15873925D02*
X9883586Y-15873925D01*
X9883586Y-15873925D02*
X9902634Y-15883449D01*
X9902634Y-15883449D02*
X9912158Y-15892973D01*
X9912158Y-15892973D02*
X9921682Y-15912021D01*
X9921682Y-15912021D02*
X9931205Y-15950116D01*
X9931205Y-15950116D02*
X9931205Y-15997735D01*
X9931205Y-15997735D02*
X9921682Y-16035830D01*
X9921682Y-16035830D02*
X9912158Y-16054878D01*
X9912158Y-16054878D02*
X9902634Y-16064402D01*
X9902634Y-16064402D02*
X9883586Y-16073925D01*
X9883586Y-16073925D02*
X9864539Y-16073925D01*
X9864539Y-16073925D02*
X9845491Y-16064402D01*
X9845491Y-16064402D02*
X9835967Y-16054878D01*
X9835967Y-16054878D02*
X9826444Y-16035830D01*
X9826444Y-16035830D02*
X9816920Y-15997735D01*
X9816920Y-15997735D02*
X9816920Y-15950116D01*
X9816920Y-15950116D02*
X9826444Y-15912021D01*
X9826444Y-15912021D02*
X9835967Y-15892973D01*
X9835967Y-15892973D02*
X9845491Y-15883449D01*
X9845491Y-15883449D02*
X9864539Y-15873925D01*
X10016920Y-16073925D02*
X10016920Y-15940592D01*
X10016920Y-15959640D02*
X10026444Y-15950116D01*
X10026444Y-15950116D02*
X10045491Y-15940592D01*
X10045491Y-15940592D02*
X10074063Y-15940592D01*
X10074063Y-15940592D02*
X10093110Y-15950116D01*
X10093110Y-15950116D02*
X10102634Y-15969163D01*
X10102634Y-15969163D02*
X10102634Y-16073925D01*
X10102634Y-15969163D02*
X10112158Y-15950116D01*
X10112158Y-15950116D02*
X10131205Y-15940592D01*
X10131205Y-15940592D02*
X10159777Y-15940592D01*
X10159777Y-15940592D02*
X10178825Y-15950116D01*
X10178825Y-15950116D02*
X10188348Y-15969163D01*
X10188348Y-15969163D02*
X10188348Y-16073925D01*
X10283586Y-16073925D02*
X10283586Y-15940592D01*
X10283586Y-15959640D02*
X10293110Y-15950116D01*
X10293110Y-15950116D02*
X10312158Y-15940592D01*
X10312158Y-15940592D02*
X10340729Y-15940592D01*
X10340729Y-15940592D02*
X10359777Y-15950116D01*
X10359777Y-15950116D02*
X10369301Y-15969163D01*
X10369301Y-15969163D02*
X10369301Y-16073925D01*
X10369301Y-15969163D02*
X10378825Y-15950116D01*
X10378825Y-15950116D02*
X10397872Y-15940592D01*
X10397872Y-15940592D02*
X10426444Y-15940592D01*
X10426444Y-15940592D02*
X10445491Y-15950116D01*
X10445491Y-15950116D02*
X10455015Y-15969163D01*
X10455015Y-15969163D02*
X10455015Y-16073925D01*
X10845491Y-15864402D02*
X10674063Y-16121544D01*
X11102634Y-15873925D02*
X11121682Y-15873925D01*
X11121682Y-15873925D02*
X11140729Y-15883449D01*
X11140729Y-15883449D02*
X11150253Y-15892973D01*
X11150253Y-15892973D02*
X11159777Y-15912021D01*
X11159777Y-15912021D02*
X11169301Y-15950116D01*
X11169301Y-15950116D02*
X11169301Y-15997735D01*
X11169301Y-15997735D02*
X11159777Y-16035830D01*
X11159777Y-16035830D02*
X11150253Y-16054878D01*
X11150253Y-16054878D02*
X11140729Y-16064402D01*
X11140729Y-16064402D02*
X11121682Y-16073925D01*
X11121682Y-16073925D02*
X11102634Y-16073925D01*
X11102634Y-16073925D02*
X11083587Y-16064402D01*
X11083587Y-16064402D02*
X11074063Y-16054878D01*
X11074063Y-16054878D02*
X11064539Y-16035830D01*
X11064539Y-16035830D02*
X11055015Y-15997735D01*
X11055015Y-15997735D02*
X11055015Y-15950116D01*
X11055015Y-15950116D02*
X11064539Y-15912021D01*
X11064539Y-15912021D02*
X11074063Y-15892973D01*
X11074063Y-15892973D02*
X11083587Y-15883449D01*
X11083587Y-15883449D02*
X11102634Y-15873925D01*
X11255015Y-16054878D02*
X11264539Y-16064402D01*
X11264539Y-16064402D02*
X11255015Y-16073925D01*
X11255015Y-16073925D02*
X11245491Y-16064402D01*
X11245491Y-16064402D02*
X11255015Y-16054878D01*
X11255015Y-16054878D02*
X11255015Y-16073925D01*
X11388348Y-15873925D02*
X11407396Y-15873925D01*
X11407396Y-15873925D02*
X11426444Y-15883449D01*
X11426444Y-15883449D02*
X11435967Y-15892973D01*
X11435967Y-15892973D02*
X11445491Y-15912021D01*
X11445491Y-15912021D02*
X11455015Y-15950116D01*
X11455015Y-15950116D02*
X11455015Y-15997735D01*
X11455015Y-15997735D02*
X11445491Y-16035830D01*
X11445491Y-16035830D02*
X11435967Y-16054878D01*
X11435967Y-16054878D02*
X11426444Y-16064402D01*
X11426444Y-16064402D02*
X11407396Y-16073925D01*
X11407396Y-16073925D02*
X11388348Y-16073925D01*
X11388348Y-16073925D02*
X11369301Y-16064402D01*
X11369301Y-16064402D02*
X11359777Y-16054878D01*
X11359777Y-16054878D02*
X11350253Y-16035830D01*
X11350253Y-16035830D02*
X11340729Y-15997735D01*
X11340729Y-15997735D02*
X11340729Y-15950116D01*
X11340729Y-15950116D02*
X11350253Y-15912021D01*
X11350253Y-15912021D02*
X11359777Y-15892973D01*
X11359777Y-15892973D02*
X11369301Y-15883449D01*
X11369301Y-15883449D02*
X11388348Y-15873925D01*
X11531206Y-15892973D02*
X11540729Y-15883449D01*
X11540729Y-15883449D02*
X11559777Y-15873925D01*
X11559777Y-15873925D02*
X11607396Y-15873925D01*
X11607396Y-15873925D02*
X11626444Y-15883449D01*
X11626444Y-15883449D02*
X11635967Y-15892973D01*
X11635967Y-15892973D02*
X11645491Y-15912021D01*
X11645491Y-15912021D02*
X11645491Y-15931068D01*
X11645491Y-15931068D02*
X11635967Y-15959640D01*
X11635967Y-15959640D02*
X11521682Y-16073925D01*
X11521682Y-16073925D02*
X11645491Y-16073925D01*
X11740729Y-16073925D02*
X11778825Y-16073925D01*
X11778825Y-16073925D02*
X11797872Y-16064402D01*
X11797872Y-16064402D02*
X11807396Y-16054878D01*
X11807396Y-16054878D02*
X11826444Y-16026306D01*
X11826444Y-16026306D02*
X11835967Y-15988211D01*
X11835967Y-15988211D02*
X11835967Y-15912021D01*
X11835967Y-15912021D02*
X11826444Y-15892973D01*
X11826444Y-15892973D02*
X11816920Y-15883449D01*
X11816920Y-15883449D02*
X11797872Y-15873925D01*
X11797872Y-15873925D02*
X11759777Y-15873925D01*
X11759777Y-15873925D02*
X11740729Y-15883449D01*
X11740729Y-15883449D02*
X11731206Y-15892973D01*
X11731206Y-15892973D02*
X11721682Y-15912021D01*
X11721682Y-15912021D02*
X11721682Y-15959640D01*
X11721682Y-15959640D02*
X11731206Y-15978687D01*
X11731206Y-15978687D02*
X11740729Y-15988211D01*
X11740729Y-15988211D02*
X11759777Y-15997735D01*
X11759777Y-15997735D02*
X11797872Y-15997735D01*
X11797872Y-15997735D02*
X11816920Y-15988211D01*
X11816920Y-15988211D02*
X11826444Y-15978687D01*
X11826444Y-15978687D02*
X11835967Y-15959640D01*
X12016920Y-15873925D02*
X11921682Y-15873925D01*
X11921682Y-15873925D02*
X11912158Y-15969163D01*
X11912158Y-15969163D02*
X11921682Y-15959640D01*
X11921682Y-15959640D02*
X11940729Y-15950116D01*
X11940729Y-15950116D02*
X11988348Y-15950116D01*
X11988348Y-15950116D02*
X12007396Y-15959640D01*
X12007396Y-15959640D02*
X12016920Y-15969163D01*
X12016920Y-15969163D02*
X12026444Y-15988211D01*
X12026444Y-15988211D02*
X12026444Y-16035830D01*
X12026444Y-16035830D02*
X12016920Y-16054878D01*
X12016920Y-16054878D02*
X12007396Y-16064402D01*
X12007396Y-16064402D02*
X11988348Y-16073925D01*
X11988348Y-16073925D02*
X11940729Y-16073925D01*
X11940729Y-16073925D02*
X11921682Y-16064402D01*
X11921682Y-16064402D02*
X11912158Y-16054878D01*
X12102634Y-15873925D02*
X12102634Y-15912021D01*
X12178825Y-15873925D02*
X12178825Y-15912021D01*
X12474063Y-16150116D02*
X12464539Y-16140592D01*
X12464539Y-16140592D02*
X12445491Y-16112021D01*
X12445491Y-16112021D02*
X12435968Y-16092973D01*
X12435968Y-16092973D02*
X12426444Y-16064402D01*
X12426444Y-16064402D02*
X12416920Y-16016782D01*
X12416920Y-16016782D02*
X12416920Y-15978687D01*
X12416920Y-15978687D02*
X12426444Y-15931068D01*
X12426444Y-15931068D02*
X12435968Y-15902497D01*
X12435968Y-15902497D02*
X12445491Y-15883449D01*
X12445491Y-15883449D02*
X12464539Y-15854878D01*
X12464539Y-15854878D02*
X12474063Y-15845354D01*
X12655015Y-16073925D02*
X12540729Y-16073925D01*
X12597872Y-16073925D02*
X12597872Y-15873925D01*
X12597872Y-15873925D02*
X12578825Y-15902497D01*
X12578825Y-15902497D02*
X12559777Y-15921544D01*
X12559777Y-15921544D02*
X12540729Y-15931068D01*
X12893110Y-16073925D02*
X12893110Y-15873925D01*
X12978825Y-16073925D02*
X12978825Y-15969163D01*
X12978825Y-15969163D02*
X12969301Y-15950116D01*
X12969301Y-15950116D02*
X12950253Y-15940592D01*
X12950253Y-15940592D02*
X12921682Y-15940592D01*
X12921682Y-15940592D02*
X12902634Y-15950116D01*
X12902634Y-15950116D02*
X12893110Y-15959640D01*
X13102634Y-16073925D02*
X13083587Y-16064402D01*
X13083587Y-16064402D02*
X13074063Y-16054878D01*
X13074063Y-16054878D02*
X13064539Y-16035830D01*
X13064539Y-16035830D02*
X13064539Y-15978687D01*
X13064539Y-15978687D02*
X13074063Y-15959640D01*
X13074063Y-15959640D02*
X13083587Y-15950116D01*
X13083587Y-15950116D02*
X13102634Y-15940592D01*
X13102634Y-15940592D02*
X13131206Y-15940592D01*
X13131206Y-15940592D02*
X13150253Y-15950116D01*
X13150253Y-15950116D02*
X13159777Y-15959640D01*
X13159777Y-15959640D02*
X13169301Y-15978687D01*
X13169301Y-15978687D02*
X13169301Y-16035830D01*
X13169301Y-16035830D02*
X13159777Y-16054878D01*
X13159777Y-16054878D02*
X13150253Y-16064402D01*
X13150253Y-16064402D02*
X13131206Y-16073925D01*
X13131206Y-16073925D02*
X13102634Y-16073925D01*
X13283587Y-16073925D02*
X13264539Y-16064402D01*
X13264539Y-16064402D02*
X13255015Y-16045354D01*
X13255015Y-16045354D02*
X13255015Y-15873925D01*
X13435968Y-16064402D02*
X13416920Y-16073925D01*
X13416920Y-16073925D02*
X13378825Y-16073925D01*
X13378825Y-16073925D02*
X13359777Y-16064402D01*
X13359777Y-16064402D02*
X13350253Y-16045354D01*
X13350253Y-16045354D02*
X13350253Y-15969163D01*
X13350253Y-15969163D02*
X13359777Y-15950116D01*
X13359777Y-15950116D02*
X13378825Y-15940592D01*
X13378825Y-15940592D02*
X13416920Y-15940592D01*
X13416920Y-15940592D02*
X13435968Y-15950116D01*
X13435968Y-15950116D02*
X13445491Y-15969163D01*
X13445491Y-15969163D02*
X13445491Y-15988211D01*
X13445491Y-15988211D02*
X13350253Y-16007259D01*
X13512158Y-16150116D02*
X13521682Y-16140592D01*
X13521682Y-16140592D02*
X13540730Y-16112021D01*
X13540730Y-16112021D02*
X13550253Y-16092973D01*
X13550253Y-16092973D02*
X13559777Y-16064402D01*
X13559777Y-16064402D02*
X13569301Y-16016782D01*
X13569301Y-16016782D02*
X13569301Y-15978687D01*
X13569301Y-15978687D02*
X13559777Y-15931068D01*
X13559777Y-15931068D02*
X13550253Y-15902497D01*
X13550253Y-15902497D02*
X13540730Y-15883449D01*
X13540730Y-15883449D02*
X13521682Y-15854878D01*
X13521682Y-15854878D02*
X13512158Y-15845354D01*
D15*
X8859000Y-16286442D02*
X8899000Y-16246442D01*
X8859000Y-16206442D01*
X8819000Y-16246442D01*
X8859000Y-16286442D01*
D11*
X9197872Y-16137925D02*
X9216920Y-16137925D01*
X9216920Y-16137925D02*
X9235967Y-16147449D01*
X9235967Y-16147449D02*
X9245491Y-16156973D01*
X9245491Y-16156973D02*
X9255015Y-16176021D01*
X9255015Y-16176021D02*
X9264539Y-16214116D01*
X9264539Y-16214116D02*
X9264539Y-16261735D01*
X9264539Y-16261735D02*
X9255015Y-16299830D01*
X9255015Y-16299830D02*
X9245491Y-16318878D01*
X9245491Y-16318878D02*
X9235967Y-16328402D01*
X9235967Y-16328402D02*
X9216920Y-16337925D01*
X9216920Y-16337925D02*
X9197872Y-16337925D01*
X9197872Y-16337925D02*
X9178824Y-16328402D01*
X9178824Y-16328402D02*
X9169301Y-16318878D01*
X9169301Y-16318878D02*
X9159777Y-16299830D01*
X9159777Y-16299830D02*
X9150253Y-16261735D01*
X9150253Y-16261735D02*
X9150253Y-16214116D01*
X9150253Y-16214116D02*
X9159777Y-16176021D01*
X9159777Y-16176021D02*
X9169301Y-16156973D01*
X9169301Y-16156973D02*
X9178824Y-16147449D01*
X9178824Y-16147449D02*
X9197872Y-16137925D01*
X9350253Y-16318878D02*
X9359777Y-16328402D01*
X9359777Y-16328402D02*
X9350253Y-16337925D01*
X9350253Y-16337925D02*
X9340729Y-16328402D01*
X9340729Y-16328402D02*
X9350253Y-16318878D01*
X9350253Y-16318878D02*
X9350253Y-16337925D01*
X9474063Y-16223640D02*
X9455015Y-16214116D01*
X9455015Y-16214116D02*
X9445491Y-16204592D01*
X9445491Y-16204592D02*
X9435967Y-16185544D01*
X9435967Y-16185544D02*
X9435967Y-16176021D01*
X9435967Y-16176021D02*
X9445491Y-16156973D01*
X9445491Y-16156973D02*
X9455015Y-16147449D01*
X9455015Y-16147449D02*
X9474063Y-16137925D01*
X9474063Y-16137925D02*
X9512158Y-16137925D01*
X9512158Y-16137925D02*
X9531205Y-16147449D01*
X9531205Y-16147449D02*
X9540729Y-16156973D01*
X9540729Y-16156973D02*
X9550253Y-16176021D01*
X9550253Y-16176021D02*
X9550253Y-16185544D01*
X9550253Y-16185544D02*
X9540729Y-16204592D01*
X9540729Y-16204592D02*
X9531205Y-16214116D01*
X9531205Y-16214116D02*
X9512158Y-16223640D01*
X9512158Y-16223640D02*
X9474063Y-16223640D01*
X9474063Y-16223640D02*
X9455015Y-16233163D01*
X9455015Y-16233163D02*
X9445491Y-16242687D01*
X9445491Y-16242687D02*
X9435967Y-16261735D01*
X9435967Y-16261735D02*
X9435967Y-16299830D01*
X9435967Y-16299830D02*
X9445491Y-16318878D01*
X9445491Y-16318878D02*
X9455015Y-16328402D01*
X9455015Y-16328402D02*
X9474063Y-16337925D01*
X9474063Y-16337925D02*
X9512158Y-16337925D01*
X9512158Y-16337925D02*
X9531205Y-16328402D01*
X9531205Y-16328402D02*
X9540729Y-16318878D01*
X9540729Y-16318878D02*
X9550253Y-16299830D01*
X9550253Y-16299830D02*
X9550253Y-16261735D01*
X9550253Y-16261735D02*
X9540729Y-16242687D01*
X9540729Y-16242687D02*
X9531205Y-16233163D01*
X9531205Y-16233163D02*
X9512158Y-16223640D01*
X9674063Y-16137925D02*
X9693110Y-16137925D01*
X9693110Y-16137925D02*
X9712158Y-16147449D01*
X9712158Y-16147449D02*
X9721682Y-16156973D01*
X9721682Y-16156973D02*
X9731205Y-16176021D01*
X9731205Y-16176021D02*
X9740729Y-16214116D01*
X9740729Y-16214116D02*
X9740729Y-16261735D01*
X9740729Y-16261735D02*
X9731205Y-16299830D01*
X9731205Y-16299830D02*
X9721682Y-16318878D01*
X9721682Y-16318878D02*
X9712158Y-16328402D01*
X9712158Y-16328402D02*
X9693110Y-16337925D01*
X9693110Y-16337925D02*
X9674063Y-16337925D01*
X9674063Y-16337925D02*
X9655015Y-16328402D01*
X9655015Y-16328402D02*
X9645491Y-16318878D01*
X9645491Y-16318878D02*
X9635967Y-16299830D01*
X9635967Y-16299830D02*
X9626444Y-16261735D01*
X9626444Y-16261735D02*
X9626444Y-16214116D01*
X9626444Y-16214116D02*
X9635967Y-16176021D01*
X9635967Y-16176021D02*
X9645491Y-16156973D01*
X9645491Y-16156973D02*
X9655015Y-16147449D01*
X9655015Y-16147449D02*
X9674063Y-16137925D01*
X9864539Y-16137925D02*
X9883586Y-16137925D01*
X9883586Y-16137925D02*
X9902634Y-16147449D01*
X9902634Y-16147449D02*
X9912158Y-16156973D01*
X9912158Y-16156973D02*
X9921682Y-16176021D01*
X9921682Y-16176021D02*
X9931205Y-16214116D01*
X9931205Y-16214116D02*
X9931205Y-16261735D01*
X9931205Y-16261735D02*
X9921682Y-16299830D01*
X9921682Y-16299830D02*
X9912158Y-16318878D01*
X9912158Y-16318878D02*
X9902634Y-16328402D01*
X9902634Y-16328402D02*
X9883586Y-16337925D01*
X9883586Y-16337925D02*
X9864539Y-16337925D01*
X9864539Y-16337925D02*
X9845491Y-16328402D01*
X9845491Y-16328402D02*
X9835967Y-16318878D01*
X9835967Y-16318878D02*
X9826444Y-16299830D01*
X9826444Y-16299830D02*
X9816920Y-16261735D01*
X9816920Y-16261735D02*
X9816920Y-16214116D01*
X9816920Y-16214116D02*
X9826444Y-16176021D01*
X9826444Y-16176021D02*
X9835967Y-16156973D01*
X9835967Y-16156973D02*
X9845491Y-16147449D01*
X9845491Y-16147449D02*
X9864539Y-16137925D01*
X10016920Y-16337925D02*
X10016920Y-16204592D01*
X10016920Y-16223640D02*
X10026444Y-16214116D01*
X10026444Y-16214116D02*
X10045491Y-16204592D01*
X10045491Y-16204592D02*
X10074063Y-16204592D01*
X10074063Y-16204592D02*
X10093110Y-16214116D01*
X10093110Y-16214116D02*
X10102634Y-16233163D01*
X10102634Y-16233163D02*
X10102634Y-16337925D01*
X10102634Y-16233163D02*
X10112158Y-16214116D01*
X10112158Y-16214116D02*
X10131205Y-16204592D01*
X10131205Y-16204592D02*
X10159777Y-16204592D01*
X10159777Y-16204592D02*
X10178825Y-16214116D01*
X10178825Y-16214116D02*
X10188348Y-16233163D01*
X10188348Y-16233163D02*
X10188348Y-16337925D01*
X10283586Y-16337925D02*
X10283586Y-16204592D01*
X10283586Y-16223640D02*
X10293110Y-16214116D01*
X10293110Y-16214116D02*
X10312158Y-16204592D01*
X10312158Y-16204592D02*
X10340729Y-16204592D01*
X10340729Y-16204592D02*
X10359777Y-16214116D01*
X10359777Y-16214116D02*
X10369301Y-16233163D01*
X10369301Y-16233163D02*
X10369301Y-16337925D01*
X10369301Y-16233163D02*
X10378825Y-16214116D01*
X10378825Y-16214116D02*
X10397872Y-16204592D01*
X10397872Y-16204592D02*
X10426444Y-16204592D01*
X10426444Y-16204592D02*
X10445491Y-16214116D01*
X10445491Y-16214116D02*
X10455015Y-16233163D01*
X10455015Y-16233163D02*
X10455015Y-16337925D01*
X10845491Y-16128402D02*
X10674063Y-16385544D01*
X11102634Y-16137925D02*
X11121682Y-16137925D01*
X11121682Y-16137925D02*
X11140729Y-16147449D01*
X11140729Y-16147449D02*
X11150253Y-16156973D01*
X11150253Y-16156973D02*
X11159777Y-16176021D01*
X11159777Y-16176021D02*
X11169301Y-16214116D01*
X11169301Y-16214116D02*
X11169301Y-16261735D01*
X11169301Y-16261735D02*
X11159777Y-16299830D01*
X11159777Y-16299830D02*
X11150253Y-16318878D01*
X11150253Y-16318878D02*
X11140729Y-16328402D01*
X11140729Y-16328402D02*
X11121682Y-16337925D01*
X11121682Y-16337925D02*
X11102634Y-16337925D01*
X11102634Y-16337925D02*
X11083587Y-16328402D01*
X11083587Y-16328402D02*
X11074063Y-16318878D01*
X11074063Y-16318878D02*
X11064539Y-16299830D01*
X11064539Y-16299830D02*
X11055015Y-16261735D01*
X11055015Y-16261735D02*
X11055015Y-16214116D01*
X11055015Y-16214116D02*
X11064539Y-16176021D01*
X11064539Y-16176021D02*
X11074063Y-16156973D01*
X11074063Y-16156973D02*
X11083587Y-16147449D01*
X11083587Y-16147449D02*
X11102634Y-16137925D01*
X11255015Y-16318878D02*
X11264539Y-16328402D01*
X11264539Y-16328402D02*
X11255015Y-16337925D01*
X11255015Y-16337925D02*
X11245491Y-16328402D01*
X11245491Y-16328402D02*
X11255015Y-16318878D01*
X11255015Y-16318878D02*
X11255015Y-16337925D01*
X11388348Y-16137925D02*
X11407396Y-16137925D01*
X11407396Y-16137925D02*
X11426444Y-16147449D01*
X11426444Y-16147449D02*
X11435967Y-16156973D01*
X11435967Y-16156973D02*
X11445491Y-16176021D01*
X11445491Y-16176021D02*
X11455015Y-16214116D01*
X11455015Y-16214116D02*
X11455015Y-16261735D01*
X11455015Y-16261735D02*
X11445491Y-16299830D01*
X11445491Y-16299830D02*
X11435967Y-16318878D01*
X11435967Y-16318878D02*
X11426444Y-16328402D01*
X11426444Y-16328402D02*
X11407396Y-16337925D01*
X11407396Y-16337925D02*
X11388348Y-16337925D01*
X11388348Y-16337925D02*
X11369301Y-16328402D01*
X11369301Y-16328402D02*
X11359777Y-16318878D01*
X11359777Y-16318878D02*
X11350253Y-16299830D01*
X11350253Y-16299830D02*
X11340729Y-16261735D01*
X11340729Y-16261735D02*
X11340729Y-16214116D01*
X11340729Y-16214116D02*
X11350253Y-16176021D01*
X11350253Y-16176021D02*
X11359777Y-16156973D01*
X11359777Y-16156973D02*
X11369301Y-16147449D01*
X11369301Y-16147449D02*
X11388348Y-16137925D01*
X11521682Y-16137925D02*
X11645491Y-16137925D01*
X11645491Y-16137925D02*
X11578825Y-16214116D01*
X11578825Y-16214116D02*
X11607396Y-16214116D01*
X11607396Y-16214116D02*
X11626444Y-16223640D01*
X11626444Y-16223640D02*
X11635967Y-16233163D01*
X11635967Y-16233163D02*
X11645491Y-16252211D01*
X11645491Y-16252211D02*
X11645491Y-16299830D01*
X11645491Y-16299830D02*
X11635967Y-16318878D01*
X11635967Y-16318878D02*
X11626444Y-16328402D01*
X11626444Y-16328402D02*
X11607396Y-16337925D01*
X11607396Y-16337925D02*
X11550253Y-16337925D01*
X11550253Y-16337925D02*
X11531206Y-16328402D01*
X11531206Y-16328402D02*
X11521682Y-16318878D01*
X11835967Y-16337925D02*
X11721682Y-16337925D01*
X11778825Y-16337925D02*
X11778825Y-16137925D01*
X11778825Y-16137925D02*
X11759777Y-16166497D01*
X11759777Y-16166497D02*
X11740729Y-16185544D01*
X11740729Y-16185544D02*
X11721682Y-16195068D01*
X12016920Y-16137925D02*
X11921682Y-16137925D01*
X11921682Y-16137925D02*
X11912158Y-16233163D01*
X11912158Y-16233163D02*
X11921682Y-16223640D01*
X11921682Y-16223640D02*
X11940729Y-16214116D01*
X11940729Y-16214116D02*
X11988348Y-16214116D01*
X11988348Y-16214116D02*
X12007396Y-16223640D01*
X12007396Y-16223640D02*
X12016920Y-16233163D01*
X12016920Y-16233163D02*
X12026444Y-16252211D01*
X12026444Y-16252211D02*
X12026444Y-16299830D01*
X12026444Y-16299830D02*
X12016920Y-16318878D01*
X12016920Y-16318878D02*
X12007396Y-16328402D01*
X12007396Y-16328402D02*
X11988348Y-16337925D01*
X11988348Y-16337925D02*
X11940729Y-16337925D01*
X11940729Y-16337925D02*
X11921682Y-16328402D01*
X11921682Y-16328402D02*
X11912158Y-16318878D01*
X12102634Y-16137925D02*
X12102634Y-16176021D01*
X12178825Y-16137925D02*
X12178825Y-16176021D01*
X12474063Y-16414116D02*
X12464539Y-16404592D01*
X12464539Y-16404592D02*
X12445491Y-16376021D01*
X12445491Y-16376021D02*
X12435968Y-16356973D01*
X12435968Y-16356973D02*
X12426444Y-16328402D01*
X12426444Y-16328402D02*
X12416920Y-16280782D01*
X12416920Y-16280782D02*
X12416920Y-16242687D01*
X12416920Y-16242687D02*
X12426444Y-16195068D01*
X12426444Y-16195068D02*
X12435968Y-16166497D01*
X12435968Y-16166497D02*
X12445491Y-16147449D01*
X12445491Y-16147449D02*
X12464539Y-16118878D01*
X12464539Y-16118878D02*
X12474063Y-16109354D01*
X12540729Y-16156973D02*
X12550253Y-16147449D01*
X12550253Y-16147449D02*
X12569301Y-16137925D01*
X12569301Y-16137925D02*
X12616920Y-16137925D01*
X12616920Y-16137925D02*
X12635968Y-16147449D01*
X12635968Y-16147449D02*
X12645491Y-16156973D01*
X12645491Y-16156973D02*
X12655015Y-16176021D01*
X12655015Y-16176021D02*
X12655015Y-16195068D01*
X12655015Y-16195068D02*
X12645491Y-16223640D01*
X12645491Y-16223640D02*
X12531206Y-16337925D01*
X12531206Y-16337925D02*
X12655015Y-16337925D01*
X12893110Y-16337925D02*
X12893110Y-16137925D01*
X12978825Y-16337925D02*
X12978825Y-16233163D01*
X12978825Y-16233163D02*
X12969301Y-16214116D01*
X12969301Y-16214116D02*
X12950253Y-16204592D01*
X12950253Y-16204592D02*
X12921682Y-16204592D01*
X12921682Y-16204592D02*
X12902634Y-16214116D01*
X12902634Y-16214116D02*
X12893110Y-16223640D01*
X13102634Y-16337925D02*
X13083587Y-16328402D01*
X13083587Y-16328402D02*
X13074063Y-16318878D01*
X13074063Y-16318878D02*
X13064539Y-16299830D01*
X13064539Y-16299830D02*
X13064539Y-16242687D01*
X13064539Y-16242687D02*
X13074063Y-16223640D01*
X13074063Y-16223640D02*
X13083587Y-16214116D01*
X13083587Y-16214116D02*
X13102634Y-16204592D01*
X13102634Y-16204592D02*
X13131206Y-16204592D01*
X13131206Y-16204592D02*
X13150253Y-16214116D01*
X13150253Y-16214116D02*
X13159777Y-16223640D01*
X13159777Y-16223640D02*
X13169301Y-16242687D01*
X13169301Y-16242687D02*
X13169301Y-16299830D01*
X13169301Y-16299830D02*
X13159777Y-16318878D01*
X13159777Y-16318878D02*
X13150253Y-16328402D01*
X13150253Y-16328402D02*
X13131206Y-16337925D01*
X13131206Y-16337925D02*
X13102634Y-16337925D01*
X13283587Y-16337925D02*
X13264539Y-16328402D01*
X13264539Y-16328402D02*
X13255015Y-16309354D01*
X13255015Y-16309354D02*
X13255015Y-16137925D01*
X13435968Y-16328402D02*
X13416920Y-16337925D01*
X13416920Y-16337925D02*
X13378825Y-16337925D01*
X13378825Y-16337925D02*
X13359777Y-16328402D01*
X13359777Y-16328402D02*
X13350253Y-16309354D01*
X13350253Y-16309354D02*
X13350253Y-16233163D01*
X13350253Y-16233163D02*
X13359777Y-16214116D01*
X13359777Y-16214116D02*
X13378825Y-16204592D01*
X13378825Y-16204592D02*
X13416920Y-16204592D01*
X13416920Y-16204592D02*
X13435968Y-16214116D01*
X13435968Y-16214116D02*
X13445491Y-16233163D01*
X13445491Y-16233163D02*
X13445491Y-16252211D01*
X13445491Y-16252211D02*
X13350253Y-16271259D01*
X13521682Y-16328402D02*
X13540730Y-16337925D01*
X13540730Y-16337925D02*
X13578825Y-16337925D01*
X13578825Y-16337925D02*
X13597872Y-16328402D01*
X13597872Y-16328402D02*
X13607396Y-16309354D01*
X13607396Y-16309354D02*
X13607396Y-16299830D01*
X13607396Y-16299830D02*
X13597872Y-16280782D01*
X13597872Y-16280782D02*
X13578825Y-16271259D01*
X13578825Y-16271259D02*
X13550253Y-16271259D01*
X13550253Y-16271259D02*
X13531206Y-16261735D01*
X13531206Y-16261735D02*
X13521682Y-16242687D01*
X13521682Y-16242687D02*
X13521682Y-16233163D01*
X13521682Y-16233163D02*
X13531206Y-16214116D01*
X13531206Y-16214116D02*
X13550253Y-16204592D01*
X13550253Y-16204592D02*
X13578825Y-16204592D01*
X13578825Y-16204592D02*
X13597872Y-16214116D01*
X13674063Y-16414116D02*
X13683587Y-16404592D01*
X13683587Y-16404592D02*
X13702634Y-16376021D01*
X13702634Y-16376021D02*
X13712158Y-16356973D01*
X13712158Y-16356973D02*
X13721682Y-16328402D01*
X13721682Y-16328402D02*
X13731206Y-16280782D01*
X13731206Y-16280782D02*
X13731206Y-16242687D01*
X13731206Y-16242687D02*
X13721682Y-16195068D01*
X13721682Y-16195068D02*
X13712158Y-16166497D01*
X13712158Y-16166497D02*
X13702634Y-16147449D01*
X13702634Y-16147449D02*
X13683587Y-16118878D01*
X13683587Y-16118878D02*
X13674063Y-16109354D01*
D16*
X8809000Y-16465442D02*
X8899000Y-16555442D01*
X8899000Y-16465442D02*
X8809000Y-16555442D01*
X8899000Y-16510442D02*
G75*
G03*
X8899000Y-16510442I-45000J0D01*
G01*
D11*
X9197872Y-16401925D02*
X9216920Y-16401925D01*
X9216920Y-16401925D02*
X9235967Y-16411449D01*
X9235967Y-16411449D02*
X9245491Y-16420973D01*
X9245491Y-16420973D02*
X9255015Y-16440021D01*
X9255015Y-16440021D02*
X9264539Y-16478116D01*
X9264539Y-16478116D02*
X9264539Y-16525735D01*
X9264539Y-16525735D02*
X9255015Y-16563830D01*
X9255015Y-16563830D02*
X9245491Y-16582878D01*
X9245491Y-16582878D02*
X9235967Y-16592402D01*
X9235967Y-16592402D02*
X9216920Y-16601925D01*
X9216920Y-16601925D02*
X9197872Y-16601925D01*
X9197872Y-16601925D02*
X9178824Y-16592402D01*
X9178824Y-16592402D02*
X9169301Y-16582878D01*
X9169301Y-16582878D02*
X9159777Y-16563830D01*
X9159777Y-16563830D02*
X9150253Y-16525735D01*
X9150253Y-16525735D02*
X9150253Y-16478116D01*
X9150253Y-16478116D02*
X9159777Y-16440021D01*
X9159777Y-16440021D02*
X9169301Y-16420973D01*
X9169301Y-16420973D02*
X9178824Y-16411449D01*
X9178824Y-16411449D02*
X9197872Y-16401925D01*
X9350253Y-16582878D02*
X9359777Y-16592402D01*
X9359777Y-16592402D02*
X9350253Y-16601925D01*
X9350253Y-16601925D02*
X9340729Y-16592402D01*
X9340729Y-16592402D02*
X9350253Y-16582878D01*
X9350253Y-16582878D02*
X9350253Y-16601925D01*
X9455015Y-16601925D02*
X9493110Y-16601925D01*
X9493110Y-16601925D02*
X9512158Y-16592402D01*
X9512158Y-16592402D02*
X9521682Y-16582878D01*
X9521682Y-16582878D02*
X9540729Y-16554306D01*
X9540729Y-16554306D02*
X9550253Y-16516211D01*
X9550253Y-16516211D02*
X9550253Y-16440021D01*
X9550253Y-16440021D02*
X9540729Y-16420973D01*
X9540729Y-16420973D02*
X9531205Y-16411449D01*
X9531205Y-16411449D02*
X9512158Y-16401925D01*
X9512158Y-16401925D02*
X9474063Y-16401925D01*
X9474063Y-16401925D02*
X9455015Y-16411449D01*
X9455015Y-16411449D02*
X9445491Y-16420973D01*
X9445491Y-16420973D02*
X9435967Y-16440021D01*
X9435967Y-16440021D02*
X9435967Y-16487640D01*
X9435967Y-16487640D02*
X9445491Y-16506687D01*
X9445491Y-16506687D02*
X9455015Y-16516211D01*
X9455015Y-16516211D02*
X9474063Y-16525735D01*
X9474063Y-16525735D02*
X9512158Y-16525735D01*
X9512158Y-16525735D02*
X9531205Y-16516211D01*
X9531205Y-16516211D02*
X9540729Y-16506687D01*
X9540729Y-16506687D02*
X9550253Y-16487640D01*
X9674063Y-16401925D02*
X9693110Y-16401925D01*
X9693110Y-16401925D02*
X9712158Y-16411449D01*
X9712158Y-16411449D02*
X9721682Y-16420973D01*
X9721682Y-16420973D02*
X9731205Y-16440021D01*
X9731205Y-16440021D02*
X9740729Y-16478116D01*
X9740729Y-16478116D02*
X9740729Y-16525735D01*
X9740729Y-16525735D02*
X9731205Y-16563830D01*
X9731205Y-16563830D02*
X9721682Y-16582878D01*
X9721682Y-16582878D02*
X9712158Y-16592402D01*
X9712158Y-16592402D02*
X9693110Y-16601925D01*
X9693110Y-16601925D02*
X9674063Y-16601925D01*
X9674063Y-16601925D02*
X9655015Y-16592402D01*
X9655015Y-16592402D02*
X9645491Y-16582878D01*
X9645491Y-16582878D02*
X9635967Y-16563830D01*
X9635967Y-16563830D02*
X9626444Y-16525735D01*
X9626444Y-16525735D02*
X9626444Y-16478116D01*
X9626444Y-16478116D02*
X9635967Y-16440021D01*
X9635967Y-16440021D02*
X9645491Y-16420973D01*
X9645491Y-16420973D02*
X9655015Y-16411449D01*
X9655015Y-16411449D02*
X9674063Y-16401925D01*
X9864539Y-16401925D02*
X9883586Y-16401925D01*
X9883586Y-16401925D02*
X9902634Y-16411449D01*
X9902634Y-16411449D02*
X9912158Y-16420973D01*
X9912158Y-16420973D02*
X9921682Y-16440021D01*
X9921682Y-16440021D02*
X9931205Y-16478116D01*
X9931205Y-16478116D02*
X9931205Y-16525735D01*
X9931205Y-16525735D02*
X9921682Y-16563830D01*
X9921682Y-16563830D02*
X9912158Y-16582878D01*
X9912158Y-16582878D02*
X9902634Y-16592402D01*
X9902634Y-16592402D02*
X9883586Y-16601925D01*
X9883586Y-16601925D02*
X9864539Y-16601925D01*
X9864539Y-16601925D02*
X9845491Y-16592402D01*
X9845491Y-16592402D02*
X9835967Y-16582878D01*
X9835967Y-16582878D02*
X9826444Y-16563830D01*
X9826444Y-16563830D02*
X9816920Y-16525735D01*
X9816920Y-16525735D02*
X9816920Y-16478116D01*
X9816920Y-16478116D02*
X9826444Y-16440021D01*
X9826444Y-16440021D02*
X9835967Y-16420973D01*
X9835967Y-16420973D02*
X9845491Y-16411449D01*
X9845491Y-16411449D02*
X9864539Y-16401925D01*
X10016920Y-16601925D02*
X10016920Y-16468592D01*
X10016920Y-16487640D02*
X10026444Y-16478116D01*
X10026444Y-16478116D02*
X10045491Y-16468592D01*
X10045491Y-16468592D02*
X10074063Y-16468592D01*
X10074063Y-16468592D02*
X10093110Y-16478116D01*
X10093110Y-16478116D02*
X10102634Y-16497163D01*
X10102634Y-16497163D02*
X10102634Y-16601925D01*
X10102634Y-16497163D02*
X10112158Y-16478116D01*
X10112158Y-16478116D02*
X10131205Y-16468592D01*
X10131205Y-16468592D02*
X10159777Y-16468592D01*
X10159777Y-16468592D02*
X10178825Y-16478116D01*
X10178825Y-16478116D02*
X10188348Y-16497163D01*
X10188348Y-16497163D02*
X10188348Y-16601925D01*
X10283586Y-16601925D02*
X10283586Y-16468592D01*
X10283586Y-16487640D02*
X10293110Y-16478116D01*
X10293110Y-16478116D02*
X10312158Y-16468592D01*
X10312158Y-16468592D02*
X10340729Y-16468592D01*
X10340729Y-16468592D02*
X10359777Y-16478116D01*
X10359777Y-16478116D02*
X10369301Y-16497163D01*
X10369301Y-16497163D02*
X10369301Y-16601925D01*
X10369301Y-16497163D02*
X10378825Y-16478116D01*
X10378825Y-16478116D02*
X10397872Y-16468592D01*
X10397872Y-16468592D02*
X10426444Y-16468592D01*
X10426444Y-16468592D02*
X10445491Y-16478116D01*
X10445491Y-16478116D02*
X10455015Y-16497163D01*
X10455015Y-16497163D02*
X10455015Y-16601925D01*
X10845491Y-16392402D02*
X10674063Y-16649544D01*
X11102634Y-16401925D02*
X11121682Y-16401925D01*
X11121682Y-16401925D02*
X11140729Y-16411449D01*
X11140729Y-16411449D02*
X11150253Y-16420973D01*
X11150253Y-16420973D02*
X11159777Y-16440021D01*
X11159777Y-16440021D02*
X11169301Y-16478116D01*
X11169301Y-16478116D02*
X11169301Y-16525735D01*
X11169301Y-16525735D02*
X11159777Y-16563830D01*
X11159777Y-16563830D02*
X11150253Y-16582878D01*
X11150253Y-16582878D02*
X11140729Y-16592402D01*
X11140729Y-16592402D02*
X11121682Y-16601925D01*
X11121682Y-16601925D02*
X11102634Y-16601925D01*
X11102634Y-16601925D02*
X11083587Y-16592402D01*
X11083587Y-16592402D02*
X11074063Y-16582878D01*
X11074063Y-16582878D02*
X11064539Y-16563830D01*
X11064539Y-16563830D02*
X11055015Y-16525735D01*
X11055015Y-16525735D02*
X11055015Y-16478116D01*
X11055015Y-16478116D02*
X11064539Y-16440021D01*
X11064539Y-16440021D02*
X11074063Y-16420973D01*
X11074063Y-16420973D02*
X11083587Y-16411449D01*
X11083587Y-16411449D02*
X11102634Y-16401925D01*
X11255015Y-16582878D02*
X11264539Y-16592402D01*
X11264539Y-16592402D02*
X11255015Y-16601925D01*
X11255015Y-16601925D02*
X11245491Y-16592402D01*
X11245491Y-16592402D02*
X11255015Y-16582878D01*
X11255015Y-16582878D02*
X11255015Y-16601925D01*
X11388348Y-16401925D02*
X11407396Y-16401925D01*
X11407396Y-16401925D02*
X11426444Y-16411449D01*
X11426444Y-16411449D02*
X11435967Y-16420973D01*
X11435967Y-16420973D02*
X11445491Y-16440021D01*
X11445491Y-16440021D02*
X11455015Y-16478116D01*
X11455015Y-16478116D02*
X11455015Y-16525735D01*
X11455015Y-16525735D02*
X11445491Y-16563830D01*
X11445491Y-16563830D02*
X11435967Y-16582878D01*
X11435967Y-16582878D02*
X11426444Y-16592402D01*
X11426444Y-16592402D02*
X11407396Y-16601925D01*
X11407396Y-16601925D02*
X11388348Y-16601925D01*
X11388348Y-16601925D02*
X11369301Y-16592402D01*
X11369301Y-16592402D02*
X11359777Y-16582878D01*
X11359777Y-16582878D02*
X11350253Y-16563830D01*
X11350253Y-16563830D02*
X11340729Y-16525735D01*
X11340729Y-16525735D02*
X11340729Y-16478116D01*
X11340729Y-16478116D02*
X11350253Y-16440021D01*
X11350253Y-16440021D02*
X11359777Y-16420973D01*
X11359777Y-16420973D02*
X11369301Y-16411449D01*
X11369301Y-16411449D02*
X11388348Y-16401925D01*
X11521682Y-16401925D02*
X11645491Y-16401925D01*
X11645491Y-16401925D02*
X11578825Y-16478116D01*
X11578825Y-16478116D02*
X11607396Y-16478116D01*
X11607396Y-16478116D02*
X11626444Y-16487640D01*
X11626444Y-16487640D02*
X11635967Y-16497163D01*
X11635967Y-16497163D02*
X11645491Y-16516211D01*
X11645491Y-16516211D02*
X11645491Y-16563830D01*
X11645491Y-16563830D02*
X11635967Y-16582878D01*
X11635967Y-16582878D02*
X11626444Y-16592402D01*
X11626444Y-16592402D02*
X11607396Y-16601925D01*
X11607396Y-16601925D02*
X11550253Y-16601925D01*
X11550253Y-16601925D02*
X11531206Y-16592402D01*
X11531206Y-16592402D02*
X11521682Y-16582878D01*
X11826444Y-16401925D02*
X11731206Y-16401925D01*
X11731206Y-16401925D02*
X11721682Y-16497163D01*
X11721682Y-16497163D02*
X11731206Y-16487640D01*
X11731206Y-16487640D02*
X11750253Y-16478116D01*
X11750253Y-16478116D02*
X11797872Y-16478116D01*
X11797872Y-16478116D02*
X11816920Y-16487640D01*
X11816920Y-16487640D02*
X11826444Y-16497163D01*
X11826444Y-16497163D02*
X11835967Y-16516211D01*
X11835967Y-16516211D02*
X11835967Y-16563830D01*
X11835967Y-16563830D02*
X11826444Y-16582878D01*
X11826444Y-16582878D02*
X11816920Y-16592402D01*
X11816920Y-16592402D02*
X11797872Y-16601925D01*
X11797872Y-16601925D02*
X11750253Y-16601925D01*
X11750253Y-16601925D02*
X11731206Y-16592402D01*
X11731206Y-16592402D02*
X11721682Y-16582878D01*
X12007396Y-16468592D02*
X12007396Y-16601925D01*
X11959777Y-16392402D02*
X11912158Y-16535259D01*
X11912158Y-16535259D02*
X12035967Y-16535259D01*
X12102634Y-16401925D02*
X12102634Y-16440021D01*
X12178825Y-16401925D02*
X12178825Y-16440021D01*
X12474063Y-16678116D02*
X12464539Y-16668592D01*
X12464539Y-16668592D02*
X12445491Y-16640021D01*
X12445491Y-16640021D02*
X12435968Y-16620973D01*
X12435968Y-16620973D02*
X12426444Y-16592402D01*
X12426444Y-16592402D02*
X12416920Y-16544782D01*
X12416920Y-16544782D02*
X12416920Y-16506687D01*
X12416920Y-16506687D02*
X12426444Y-16459068D01*
X12426444Y-16459068D02*
X12435968Y-16430497D01*
X12435968Y-16430497D02*
X12445491Y-16411449D01*
X12445491Y-16411449D02*
X12464539Y-16382878D01*
X12464539Y-16382878D02*
X12474063Y-16373354D01*
X12655015Y-16601925D02*
X12540729Y-16601925D01*
X12597872Y-16601925D02*
X12597872Y-16401925D01*
X12597872Y-16401925D02*
X12578825Y-16430497D01*
X12578825Y-16430497D02*
X12559777Y-16449544D01*
X12559777Y-16449544D02*
X12540729Y-16459068D01*
X12826444Y-16401925D02*
X12788348Y-16401925D01*
X12788348Y-16401925D02*
X12769301Y-16411449D01*
X12769301Y-16411449D02*
X12759777Y-16420973D01*
X12759777Y-16420973D02*
X12740729Y-16449544D01*
X12740729Y-16449544D02*
X12731206Y-16487640D01*
X12731206Y-16487640D02*
X12731206Y-16563830D01*
X12731206Y-16563830D02*
X12740729Y-16582878D01*
X12740729Y-16582878D02*
X12750253Y-16592402D01*
X12750253Y-16592402D02*
X12769301Y-16601925D01*
X12769301Y-16601925D02*
X12807396Y-16601925D01*
X12807396Y-16601925D02*
X12826444Y-16592402D01*
X12826444Y-16592402D02*
X12835968Y-16582878D01*
X12835968Y-16582878D02*
X12845491Y-16563830D01*
X12845491Y-16563830D02*
X12845491Y-16516211D01*
X12845491Y-16516211D02*
X12835968Y-16497163D01*
X12835968Y-16497163D02*
X12826444Y-16487640D01*
X12826444Y-16487640D02*
X12807396Y-16478116D01*
X12807396Y-16478116D02*
X12769301Y-16478116D01*
X12769301Y-16478116D02*
X12750253Y-16487640D01*
X12750253Y-16487640D02*
X12740729Y-16497163D01*
X12740729Y-16497163D02*
X12731206Y-16516211D01*
X13083587Y-16601925D02*
X13083587Y-16401925D01*
X13169301Y-16601925D02*
X13169301Y-16497163D01*
X13169301Y-16497163D02*
X13159777Y-16478116D01*
X13159777Y-16478116D02*
X13140730Y-16468592D01*
X13140730Y-16468592D02*
X13112158Y-16468592D01*
X13112158Y-16468592D02*
X13093110Y-16478116D01*
X13093110Y-16478116D02*
X13083587Y-16487640D01*
X13293110Y-16601925D02*
X13274063Y-16592402D01*
X13274063Y-16592402D02*
X13264539Y-16582878D01*
X13264539Y-16582878D02*
X13255015Y-16563830D01*
X13255015Y-16563830D02*
X13255015Y-16506687D01*
X13255015Y-16506687D02*
X13264539Y-16487640D01*
X13264539Y-16487640D02*
X13274063Y-16478116D01*
X13274063Y-16478116D02*
X13293110Y-16468592D01*
X13293110Y-16468592D02*
X13321682Y-16468592D01*
X13321682Y-16468592D02*
X13340730Y-16478116D01*
X13340730Y-16478116D02*
X13350253Y-16487640D01*
X13350253Y-16487640D02*
X13359777Y-16506687D01*
X13359777Y-16506687D02*
X13359777Y-16563830D01*
X13359777Y-16563830D02*
X13350253Y-16582878D01*
X13350253Y-16582878D02*
X13340730Y-16592402D01*
X13340730Y-16592402D02*
X13321682Y-16601925D01*
X13321682Y-16601925D02*
X13293110Y-16601925D01*
X13474063Y-16601925D02*
X13455015Y-16592402D01*
X13455015Y-16592402D02*
X13445491Y-16573354D01*
X13445491Y-16573354D02*
X13445491Y-16401925D01*
X13626444Y-16592402D02*
X13607396Y-16601925D01*
X13607396Y-16601925D02*
X13569301Y-16601925D01*
X13569301Y-16601925D02*
X13550253Y-16592402D01*
X13550253Y-16592402D02*
X13540730Y-16573354D01*
X13540730Y-16573354D02*
X13540730Y-16497163D01*
X13540730Y-16497163D02*
X13550253Y-16478116D01*
X13550253Y-16478116D02*
X13569301Y-16468592D01*
X13569301Y-16468592D02*
X13607396Y-16468592D01*
X13607396Y-16468592D02*
X13626444Y-16478116D01*
X13626444Y-16478116D02*
X13635968Y-16497163D01*
X13635968Y-16497163D02*
X13635968Y-16516211D01*
X13635968Y-16516211D02*
X13540730Y-16535259D01*
X13712158Y-16592402D02*
X13731206Y-16601925D01*
X13731206Y-16601925D02*
X13769301Y-16601925D01*
X13769301Y-16601925D02*
X13788349Y-16592402D01*
X13788349Y-16592402D02*
X13797872Y-16573354D01*
X13797872Y-16573354D02*
X13797872Y-16563830D01*
X13797872Y-16563830D02*
X13788349Y-16544782D01*
X13788349Y-16544782D02*
X13769301Y-16535259D01*
X13769301Y-16535259D02*
X13740730Y-16535259D01*
X13740730Y-16535259D02*
X13721682Y-16525735D01*
X13721682Y-16525735D02*
X13712158Y-16506687D01*
X13712158Y-16506687D02*
X13712158Y-16497163D01*
X13712158Y-16497163D02*
X13721682Y-16478116D01*
X13721682Y-16478116D02*
X13740730Y-16468592D01*
X13740730Y-16468592D02*
X13769301Y-16468592D01*
X13769301Y-16468592D02*
X13788349Y-16478116D01*
X13864539Y-16678116D02*
X13874063Y-16668592D01*
X13874063Y-16668592D02*
X13893111Y-16640021D01*
X13893111Y-16640021D02*
X13902634Y-16620973D01*
X13902634Y-16620973D02*
X13912158Y-16592402D01*
X13912158Y-16592402D02*
X13921682Y-16544782D01*
X13921682Y-16544782D02*
X13921682Y-16506687D01*
X13921682Y-16506687D02*
X13912158Y-16459068D01*
X13912158Y-16459068D02*
X13902634Y-16430497D01*
X13902634Y-16430497D02*
X13893111Y-16411449D01*
X13893111Y-16411449D02*
X13874063Y-16382878D01*
X13874063Y-16382878D02*
X13864539Y-16373354D01*
D17*
X8804000Y-16726942D02*
X8899000Y-16821942D01*
X8899000Y-16726942D02*
X8804000Y-16821942D01*
X8851500Y-16726942D02*
X8851500Y-16821942D01*
X8804000Y-16774442D02*
X8899000Y-16774442D01*
D11*
X9197872Y-16665925D02*
X9216920Y-16665925D01*
X9216920Y-16665925D02*
X9235967Y-16675449D01*
X9235967Y-16675449D02*
X9245491Y-16684973D01*
X9245491Y-16684973D02*
X9255015Y-16704021D01*
X9255015Y-16704021D02*
X9264539Y-16742116D01*
X9264539Y-16742116D02*
X9264539Y-16789735D01*
X9264539Y-16789735D02*
X9255015Y-16827830D01*
X9255015Y-16827830D02*
X9245491Y-16846878D01*
X9245491Y-16846878D02*
X9235967Y-16856402D01*
X9235967Y-16856402D02*
X9216920Y-16865925D01*
X9216920Y-16865925D02*
X9197872Y-16865925D01*
X9197872Y-16865925D02*
X9178824Y-16856402D01*
X9178824Y-16856402D02*
X9169301Y-16846878D01*
X9169301Y-16846878D02*
X9159777Y-16827830D01*
X9159777Y-16827830D02*
X9150253Y-16789735D01*
X9150253Y-16789735D02*
X9150253Y-16742116D01*
X9150253Y-16742116D02*
X9159777Y-16704021D01*
X9159777Y-16704021D02*
X9169301Y-16684973D01*
X9169301Y-16684973D02*
X9178824Y-16675449D01*
X9178824Y-16675449D02*
X9197872Y-16665925D01*
X9350253Y-16846878D02*
X9359777Y-16856402D01*
X9359777Y-16856402D02*
X9350253Y-16865925D01*
X9350253Y-16865925D02*
X9340729Y-16856402D01*
X9340729Y-16856402D02*
X9350253Y-16846878D01*
X9350253Y-16846878D02*
X9350253Y-16865925D01*
X9455015Y-16865925D02*
X9493110Y-16865925D01*
X9493110Y-16865925D02*
X9512158Y-16856402D01*
X9512158Y-16856402D02*
X9521682Y-16846878D01*
X9521682Y-16846878D02*
X9540729Y-16818306D01*
X9540729Y-16818306D02*
X9550253Y-16780211D01*
X9550253Y-16780211D02*
X9550253Y-16704021D01*
X9550253Y-16704021D02*
X9540729Y-16684973D01*
X9540729Y-16684973D02*
X9531205Y-16675449D01*
X9531205Y-16675449D02*
X9512158Y-16665925D01*
X9512158Y-16665925D02*
X9474063Y-16665925D01*
X9474063Y-16665925D02*
X9455015Y-16675449D01*
X9455015Y-16675449D02*
X9445491Y-16684973D01*
X9445491Y-16684973D02*
X9435967Y-16704021D01*
X9435967Y-16704021D02*
X9435967Y-16751640D01*
X9435967Y-16751640D02*
X9445491Y-16770687D01*
X9445491Y-16770687D02*
X9455015Y-16780211D01*
X9455015Y-16780211D02*
X9474063Y-16789735D01*
X9474063Y-16789735D02*
X9512158Y-16789735D01*
X9512158Y-16789735D02*
X9531205Y-16780211D01*
X9531205Y-16780211D02*
X9540729Y-16770687D01*
X9540729Y-16770687D02*
X9550253Y-16751640D01*
X9731205Y-16665925D02*
X9635967Y-16665925D01*
X9635967Y-16665925D02*
X9626444Y-16761163D01*
X9626444Y-16761163D02*
X9635967Y-16751640D01*
X9635967Y-16751640D02*
X9655015Y-16742116D01*
X9655015Y-16742116D02*
X9702634Y-16742116D01*
X9702634Y-16742116D02*
X9721682Y-16751640D01*
X9721682Y-16751640D02*
X9731205Y-16761163D01*
X9731205Y-16761163D02*
X9740729Y-16780211D01*
X9740729Y-16780211D02*
X9740729Y-16827830D01*
X9740729Y-16827830D02*
X9731205Y-16846878D01*
X9731205Y-16846878D02*
X9721682Y-16856402D01*
X9721682Y-16856402D02*
X9702634Y-16865925D01*
X9702634Y-16865925D02*
X9655015Y-16865925D01*
X9655015Y-16865925D02*
X9635967Y-16856402D01*
X9635967Y-16856402D02*
X9626444Y-16846878D01*
X9864539Y-16665925D02*
X9883586Y-16665925D01*
X9883586Y-16665925D02*
X9902634Y-16675449D01*
X9902634Y-16675449D02*
X9912158Y-16684973D01*
X9912158Y-16684973D02*
X9921682Y-16704021D01*
X9921682Y-16704021D02*
X9931205Y-16742116D01*
X9931205Y-16742116D02*
X9931205Y-16789735D01*
X9931205Y-16789735D02*
X9921682Y-16827830D01*
X9921682Y-16827830D02*
X9912158Y-16846878D01*
X9912158Y-16846878D02*
X9902634Y-16856402D01*
X9902634Y-16856402D02*
X9883586Y-16865925D01*
X9883586Y-16865925D02*
X9864539Y-16865925D01*
X9864539Y-16865925D02*
X9845491Y-16856402D01*
X9845491Y-16856402D02*
X9835967Y-16846878D01*
X9835967Y-16846878D02*
X9826444Y-16827830D01*
X9826444Y-16827830D02*
X9816920Y-16789735D01*
X9816920Y-16789735D02*
X9816920Y-16742116D01*
X9816920Y-16742116D02*
X9826444Y-16704021D01*
X9826444Y-16704021D02*
X9835967Y-16684973D01*
X9835967Y-16684973D02*
X9845491Y-16675449D01*
X9845491Y-16675449D02*
X9864539Y-16665925D01*
X10016920Y-16865925D02*
X10016920Y-16732592D01*
X10016920Y-16751640D02*
X10026444Y-16742116D01*
X10026444Y-16742116D02*
X10045491Y-16732592D01*
X10045491Y-16732592D02*
X10074063Y-16732592D01*
X10074063Y-16732592D02*
X10093110Y-16742116D01*
X10093110Y-16742116D02*
X10102634Y-16761163D01*
X10102634Y-16761163D02*
X10102634Y-16865925D01*
X10102634Y-16761163D02*
X10112158Y-16742116D01*
X10112158Y-16742116D02*
X10131205Y-16732592D01*
X10131205Y-16732592D02*
X10159777Y-16732592D01*
X10159777Y-16732592D02*
X10178825Y-16742116D01*
X10178825Y-16742116D02*
X10188348Y-16761163D01*
X10188348Y-16761163D02*
X10188348Y-16865925D01*
X10283586Y-16865925D02*
X10283586Y-16732592D01*
X10283586Y-16751640D02*
X10293110Y-16742116D01*
X10293110Y-16742116D02*
X10312158Y-16732592D01*
X10312158Y-16732592D02*
X10340729Y-16732592D01*
X10340729Y-16732592D02*
X10359777Y-16742116D01*
X10359777Y-16742116D02*
X10369301Y-16761163D01*
X10369301Y-16761163D02*
X10369301Y-16865925D01*
X10369301Y-16761163D02*
X10378825Y-16742116D01*
X10378825Y-16742116D02*
X10397872Y-16732592D01*
X10397872Y-16732592D02*
X10426444Y-16732592D01*
X10426444Y-16732592D02*
X10445491Y-16742116D01*
X10445491Y-16742116D02*
X10455015Y-16761163D01*
X10455015Y-16761163D02*
X10455015Y-16865925D01*
X10845491Y-16656402D02*
X10674063Y-16913544D01*
X11102634Y-16665925D02*
X11121682Y-16665925D01*
X11121682Y-16665925D02*
X11140729Y-16675449D01*
X11140729Y-16675449D02*
X11150253Y-16684973D01*
X11150253Y-16684973D02*
X11159777Y-16704021D01*
X11159777Y-16704021D02*
X11169301Y-16742116D01*
X11169301Y-16742116D02*
X11169301Y-16789735D01*
X11169301Y-16789735D02*
X11159777Y-16827830D01*
X11159777Y-16827830D02*
X11150253Y-16846878D01*
X11150253Y-16846878D02*
X11140729Y-16856402D01*
X11140729Y-16856402D02*
X11121682Y-16865925D01*
X11121682Y-16865925D02*
X11102634Y-16865925D01*
X11102634Y-16865925D02*
X11083587Y-16856402D01*
X11083587Y-16856402D02*
X11074063Y-16846878D01*
X11074063Y-16846878D02*
X11064539Y-16827830D01*
X11064539Y-16827830D02*
X11055015Y-16789735D01*
X11055015Y-16789735D02*
X11055015Y-16742116D01*
X11055015Y-16742116D02*
X11064539Y-16704021D01*
X11064539Y-16704021D02*
X11074063Y-16684973D01*
X11074063Y-16684973D02*
X11083587Y-16675449D01*
X11083587Y-16675449D02*
X11102634Y-16665925D01*
X11255015Y-16846878D02*
X11264539Y-16856402D01*
X11264539Y-16856402D02*
X11255015Y-16865925D01*
X11255015Y-16865925D02*
X11245491Y-16856402D01*
X11245491Y-16856402D02*
X11255015Y-16846878D01*
X11255015Y-16846878D02*
X11255015Y-16865925D01*
X11388348Y-16665925D02*
X11407396Y-16665925D01*
X11407396Y-16665925D02*
X11426444Y-16675449D01*
X11426444Y-16675449D02*
X11435967Y-16684973D01*
X11435967Y-16684973D02*
X11445491Y-16704021D01*
X11445491Y-16704021D02*
X11455015Y-16742116D01*
X11455015Y-16742116D02*
X11455015Y-16789735D01*
X11455015Y-16789735D02*
X11445491Y-16827830D01*
X11445491Y-16827830D02*
X11435967Y-16846878D01*
X11435967Y-16846878D02*
X11426444Y-16856402D01*
X11426444Y-16856402D02*
X11407396Y-16865925D01*
X11407396Y-16865925D02*
X11388348Y-16865925D01*
X11388348Y-16865925D02*
X11369301Y-16856402D01*
X11369301Y-16856402D02*
X11359777Y-16846878D01*
X11359777Y-16846878D02*
X11350253Y-16827830D01*
X11350253Y-16827830D02*
X11340729Y-16789735D01*
X11340729Y-16789735D02*
X11340729Y-16742116D01*
X11340729Y-16742116D02*
X11350253Y-16704021D01*
X11350253Y-16704021D02*
X11359777Y-16684973D01*
X11359777Y-16684973D02*
X11369301Y-16675449D01*
X11369301Y-16675449D02*
X11388348Y-16665925D01*
X11521682Y-16665925D02*
X11645491Y-16665925D01*
X11645491Y-16665925D02*
X11578825Y-16742116D01*
X11578825Y-16742116D02*
X11607396Y-16742116D01*
X11607396Y-16742116D02*
X11626444Y-16751640D01*
X11626444Y-16751640D02*
X11635967Y-16761163D01*
X11635967Y-16761163D02*
X11645491Y-16780211D01*
X11645491Y-16780211D02*
X11645491Y-16827830D01*
X11645491Y-16827830D02*
X11635967Y-16846878D01*
X11635967Y-16846878D02*
X11626444Y-16856402D01*
X11626444Y-16856402D02*
X11607396Y-16865925D01*
X11607396Y-16865925D02*
X11550253Y-16865925D01*
X11550253Y-16865925D02*
X11531206Y-16856402D01*
X11531206Y-16856402D02*
X11521682Y-16846878D01*
X11712158Y-16665925D02*
X11845491Y-16665925D01*
X11845491Y-16665925D02*
X11759777Y-16865925D01*
X12007396Y-16732592D02*
X12007396Y-16865925D01*
X11959777Y-16656402D02*
X11912158Y-16799259D01*
X11912158Y-16799259D02*
X12035967Y-16799259D01*
X12102634Y-16665925D02*
X12102634Y-16704021D01*
X12178825Y-16665925D02*
X12178825Y-16704021D01*
X12474063Y-16942116D02*
X12464539Y-16932592D01*
X12464539Y-16932592D02*
X12445491Y-16904021D01*
X12445491Y-16904021D02*
X12435968Y-16884973D01*
X12435968Y-16884973D02*
X12426444Y-16856402D01*
X12426444Y-16856402D02*
X12416920Y-16808783D01*
X12416920Y-16808783D02*
X12416920Y-16770687D01*
X12416920Y-16770687D02*
X12426444Y-16723068D01*
X12426444Y-16723068D02*
X12435968Y-16694497D01*
X12435968Y-16694497D02*
X12445491Y-16675449D01*
X12445491Y-16675449D02*
X12464539Y-16646878D01*
X12464539Y-16646878D02*
X12474063Y-16637354D01*
X12655015Y-16865925D02*
X12540729Y-16865925D01*
X12597872Y-16865925D02*
X12597872Y-16665925D01*
X12597872Y-16665925D02*
X12578825Y-16694497D01*
X12578825Y-16694497D02*
X12559777Y-16713544D01*
X12559777Y-16713544D02*
X12540729Y-16723068D01*
X12731206Y-16684973D02*
X12740729Y-16675449D01*
X12740729Y-16675449D02*
X12759777Y-16665925D01*
X12759777Y-16665925D02*
X12807396Y-16665925D01*
X12807396Y-16665925D02*
X12826444Y-16675449D01*
X12826444Y-16675449D02*
X12835968Y-16684973D01*
X12835968Y-16684973D02*
X12845491Y-16704021D01*
X12845491Y-16704021D02*
X12845491Y-16723068D01*
X12845491Y-16723068D02*
X12835968Y-16751640D01*
X12835968Y-16751640D02*
X12721682Y-16865925D01*
X12721682Y-16865925D02*
X12845491Y-16865925D01*
X13083587Y-16865925D02*
X13083587Y-16665925D01*
X13169301Y-16865925D02*
X13169301Y-16761163D01*
X13169301Y-16761163D02*
X13159777Y-16742116D01*
X13159777Y-16742116D02*
X13140730Y-16732592D01*
X13140730Y-16732592D02*
X13112158Y-16732592D01*
X13112158Y-16732592D02*
X13093110Y-16742116D01*
X13093110Y-16742116D02*
X13083587Y-16751640D01*
X13293110Y-16865925D02*
X13274063Y-16856402D01*
X13274063Y-16856402D02*
X13264539Y-16846878D01*
X13264539Y-16846878D02*
X13255015Y-16827830D01*
X13255015Y-16827830D02*
X13255015Y-16770687D01*
X13255015Y-16770687D02*
X13264539Y-16751640D01*
X13264539Y-16751640D02*
X13274063Y-16742116D01*
X13274063Y-16742116D02*
X13293110Y-16732592D01*
X13293110Y-16732592D02*
X13321682Y-16732592D01*
X13321682Y-16732592D02*
X13340730Y-16742116D01*
X13340730Y-16742116D02*
X13350253Y-16751640D01*
X13350253Y-16751640D02*
X13359777Y-16770687D01*
X13359777Y-16770687D02*
X13359777Y-16827830D01*
X13359777Y-16827830D02*
X13350253Y-16846878D01*
X13350253Y-16846878D02*
X13340730Y-16856402D01*
X13340730Y-16856402D02*
X13321682Y-16865925D01*
X13321682Y-16865925D02*
X13293110Y-16865925D01*
X13474063Y-16865925D02*
X13455015Y-16856402D01*
X13455015Y-16856402D02*
X13445491Y-16837354D01*
X13445491Y-16837354D02*
X13445491Y-16665925D01*
X13626444Y-16856402D02*
X13607396Y-16865925D01*
X13607396Y-16865925D02*
X13569301Y-16865925D01*
X13569301Y-16865925D02*
X13550253Y-16856402D01*
X13550253Y-16856402D02*
X13540730Y-16837354D01*
X13540730Y-16837354D02*
X13540730Y-16761163D01*
X13540730Y-16761163D02*
X13550253Y-16742116D01*
X13550253Y-16742116D02*
X13569301Y-16732592D01*
X13569301Y-16732592D02*
X13607396Y-16732592D01*
X13607396Y-16732592D02*
X13626444Y-16742116D01*
X13626444Y-16742116D02*
X13635968Y-16761163D01*
X13635968Y-16761163D02*
X13635968Y-16780211D01*
X13635968Y-16780211D02*
X13540730Y-16799259D01*
X13712158Y-16856402D02*
X13731206Y-16865925D01*
X13731206Y-16865925D02*
X13769301Y-16865925D01*
X13769301Y-16865925D02*
X13788349Y-16856402D01*
X13788349Y-16856402D02*
X13797872Y-16837354D01*
X13797872Y-16837354D02*
X13797872Y-16827830D01*
X13797872Y-16827830D02*
X13788349Y-16808783D01*
X13788349Y-16808783D02*
X13769301Y-16799259D01*
X13769301Y-16799259D02*
X13740730Y-16799259D01*
X13740730Y-16799259D02*
X13721682Y-16789735D01*
X13721682Y-16789735D02*
X13712158Y-16770687D01*
X13712158Y-16770687D02*
X13712158Y-16761163D01*
X13712158Y-16761163D02*
X13721682Y-16742116D01*
X13721682Y-16742116D02*
X13740730Y-16732592D01*
X13740730Y-16732592D02*
X13769301Y-16732592D01*
X13769301Y-16732592D02*
X13788349Y-16742116D01*
X13864539Y-16942116D02*
X13874063Y-16932592D01*
X13874063Y-16932592D02*
X13893111Y-16904021D01*
X13893111Y-16904021D02*
X13902634Y-16884973D01*
X13902634Y-16884973D02*
X13912158Y-16856402D01*
X13912158Y-16856402D02*
X13921682Y-16808783D01*
X13921682Y-16808783D02*
X13921682Y-16770687D01*
X13921682Y-16770687D02*
X13912158Y-16723068D01*
X13912158Y-16723068D02*
X13902634Y-16694497D01*
X13902634Y-16694497D02*
X13893111Y-16675449D01*
X13893111Y-16675449D02*
X13874063Y-16646878D01*
X13874063Y-16646878D02*
X13864539Y-16637354D01*
D18*
X8799000Y-16988442D02*
X8899000Y-17088442D01*
X8899000Y-16988442D02*
X8799000Y-17088442D01*
X8884356Y-17073797D02*
X8884356Y-17003086D01*
X8813644Y-17003086D01*
X8813644Y-17073797D01*
X8884356Y-17073797D01*
D11*
X9264539Y-17129925D02*
X9150253Y-17129925D01*
X9207396Y-17129925D02*
X9207396Y-16929925D01*
X9207396Y-16929925D02*
X9188348Y-16958497D01*
X9188348Y-16958497D02*
X9169301Y-16977544D01*
X9169301Y-16977544D02*
X9150253Y-16987068D01*
X9350253Y-17110878D02*
X9359777Y-17120402D01*
X9359777Y-17120402D02*
X9350253Y-17129925D01*
X9350253Y-17129925D02*
X9340729Y-17120402D01*
X9340729Y-17120402D02*
X9350253Y-17110878D01*
X9350253Y-17110878D02*
X9350253Y-17129925D01*
X9483586Y-16929925D02*
X9502634Y-16929925D01*
X9502634Y-16929925D02*
X9521682Y-16939449D01*
X9521682Y-16939449D02*
X9531205Y-16948973D01*
X9531205Y-16948973D02*
X9540729Y-16968021D01*
X9540729Y-16968021D02*
X9550253Y-17006116D01*
X9550253Y-17006116D02*
X9550253Y-17053735D01*
X9550253Y-17053735D02*
X9540729Y-17091830D01*
X9540729Y-17091830D02*
X9531205Y-17110878D01*
X9531205Y-17110878D02*
X9521682Y-17120402D01*
X9521682Y-17120402D02*
X9502634Y-17129925D01*
X9502634Y-17129925D02*
X9483586Y-17129925D01*
X9483586Y-17129925D02*
X9464539Y-17120402D01*
X9464539Y-17120402D02*
X9455015Y-17110878D01*
X9455015Y-17110878D02*
X9445491Y-17091830D01*
X9445491Y-17091830D02*
X9435967Y-17053735D01*
X9435967Y-17053735D02*
X9435967Y-17006116D01*
X9435967Y-17006116D02*
X9445491Y-16968021D01*
X9445491Y-16968021D02*
X9455015Y-16948973D01*
X9455015Y-16948973D02*
X9464539Y-16939449D01*
X9464539Y-16939449D02*
X9483586Y-16929925D01*
X9674063Y-16929925D02*
X9693110Y-16929925D01*
X9693110Y-16929925D02*
X9712158Y-16939449D01*
X9712158Y-16939449D02*
X9721682Y-16948973D01*
X9721682Y-16948973D02*
X9731205Y-16968021D01*
X9731205Y-16968021D02*
X9740729Y-17006116D01*
X9740729Y-17006116D02*
X9740729Y-17053735D01*
X9740729Y-17053735D02*
X9731205Y-17091830D01*
X9731205Y-17091830D02*
X9721682Y-17110878D01*
X9721682Y-17110878D02*
X9712158Y-17120402D01*
X9712158Y-17120402D02*
X9693110Y-17129925D01*
X9693110Y-17129925D02*
X9674063Y-17129925D01*
X9674063Y-17129925D02*
X9655015Y-17120402D01*
X9655015Y-17120402D02*
X9645491Y-17110878D01*
X9645491Y-17110878D02*
X9635967Y-17091830D01*
X9635967Y-17091830D02*
X9626444Y-17053735D01*
X9626444Y-17053735D02*
X9626444Y-17006116D01*
X9626444Y-17006116D02*
X9635967Y-16968021D01*
X9635967Y-16968021D02*
X9645491Y-16948973D01*
X9645491Y-16948973D02*
X9655015Y-16939449D01*
X9655015Y-16939449D02*
X9674063Y-16929925D01*
X9864539Y-16929925D02*
X9883586Y-16929925D01*
X9883586Y-16929925D02*
X9902634Y-16939449D01*
X9902634Y-16939449D02*
X9912158Y-16948973D01*
X9912158Y-16948973D02*
X9921682Y-16968021D01*
X9921682Y-16968021D02*
X9931205Y-17006116D01*
X9931205Y-17006116D02*
X9931205Y-17053735D01*
X9931205Y-17053735D02*
X9921682Y-17091830D01*
X9921682Y-17091830D02*
X9912158Y-17110878D01*
X9912158Y-17110878D02*
X9902634Y-17120402D01*
X9902634Y-17120402D02*
X9883586Y-17129925D01*
X9883586Y-17129925D02*
X9864539Y-17129925D01*
X9864539Y-17129925D02*
X9845491Y-17120402D01*
X9845491Y-17120402D02*
X9835967Y-17110878D01*
X9835967Y-17110878D02*
X9826444Y-17091830D01*
X9826444Y-17091830D02*
X9816920Y-17053735D01*
X9816920Y-17053735D02*
X9816920Y-17006116D01*
X9816920Y-17006116D02*
X9826444Y-16968021D01*
X9826444Y-16968021D02*
X9835967Y-16948973D01*
X9835967Y-16948973D02*
X9845491Y-16939449D01*
X9845491Y-16939449D02*
X9864539Y-16929925D01*
X10016920Y-17129925D02*
X10016920Y-16996592D01*
X10016920Y-17015640D02*
X10026444Y-17006116D01*
X10026444Y-17006116D02*
X10045491Y-16996592D01*
X10045491Y-16996592D02*
X10074063Y-16996592D01*
X10074063Y-16996592D02*
X10093110Y-17006116D01*
X10093110Y-17006116D02*
X10102634Y-17025164D01*
X10102634Y-17025164D02*
X10102634Y-17129925D01*
X10102634Y-17025164D02*
X10112158Y-17006116D01*
X10112158Y-17006116D02*
X10131205Y-16996592D01*
X10131205Y-16996592D02*
X10159777Y-16996592D01*
X10159777Y-16996592D02*
X10178825Y-17006116D01*
X10178825Y-17006116D02*
X10188348Y-17025164D01*
X10188348Y-17025164D02*
X10188348Y-17129925D01*
X10283586Y-17129925D02*
X10283586Y-16996592D01*
X10283586Y-17015640D02*
X10293110Y-17006116D01*
X10293110Y-17006116D02*
X10312158Y-16996592D01*
X10312158Y-16996592D02*
X10340729Y-16996592D01*
X10340729Y-16996592D02*
X10359777Y-17006116D01*
X10359777Y-17006116D02*
X10369301Y-17025164D01*
X10369301Y-17025164D02*
X10369301Y-17129925D01*
X10369301Y-17025164D02*
X10378825Y-17006116D01*
X10378825Y-17006116D02*
X10397872Y-16996592D01*
X10397872Y-16996592D02*
X10426444Y-16996592D01*
X10426444Y-16996592D02*
X10445491Y-17006116D01*
X10445491Y-17006116D02*
X10455015Y-17025164D01*
X10455015Y-17025164D02*
X10455015Y-17129925D01*
X10845491Y-16920402D02*
X10674063Y-17177544D01*
X11102634Y-16929925D02*
X11121682Y-16929925D01*
X11121682Y-16929925D02*
X11140729Y-16939449D01*
X11140729Y-16939449D02*
X11150253Y-16948973D01*
X11150253Y-16948973D02*
X11159777Y-16968021D01*
X11159777Y-16968021D02*
X11169301Y-17006116D01*
X11169301Y-17006116D02*
X11169301Y-17053735D01*
X11169301Y-17053735D02*
X11159777Y-17091830D01*
X11159777Y-17091830D02*
X11150253Y-17110878D01*
X11150253Y-17110878D02*
X11140729Y-17120402D01*
X11140729Y-17120402D02*
X11121682Y-17129925D01*
X11121682Y-17129925D02*
X11102634Y-17129925D01*
X11102634Y-17129925D02*
X11083587Y-17120402D01*
X11083587Y-17120402D02*
X11074063Y-17110878D01*
X11074063Y-17110878D02*
X11064539Y-17091830D01*
X11064539Y-17091830D02*
X11055015Y-17053735D01*
X11055015Y-17053735D02*
X11055015Y-17006116D01*
X11055015Y-17006116D02*
X11064539Y-16968021D01*
X11064539Y-16968021D02*
X11074063Y-16948973D01*
X11074063Y-16948973D02*
X11083587Y-16939449D01*
X11083587Y-16939449D02*
X11102634Y-16929925D01*
X11255015Y-17110878D02*
X11264539Y-17120402D01*
X11264539Y-17120402D02*
X11255015Y-17129925D01*
X11255015Y-17129925D02*
X11245491Y-17120402D01*
X11245491Y-17120402D02*
X11255015Y-17110878D01*
X11255015Y-17110878D02*
X11255015Y-17129925D01*
X11388348Y-16929925D02*
X11407396Y-16929925D01*
X11407396Y-16929925D02*
X11426444Y-16939449D01*
X11426444Y-16939449D02*
X11435967Y-16948973D01*
X11435967Y-16948973D02*
X11445491Y-16968021D01*
X11445491Y-16968021D02*
X11455015Y-17006116D01*
X11455015Y-17006116D02*
X11455015Y-17053735D01*
X11455015Y-17053735D02*
X11445491Y-17091830D01*
X11445491Y-17091830D02*
X11435967Y-17110878D01*
X11435967Y-17110878D02*
X11426444Y-17120402D01*
X11426444Y-17120402D02*
X11407396Y-17129925D01*
X11407396Y-17129925D02*
X11388348Y-17129925D01*
X11388348Y-17129925D02*
X11369301Y-17120402D01*
X11369301Y-17120402D02*
X11359777Y-17110878D01*
X11359777Y-17110878D02*
X11350253Y-17091830D01*
X11350253Y-17091830D02*
X11340729Y-17053735D01*
X11340729Y-17053735D02*
X11340729Y-17006116D01*
X11340729Y-17006116D02*
X11350253Y-16968021D01*
X11350253Y-16968021D02*
X11359777Y-16948973D01*
X11359777Y-16948973D02*
X11369301Y-16939449D01*
X11369301Y-16939449D02*
X11388348Y-16929925D01*
X11521682Y-16929925D02*
X11645491Y-16929925D01*
X11645491Y-16929925D02*
X11578825Y-17006116D01*
X11578825Y-17006116D02*
X11607396Y-17006116D01*
X11607396Y-17006116D02*
X11626444Y-17015640D01*
X11626444Y-17015640D02*
X11635967Y-17025164D01*
X11635967Y-17025164D02*
X11645491Y-17044211D01*
X11645491Y-17044211D02*
X11645491Y-17091830D01*
X11645491Y-17091830D02*
X11635967Y-17110878D01*
X11635967Y-17110878D02*
X11626444Y-17120402D01*
X11626444Y-17120402D02*
X11607396Y-17129925D01*
X11607396Y-17129925D02*
X11550253Y-17129925D01*
X11550253Y-17129925D02*
X11531206Y-17120402D01*
X11531206Y-17120402D02*
X11521682Y-17110878D01*
X11740729Y-17129925D02*
X11778825Y-17129925D01*
X11778825Y-17129925D02*
X11797872Y-17120402D01*
X11797872Y-17120402D02*
X11807396Y-17110878D01*
X11807396Y-17110878D02*
X11826444Y-17082306D01*
X11826444Y-17082306D02*
X11835967Y-17044211D01*
X11835967Y-17044211D02*
X11835967Y-16968021D01*
X11835967Y-16968021D02*
X11826444Y-16948973D01*
X11826444Y-16948973D02*
X11816920Y-16939449D01*
X11816920Y-16939449D02*
X11797872Y-16929925D01*
X11797872Y-16929925D02*
X11759777Y-16929925D01*
X11759777Y-16929925D02*
X11740729Y-16939449D01*
X11740729Y-16939449D02*
X11731206Y-16948973D01*
X11731206Y-16948973D02*
X11721682Y-16968021D01*
X11721682Y-16968021D02*
X11721682Y-17015640D01*
X11721682Y-17015640D02*
X11731206Y-17034687D01*
X11731206Y-17034687D02*
X11740729Y-17044211D01*
X11740729Y-17044211D02*
X11759777Y-17053735D01*
X11759777Y-17053735D02*
X11797872Y-17053735D01*
X11797872Y-17053735D02*
X11816920Y-17044211D01*
X11816920Y-17044211D02*
X11826444Y-17034687D01*
X11826444Y-17034687D02*
X11835967Y-17015640D01*
X12007396Y-16996592D02*
X12007396Y-17129925D01*
X11959777Y-16920402D02*
X11912158Y-17063259D01*
X11912158Y-17063259D02*
X12035967Y-17063259D01*
X12102634Y-16929925D02*
X12102634Y-16968021D01*
X12178825Y-16929925D02*
X12178825Y-16968021D01*
X12474063Y-17206116D02*
X12464539Y-17196592D01*
X12464539Y-17196592D02*
X12445491Y-17168021D01*
X12445491Y-17168021D02*
X12435968Y-17148973D01*
X12435968Y-17148973D02*
X12426444Y-17120402D01*
X12426444Y-17120402D02*
X12416920Y-17072783D01*
X12416920Y-17072783D02*
X12416920Y-17034687D01*
X12416920Y-17034687D02*
X12426444Y-16987068D01*
X12426444Y-16987068D02*
X12435968Y-16958497D01*
X12435968Y-16958497D02*
X12445491Y-16939449D01*
X12445491Y-16939449D02*
X12464539Y-16910878D01*
X12464539Y-16910878D02*
X12474063Y-16901354D01*
X12655015Y-17129925D02*
X12540729Y-17129925D01*
X12597872Y-17129925D02*
X12597872Y-16929925D01*
X12597872Y-16929925D02*
X12578825Y-16958497D01*
X12578825Y-16958497D02*
X12559777Y-16977544D01*
X12559777Y-16977544D02*
X12540729Y-16987068D01*
X12731206Y-16948973D02*
X12740729Y-16939449D01*
X12740729Y-16939449D02*
X12759777Y-16929925D01*
X12759777Y-16929925D02*
X12807396Y-16929925D01*
X12807396Y-16929925D02*
X12826444Y-16939449D01*
X12826444Y-16939449D02*
X12835968Y-16948973D01*
X12835968Y-16948973D02*
X12845491Y-16968021D01*
X12845491Y-16968021D02*
X12845491Y-16987068D01*
X12845491Y-16987068D02*
X12835968Y-17015640D01*
X12835968Y-17015640D02*
X12721682Y-17129925D01*
X12721682Y-17129925D02*
X12845491Y-17129925D01*
X13083587Y-17129925D02*
X13083587Y-16929925D01*
X13169301Y-17129925D02*
X13169301Y-17025164D01*
X13169301Y-17025164D02*
X13159777Y-17006116D01*
X13159777Y-17006116D02*
X13140730Y-16996592D01*
X13140730Y-16996592D02*
X13112158Y-16996592D01*
X13112158Y-16996592D02*
X13093110Y-17006116D01*
X13093110Y-17006116D02*
X13083587Y-17015640D01*
X13293110Y-17129925D02*
X13274063Y-17120402D01*
X13274063Y-17120402D02*
X13264539Y-17110878D01*
X13264539Y-17110878D02*
X13255015Y-17091830D01*
X13255015Y-17091830D02*
X13255015Y-17034687D01*
X13255015Y-17034687D02*
X13264539Y-17015640D01*
X13264539Y-17015640D02*
X13274063Y-17006116D01*
X13274063Y-17006116D02*
X13293110Y-16996592D01*
X13293110Y-16996592D02*
X13321682Y-16996592D01*
X13321682Y-16996592D02*
X13340730Y-17006116D01*
X13340730Y-17006116D02*
X13350253Y-17015640D01*
X13350253Y-17015640D02*
X13359777Y-17034687D01*
X13359777Y-17034687D02*
X13359777Y-17091830D01*
X13359777Y-17091830D02*
X13350253Y-17110878D01*
X13350253Y-17110878D02*
X13340730Y-17120402D01*
X13340730Y-17120402D02*
X13321682Y-17129925D01*
X13321682Y-17129925D02*
X13293110Y-17129925D01*
X13474063Y-17129925D02*
X13455015Y-17120402D01*
X13455015Y-17120402D02*
X13445491Y-17101354D01*
X13445491Y-17101354D02*
X13445491Y-16929925D01*
X13626444Y-17120402D02*
X13607396Y-17129925D01*
X13607396Y-17129925D02*
X13569301Y-17129925D01*
X13569301Y-17129925D02*
X13550253Y-17120402D01*
X13550253Y-17120402D02*
X13540730Y-17101354D01*
X13540730Y-17101354D02*
X13540730Y-17025164D01*
X13540730Y-17025164D02*
X13550253Y-17006116D01*
X13550253Y-17006116D02*
X13569301Y-16996592D01*
X13569301Y-16996592D02*
X13607396Y-16996592D01*
X13607396Y-16996592D02*
X13626444Y-17006116D01*
X13626444Y-17006116D02*
X13635968Y-17025164D01*
X13635968Y-17025164D02*
X13635968Y-17044211D01*
X13635968Y-17044211D02*
X13540730Y-17063259D01*
X13712158Y-17120402D02*
X13731206Y-17129925D01*
X13731206Y-17129925D02*
X13769301Y-17129925D01*
X13769301Y-17129925D02*
X13788349Y-17120402D01*
X13788349Y-17120402D02*
X13797872Y-17101354D01*
X13797872Y-17101354D02*
X13797872Y-17091830D01*
X13797872Y-17091830D02*
X13788349Y-17072783D01*
X13788349Y-17072783D02*
X13769301Y-17063259D01*
X13769301Y-17063259D02*
X13740730Y-17063259D01*
X13740730Y-17063259D02*
X13721682Y-17053735D01*
X13721682Y-17053735D02*
X13712158Y-17034687D01*
X13712158Y-17034687D02*
X13712158Y-17025164D01*
X13712158Y-17025164D02*
X13721682Y-17006116D01*
X13721682Y-17006116D02*
X13740730Y-16996592D01*
X13740730Y-16996592D02*
X13769301Y-16996592D01*
X13769301Y-16996592D02*
X13788349Y-17006116D01*
X13864539Y-17206116D02*
X13874063Y-17196592D01*
X13874063Y-17196592D02*
X13893111Y-17168021D01*
X13893111Y-17168021D02*
X13902634Y-17148973D01*
X13902634Y-17148973D02*
X13912158Y-17120402D01*
X13912158Y-17120402D02*
X13921682Y-17072783D01*
X13921682Y-17072783D02*
X13921682Y-17034687D01*
X13921682Y-17034687D02*
X13912158Y-16987068D01*
X13912158Y-16987068D02*
X13902634Y-16958497D01*
X13902634Y-16958497D02*
X13893111Y-16939449D01*
X13893111Y-16939449D02*
X13874063Y-16910878D01*
X13874063Y-16910878D02*
X13864539Y-16901354D01*
D19*
X8779000Y-17242442D02*
X8899000Y-17362442D01*
X8899000Y-17242442D02*
X8779000Y-17362442D01*
X8839000Y-17362442D02*
X8899000Y-17302442D01*
X8839000Y-17242442D01*
X8779000Y-17302442D01*
X8839000Y-17362442D01*
D11*
X9264539Y-17393925D02*
X9150253Y-17393925D01*
X9207396Y-17393925D02*
X9207396Y-17193925D01*
X9207396Y-17193925D02*
X9188348Y-17222497D01*
X9188348Y-17222497D02*
X9169301Y-17241544D01*
X9169301Y-17241544D02*
X9150253Y-17251068D01*
X9350253Y-17374878D02*
X9359777Y-17384402D01*
X9359777Y-17384402D02*
X9350253Y-17393925D01*
X9350253Y-17393925D02*
X9340729Y-17384402D01*
X9340729Y-17384402D02*
X9350253Y-17374878D01*
X9350253Y-17374878D02*
X9350253Y-17393925D01*
X9435967Y-17212973D02*
X9445491Y-17203449D01*
X9445491Y-17203449D02*
X9464539Y-17193925D01*
X9464539Y-17193925D02*
X9512158Y-17193925D01*
X9512158Y-17193925D02*
X9531205Y-17203449D01*
X9531205Y-17203449D02*
X9540729Y-17212973D01*
X9540729Y-17212973D02*
X9550253Y-17232021D01*
X9550253Y-17232021D02*
X9550253Y-17251068D01*
X9550253Y-17251068D02*
X9540729Y-17279640D01*
X9540729Y-17279640D02*
X9426444Y-17393925D01*
X9426444Y-17393925D02*
X9550253Y-17393925D01*
X9674063Y-17193925D02*
X9693110Y-17193925D01*
X9693110Y-17193925D02*
X9712158Y-17203449D01*
X9712158Y-17203449D02*
X9721682Y-17212973D01*
X9721682Y-17212973D02*
X9731205Y-17232021D01*
X9731205Y-17232021D02*
X9740729Y-17270116D01*
X9740729Y-17270116D02*
X9740729Y-17317735D01*
X9740729Y-17317735D02*
X9731205Y-17355830D01*
X9731205Y-17355830D02*
X9721682Y-17374878D01*
X9721682Y-17374878D02*
X9712158Y-17384402D01*
X9712158Y-17384402D02*
X9693110Y-17393925D01*
X9693110Y-17393925D02*
X9674063Y-17393925D01*
X9674063Y-17393925D02*
X9655015Y-17384402D01*
X9655015Y-17384402D02*
X9645491Y-17374878D01*
X9645491Y-17374878D02*
X9635967Y-17355830D01*
X9635967Y-17355830D02*
X9626444Y-17317735D01*
X9626444Y-17317735D02*
X9626444Y-17270116D01*
X9626444Y-17270116D02*
X9635967Y-17232021D01*
X9635967Y-17232021D02*
X9645491Y-17212973D01*
X9645491Y-17212973D02*
X9655015Y-17203449D01*
X9655015Y-17203449D02*
X9674063Y-17193925D01*
X9864539Y-17193925D02*
X9883586Y-17193925D01*
X9883586Y-17193925D02*
X9902634Y-17203449D01*
X9902634Y-17203449D02*
X9912158Y-17212973D01*
X9912158Y-17212973D02*
X9921682Y-17232021D01*
X9921682Y-17232021D02*
X9931205Y-17270116D01*
X9931205Y-17270116D02*
X9931205Y-17317735D01*
X9931205Y-17317735D02*
X9921682Y-17355830D01*
X9921682Y-17355830D02*
X9912158Y-17374878D01*
X9912158Y-17374878D02*
X9902634Y-17384402D01*
X9902634Y-17384402D02*
X9883586Y-17393925D01*
X9883586Y-17393925D02*
X9864539Y-17393925D01*
X9864539Y-17393925D02*
X9845491Y-17384402D01*
X9845491Y-17384402D02*
X9835967Y-17374878D01*
X9835967Y-17374878D02*
X9826444Y-17355830D01*
X9826444Y-17355830D02*
X9816920Y-17317735D01*
X9816920Y-17317735D02*
X9816920Y-17270116D01*
X9816920Y-17270116D02*
X9826444Y-17232021D01*
X9826444Y-17232021D02*
X9835967Y-17212973D01*
X9835967Y-17212973D02*
X9845491Y-17203449D01*
X9845491Y-17203449D02*
X9864539Y-17193925D01*
X10016920Y-17393925D02*
X10016920Y-17260592D01*
X10016920Y-17279640D02*
X10026444Y-17270116D01*
X10026444Y-17270116D02*
X10045491Y-17260592D01*
X10045491Y-17260592D02*
X10074063Y-17260592D01*
X10074063Y-17260592D02*
X10093110Y-17270116D01*
X10093110Y-17270116D02*
X10102634Y-17289164D01*
X10102634Y-17289164D02*
X10102634Y-17393925D01*
X10102634Y-17289164D02*
X10112158Y-17270116D01*
X10112158Y-17270116D02*
X10131205Y-17260592D01*
X10131205Y-17260592D02*
X10159777Y-17260592D01*
X10159777Y-17260592D02*
X10178825Y-17270116D01*
X10178825Y-17270116D02*
X10188348Y-17289164D01*
X10188348Y-17289164D02*
X10188348Y-17393925D01*
X10283586Y-17393925D02*
X10283586Y-17260592D01*
X10283586Y-17279640D02*
X10293110Y-17270116D01*
X10293110Y-17270116D02*
X10312158Y-17260592D01*
X10312158Y-17260592D02*
X10340729Y-17260592D01*
X10340729Y-17260592D02*
X10359777Y-17270116D01*
X10359777Y-17270116D02*
X10369301Y-17289164D01*
X10369301Y-17289164D02*
X10369301Y-17393925D01*
X10369301Y-17289164D02*
X10378825Y-17270116D01*
X10378825Y-17270116D02*
X10397872Y-17260592D01*
X10397872Y-17260592D02*
X10426444Y-17260592D01*
X10426444Y-17260592D02*
X10445491Y-17270116D01*
X10445491Y-17270116D02*
X10455015Y-17289164D01*
X10455015Y-17289164D02*
X10455015Y-17393925D01*
X10845491Y-17184402D02*
X10674063Y-17441544D01*
X11102634Y-17193925D02*
X11121682Y-17193925D01*
X11121682Y-17193925D02*
X11140729Y-17203449D01*
X11140729Y-17203449D02*
X11150253Y-17212973D01*
X11150253Y-17212973D02*
X11159777Y-17232021D01*
X11159777Y-17232021D02*
X11169301Y-17270116D01*
X11169301Y-17270116D02*
X11169301Y-17317735D01*
X11169301Y-17317735D02*
X11159777Y-17355830D01*
X11159777Y-17355830D02*
X11150253Y-17374878D01*
X11150253Y-17374878D02*
X11140729Y-17384402D01*
X11140729Y-17384402D02*
X11121682Y-17393925D01*
X11121682Y-17393925D02*
X11102634Y-17393925D01*
X11102634Y-17393925D02*
X11083587Y-17384402D01*
X11083587Y-17384402D02*
X11074063Y-17374878D01*
X11074063Y-17374878D02*
X11064539Y-17355830D01*
X11064539Y-17355830D02*
X11055015Y-17317735D01*
X11055015Y-17317735D02*
X11055015Y-17270116D01*
X11055015Y-17270116D02*
X11064539Y-17232021D01*
X11064539Y-17232021D02*
X11074063Y-17212973D01*
X11074063Y-17212973D02*
X11083587Y-17203449D01*
X11083587Y-17203449D02*
X11102634Y-17193925D01*
X11255015Y-17374878D02*
X11264539Y-17384402D01*
X11264539Y-17384402D02*
X11255015Y-17393925D01*
X11255015Y-17393925D02*
X11245491Y-17384402D01*
X11245491Y-17384402D02*
X11255015Y-17374878D01*
X11255015Y-17374878D02*
X11255015Y-17393925D01*
X11388348Y-17193925D02*
X11407396Y-17193925D01*
X11407396Y-17193925D02*
X11426444Y-17203449D01*
X11426444Y-17203449D02*
X11435967Y-17212973D01*
X11435967Y-17212973D02*
X11445491Y-17232021D01*
X11445491Y-17232021D02*
X11455015Y-17270116D01*
X11455015Y-17270116D02*
X11455015Y-17317735D01*
X11455015Y-17317735D02*
X11445491Y-17355830D01*
X11445491Y-17355830D02*
X11435967Y-17374878D01*
X11435967Y-17374878D02*
X11426444Y-17384402D01*
X11426444Y-17384402D02*
X11407396Y-17393925D01*
X11407396Y-17393925D02*
X11388348Y-17393925D01*
X11388348Y-17393925D02*
X11369301Y-17384402D01*
X11369301Y-17384402D02*
X11359777Y-17374878D01*
X11359777Y-17374878D02*
X11350253Y-17355830D01*
X11350253Y-17355830D02*
X11340729Y-17317735D01*
X11340729Y-17317735D02*
X11340729Y-17270116D01*
X11340729Y-17270116D02*
X11350253Y-17232021D01*
X11350253Y-17232021D02*
X11359777Y-17212973D01*
X11359777Y-17212973D02*
X11369301Y-17203449D01*
X11369301Y-17203449D02*
X11388348Y-17193925D01*
X11626444Y-17260592D02*
X11626444Y-17393925D01*
X11578825Y-17184402D02*
X11531206Y-17327259D01*
X11531206Y-17327259D02*
X11655015Y-17327259D01*
X11712158Y-17193925D02*
X11845491Y-17193925D01*
X11845491Y-17193925D02*
X11759777Y-17393925D01*
X11912158Y-17212973D02*
X11921682Y-17203449D01*
X11921682Y-17203449D02*
X11940729Y-17193925D01*
X11940729Y-17193925D02*
X11988348Y-17193925D01*
X11988348Y-17193925D02*
X12007396Y-17203449D01*
X12007396Y-17203449D02*
X12016920Y-17212973D01*
X12016920Y-17212973D02*
X12026444Y-17232021D01*
X12026444Y-17232021D02*
X12026444Y-17251068D01*
X12026444Y-17251068D02*
X12016920Y-17279640D01*
X12016920Y-17279640D02*
X11902634Y-17393925D01*
X11902634Y-17393925D02*
X12026444Y-17393925D01*
X12102634Y-17193925D02*
X12102634Y-17232021D01*
X12178825Y-17193925D02*
X12178825Y-17232021D01*
X12474063Y-17470116D02*
X12464539Y-17460592D01*
X12464539Y-17460592D02*
X12445491Y-17432021D01*
X12445491Y-17432021D02*
X12435968Y-17412973D01*
X12435968Y-17412973D02*
X12426444Y-17384402D01*
X12426444Y-17384402D02*
X12416920Y-17336783D01*
X12416920Y-17336783D02*
X12416920Y-17298687D01*
X12416920Y-17298687D02*
X12426444Y-17251068D01*
X12426444Y-17251068D02*
X12435968Y-17222497D01*
X12435968Y-17222497D02*
X12445491Y-17203449D01*
X12445491Y-17203449D02*
X12464539Y-17174878D01*
X12464539Y-17174878D02*
X12474063Y-17165354D01*
X12635968Y-17260592D02*
X12635968Y-17393925D01*
X12588348Y-17184402D02*
X12540729Y-17327259D01*
X12540729Y-17327259D02*
X12664539Y-17327259D01*
X12893110Y-17393925D02*
X12893110Y-17193925D01*
X12978825Y-17393925D02*
X12978825Y-17289164D01*
X12978825Y-17289164D02*
X12969301Y-17270116D01*
X12969301Y-17270116D02*
X12950253Y-17260592D01*
X12950253Y-17260592D02*
X12921682Y-17260592D01*
X12921682Y-17260592D02*
X12902634Y-17270116D01*
X12902634Y-17270116D02*
X12893110Y-17279640D01*
X13102634Y-17393925D02*
X13083587Y-17384402D01*
X13083587Y-17384402D02*
X13074063Y-17374878D01*
X13074063Y-17374878D02*
X13064539Y-17355830D01*
X13064539Y-17355830D02*
X13064539Y-17298687D01*
X13064539Y-17298687D02*
X13074063Y-17279640D01*
X13074063Y-17279640D02*
X13083587Y-17270116D01*
X13083587Y-17270116D02*
X13102634Y-17260592D01*
X13102634Y-17260592D02*
X13131206Y-17260592D01*
X13131206Y-17260592D02*
X13150253Y-17270116D01*
X13150253Y-17270116D02*
X13159777Y-17279640D01*
X13159777Y-17279640D02*
X13169301Y-17298687D01*
X13169301Y-17298687D02*
X13169301Y-17355830D01*
X13169301Y-17355830D02*
X13159777Y-17374878D01*
X13159777Y-17374878D02*
X13150253Y-17384402D01*
X13150253Y-17384402D02*
X13131206Y-17393925D01*
X13131206Y-17393925D02*
X13102634Y-17393925D01*
X13283587Y-17393925D02*
X13264539Y-17384402D01*
X13264539Y-17384402D02*
X13255015Y-17365354D01*
X13255015Y-17365354D02*
X13255015Y-17193925D01*
X13435968Y-17384402D02*
X13416920Y-17393925D01*
X13416920Y-17393925D02*
X13378825Y-17393925D01*
X13378825Y-17393925D02*
X13359777Y-17384402D01*
X13359777Y-17384402D02*
X13350253Y-17365354D01*
X13350253Y-17365354D02*
X13350253Y-17289164D01*
X13350253Y-17289164D02*
X13359777Y-17270116D01*
X13359777Y-17270116D02*
X13378825Y-17260592D01*
X13378825Y-17260592D02*
X13416920Y-17260592D01*
X13416920Y-17260592D02*
X13435968Y-17270116D01*
X13435968Y-17270116D02*
X13445491Y-17289164D01*
X13445491Y-17289164D02*
X13445491Y-17308211D01*
X13445491Y-17308211D02*
X13350253Y-17327259D01*
X13521682Y-17384402D02*
X13540730Y-17393925D01*
X13540730Y-17393925D02*
X13578825Y-17393925D01*
X13578825Y-17393925D02*
X13597872Y-17384402D01*
X13597872Y-17384402D02*
X13607396Y-17365354D01*
X13607396Y-17365354D02*
X13607396Y-17355830D01*
X13607396Y-17355830D02*
X13597872Y-17336783D01*
X13597872Y-17336783D02*
X13578825Y-17327259D01*
X13578825Y-17327259D02*
X13550253Y-17327259D01*
X13550253Y-17327259D02*
X13531206Y-17317735D01*
X13531206Y-17317735D02*
X13521682Y-17298687D01*
X13521682Y-17298687D02*
X13521682Y-17289164D01*
X13521682Y-17289164D02*
X13531206Y-17270116D01*
X13531206Y-17270116D02*
X13550253Y-17260592D01*
X13550253Y-17260592D02*
X13578825Y-17260592D01*
X13578825Y-17260592D02*
X13597872Y-17270116D01*
X13674063Y-17470116D02*
X13683587Y-17460592D01*
X13683587Y-17460592D02*
X13702634Y-17432021D01*
X13702634Y-17432021D02*
X13712158Y-17412973D01*
X13712158Y-17412973D02*
X13721682Y-17384402D01*
X13721682Y-17384402D02*
X13731206Y-17336783D01*
X13731206Y-17336783D02*
X13731206Y-17298687D01*
X13731206Y-17298687D02*
X13721682Y-17251068D01*
X13721682Y-17251068D02*
X13712158Y-17222497D01*
X13712158Y-17222497D02*
X13702634Y-17203449D01*
X13702634Y-17203449D02*
X13683587Y-17174878D01*
X13683587Y-17174878D02*
X13674063Y-17165354D01*
D20*
X8832000Y-17499442D02*
X8832000Y-17633442D01*
X8765000Y-17566442D02*
X8899000Y-17566442D01*
X8899000Y-17566442D02*
G75*
G03*
X8899000Y-17566442I-67000J0D01*
G01*
D11*
X9264539Y-17657925D02*
X9150253Y-17657925D01*
X9207396Y-17657925D02*
X9207396Y-17457925D01*
X9207396Y-17457925D02*
X9188348Y-17486497D01*
X9188348Y-17486497D02*
X9169301Y-17505544D01*
X9169301Y-17505544D02*
X9150253Y-17515068D01*
X9350253Y-17638878D02*
X9359777Y-17648402D01*
X9359777Y-17648402D02*
X9350253Y-17657925D01*
X9350253Y-17657925D02*
X9340729Y-17648402D01*
X9340729Y-17648402D02*
X9350253Y-17638878D01*
X9350253Y-17638878D02*
X9350253Y-17657925D01*
X9426444Y-17457925D02*
X9550253Y-17457925D01*
X9550253Y-17457925D02*
X9483586Y-17534116D01*
X9483586Y-17534116D02*
X9512158Y-17534116D01*
X9512158Y-17534116D02*
X9531205Y-17543640D01*
X9531205Y-17543640D02*
X9540729Y-17553164D01*
X9540729Y-17553164D02*
X9550253Y-17572211D01*
X9550253Y-17572211D02*
X9550253Y-17619830D01*
X9550253Y-17619830D02*
X9540729Y-17638878D01*
X9540729Y-17638878D02*
X9531205Y-17648402D01*
X9531205Y-17648402D02*
X9512158Y-17657925D01*
X9512158Y-17657925D02*
X9455015Y-17657925D01*
X9455015Y-17657925D02*
X9435967Y-17648402D01*
X9435967Y-17648402D02*
X9426444Y-17638878D01*
X9721682Y-17524592D02*
X9721682Y-17657925D01*
X9674063Y-17448402D02*
X9626444Y-17591259D01*
X9626444Y-17591259D02*
X9750253Y-17591259D01*
X9864539Y-17457925D02*
X9883586Y-17457925D01*
X9883586Y-17457925D02*
X9902634Y-17467449D01*
X9902634Y-17467449D02*
X9912158Y-17476973D01*
X9912158Y-17476973D02*
X9921682Y-17496021D01*
X9921682Y-17496021D02*
X9931205Y-17534116D01*
X9931205Y-17534116D02*
X9931205Y-17581735D01*
X9931205Y-17581735D02*
X9921682Y-17619830D01*
X9921682Y-17619830D02*
X9912158Y-17638878D01*
X9912158Y-17638878D02*
X9902634Y-17648402D01*
X9902634Y-17648402D02*
X9883586Y-17657925D01*
X9883586Y-17657925D02*
X9864539Y-17657925D01*
X9864539Y-17657925D02*
X9845491Y-17648402D01*
X9845491Y-17648402D02*
X9835967Y-17638878D01*
X9835967Y-17638878D02*
X9826444Y-17619830D01*
X9826444Y-17619830D02*
X9816920Y-17581735D01*
X9816920Y-17581735D02*
X9816920Y-17534116D01*
X9816920Y-17534116D02*
X9826444Y-17496021D01*
X9826444Y-17496021D02*
X9835967Y-17476973D01*
X9835967Y-17476973D02*
X9845491Y-17467449D01*
X9845491Y-17467449D02*
X9864539Y-17457925D01*
X10016920Y-17657925D02*
X10016920Y-17524592D01*
X10016920Y-17543640D02*
X10026444Y-17534116D01*
X10026444Y-17534116D02*
X10045491Y-17524592D01*
X10045491Y-17524592D02*
X10074063Y-17524592D01*
X10074063Y-17524592D02*
X10093110Y-17534116D01*
X10093110Y-17534116D02*
X10102634Y-17553164D01*
X10102634Y-17553164D02*
X10102634Y-17657925D01*
X10102634Y-17553164D02*
X10112158Y-17534116D01*
X10112158Y-17534116D02*
X10131205Y-17524592D01*
X10131205Y-17524592D02*
X10159777Y-17524592D01*
X10159777Y-17524592D02*
X10178825Y-17534116D01*
X10178825Y-17534116D02*
X10188348Y-17553164D01*
X10188348Y-17553164D02*
X10188348Y-17657925D01*
X10283586Y-17657925D02*
X10283586Y-17524592D01*
X10283586Y-17543640D02*
X10293110Y-17534116D01*
X10293110Y-17534116D02*
X10312158Y-17524592D01*
X10312158Y-17524592D02*
X10340729Y-17524592D01*
X10340729Y-17524592D02*
X10359777Y-17534116D01*
X10359777Y-17534116D02*
X10369301Y-17553164D01*
X10369301Y-17553164D02*
X10369301Y-17657925D01*
X10369301Y-17553164D02*
X10378825Y-17534116D01*
X10378825Y-17534116D02*
X10397872Y-17524592D01*
X10397872Y-17524592D02*
X10426444Y-17524592D01*
X10426444Y-17524592D02*
X10445491Y-17534116D01*
X10445491Y-17534116D02*
X10455015Y-17553164D01*
X10455015Y-17553164D02*
X10455015Y-17657925D01*
X10845491Y-17448402D02*
X10674063Y-17705544D01*
X11102634Y-17457925D02*
X11121682Y-17457925D01*
X11121682Y-17457925D02*
X11140729Y-17467449D01*
X11140729Y-17467449D02*
X11150253Y-17476973D01*
X11150253Y-17476973D02*
X11159777Y-17496021D01*
X11159777Y-17496021D02*
X11169301Y-17534116D01*
X11169301Y-17534116D02*
X11169301Y-17581735D01*
X11169301Y-17581735D02*
X11159777Y-17619830D01*
X11159777Y-17619830D02*
X11150253Y-17638878D01*
X11150253Y-17638878D02*
X11140729Y-17648402D01*
X11140729Y-17648402D02*
X11121682Y-17657925D01*
X11121682Y-17657925D02*
X11102634Y-17657925D01*
X11102634Y-17657925D02*
X11083587Y-17648402D01*
X11083587Y-17648402D02*
X11074063Y-17638878D01*
X11074063Y-17638878D02*
X11064539Y-17619830D01*
X11064539Y-17619830D02*
X11055015Y-17581735D01*
X11055015Y-17581735D02*
X11055015Y-17534116D01*
X11055015Y-17534116D02*
X11064539Y-17496021D01*
X11064539Y-17496021D02*
X11074063Y-17476973D01*
X11074063Y-17476973D02*
X11083587Y-17467449D01*
X11083587Y-17467449D02*
X11102634Y-17457925D01*
X11255015Y-17638878D02*
X11264539Y-17648402D01*
X11264539Y-17648402D02*
X11255015Y-17657925D01*
X11255015Y-17657925D02*
X11245491Y-17648402D01*
X11245491Y-17648402D02*
X11255015Y-17638878D01*
X11255015Y-17638878D02*
X11255015Y-17657925D01*
X11388348Y-17457925D02*
X11407396Y-17457925D01*
X11407396Y-17457925D02*
X11426444Y-17467449D01*
X11426444Y-17467449D02*
X11435967Y-17476973D01*
X11435967Y-17476973D02*
X11445491Y-17496021D01*
X11445491Y-17496021D02*
X11455015Y-17534116D01*
X11455015Y-17534116D02*
X11455015Y-17581735D01*
X11455015Y-17581735D02*
X11445491Y-17619830D01*
X11445491Y-17619830D02*
X11435967Y-17638878D01*
X11435967Y-17638878D02*
X11426444Y-17648402D01*
X11426444Y-17648402D02*
X11407396Y-17657925D01*
X11407396Y-17657925D02*
X11388348Y-17657925D01*
X11388348Y-17657925D02*
X11369301Y-17648402D01*
X11369301Y-17648402D02*
X11359777Y-17638878D01*
X11359777Y-17638878D02*
X11350253Y-17619830D01*
X11350253Y-17619830D02*
X11340729Y-17581735D01*
X11340729Y-17581735D02*
X11340729Y-17534116D01*
X11340729Y-17534116D02*
X11350253Y-17496021D01*
X11350253Y-17496021D02*
X11359777Y-17476973D01*
X11359777Y-17476973D02*
X11369301Y-17467449D01*
X11369301Y-17467449D02*
X11388348Y-17457925D01*
X11635967Y-17457925D02*
X11540729Y-17457925D01*
X11540729Y-17457925D02*
X11531206Y-17553164D01*
X11531206Y-17553164D02*
X11540729Y-17543640D01*
X11540729Y-17543640D02*
X11559777Y-17534116D01*
X11559777Y-17534116D02*
X11607396Y-17534116D01*
X11607396Y-17534116D02*
X11626444Y-17543640D01*
X11626444Y-17543640D02*
X11635967Y-17553164D01*
X11635967Y-17553164D02*
X11645491Y-17572211D01*
X11645491Y-17572211D02*
X11645491Y-17619830D01*
X11645491Y-17619830D02*
X11635967Y-17638878D01*
X11635967Y-17638878D02*
X11626444Y-17648402D01*
X11626444Y-17648402D02*
X11607396Y-17657925D01*
X11607396Y-17657925D02*
X11559777Y-17657925D01*
X11559777Y-17657925D02*
X11540729Y-17648402D01*
X11540729Y-17648402D02*
X11531206Y-17638878D01*
X11721682Y-17476973D02*
X11731206Y-17467449D01*
X11731206Y-17467449D02*
X11750253Y-17457925D01*
X11750253Y-17457925D02*
X11797872Y-17457925D01*
X11797872Y-17457925D02*
X11816920Y-17467449D01*
X11816920Y-17467449D02*
X11826444Y-17476973D01*
X11826444Y-17476973D02*
X11835967Y-17496021D01*
X11835967Y-17496021D02*
X11835967Y-17515068D01*
X11835967Y-17515068D02*
X11826444Y-17543640D01*
X11826444Y-17543640D02*
X11712158Y-17657925D01*
X11712158Y-17657925D02*
X11835967Y-17657925D01*
X11950253Y-17543640D02*
X11931206Y-17534116D01*
X11931206Y-17534116D02*
X11921682Y-17524592D01*
X11921682Y-17524592D02*
X11912158Y-17505544D01*
X11912158Y-17505544D02*
X11912158Y-17496021D01*
X11912158Y-17496021D02*
X11921682Y-17476973D01*
X11921682Y-17476973D02*
X11931206Y-17467449D01*
X11931206Y-17467449D02*
X11950253Y-17457925D01*
X11950253Y-17457925D02*
X11988348Y-17457925D01*
X11988348Y-17457925D02*
X12007396Y-17467449D01*
X12007396Y-17467449D02*
X12016920Y-17476973D01*
X12016920Y-17476973D02*
X12026444Y-17496021D01*
X12026444Y-17496021D02*
X12026444Y-17505544D01*
X12026444Y-17505544D02*
X12016920Y-17524592D01*
X12016920Y-17524592D02*
X12007396Y-17534116D01*
X12007396Y-17534116D02*
X11988348Y-17543640D01*
X11988348Y-17543640D02*
X11950253Y-17543640D01*
X11950253Y-17543640D02*
X11931206Y-17553164D01*
X11931206Y-17553164D02*
X11921682Y-17562687D01*
X11921682Y-17562687D02*
X11912158Y-17581735D01*
X11912158Y-17581735D02*
X11912158Y-17619830D01*
X11912158Y-17619830D02*
X11921682Y-17638878D01*
X11921682Y-17638878D02*
X11931206Y-17648402D01*
X11931206Y-17648402D02*
X11950253Y-17657925D01*
X11950253Y-17657925D02*
X11988348Y-17657925D01*
X11988348Y-17657925D02*
X12007396Y-17648402D01*
X12007396Y-17648402D02*
X12016920Y-17638878D01*
X12016920Y-17638878D02*
X12026444Y-17619830D01*
X12026444Y-17619830D02*
X12026444Y-17581735D01*
X12026444Y-17581735D02*
X12016920Y-17562687D01*
X12016920Y-17562687D02*
X12007396Y-17553164D01*
X12007396Y-17553164D02*
X11988348Y-17543640D01*
X12102634Y-17457925D02*
X12102634Y-17496021D01*
X12178825Y-17457925D02*
X12178825Y-17496021D01*
X12474063Y-17734116D02*
X12464539Y-17724592D01*
X12464539Y-17724592D02*
X12445491Y-17696021D01*
X12445491Y-17696021D02*
X12435968Y-17676973D01*
X12435968Y-17676973D02*
X12426444Y-17648402D01*
X12426444Y-17648402D02*
X12416920Y-17600783D01*
X12416920Y-17600783D02*
X12416920Y-17562687D01*
X12416920Y-17562687D02*
X12426444Y-17515068D01*
X12426444Y-17515068D02*
X12435968Y-17486497D01*
X12435968Y-17486497D02*
X12445491Y-17467449D01*
X12445491Y-17467449D02*
X12464539Y-17438878D01*
X12464539Y-17438878D02*
X12474063Y-17429354D01*
X12635968Y-17524592D02*
X12635968Y-17657925D01*
X12588348Y-17448402D02*
X12540729Y-17591259D01*
X12540729Y-17591259D02*
X12664539Y-17591259D01*
X12893110Y-17657925D02*
X12893110Y-17457925D01*
X12978825Y-17657925D02*
X12978825Y-17553164D01*
X12978825Y-17553164D02*
X12969301Y-17534116D01*
X12969301Y-17534116D02*
X12950253Y-17524592D01*
X12950253Y-17524592D02*
X12921682Y-17524592D01*
X12921682Y-17524592D02*
X12902634Y-17534116D01*
X12902634Y-17534116D02*
X12893110Y-17543640D01*
X13102634Y-17657925D02*
X13083587Y-17648402D01*
X13083587Y-17648402D02*
X13074063Y-17638878D01*
X13074063Y-17638878D02*
X13064539Y-17619830D01*
X13064539Y-17619830D02*
X13064539Y-17562687D01*
X13064539Y-17562687D02*
X13074063Y-17543640D01*
X13074063Y-17543640D02*
X13083587Y-17534116D01*
X13083587Y-17534116D02*
X13102634Y-17524592D01*
X13102634Y-17524592D02*
X13131206Y-17524592D01*
X13131206Y-17524592D02*
X13150253Y-17534116D01*
X13150253Y-17534116D02*
X13159777Y-17543640D01*
X13159777Y-17543640D02*
X13169301Y-17562687D01*
X13169301Y-17562687D02*
X13169301Y-17619830D01*
X13169301Y-17619830D02*
X13159777Y-17638878D01*
X13159777Y-17638878D02*
X13150253Y-17648402D01*
X13150253Y-17648402D02*
X13131206Y-17657925D01*
X13131206Y-17657925D02*
X13102634Y-17657925D01*
X13283587Y-17657925D02*
X13264539Y-17648402D01*
X13264539Y-17648402D02*
X13255015Y-17629354D01*
X13255015Y-17629354D02*
X13255015Y-17457925D01*
X13435968Y-17648402D02*
X13416920Y-17657925D01*
X13416920Y-17657925D02*
X13378825Y-17657925D01*
X13378825Y-17657925D02*
X13359777Y-17648402D01*
X13359777Y-17648402D02*
X13350253Y-17629354D01*
X13350253Y-17629354D02*
X13350253Y-17553164D01*
X13350253Y-17553164D02*
X13359777Y-17534116D01*
X13359777Y-17534116D02*
X13378825Y-17524592D01*
X13378825Y-17524592D02*
X13416920Y-17524592D01*
X13416920Y-17524592D02*
X13435968Y-17534116D01*
X13435968Y-17534116D02*
X13445491Y-17553164D01*
X13445491Y-17553164D02*
X13445491Y-17572211D01*
X13445491Y-17572211D02*
X13350253Y-17591259D01*
X13521682Y-17648402D02*
X13540730Y-17657925D01*
X13540730Y-17657925D02*
X13578825Y-17657925D01*
X13578825Y-17657925D02*
X13597872Y-17648402D01*
X13597872Y-17648402D02*
X13607396Y-17629354D01*
X13607396Y-17629354D02*
X13607396Y-17619830D01*
X13607396Y-17619830D02*
X13597872Y-17600783D01*
X13597872Y-17600783D02*
X13578825Y-17591259D01*
X13578825Y-17591259D02*
X13550253Y-17591259D01*
X13550253Y-17591259D02*
X13531206Y-17581735D01*
X13531206Y-17581735D02*
X13521682Y-17562687D01*
X13521682Y-17562687D02*
X13521682Y-17553164D01*
X13521682Y-17553164D02*
X13531206Y-17534116D01*
X13531206Y-17534116D02*
X13550253Y-17524592D01*
X13550253Y-17524592D02*
X13578825Y-17524592D01*
X13578825Y-17524592D02*
X13597872Y-17534116D01*
X13674063Y-17734116D02*
X13683587Y-17724592D01*
X13683587Y-17724592D02*
X13702634Y-17696021D01*
X13702634Y-17696021D02*
X13712158Y-17676973D01*
X13712158Y-17676973D02*
X13721682Y-17648402D01*
X13721682Y-17648402D02*
X13731206Y-17600783D01*
X13731206Y-17600783D02*
X13731206Y-17562687D01*
X13731206Y-17562687D02*
X13721682Y-17515068D01*
X13721682Y-17515068D02*
X13712158Y-17486497D01*
X13712158Y-17486497D02*
X13702634Y-17467449D01*
X13702634Y-17467449D02*
X13683587Y-17438878D01*
X13683587Y-17438878D02*
X13674063Y-17429354D01*
X8869711Y-17901153D02*
X8869711Y-17759730D01*
X8728289Y-17759730D01*
X8728289Y-17901153D01*
X8869711Y-17901153D01*
X8899000Y-17830442D02*
G75*
G03*
X8899000Y-17830442I-100000J0D01*
G01*
X9150253Y-17740973D02*
X9159777Y-17731449D01*
X9159777Y-17731449D02*
X9178824Y-17721925D01*
X9178824Y-17721925D02*
X9226444Y-17721925D01*
X9226444Y-17721925D02*
X9245491Y-17731449D01*
X9245491Y-17731449D02*
X9255015Y-17740973D01*
X9255015Y-17740973D02*
X9264539Y-17760021D01*
X9264539Y-17760021D02*
X9264539Y-17779068D01*
X9264539Y-17779068D02*
X9255015Y-17807640D01*
X9255015Y-17807640D02*
X9140729Y-17921925D01*
X9140729Y-17921925D02*
X9264539Y-17921925D01*
X9350253Y-17902878D02*
X9359777Y-17912402D01*
X9359777Y-17912402D02*
X9350253Y-17921925D01*
X9350253Y-17921925D02*
X9340729Y-17912402D01*
X9340729Y-17912402D02*
X9350253Y-17902878D01*
X9350253Y-17902878D02*
X9350253Y-17921925D01*
X9435967Y-17740973D02*
X9445491Y-17731449D01*
X9445491Y-17731449D02*
X9464539Y-17721925D01*
X9464539Y-17721925D02*
X9512158Y-17721925D01*
X9512158Y-17721925D02*
X9531205Y-17731449D01*
X9531205Y-17731449D02*
X9540729Y-17740973D01*
X9540729Y-17740973D02*
X9550253Y-17760021D01*
X9550253Y-17760021D02*
X9550253Y-17779068D01*
X9550253Y-17779068D02*
X9540729Y-17807640D01*
X9540729Y-17807640D02*
X9426444Y-17921925D01*
X9426444Y-17921925D02*
X9550253Y-17921925D01*
X9731205Y-17721925D02*
X9635967Y-17721925D01*
X9635967Y-17721925D02*
X9626444Y-17817164D01*
X9626444Y-17817164D02*
X9635967Y-17807640D01*
X9635967Y-17807640D02*
X9655015Y-17798116D01*
X9655015Y-17798116D02*
X9702634Y-17798116D01*
X9702634Y-17798116D02*
X9721682Y-17807640D01*
X9721682Y-17807640D02*
X9731205Y-17817164D01*
X9731205Y-17817164D02*
X9740729Y-17836211D01*
X9740729Y-17836211D02*
X9740729Y-17883830D01*
X9740729Y-17883830D02*
X9731205Y-17902878D01*
X9731205Y-17902878D02*
X9721682Y-17912402D01*
X9721682Y-17912402D02*
X9702634Y-17921925D01*
X9702634Y-17921925D02*
X9655015Y-17921925D01*
X9655015Y-17921925D02*
X9635967Y-17912402D01*
X9635967Y-17912402D02*
X9626444Y-17902878D01*
X9864539Y-17721925D02*
X9883586Y-17721925D01*
X9883586Y-17721925D02*
X9902634Y-17731449D01*
X9902634Y-17731449D02*
X9912158Y-17740973D01*
X9912158Y-17740973D02*
X9921682Y-17760021D01*
X9921682Y-17760021D02*
X9931205Y-17798116D01*
X9931205Y-17798116D02*
X9931205Y-17845735D01*
X9931205Y-17845735D02*
X9921682Y-17883830D01*
X9921682Y-17883830D02*
X9912158Y-17902878D01*
X9912158Y-17902878D02*
X9902634Y-17912402D01*
X9902634Y-17912402D02*
X9883586Y-17921925D01*
X9883586Y-17921925D02*
X9864539Y-17921925D01*
X9864539Y-17921925D02*
X9845491Y-17912402D01*
X9845491Y-17912402D02*
X9835967Y-17902878D01*
X9835967Y-17902878D02*
X9826444Y-17883830D01*
X9826444Y-17883830D02*
X9816920Y-17845735D01*
X9816920Y-17845735D02*
X9816920Y-17798116D01*
X9816920Y-17798116D02*
X9826444Y-17760021D01*
X9826444Y-17760021D02*
X9835967Y-17740973D01*
X9835967Y-17740973D02*
X9845491Y-17731449D01*
X9845491Y-17731449D02*
X9864539Y-17721925D01*
X10016920Y-17921925D02*
X10016920Y-17788592D01*
X10016920Y-17807640D02*
X10026444Y-17798116D01*
X10026444Y-17798116D02*
X10045491Y-17788592D01*
X10045491Y-17788592D02*
X10074063Y-17788592D01*
X10074063Y-17788592D02*
X10093110Y-17798116D01*
X10093110Y-17798116D02*
X10102634Y-17817164D01*
X10102634Y-17817164D02*
X10102634Y-17921925D01*
X10102634Y-17817164D02*
X10112158Y-17798116D01*
X10112158Y-17798116D02*
X10131205Y-17788592D01*
X10131205Y-17788592D02*
X10159777Y-17788592D01*
X10159777Y-17788592D02*
X10178825Y-17798116D01*
X10178825Y-17798116D02*
X10188348Y-17817164D01*
X10188348Y-17817164D02*
X10188348Y-17921925D01*
X10283586Y-17921925D02*
X10283586Y-17788592D01*
X10283586Y-17807640D02*
X10293110Y-17798116D01*
X10293110Y-17798116D02*
X10312158Y-17788592D01*
X10312158Y-17788592D02*
X10340729Y-17788592D01*
X10340729Y-17788592D02*
X10359777Y-17798116D01*
X10359777Y-17798116D02*
X10369301Y-17817164D01*
X10369301Y-17817164D02*
X10369301Y-17921925D01*
X10369301Y-17817164D02*
X10378825Y-17798116D01*
X10378825Y-17798116D02*
X10397872Y-17788592D01*
X10397872Y-17788592D02*
X10426444Y-17788592D01*
X10426444Y-17788592D02*
X10445491Y-17798116D01*
X10445491Y-17798116D02*
X10455015Y-17817164D01*
X10455015Y-17817164D02*
X10455015Y-17921925D01*
X10845491Y-17712402D02*
X10674063Y-17969544D01*
X11102634Y-17721925D02*
X11121682Y-17721925D01*
X11121682Y-17721925D02*
X11140729Y-17731449D01*
X11140729Y-17731449D02*
X11150253Y-17740973D01*
X11150253Y-17740973D02*
X11159777Y-17760021D01*
X11159777Y-17760021D02*
X11169301Y-17798116D01*
X11169301Y-17798116D02*
X11169301Y-17845735D01*
X11169301Y-17845735D02*
X11159777Y-17883830D01*
X11159777Y-17883830D02*
X11150253Y-17902878D01*
X11150253Y-17902878D02*
X11140729Y-17912402D01*
X11140729Y-17912402D02*
X11121682Y-17921925D01*
X11121682Y-17921925D02*
X11102634Y-17921925D01*
X11102634Y-17921925D02*
X11083587Y-17912402D01*
X11083587Y-17912402D02*
X11074063Y-17902878D01*
X11074063Y-17902878D02*
X11064539Y-17883830D01*
X11064539Y-17883830D02*
X11055015Y-17845735D01*
X11055015Y-17845735D02*
X11055015Y-17798116D01*
X11055015Y-17798116D02*
X11064539Y-17760021D01*
X11064539Y-17760021D02*
X11074063Y-17740973D01*
X11074063Y-17740973D02*
X11083587Y-17731449D01*
X11083587Y-17731449D02*
X11102634Y-17721925D01*
X11255015Y-17902878D02*
X11264539Y-17912402D01*
X11264539Y-17912402D02*
X11255015Y-17921925D01*
X11255015Y-17921925D02*
X11245491Y-17912402D01*
X11245491Y-17912402D02*
X11255015Y-17902878D01*
X11255015Y-17902878D02*
X11255015Y-17921925D01*
X11388348Y-17721925D02*
X11407396Y-17721925D01*
X11407396Y-17721925D02*
X11426444Y-17731449D01*
X11426444Y-17731449D02*
X11435967Y-17740973D01*
X11435967Y-17740973D02*
X11445491Y-17760021D01*
X11445491Y-17760021D02*
X11455015Y-17798116D01*
X11455015Y-17798116D02*
X11455015Y-17845735D01*
X11455015Y-17845735D02*
X11445491Y-17883830D01*
X11445491Y-17883830D02*
X11435967Y-17902878D01*
X11435967Y-17902878D02*
X11426444Y-17912402D01*
X11426444Y-17912402D02*
X11407396Y-17921925D01*
X11407396Y-17921925D02*
X11388348Y-17921925D01*
X11388348Y-17921925D02*
X11369301Y-17912402D01*
X11369301Y-17912402D02*
X11359777Y-17902878D01*
X11359777Y-17902878D02*
X11350253Y-17883830D01*
X11350253Y-17883830D02*
X11340729Y-17845735D01*
X11340729Y-17845735D02*
X11340729Y-17798116D01*
X11340729Y-17798116D02*
X11350253Y-17760021D01*
X11350253Y-17760021D02*
X11359777Y-17740973D01*
X11359777Y-17740973D02*
X11369301Y-17731449D01*
X11369301Y-17731449D02*
X11388348Y-17721925D01*
X11569301Y-17807640D02*
X11550253Y-17798116D01*
X11550253Y-17798116D02*
X11540729Y-17788592D01*
X11540729Y-17788592D02*
X11531206Y-17769544D01*
X11531206Y-17769544D02*
X11531206Y-17760021D01*
X11531206Y-17760021D02*
X11540729Y-17740973D01*
X11540729Y-17740973D02*
X11550253Y-17731449D01*
X11550253Y-17731449D02*
X11569301Y-17721925D01*
X11569301Y-17721925D02*
X11607396Y-17721925D01*
X11607396Y-17721925D02*
X11626444Y-17731449D01*
X11626444Y-17731449D02*
X11635967Y-17740973D01*
X11635967Y-17740973D02*
X11645491Y-17760021D01*
X11645491Y-17760021D02*
X11645491Y-17769544D01*
X11645491Y-17769544D02*
X11635967Y-17788592D01*
X11635967Y-17788592D02*
X11626444Y-17798116D01*
X11626444Y-17798116D02*
X11607396Y-17807640D01*
X11607396Y-17807640D02*
X11569301Y-17807640D01*
X11569301Y-17807640D02*
X11550253Y-17817164D01*
X11550253Y-17817164D02*
X11540729Y-17826687D01*
X11540729Y-17826687D02*
X11531206Y-17845735D01*
X11531206Y-17845735D02*
X11531206Y-17883830D01*
X11531206Y-17883830D02*
X11540729Y-17902878D01*
X11540729Y-17902878D02*
X11550253Y-17912402D01*
X11550253Y-17912402D02*
X11569301Y-17921925D01*
X11569301Y-17921925D02*
X11607396Y-17921925D01*
X11607396Y-17921925D02*
X11626444Y-17912402D01*
X11626444Y-17912402D02*
X11635967Y-17902878D01*
X11635967Y-17902878D02*
X11645491Y-17883830D01*
X11645491Y-17883830D02*
X11645491Y-17845735D01*
X11645491Y-17845735D02*
X11635967Y-17826687D01*
X11635967Y-17826687D02*
X11626444Y-17817164D01*
X11626444Y-17817164D02*
X11607396Y-17807640D01*
X11759777Y-17807640D02*
X11740729Y-17798116D01*
X11740729Y-17798116D02*
X11731206Y-17788592D01*
X11731206Y-17788592D02*
X11721682Y-17769544D01*
X11721682Y-17769544D02*
X11721682Y-17760021D01*
X11721682Y-17760021D02*
X11731206Y-17740973D01*
X11731206Y-17740973D02*
X11740729Y-17731449D01*
X11740729Y-17731449D02*
X11759777Y-17721925D01*
X11759777Y-17721925D02*
X11797872Y-17721925D01*
X11797872Y-17721925D02*
X11816920Y-17731449D01*
X11816920Y-17731449D02*
X11826444Y-17740973D01*
X11826444Y-17740973D02*
X11835967Y-17760021D01*
X11835967Y-17760021D02*
X11835967Y-17769544D01*
X11835967Y-17769544D02*
X11826444Y-17788592D01*
X11826444Y-17788592D02*
X11816920Y-17798116D01*
X11816920Y-17798116D02*
X11797872Y-17807640D01*
X11797872Y-17807640D02*
X11759777Y-17807640D01*
X11759777Y-17807640D02*
X11740729Y-17817164D01*
X11740729Y-17817164D02*
X11731206Y-17826687D01*
X11731206Y-17826687D02*
X11721682Y-17845735D01*
X11721682Y-17845735D02*
X11721682Y-17883830D01*
X11721682Y-17883830D02*
X11731206Y-17902878D01*
X11731206Y-17902878D02*
X11740729Y-17912402D01*
X11740729Y-17912402D02*
X11759777Y-17921925D01*
X11759777Y-17921925D02*
X11797872Y-17921925D01*
X11797872Y-17921925D02*
X11816920Y-17912402D01*
X11816920Y-17912402D02*
X11826444Y-17902878D01*
X11826444Y-17902878D02*
X11835967Y-17883830D01*
X11835967Y-17883830D02*
X11835967Y-17845735D01*
X11835967Y-17845735D02*
X11826444Y-17826687D01*
X11826444Y-17826687D02*
X11816920Y-17817164D01*
X11816920Y-17817164D02*
X11797872Y-17807640D01*
X12007396Y-17721925D02*
X11969301Y-17721925D01*
X11969301Y-17721925D02*
X11950253Y-17731449D01*
X11950253Y-17731449D02*
X11940729Y-17740973D01*
X11940729Y-17740973D02*
X11921682Y-17769544D01*
X11921682Y-17769544D02*
X11912158Y-17807640D01*
X11912158Y-17807640D02*
X11912158Y-17883830D01*
X11912158Y-17883830D02*
X11921682Y-17902878D01*
X11921682Y-17902878D02*
X11931206Y-17912402D01*
X11931206Y-17912402D02*
X11950253Y-17921925D01*
X11950253Y-17921925D02*
X11988348Y-17921925D01*
X11988348Y-17921925D02*
X12007396Y-17912402D01*
X12007396Y-17912402D02*
X12016920Y-17902878D01*
X12016920Y-17902878D02*
X12026444Y-17883830D01*
X12026444Y-17883830D02*
X12026444Y-17836211D01*
X12026444Y-17836211D02*
X12016920Y-17817164D01*
X12016920Y-17817164D02*
X12007396Y-17807640D01*
X12007396Y-17807640D02*
X11988348Y-17798116D01*
X11988348Y-17798116D02*
X11950253Y-17798116D01*
X11950253Y-17798116D02*
X11931206Y-17807640D01*
X11931206Y-17807640D02*
X11921682Y-17817164D01*
X11921682Y-17817164D02*
X11912158Y-17836211D01*
X12102634Y-17721925D02*
X12102634Y-17760021D01*
X12178825Y-17721925D02*
X12178825Y-17760021D01*
X12474063Y-17998116D02*
X12464539Y-17988592D01*
X12464539Y-17988592D02*
X12445491Y-17960021D01*
X12445491Y-17960021D02*
X12435968Y-17940973D01*
X12435968Y-17940973D02*
X12426444Y-17912402D01*
X12426444Y-17912402D02*
X12416920Y-17864783D01*
X12416920Y-17864783D02*
X12416920Y-17826687D01*
X12416920Y-17826687D02*
X12426444Y-17779068D01*
X12426444Y-17779068D02*
X12435968Y-17750497D01*
X12435968Y-17750497D02*
X12445491Y-17731449D01*
X12445491Y-17731449D02*
X12464539Y-17702878D01*
X12464539Y-17702878D02*
X12474063Y-17693354D01*
X12588348Y-17721925D02*
X12607396Y-17721925D01*
X12607396Y-17721925D02*
X12626444Y-17731449D01*
X12626444Y-17731449D02*
X12635968Y-17740973D01*
X12635968Y-17740973D02*
X12645491Y-17760021D01*
X12645491Y-17760021D02*
X12655015Y-17798116D01*
X12655015Y-17798116D02*
X12655015Y-17845735D01*
X12655015Y-17845735D02*
X12645491Y-17883830D01*
X12645491Y-17883830D02*
X12635968Y-17902878D01*
X12635968Y-17902878D02*
X12626444Y-17912402D01*
X12626444Y-17912402D02*
X12607396Y-17921925D01*
X12607396Y-17921925D02*
X12588348Y-17921925D01*
X12588348Y-17921925D02*
X12569301Y-17912402D01*
X12569301Y-17912402D02*
X12559777Y-17902878D01*
X12559777Y-17902878D02*
X12550253Y-17883830D01*
X12550253Y-17883830D02*
X12540729Y-17845735D01*
X12540729Y-17845735D02*
X12540729Y-17798116D01*
X12540729Y-17798116D02*
X12550253Y-17760021D01*
X12550253Y-17760021D02*
X12559777Y-17740973D01*
X12559777Y-17740973D02*
X12569301Y-17731449D01*
X12569301Y-17731449D02*
X12588348Y-17721925D01*
X12893110Y-17921925D02*
X12893110Y-17721925D01*
X12978825Y-17921925D02*
X12978825Y-17817164D01*
X12978825Y-17817164D02*
X12969301Y-17798116D01*
X12969301Y-17798116D02*
X12950253Y-17788592D01*
X12950253Y-17788592D02*
X12921682Y-17788592D01*
X12921682Y-17788592D02*
X12902634Y-17798116D01*
X12902634Y-17798116D02*
X12893110Y-17807640D01*
X13102634Y-17921925D02*
X13083587Y-17912402D01*
X13083587Y-17912402D02*
X13074063Y-17902878D01*
X13074063Y-17902878D02*
X13064539Y-17883830D01*
X13064539Y-17883830D02*
X13064539Y-17826687D01*
X13064539Y-17826687D02*
X13074063Y-17807640D01*
X13074063Y-17807640D02*
X13083587Y-17798116D01*
X13083587Y-17798116D02*
X13102634Y-17788592D01*
X13102634Y-17788592D02*
X13131206Y-17788592D01*
X13131206Y-17788592D02*
X13150253Y-17798116D01*
X13150253Y-17798116D02*
X13159777Y-17807640D01*
X13159777Y-17807640D02*
X13169301Y-17826687D01*
X13169301Y-17826687D02*
X13169301Y-17883830D01*
X13169301Y-17883830D02*
X13159777Y-17902878D01*
X13159777Y-17902878D02*
X13150253Y-17912402D01*
X13150253Y-17912402D02*
X13131206Y-17921925D01*
X13131206Y-17921925D02*
X13102634Y-17921925D01*
X13283587Y-17921925D02*
X13264539Y-17912402D01*
X13264539Y-17912402D02*
X13255015Y-17893354D01*
X13255015Y-17893354D02*
X13255015Y-17721925D01*
X13435968Y-17912402D02*
X13416920Y-17921925D01*
X13416920Y-17921925D02*
X13378825Y-17921925D01*
X13378825Y-17921925D02*
X13359777Y-17912402D01*
X13359777Y-17912402D02*
X13350253Y-17893354D01*
X13350253Y-17893354D02*
X13350253Y-17817164D01*
X13350253Y-17817164D02*
X13359777Y-17798116D01*
X13359777Y-17798116D02*
X13378825Y-17788592D01*
X13378825Y-17788592D02*
X13416920Y-17788592D01*
X13416920Y-17788592D02*
X13435968Y-17798116D01*
X13435968Y-17798116D02*
X13445491Y-17817164D01*
X13445491Y-17817164D02*
X13445491Y-17836211D01*
X13445491Y-17836211D02*
X13350253Y-17855259D01*
X13521682Y-17912402D02*
X13540730Y-17921925D01*
X13540730Y-17921925D02*
X13578825Y-17921925D01*
X13578825Y-17921925D02*
X13597872Y-17912402D01*
X13597872Y-17912402D02*
X13607396Y-17893354D01*
X13607396Y-17893354D02*
X13607396Y-17883830D01*
X13607396Y-17883830D02*
X13597872Y-17864783D01*
X13597872Y-17864783D02*
X13578825Y-17855259D01*
X13578825Y-17855259D02*
X13550253Y-17855259D01*
X13550253Y-17855259D02*
X13531206Y-17845735D01*
X13531206Y-17845735D02*
X13521682Y-17826687D01*
X13521682Y-17826687D02*
X13521682Y-17817164D01*
X13521682Y-17817164D02*
X13531206Y-17798116D01*
X13531206Y-17798116D02*
X13550253Y-17788592D01*
X13550253Y-17788592D02*
X13578825Y-17788592D01*
X13578825Y-17788592D02*
X13597872Y-17798116D01*
X13845492Y-17845735D02*
X13997873Y-17845735D01*
X13921682Y-17921925D02*
X13921682Y-17769544D01*
X14331206Y-17788592D02*
X14331206Y-17921925D01*
X14283587Y-17712402D02*
X14235968Y-17855259D01*
X14235968Y-17855259D02*
X14359777Y-17855259D01*
X14578825Y-17912402D02*
X14597873Y-17921925D01*
X14597873Y-17921925D02*
X14635968Y-17921925D01*
X14635968Y-17921925D02*
X14655015Y-17912402D01*
X14655015Y-17912402D02*
X14664539Y-17893354D01*
X14664539Y-17893354D02*
X14664539Y-17883830D01*
X14664539Y-17883830D02*
X14655015Y-17864783D01*
X14655015Y-17864783D02*
X14635968Y-17855259D01*
X14635968Y-17855259D02*
X14607396Y-17855259D01*
X14607396Y-17855259D02*
X14588349Y-17845735D01*
X14588349Y-17845735D02*
X14578825Y-17826687D01*
X14578825Y-17826687D02*
X14578825Y-17817164D01*
X14578825Y-17817164D02*
X14588349Y-17798116D01*
X14588349Y-17798116D02*
X14607396Y-17788592D01*
X14607396Y-17788592D02*
X14635968Y-17788592D01*
X14635968Y-17788592D02*
X14655015Y-17798116D01*
X14778825Y-17921925D02*
X14759777Y-17912402D01*
X14759777Y-17912402D02*
X14750254Y-17893354D01*
X14750254Y-17893354D02*
X14750254Y-17721925D01*
X14883587Y-17921925D02*
X14864539Y-17912402D01*
X14864539Y-17912402D02*
X14855015Y-17902878D01*
X14855015Y-17902878D02*
X14845492Y-17883830D01*
X14845492Y-17883830D02*
X14845492Y-17826687D01*
X14845492Y-17826687D02*
X14855015Y-17807640D01*
X14855015Y-17807640D02*
X14864539Y-17798116D01*
X14864539Y-17798116D02*
X14883587Y-17788592D01*
X14883587Y-17788592D02*
X14912158Y-17788592D01*
X14912158Y-17788592D02*
X14931206Y-17798116D01*
X14931206Y-17798116D02*
X14940730Y-17807640D01*
X14940730Y-17807640D02*
X14950254Y-17826687D01*
X14950254Y-17826687D02*
X14950254Y-17883830D01*
X14950254Y-17883830D02*
X14940730Y-17902878D01*
X14940730Y-17902878D02*
X14931206Y-17912402D01*
X14931206Y-17912402D02*
X14912158Y-17921925D01*
X14912158Y-17921925D02*
X14883587Y-17921925D01*
X15007396Y-17788592D02*
X15083587Y-17788592D01*
X15035968Y-17721925D02*
X15035968Y-17893354D01*
X15035968Y-17893354D02*
X15045492Y-17912402D01*
X15045492Y-17912402D02*
X15064539Y-17921925D01*
X15064539Y-17921925D02*
X15083587Y-17921925D01*
X15140730Y-17912402D02*
X15159777Y-17921925D01*
X15159777Y-17921925D02*
X15197873Y-17921925D01*
X15197873Y-17921925D02*
X15216920Y-17912402D01*
X15216920Y-17912402D02*
X15226444Y-17893354D01*
X15226444Y-17893354D02*
X15226444Y-17883830D01*
X15226444Y-17883830D02*
X15216920Y-17864783D01*
X15216920Y-17864783D02*
X15197873Y-17855259D01*
X15197873Y-17855259D02*
X15169301Y-17855259D01*
X15169301Y-17855259D02*
X15150254Y-17845735D01*
X15150254Y-17845735D02*
X15140730Y-17826687D01*
X15140730Y-17826687D02*
X15140730Y-17817164D01*
X15140730Y-17817164D02*
X15150254Y-17798116D01*
X15150254Y-17798116D02*
X15169301Y-17788592D01*
X15169301Y-17788592D02*
X15197873Y-17788592D01*
X15197873Y-17788592D02*
X15216920Y-17798116D01*
X15293111Y-17998116D02*
X15302635Y-17988592D01*
X15302635Y-17988592D02*
X15321682Y-17960021D01*
X15321682Y-17960021D02*
X15331206Y-17940973D01*
X15331206Y-17940973D02*
X15340730Y-17912402D01*
X15340730Y-17912402D02*
X15350254Y-17864783D01*
X15350254Y-17864783D02*
X15350254Y-17826687D01*
X15350254Y-17826687D02*
X15340730Y-17779068D01*
X15340730Y-17779068D02*
X15331206Y-17750497D01*
X15331206Y-17750497D02*
X15321682Y-17731449D01*
X15321682Y-17731449D02*
X15302635Y-17702878D01*
X15302635Y-17702878D02*
X15293111Y-17693354D01*
X8799000Y-18250442D02*
X8899000Y-18150442D01*
X8799000Y-18050442D01*
X8699000Y-18150442D01*
X8799000Y-18250442D01*
X8899000Y-18150442D02*
G75*
G03*
X8899000Y-18150442I-100000J0D01*
G01*
X9140729Y-18041925D02*
X9264539Y-18041925D01*
X9264539Y-18041925D02*
X9197872Y-18118116D01*
X9197872Y-18118116D02*
X9226444Y-18118116D01*
X9226444Y-18118116D02*
X9245491Y-18127640D01*
X9245491Y-18127640D02*
X9255015Y-18137164D01*
X9255015Y-18137164D02*
X9264539Y-18156211D01*
X9264539Y-18156211D02*
X9264539Y-18203830D01*
X9264539Y-18203830D02*
X9255015Y-18222878D01*
X9255015Y-18222878D02*
X9245491Y-18232402D01*
X9245491Y-18232402D02*
X9226444Y-18241925D01*
X9226444Y-18241925D02*
X9169301Y-18241925D01*
X9169301Y-18241925D02*
X9150253Y-18232402D01*
X9150253Y-18232402D02*
X9140729Y-18222878D01*
X9350253Y-18222878D02*
X9359777Y-18232402D01*
X9359777Y-18232402D02*
X9350253Y-18241925D01*
X9350253Y-18241925D02*
X9340729Y-18232402D01*
X9340729Y-18232402D02*
X9350253Y-18222878D01*
X9350253Y-18222878D02*
X9350253Y-18241925D01*
X9550253Y-18241925D02*
X9435967Y-18241925D01*
X9493110Y-18241925D02*
X9493110Y-18041925D01*
X9493110Y-18041925D02*
X9474063Y-18070497D01*
X9474063Y-18070497D02*
X9455015Y-18089544D01*
X9455015Y-18089544D02*
X9435967Y-18099068D01*
X9674063Y-18041925D02*
X9693110Y-18041925D01*
X9693110Y-18041925D02*
X9712158Y-18051449D01*
X9712158Y-18051449D02*
X9721682Y-18060973D01*
X9721682Y-18060973D02*
X9731205Y-18080021D01*
X9731205Y-18080021D02*
X9740729Y-18118116D01*
X9740729Y-18118116D02*
X9740729Y-18165735D01*
X9740729Y-18165735D02*
X9731205Y-18203830D01*
X9731205Y-18203830D02*
X9721682Y-18222878D01*
X9721682Y-18222878D02*
X9712158Y-18232402D01*
X9712158Y-18232402D02*
X9693110Y-18241925D01*
X9693110Y-18241925D02*
X9674063Y-18241925D01*
X9674063Y-18241925D02*
X9655015Y-18232402D01*
X9655015Y-18232402D02*
X9645491Y-18222878D01*
X9645491Y-18222878D02*
X9635967Y-18203830D01*
X9635967Y-18203830D02*
X9626444Y-18165735D01*
X9626444Y-18165735D02*
X9626444Y-18118116D01*
X9626444Y-18118116D02*
X9635967Y-18080021D01*
X9635967Y-18080021D02*
X9645491Y-18060973D01*
X9645491Y-18060973D02*
X9655015Y-18051449D01*
X9655015Y-18051449D02*
X9674063Y-18041925D01*
X9864539Y-18041925D02*
X9883586Y-18041925D01*
X9883586Y-18041925D02*
X9902634Y-18051449D01*
X9902634Y-18051449D02*
X9912158Y-18060973D01*
X9912158Y-18060973D02*
X9921682Y-18080021D01*
X9921682Y-18080021D02*
X9931205Y-18118116D01*
X9931205Y-18118116D02*
X9931205Y-18165735D01*
X9931205Y-18165735D02*
X9921682Y-18203830D01*
X9921682Y-18203830D02*
X9912158Y-18222878D01*
X9912158Y-18222878D02*
X9902634Y-18232402D01*
X9902634Y-18232402D02*
X9883586Y-18241925D01*
X9883586Y-18241925D02*
X9864539Y-18241925D01*
X9864539Y-18241925D02*
X9845491Y-18232402D01*
X9845491Y-18232402D02*
X9835967Y-18222878D01*
X9835967Y-18222878D02*
X9826444Y-18203830D01*
X9826444Y-18203830D02*
X9816920Y-18165735D01*
X9816920Y-18165735D02*
X9816920Y-18118116D01*
X9816920Y-18118116D02*
X9826444Y-18080021D01*
X9826444Y-18080021D02*
X9835967Y-18060973D01*
X9835967Y-18060973D02*
X9845491Y-18051449D01*
X9845491Y-18051449D02*
X9864539Y-18041925D01*
X10016920Y-18241925D02*
X10016920Y-18108592D01*
X10016920Y-18127640D02*
X10026444Y-18118116D01*
X10026444Y-18118116D02*
X10045491Y-18108592D01*
X10045491Y-18108592D02*
X10074063Y-18108592D01*
X10074063Y-18108592D02*
X10093110Y-18118116D01*
X10093110Y-18118116D02*
X10102634Y-18137164D01*
X10102634Y-18137164D02*
X10102634Y-18241925D01*
X10102634Y-18137164D02*
X10112158Y-18118116D01*
X10112158Y-18118116D02*
X10131205Y-18108592D01*
X10131205Y-18108592D02*
X10159777Y-18108592D01*
X10159777Y-18108592D02*
X10178825Y-18118116D01*
X10178825Y-18118116D02*
X10188348Y-18137164D01*
X10188348Y-18137164D02*
X10188348Y-18241925D01*
X10283586Y-18241925D02*
X10283586Y-18108592D01*
X10283586Y-18127640D02*
X10293110Y-18118116D01*
X10293110Y-18118116D02*
X10312158Y-18108592D01*
X10312158Y-18108592D02*
X10340729Y-18108592D01*
X10340729Y-18108592D02*
X10359777Y-18118116D01*
X10359777Y-18118116D02*
X10369301Y-18137164D01*
X10369301Y-18137164D02*
X10369301Y-18241925D01*
X10369301Y-18137164D02*
X10378825Y-18118116D01*
X10378825Y-18118116D02*
X10397872Y-18108592D01*
X10397872Y-18108592D02*
X10426444Y-18108592D01*
X10426444Y-18108592D02*
X10445491Y-18118116D01*
X10445491Y-18118116D02*
X10455015Y-18137164D01*
X10455015Y-18137164D02*
X10455015Y-18241925D01*
X10845491Y-18032402D02*
X10674063Y-18289544D01*
X11102634Y-18041925D02*
X11121682Y-18041925D01*
X11121682Y-18041925D02*
X11140729Y-18051449D01*
X11140729Y-18051449D02*
X11150253Y-18060973D01*
X11150253Y-18060973D02*
X11159777Y-18080021D01*
X11159777Y-18080021D02*
X11169301Y-18118116D01*
X11169301Y-18118116D02*
X11169301Y-18165735D01*
X11169301Y-18165735D02*
X11159777Y-18203830D01*
X11159777Y-18203830D02*
X11150253Y-18222878D01*
X11150253Y-18222878D02*
X11140729Y-18232402D01*
X11140729Y-18232402D02*
X11121682Y-18241925D01*
X11121682Y-18241925D02*
X11102634Y-18241925D01*
X11102634Y-18241925D02*
X11083587Y-18232402D01*
X11083587Y-18232402D02*
X11074063Y-18222878D01*
X11074063Y-18222878D02*
X11064539Y-18203830D01*
X11064539Y-18203830D02*
X11055015Y-18165735D01*
X11055015Y-18165735D02*
X11055015Y-18118116D01*
X11055015Y-18118116D02*
X11064539Y-18080021D01*
X11064539Y-18080021D02*
X11074063Y-18060973D01*
X11074063Y-18060973D02*
X11083587Y-18051449D01*
X11083587Y-18051449D02*
X11102634Y-18041925D01*
X11255015Y-18222878D02*
X11264539Y-18232402D01*
X11264539Y-18232402D02*
X11255015Y-18241925D01*
X11255015Y-18241925D02*
X11245491Y-18232402D01*
X11245491Y-18232402D02*
X11255015Y-18222878D01*
X11255015Y-18222878D02*
X11255015Y-18241925D01*
X11455015Y-18241925D02*
X11340729Y-18241925D01*
X11397872Y-18241925D02*
X11397872Y-18041925D01*
X11397872Y-18041925D02*
X11378825Y-18070497D01*
X11378825Y-18070497D02*
X11359777Y-18089544D01*
X11359777Y-18089544D02*
X11340729Y-18099068D01*
X11531206Y-18060973D02*
X11540729Y-18051449D01*
X11540729Y-18051449D02*
X11559777Y-18041925D01*
X11559777Y-18041925D02*
X11607396Y-18041925D01*
X11607396Y-18041925D02*
X11626444Y-18051449D01*
X11626444Y-18051449D02*
X11635967Y-18060973D01*
X11635967Y-18060973D02*
X11645491Y-18080021D01*
X11645491Y-18080021D02*
X11645491Y-18099068D01*
X11645491Y-18099068D02*
X11635967Y-18127640D01*
X11635967Y-18127640D02*
X11521682Y-18241925D01*
X11521682Y-18241925D02*
X11645491Y-18241925D01*
X11721682Y-18060973D02*
X11731206Y-18051449D01*
X11731206Y-18051449D02*
X11750253Y-18041925D01*
X11750253Y-18041925D02*
X11797872Y-18041925D01*
X11797872Y-18041925D02*
X11816920Y-18051449D01*
X11816920Y-18051449D02*
X11826444Y-18060973D01*
X11826444Y-18060973D02*
X11835967Y-18080021D01*
X11835967Y-18080021D02*
X11835967Y-18099068D01*
X11835967Y-18099068D02*
X11826444Y-18127640D01*
X11826444Y-18127640D02*
X11712158Y-18241925D01*
X11712158Y-18241925D02*
X11835967Y-18241925D01*
X11959777Y-18041925D02*
X11978825Y-18041925D01*
X11978825Y-18041925D02*
X11997872Y-18051449D01*
X11997872Y-18051449D02*
X12007396Y-18060973D01*
X12007396Y-18060973D02*
X12016920Y-18080021D01*
X12016920Y-18080021D02*
X12026444Y-18118116D01*
X12026444Y-18118116D02*
X12026444Y-18165735D01*
X12026444Y-18165735D02*
X12016920Y-18203830D01*
X12016920Y-18203830D02*
X12007396Y-18222878D01*
X12007396Y-18222878D02*
X11997872Y-18232402D01*
X11997872Y-18232402D02*
X11978825Y-18241925D01*
X11978825Y-18241925D02*
X11959777Y-18241925D01*
X11959777Y-18241925D02*
X11940729Y-18232402D01*
X11940729Y-18232402D02*
X11931206Y-18222878D01*
X11931206Y-18222878D02*
X11921682Y-18203830D01*
X11921682Y-18203830D02*
X11912158Y-18165735D01*
X11912158Y-18165735D02*
X11912158Y-18118116D01*
X11912158Y-18118116D02*
X11921682Y-18080021D01*
X11921682Y-18080021D02*
X11931206Y-18060973D01*
X11931206Y-18060973D02*
X11940729Y-18051449D01*
X11940729Y-18051449D02*
X11959777Y-18041925D01*
X12102634Y-18041925D02*
X12102634Y-18080021D01*
X12178825Y-18041925D02*
X12178825Y-18080021D01*
X12474063Y-18318116D02*
X12464539Y-18308592D01*
X12464539Y-18308592D02*
X12445491Y-18280021D01*
X12445491Y-18280021D02*
X12435968Y-18260973D01*
X12435968Y-18260973D02*
X12426444Y-18232402D01*
X12426444Y-18232402D02*
X12416920Y-18184783D01*
X12416920Y-18184783D02*
X12416920Y-18146687D01*
X12416920Y-18146687D02*
X12426444Y-18099068D01*
X12426444Y-18099068D02*
X12435968Y-18070497D01*
X12435968Y-18070497D02*
X12445491Y-18051449D01*
X12445491Y-18051449D02*
X12464539Y-18022878D01*
X12464539Y-18022878D02*
X12474063Y-18013354D01*
X12588348Y-18041925D02*
X12607396Y-18041925D01*
X12607396Y-18041925D02*
X12626444Y-18051449D01*
X12626444Y-18051449D02*
X12635968Y-18060973D01*
X12635968Y-18060973D02*
X12645491Y-18080021D01*
X12645491Y-18080021D02*
X12655015Y-18118116D01*
X12655015Y-18118116D02*
X12655015Y-18165735D01*
X12655015Y-18165735D02*
X12645491Y-18203830D01*
X12645491Y-18203830D02*
X12635968Y-18222878D01*
X12635968Y-18222878D02*
X12626444Y-18232402D01*
X12626444Y-18232402D02*
X12607396Y-18241925D01*
X12607396Y-18241925D02*
X12588348Y-18241925D01*
X12588348Y-18241925D02*
X12569301Y-18232402D01*
X12569301Y-18232402D02*
X12559777Y-18222878D01*
X12559777Y-18222878D02*
X12550253Y-18203830D01*
X12550253Y-18203830D02*
X12540729Y-18165735D01*
X12540729Y-18165735D02*
X12540729Y-18118116D01*
X12540729Y-18118116D02*
X12550253Y-18080021D01*
X12550253Y-18080021D02*
X12559777Y-18060973D01*
X12559777Y-18060973D02*
X12569301Y-18051449D01*
X12569301Y-18051449D02*
X12588348Y-18041925D01*
X12893110Y-18241925D02*
X12893110Y-18041925D01*
X12978825Y-18241925D02*
X12978825Y-18137164D01*
X12978825Y-18137164D02*
X12969301Y-18118116D01*
X12969301Y-18118116D02*
X12950253Y-18108592D01*
X12950253Y-18108592D02*
X12921682Y-18108592D01*
X12921682Y-18108592D02*
X12902634Y-18118116D01*
X12902634Y-18118116D02*
X12893110Y-18127640D01*
X13102634Y-18241925D02*
X13083587Y-18232402D01*
X13083587Y-18232402D02*
X13074063Y-18222878D01*
X13074063Y-18222878D02*
X13064539Y-18203830D01*
X13064539Y-18203830D02*
X13064539Y-18146687D01*
X13064539Y-18146687D02*
X13074063Y-18127640D01*
X13074063Y-18127640D02*
X13083587Y-18118116D01*
X13083587Y-18118116D02*
X13102634Y-18108592D01*
X13102634Y-18108592D02*
X13131206Y-18108592D01*
X13131206Y-18108592D02*
X13150253Y-18118116D01*
X13150253Y-18118116D02*
X13159777Y-18127640D01*
X13159777Y-18127640D02*
X13169301Y-18146687D01*
X13169301Y-18146687D02*
X13169301Y-18203830D01*
X13169301Y-18203830D02*
X13159777Y-18222878D01*
X13159777Y-18222878D02*
X13150253Y-18232402D01*
X13150253Y-18232402D02*
X13131206Y-18241925D01*
X13131206Y-18241925D02*
X13102634Y-18241925D01*
X13283587Y-18241925D02*
X13264539Y-18232402D01*
X13264539Y-18232402D02*
X13255015Y-18213354D01*
X13255015Y-18213354D02*
X13255015Y-18041925D01*
X13435968Y-18232402D02*
X13416920Y-18241925D01*
X13416920Y-18241925D02*
X13378825Y-18241925D01*
X13378825Y-18241925D02*
X13359777Y-18232402D01*
X13359777Y-18232402D02*
X13350253Y-18213354D01*
X13350253Y-18213354D02*
X13350253Y-18137164D01*
X13350253Y-18137164D02*
X13359777Y-18118116D01*
X13359777Y-18118116D02*
X13378825Y-18108592D01*
X13378825Y-18108592D02*
X13416920Y-18108592D01*
X13416920Y-18108592D02*
X13435968Y-18118116D01*
X13435968Y-18118116D02*
X13445491Y-18137164D01*
X13445491Y-18137164D02*
X13445491Y-18156211D01*
X13445491Y-18156211D02*
X13350253Y-18175259D01*
X13521682Y-18232402D02*
X13540730Y-18241925D01*
X13540730Y-18241925D02*
X13578825Y-18241925D01*
X13578825Y-18241925D02*
X13597872Y-18232402D01*
X13597872Y-18232402D02*
X13607396Y-18213354D01*
X13607396Y-18213354D02*
X13607396Y-18203830D01*
X13607396Y-18203830D02*
X13597872Y-18184783D01*
X13597872Y-18184783D02*
X13578825Y-18175259D01*
X13578825Y-18175259D02*
X13550253Y-18175259D01*
X13550253Y-18175259D02*
X13531206Y-18165735D01*
X13531206Y-18165735D02*
X13521682Y-18146687D01*
X13521682Y-18146687D02*
X13521682Y-18137164D01*
X13521682Y-18137164D02*
X13531206Y-18118116D01*
X13531206Y-18118116D02*
X13550253Y-18108592D01*
X13550253Y-18108592D02*
X13578825Y-18108592D01*
X13578825Y-18108592D02*
X13597872Y-18118116D01*
X13845492Y-18165735D02*
X13997873Y-18165735D01*
X13921682Y-18241925D02*
X13921682Y-18089544D01*
X14235968Y-18060973D02*
X14245492Y-18051449D01*
X14245492Y-18051449D02*
X14264539Y-18041925D01*
X14264539Y-18041925D02*
X14312158Y-18041925D01*
X14312158Y-18041925D02*
X14331206Y-18051449D01*
X14331206Y-18051449D02*
X14340730Y-18060973D01*
X14340730Y-18060973D02*
X14350253Y-18080021D01*
X14350253Y-18080021D02*
X14350253Y-18099068D01*
X14350253Y-18099068D02*
X14340730Y-18127640D01*
X14340730Y-18127640D02*
X14226444Y-18241925D01*
X14226444Y-18241925D02*
X14350253Y-18241925D01*
X14578825Y-18232402D02*
X14597873Y-18241925D01*
X14597873Y-18241925D02*
X14635968Y-18241925D01*
X14635968Y-18241925D02*
X14655015Y-18232402D01*
X14655015Y-18232402D02*
X14664539Y-18213354D01*
X14664539Y-18213354D02*
X14664539Y-18203830D01*
X14664539Y-18203830D02*
X14655015Y-18184783D01*
X14655015Y-18184783D02*
X14635968Y-18175259D01*
X14635968Y-18175259D02*
X14607396Y-18175259D01*
X14607396Y-18175259D02*
X14588349Y-18165735D01*
X14588349Y-18165735D02*
X14578825Y-18146687D01*
X14578825Y-18146687D02*
X14578825Y-18137164D01*
X14578825Y-18137164D02*
X14588349Y-18118116D01*
X14588349Y-18118116D02*
X14607396Y-18108592D01*
X14607396Y-18108592D02*
X14635968Y-18108592D01*
X14635968Y-18108592D02*
X14655015Y-18118116D01*
X14778825Y-18241925D02*
X14759777Y-18232402D01*
X14759777Y-18232402D02*
X14750254Y-18213354D01*
X14750254Y-18213354D02*
X14750254Y-18041925D01*
X14883587Y-18241925D02*
X14864539Y-18232402D01*
X14864539Y-18232402D02*
X14855015Y-18222878D01*
X14855015Y-18222878D02*
X14845492Y-18203830D01*
X14845492Y-18203830D02*
X14845492Y-18146687D01*
X14845492Y-18146687D02*
X14855015Y-18127640D01*
X14855015Y-18127640D02*
X14864539Y-18118116D01*
X14864539Y-18118116D02*
X14883587Y-18108592D01*
X14883587Y-18108592D02*
X14912158Y-18108592D01*
X14912158Y-18108592D02*
X14931206Y-18118116D01*
X14931206Y-18118116D02*
X14940730Y-18127640D01*
X14940730Y-18127640D02*
X14950254Y-18146687D01*
X14950254Y-18146687D02*
X14950254Y-18203830D01*
X14950254Y-18203830D02*
X14940730Y-18222878D01*
X14940730Y-18222878D02*
X14931206Y-18232402D01*
X14931206Y-18232402D02*
X14912158Y-18241925D01*
X14912158Y-18241925D02*
X14883587Y-18241925D01*
X15007396Y-18108592D02*
X15083587Y-18108592D01*
X15035968Y-18041925D02*
X15035968Y-18213354D01*
X15035968Y-18213354D02*
X15045492Y-18232402D01*
X15045492Y-18232402D02*
X15064539Y-18241925D01*
X15064539Y-18241925D02*
X15083587Y-18241925D01*
X15140730Y-18232402D02*
X15159777Y-18241925D01*
X15159777Y-18241925D02*
X15197873Y-18241925D01*
X15197873Y-18241925D02*
X15216920Y-18232402D01*
X15216920Y-18232402D02*
X15226444Y-18213354D01*
X15226444Y-18213354D02*
X15226444Y-18203830D01*
X15226444Y-18203830D02*
X15216920Y-18184783D01*
X15216920Y-18184783D02*
X15197873Y-18175259D01*
X15197873Y-18175259D02*
X15169301Y-18175259D01*
X15169301Y-18175259D02*
X15150254Y-18165735D01*
X15150254Y-18165735D02*
X15140730Y-18146687D01*
X15140730Y-18146687D02*
X15140730Y-18137164D01*
X15140730Y-18137164D02*
X15150254Y-18118116D01*
X15150254Y-18118116D02*
X15169301Y-18108592D01*
X15169301Y-18108592D02*
X15197873Y-18108592D01*
X15197873Y-18108592D02*
X15216920Y-18118116D01*
X15293111Y-18318116D02*
X15302635Y-18308592D01*
X15302635Y-18308592D02*
X15321682Y-18280021D01*
X15321682Y-18280021D02*
X15331206Y-18260973D01*
X15331206Y-18260973D02*
X15340730Y-18232402D01*
X15340730Y-18232402D02*
X15350254Y-18184783D01*
X15350254Y-18184783D02*
X15350254Y-18146687D01*
X15350254Y-18146687D02*
X15340730Y-18099068D01*
X15340730Y-18099068D02*
X15331206Y-18070497D01*
X15331206Y-18070497D02*
X15321682Y-18051449D01*
X15321682Y-18051449D02*
X15302635Y-18022878D01*
X15302635Y-18022878D02*
X15293111Y-18013354D01*
M02*
