%TF.GenerationSoftware,KiCad,Pcbnew,7.0.5*%
%TF.CreationDate,2023-06-03T10:59:01+02:00*%
%TF.ProjectId,electronix,656c6563-7472-46f6-9e69-782e6b696361,rev?*%
%TF.SameCoordinates,Original*%
%TF.FileFunction,Drillmap*%
%TF.FilePolarity,Positive*%
%FSLAX45Y45*%
G04 Gerber Fmt 4.5, Leading zero omitted, Abs format (unit mm)*
G04 Created by KiCad (PCBNEW 7.0.5) date 2023-06-03 10:59:01*
%MOMM*%
%LPD*%
G01*
G04 APERTURE LIST*
%ADD10C,0.500000*%
%ADD11C,0.200000*%
G04 APERTURE END LIST*
D10*
X16870373Y-8943938D02*
X16460000Y-9100000D01*
X16203794Y-9505765D02*
X16205442Y-14165442D01*
X17248399Y-7631711D02*
G75*
G03*
X15868769Y-6210000I-1374279J46651D01*
G01*
X15845442Y-14525442D02*
X10358558Y-14525442D01*
X8924000Y-8320000D02*
G75*
G03*
X9333627Y-8943938I680000J0D01*
G01*
X17248400Y-7631711D02*
X17280000Y-8320000D01*
X15845442Y-14525442D02*
G75*
G03*
X16205442Y-14165442I-2J360002D01*
G01*
X9333627Y-8943938D02*
X9744000Y-9100000D01*
X15868769Y-6210000D02*
X10334181Y-6210890D01*
X10334181Y-6210889D02*
G75*
G03*
X8960801Y-7631681I1J-1374173D01*
G01*
X8960800Y-7631681D02*
X8924000Y-8320000D01*
X10000206Y-9505765D02*
X9998558Y-14165442D01*
X16459998Y-9099996D02*
G75*
G03*
X16203794Y-9505765I172022J-392384D01*
G01*
X9998558Y-14165442D02*
G75*
G03*
X10358558Y-14525442I360002J2D01*
G01*
X10000202Y-9505765D02*
G75*
G03*
X9744000Y-9100000I-428222J13385D01*
G01*
X16870373Y-8943938D02*
G75*
G03*
X17280000Y-8320000I-270373J623938D01*
G01*
D11*
X9159777Y-14861925D02*
X9159777Y-14661925D01*
X9159777Y-14661925D02*
X9207396Y-14661925D01*
X9207396Y-14661925D02*
X9235967Y-14671449D01*
X9235967Y-14671449D02*
X9255015Y-14690497D01*
X9255015Y-14690497D02*
X9264539Y-14709544D01*
X9264539Y-14709544D02*
X9274063Y-14747640D01*
X9274063Y-14747640D02*
X9274063Y-14776211D01*
X9274063Y-14776211D02*
X9264539Y-14814306D01*
X9264539Y-14814306D02*
X9255015Y-14833354D01*
X9255015Y-14833354D02*
X9235967Y-14852402D01*
X9235967Y-14852402D02*
X9207396Y-14861925D01*
X9207396Y-14861925D02*
X9159777Y-14861925D01*
X9359777Y-14861925D02*
X9359777Y-14728592D01*
X9359777Y-14766687D02*
X9369301Y-14747640D01*
X9369301Y-14747640D02*
X9378824Y-14738116D01*
X9378824Y-14738116D02*
X9397872Y-14728592D01*
X9397872Y-14728592D02*
X9416920Y-14728592D01*
X9483586Y-14861925D02*
X9483586Y-14728592D01*
X9483586Y-14661925D02*
X9474063Y-14671449D01*
X9474063Y-14671449D02*
X9483586Y-14680973D01*
X9483586Y-14680973D02*
X9493110Y-14671449D01*
X9493110Y-14671449D02*
X9483586Y-14661925D01*
X9483586Y-14661925D02*
X9483586Y-14680973D01*
X9607396Y-14861925D02*
X9588348Y-14852402D01*
X9588348Y-14852402D02*
X9578824Y-14833354D01*
X9578824Y-14833354D02*
X9578824Y-14661925D01*
X9712158Y-14861925D02*
X9693110Y-14852402D01*
X9693110Y-14852402D02*
X9683586Y-14833354D01*
X9683586Y-14833354D02*
X9683586Y-14661925D01*
X9940729Y-14861925D02*
X9940729Y-14661925D01*
X9940729Y-14661925D02*
X10007396Y-14804782D01*
X10007396Y-14804782D02*
X10074063Y-14661925D01*
X10074063Y-14661925D02*
X10074063Y-14861925D01*
X10255015Y-14861925D02*
X10255015Y-14757163D01*
X10255015Y-14757163D02*
X10245491Y-14738116D01*
X10245491Y-14738116D02*
X10226444Y-14728592D01*
X10226444Y-14728592D02*
X10188348Y-14728592D01*
X10188348Y-14728592D02*
X10169301Y-14738116D01*
X10255015Y-14852402D02*
X10235967Y-14861925D01*
X10235967Y-14861925D02*
X10188348Y-14861925D01*
X10188348Y-14861925D02*
X10169301Y-14852402D01*
X10169301Y-14852402D02*
X10159777Y-14833354D01*
X10159777Y-14833354D02*
X10159777Y-14814306D01*
X10159777Y-14814306D02*
X10169301Y-14795259D01*
X10169301Y-14795259D02*
X10188348Y-14785735D01*
X10188348Y-14785735D02*
X10235967Y-14785735D01*
X10235967Y-14785735D02*
X10255015Y-14776211D01*
X10350253Y-14728592D02*
X10350253Y-14928592D01*
X10350253Y-14738116D02*
X10369301Y-14728592D01*
X10369301Y-14728592D02*
X10407396Y-14728592D01*
X10407396Y-14728592D02*
X10426444Y-14738116D01*
X10426444Y-14738116D02*
X10435967Y-14747640D01*
X10435967Y-14747640D02*
X10445491Y-14766687D01*
X10445491Y-14766687D02*
X10445491Y-14823830D01*
X10445491Y-14823830D02*
X10435967Y-14842878D01*
X10435967Y-14842878D02*
X10426444Y-14852402D01*
X10426444Y-14852402D02*
X10407396Y-14861925D01*
X10407396Y-14861925D02*
X10369301Y-14861925D01*
X10369301Y-14861925D02*
X10350253Y-14852402D01*
X10531205Y-14842878D02*
X10540729Y-14852402D01*
X10540729Y-14852402D02*
X10531205Y-14861925D01*
X10531205Y-14861925D02*
X10521682Y-14852402D01*
X10521682Y-14852402D02*
X10531205Y-14842878D01*
X10531205Y-14842878D02*
X10531205Y-14861925D01*
X10531205Y-14738116D02*
X10540729Y-14747640D01*
X10540729Y-14747640D02*
X10531205Y-14757163D01*
X10531205Y-14757163D02*
X10521682Y-14747640D01*
X10521682Y-14747640D02*
X10531205Y-14738116D01*
X10531205Y-14738116D02*
X10531205Y-14757163D01*
M02*
