M48
; DRILL file {KiCad 7.0.5} date Sat 03 Jun 2023 10:58:56 AM CEST
; FORMAT={-:-/ absolute / metric / decimal}
; #@! TF.CreationDate,2023-06-03T10:58:56+02:00
; #@! TF.GenerationSoftware,Kicad,Pcbnew,7.0.5
; #@! TF.FileFunction,Plated,1,2,PTH
FMAT,2
METRIC
; #@! TA.AperFunction,Plated,PTH,ComponentDrill
T1C0.200
; #@! TA.AperFunction,Plated,PTH,ViaDrill
T2C0.300
; #@! TA.AperFunction,Plated,PTH,ComponentDrill
T3C0.300
; #@! TA.AperFunction,Plated,PTH,ComponentDrill
T4C0.750
; #@! TA.AperFunction,Plated,PTH,ComponentDrill
T5C0.800
; #@! TA.AperFunction,Plated,PTH,ComponentDrill
T6C0.900
; #@! TA.AperFunction,Plated,PTH,ComponentDrill
T7C0.950
; #@! TA.AperFunction,Plated,PTH,ComponentDrill
T8C1.000
; #@! TA.AperFunction,Plated,PTH,ComponentDrill
T9C1.200
; #@! TA.AperFunction,Plated,PTH,ComponentDrill
T10C1.340
; #@! TA.AperFunction,Plated,PTH,ComponentDrill
T11C2.250
; #@! TA.AperFunction,Plated,PTH,ComponentDrill
T12C3.100
%
G90
G05
T1
X130.844Y-129.407
X130.844Y-130.347
X130.844Y-131.287
X131.994Y-129.407
X131.994Y-130.347
X131.994Y-131.287
T2
X92.5Y-71.5
X92.5Y-76.5
X92.5Y-81.5
X92.5Y-86.5
X97.5Y-66.5
X97.5Y-71.5
X97.5Y-76.5
X97.5Y-81.5
X97.5Y-86.5
X100.3Y-82.9
X101.4Y-91.5
X101.4Y-96.5
X101.4Y-101.5
X101.4Y-116.5
X101.4Y-121.4
X101.4Y-126.6
X101.4Y-131.5
X101.4Y-136.6
X101.4Y-142.3
X101.5Y-87.25
X102.1Y-83.5
X102.5Y-66.5
X102.5Y-76.5
X104.25Y-76.25
X105.2Y-86.7
X105.5Y-89.25
X106.1Y-116.5
X106.1Y-121.5
X106.2Y-101.7
X106.2Y-126.6
X106.5Y-79.25
X106.5Y-130.9
X106.9Y-96.5
X107.2Y-93.6
X107.3Y-131.5
X107.4Y-143.9
X107.5Y-66.5
X108.2Y-137.2
X108.4Y-134.2
X109.3Y-93.3
X109.3Y-94.2
X109.3Y-95.1
X109.3Y-96.0
X110.2Y-96.0
X110.5Y-80.25
X111.1Y-96.0
X111.75Y-131.0
X112.25Y-137.25
X112.5Y-66.5
X112.5Y-71.5
X112.5Y-88.0
X112.5Y-106.5
X112.5Y-111.5
X112.5Y-121.5
X112.5Y-126.5
X112.8Y-77.9
X112.9Y-101.6
X113.3Y-76.25
X113.7Y-75.3
X113.75Y-79.75
X113.9Y-99.6
X114.6Y-85.7
X115.4Y-84.5
X116.2Y-80.7
X116.35Y-126.45
X116.45Y-121.45
X116.45Y-131.35
X116.6Y-136.7
X116.7Y-112.4
X117.6Y-79.341
X118.5Y-81.881
X119.4Y-83.151
X119.6Y-86.9
X120.373Y-88.0
X120.6Y-78.1
X120.75Y-143.25
X121.2Y-95.8
X121.2Y-110.5
X121.2Y-111.4
X121.3Y-99.8
X121.3Y-103.4
X121.3Y-108.7
X121.4Y-134.7
X122.1Y-110.5
X122.1Y-111.4
X122.5Y-136.5
X122.75Y-93.5
X123.5Y-118.0
X123.5Y-120.2
X123.5Y-121.4
X123.5Y-122.6
X123.5Y-126.5
X125.25Y-98.0
X125.5Y-108.7
X125.5Y-113.2
X126.0Y-121.0
X126.3Y-99.9
X126.9Y-131.0
X127.25Y-92.0
X127.5Y-76.5
X127.5Y-86.5
X127.5Y-90.75
X127.6Y-130.4
X127.75Y-96.473
X128.2Y-131.0
X128.3Y-123.4
X128.6Y-103.8
X128.9Y-130.4
X129.0Y-119.75
X129.0Y-121.0
X129.0Y-141.5
X129.25Y-133.0
X129.25Y-135.0
X129.5Y-113.2
X129.6Y-123.4
X130.4Y-103.0
X130.8Y-122.2
X130.8Y-123.4
X131.0Y-100.5
X131.1Y-103.7
X131.2Y-126.5
X132.5Y-76.5
X132.5Y-86.5
X132.5Y-90.75
X132.5Y-106.5
X132.5Y-141.5
X132.8Y-102.2
X133.067Y-100.123
X133.5Y-132.25
X133.75Y-133.5
X135.1Y-95.0
X135.4Y-104.1
X135.4Y-106.6
X135.4Y-124.1
X135.8Y-133.8
X136.3Y-74.9
X136.648Y-95.0
X138.0Y-77.25
X138.6Y-97.3
X139.3Y-128.4
X139.5Y-114.5
X139.6Y-119.3
X139.7Y-117.1
X139.75Y-96.473
X139.837Y-93.037
X140.4Y-137.5
X140.6Y-103.8
X140.7Y-124.6
X140.8Y-107.6
X140.9Y-111.5
X141.2Y-87.0
X141.4Y-78.0
X141.4Y-82.0
X141.5Y-101.9
X142.2Y-96.4
X142.25Y-141.0
X143.2Y-87.3
X143.3Y-82.3
X143.5Y-116.2
X143.6Y-120.0
X143.8Y-78.2
X143.8Y-88.2
X144.6Y-79.6
X145.0Y-137.0
X145.4Y-111.5
X145.6Y-80.6
X146.5Y-85.691
X147.4Y-87.1
X147.5Y-81.5
X147.5Y-121.5
X147.5Y-126.5
X147.5Y-129.4
X147.75Y-76.5
X147.9Y-92.4
X147.9Y-97.5
X148.1Y-102.3
X148.5Y-107.4
X149.7Y-111.5
X150.9Y-136.4
X151.5Y-105.5
X151.5Y-143.0
X151.7Y-131.8
X151.8Y-97.3
X151.9Y-101.4
X152.0Y-76.5
X152.5Y-71.0
X152.5Y-116.5
X152.5Y-121.5
X152.5Y-126.5
X152.75Y-66.75
X153.0Y-76.052
X153.2Y-91.1
X156.2Y-132.6
X156.2Y-134.2
X156.25Y-86.25
X156.9Y-80.0
X157.257Y-97.907
X157.5Y-121.5
X157.5Y-126.5
X158.0Y-66.5
X158.0Y-71.0
X158.25Y-76.5
X159.75Y-131.25
X159.75Y-136.75
X159.75Y-143.0
X160.25Y-88.25
X160.75Y-104.25
X160.8Y-93.9
X160.8Y-113.9
X163.2Y-82.8
X163.5Y-66.5
X163.5Y-71.0
X163.8Y-77.1
X167.5Y-71.5
X167.5Y-76.5
X167.5Y-86.5
X168.3Y-80.9
T3
X128.841Y-82.108
X128.841Y-83.633
X129.603Y-81.346
X129.603Y-82.871
X129.603Y-84.396
X130.366Y-82.108
X130.366Y-83.633
X131.129Y-81.346
X131.129Y-82.871
X131.129Y-84.396
X131.891Y-82.108
X131.891Y-83.633
T4
X105.75Y-109.75
T5
X105.75Y-105.75
X105.75Y-107.75
T6
X98.869Y-87.753
X99.119Y-80.753
X99.841Y-85.407
X100.091Y-78.407
X100.954Y-72.597
X103.494Y-72.597
X108.204Y-72.597
X110.744Y-72.597
X151.339Y-72.73
X153.879Y-72.73
X158.588Y-72.754
X161.128Y-72.754
X161.906Y-78.611
X162.156Y-85.611
X162.878Y-80.957
X163.128Y-87.957
T7
X105.0Y-140.75
X107.5Y-140.75
X110.0Y-140.75
X112.5Y-140.75
X115.0Y-140.75
X117.5Y-140.75
X144.5Y-140.75
X147.0Y-140.75
X149.5Y-140.75
X152.0Y-140.75
X154.5Y-140.75
X157.0Y-140.75
T8
X105.75Y-103.75
X105.75Y-111.75
X115.775Y-108.025
X115.775Y-110.525
X115.8Y-99.525
X115.8Y-102.025
X146.75Y-91.15
X146.75Y-93.69
X146.75Y-96.23
X146.75Y-98.77
X146.75Y-101.31
X146.75Y-103.85
T9
X157.257Y-95.057
X157.257Y-101.457
X157.275Y-106.468
X157.275Y-112.867
T10
X126.43Y-137.55
X126.43Y-141.35
X135.07Y-137.55
X135.07Y-141.35
T11
X113.733Y-116.5G85X113.733Y-117.5
G05
X113.733Y-133.5G85X113.733Y-134.5
G05
X148.358Y-117.5G85X148.358Y-116.5
G05
X148.358Y-134.5G85X148.358Y-133.5
G05
T12
X111.546Y-84.0G85X110.546Y-84.0
G05
X151.546Y-84.0G85X150.546Y-84.0
G05
T0
M30
